<?xml version="1.0" standalone="no"?>
<!DOCTYPE svg PUBLIC "-//W3C//DTD SVG 1.1//EN" "http://www.w3.org/Graphics/SVG/1.1/DTD/svg11.dtd">
<svg version="1.1" xmlns="http://www.w3.org/2000/svg" xmlns:xlink="http://www.w3.org/1999/xlink"><metadata>This SVG WebFont was generated by YouWorkForThem.
</metadata><defs><font horiz-adv-x="422" id="ywftsvg"><font-face ascent="800" bbox="-120 -275 932 975" cap-height="700" descent="-200" font-family="" font-stretch="normal" font-weight="700" panose-1="0 0 0 0 0 0 0 0 0 0" underline-position="0" underline-thickness="0" unicode-range="U+0020-F025" units-per-em="1000" x-height="500"/><missing-glyph horiz-adv-x="600"/><glyph d="M10 0v2q24 16 32 34.5t8 64.5v384h-49v15h49q49 99 108 153t118 54v-177h-2l-81 53q-49 31 -63 14t22 -62l28 -35h105l128 138h2v-138h86v-15h-86v-365q0 -46 28 -46q11 0 23.5 8t42.5 35l2 -2l-36 -63q-21 -37 -41.5 -52t-50.5 -15q-42 0 -70 35t-28 110v355h-105v-384 q0 -46 10 -64.5t38 -34.5v-2h-218z" glyph-name="uniF024" horiz-adv-x="521" unicode="ft"/><glyph d="M383 -15q-42 0 -70 35t-28 110v355h-105v-365q0 -46 28 -46q11 0 23.5 8t42.5 35l2 -2l-36 -63q-21 -37 -41.5 -52t-50.5 -15q-42 0 -70 35t-28 110v355h-49v15h49l128 138h2v-138h105l128 138h2v-138h86v-15h-86v-365q0 -46 28 -46q11 0 23.5 8t42.5 35l2 -2l-36 -63 q-21 -37 -41.5 -52t-50.5 -15z" glyph-name="uniF025" horiz-adv-x="521" unicode="tt"/><glyph d="M10 0v2q24 16 32 34.5t8 64.5v384h-49v15h49q50 102 117 151t168 49h80v-293h2l35 49q42 59 96 59q56 0 91.5 -62t35.5 -200t-36 -203t-92 -65q-53 0 -95 59l-39 54h-2l-6 -98h-160v2q24 16 32 34.5t8 64.5v477l-35 11q-115 36 -119 -5q-2 -18 22 -49l27 -35h56v-15h-56 v-384q0 -46 8 -64.5t32 -34.5v-2h-210zM477 55q29 0 43.5 42t14.5 153t-14.5 153t-42.5 42q-32 0 -47.5 -45.5t-15.5 -151.5q0 -103 15 -148t47 -45z" glyph-name="f_b.liga" horiz-adv-x="695" unicode="fb"/><glyph d="M245 0v2q24 16 32 34.5t8 64.5v384h-105v-384q0 -46 10 -64.5t38 -34.5v-2h-218v2q24 16 32 34.5t8 64.5v384h-49v15h49q49 99 108 153t118 54v-177h-2l-81 53q-49 31 -63 14t22 -62l28 -35h105q49 99 108 153t118 54v-177h-2l-81 53q-49 31 -63 14t22 -62l28 -35h96v-15 h-96v-384q0 -46 10 -64.5t38 -34.5v-2h-218z" glyph-name="f_f.liga" horiz-adv-x="521" unicode="ff"/><glyph d="M10 0v2q24 16 32 34.5t8 64.5v384h-49v15h49q49 99 108 153t118 54v-177h-2l-81 53q-49 31 -63 14t22 -62l28 -35h105q48 97 129.5 152t172.5 55v-177h-2l-85 49q-92 53 -113 20q-13 -20 10 -64l18 -35h275v-2q-24 -16 -32 -34.5t-8 -64.5v-298q0 -46 8 -64.5t32 -34.5 v-2h-210v2q24 16 32 34.5t8 64.5v275q0 60 -13.5 84.5t-56.5 24.5h-35v-384q0 -46 10 -64.5t38 -34.5v-2h-218v2q24 16 32 34.5t8 64.5v384h-105v-384q0 -46 10 -64.5t38 -34.5v-2h-218z" glyph-name="f_f_i.liga" horiz-adv-x="700" unicode="ffi"/><glyph d="M245 0v2q24 16 32 34.5t8 64.5v384h-105v-384q0 -46 10 -64.5t38 -34.5v-2h-218v2q24 16 32 34.5t8 64.5v384h-49v15h49q49 99 108 153t118 54v-177h-2l-81 53q-49 31 -63 14t22 -62l28 -35h105q50 102 117 151t168 49h80v-599q0 -46 8 -64.5t32 -34.5v-2h-210v2 q24 16 32 34.5t8 64.5v477l-35 11q-115 36 -119 -5q-2 -18 22 -49l27 -35h56v-15h-56v-384q0 -46 8 -64.5t32 -34.5v-2h-210z" glyph-name="f_f_l.liga" horiz-adv-x="700" unicode="ffl"/><glyph d="M10 0v2q24 16 32 34.5t8 64.5v384h-49v15h49q50 102 117 151t168 49h80v-315h2l40 61q24 37 47 53t55 16q48 0 77 -34.5t29 -110.5v-269q0 -46 8 -64.5t32 -34.5v-2h-206v2q21 16 28.5 34.5t7.5 64.5v289q0 26 -12 39.5t-28 13.5q-18 0 -35 -15t-31 -59t-14 -112v-156 q0 -46 7.5 -64.5t28.5 -34.5v-2h-206v2q24 16 32 34.5t8 64.5v477l-35 11q-115 36 -119 -5q-2 -18 22 -49l27 -35h56v-15h-56v-384q0 -46 8 -64.5t32 -34.5v-2h-210z" glyph-name="f_h.liga" horiz-adv-x="715" unicode="fh"/><glyph d="M10 0v2q24 16 32 34.5t8 64.5v384h-49v15h49q48 97 129.5 152t172.5 55v-177h-2l-85 49q-92 53 -113 20q-13 -20 10 -64l18 -35h275v-2q-24 -16 -32 -34.5t-8 -64.5v-298q0 -46 8 -64.5t32 -34.5v-2h-210v2q24 16 32 34.5t8 64.5v275q0 60 -13.5 84.5t-56.5 24.5h-35 v-384q0 -46 10 -64.5t38 -34.5v-2h-218z" glyph-name="f_i.liga" horiz-adv-x="465" unicode="fi"/><glyph d="M10 0v2q24 16 32 34.5t8 64.5v384h-49v15h49q48 97 129.5 152t172.5 55v-177h-2l-85 49q-92 53 -113 20q-13 -20 10 -64l18 -35h275v-2q-24 -16 -32 -34.5t-8 -64.5v-276q0 -74 -27 -134.5t-98 -138.5l-46 -50l-2 2l7 12q36 63 36 186v376q0 60 -13.5 84.5t-56.5 24.5 h-35v-384q0 -46 10 -64.5t38 -34.5v-2h-218z" glyph-name="f_j.liga" horiz-adv-x="465" unicode="fj"/><glyph d="M10 0v2q24 16 32 34.5t8 64.5v384h-49v15h49q50 102 117 151t168 49h80v-490h2l90 142q26 40 26 67.5t-36 78.5v2h176v-2q-90 -47 -117 -90q-17 -32 -16 -53t18 -62l122 -293h-177v2q22 17 21.5 31t-19.5 61l-56 137l-34 -51v-79q0 -46 8 -64.5t32 -34.5v-2h-210v2 q24 16 32 34.5t8 64.5v477l-35 11q-115 36 -119 -5q-2 -18 22 -49l27 -35h56v-15h-56v-384q0 -46 8 -64.5t32 -34.5v-2h-210z" glyph-name="f_k.liga" horiz-adv-x="685" unicode="fk"/><glyph d="M10 0v2q24 16 32 34.5t8 64.5v384h-49v15h49q50 102 117 151t168 49h80v-599q0 -46 8 -64.5t32 -34.5v-2h-210v2q24 16 32 34.5t8 64.5v477l-35 11q-115 36 -119 -5q-2 -18 22 -49l27 -35h56v-15h-56v-384q0 -46 8 -64.5t32 -34.5v-2h-210z" glyph-name="f_l.liga" horiz-adv-x="465" unicode="fl"/><glyph glyph-name=".notdef" horiz-adv-x="600"/><glyph glyph-name="glyph1" horiz-adv-x="0"/><glyph glyph-name="glyph2" horiz-adv-x="333"/><glyph glyph-name="space" horiz-adv-x="160" unicode=" "/><glyph d="M125 171q-10 104 -39 261.5t-40 267.5h160q-11 -107 -40 -265t-39 -264h-2zM125 -120q-18 54 -41.5 77.5t-77.5 41.5v2q55 18 78 41t41 78h2q19 -55 41.5 -77.5t77.5 -41.5v-2q-54 -18 -77 -41t-42 -78h-2z" glyph-name="exclam" horiz-adv-x="252" unicode="!"/><glyph d="M299 375q-10 63 -39 160t-40 165h160q-11 -67 -40 -164t-39 -161h-2zM109 375q-10 63 -39 160t-40 165h160q-11 -67 -40 -164t-39 -161h-2z" glyph-name="quotedbl" horiz-adv-x="410" unicode="&quot;"/><glyph d="M197 0l46 262h-14h-55l-26 -1l-46 -261h-33l46 260l-95 -2l5 25l93 -3l25 141l-103 -3l5 25l101 -3l46 260h33l-46 -261l15 -1q27 -2 55 0l25 1l46 261h33l-46 -260l95 3l-5 -25l-93 3l-25 -141l103 3l-5 -25l-101 3l-46 -261h-33zM151 279l23 -1q28 -2 55 0l17 1l25 142 l-22 1h-55h-18z" glyph-name="numbersign" unicode="#"/><glyph d="M200 -65v67q-73 3 -123.5 44t-61.5 107l147 105l2 -1l-17 -98q-10 -60 4 -95.5t49 -40.5v243l-93 92q-76 73 -76 169q0 75 48 122t121 49v67h20v-67q67 -4 111 -42.5t52 -97.5l-129 -93l-2 2l18 84q12 56 -2 88.5t-48 37.5v-234l101 -99q83 -80 83 -168q0 -75 -52 -123 t-132 -51v-67h-20zM139 595q0 -73 55 -127l6 -6v216q-27 -3 -44 -25.5t-17 -57.5zM220 23q29 3 46.5 25t17.5 62q0 69 -64 136v-223z" glyph-name="dollar" horiz-adv-x="419" unicode="$"/><glyph d="M152 336q-65 0 -103.5 51t-38.5 139q0 87 38.5 138t103.5 51q64 0 102 -51t38 -138q0 -88 -37.5 -139t-102.5 -51zM443 -15q-65 0 -103.5 51t-38.5 139q0 87 38.5 138t103.5 51q64 0 102 -51t38 -138q0 -88 -37.5 -139t-102.5 -51zM442 5q30 0 43 39.5t13 126.5 q0 173 -56 173t-56 -173q0 -88 13.5 -127t42.5 -39zM125 0l302 700h41l-302 -700h-41zM152 356q55 0 55 162q0 177 -55 177q-30 0 -43.5 -42t-13.5 -135q0 -85 13.5 -123.5t43.5 -38.5z" glyph-name="percent" horiz-adv-x="593" unicode="%"/><glyph d="M208 -15q-81 0 -129.5 49t-48.5 125q0 131 141 195q-78 128 -78 212q0 62 42.5 105.5t125.5 43.5q76 0 116 -37.5t40 -100.5q0 -101 -125 -163q65 -103 172 -225q25 54 15 113t-46 89l-20 17v2h201q-53 -134 -135 -238q82 -92 166 -170v-2h-177q-23 21 -73 71 q-82 -86 -187 -86zM161 216q0 -77 36 -115.5t101 -38.5q46 0 83 24q-121 130 -194 243q-26 -54 -26 -113zM210 624q0 -73 68 -188q39 61 39 145q0 113 -57 113q-23 0 -36.5 -18.5t-13.5 -51.5z" glyph-name="ampersand" horiz-adv-x="647" unicode="&amp;"/><glyph d="M89 375q-10 63 -39 160t-40 165h160q-11 -67 -40 -164t-39 -161h-2z" glyph-name="quotesingle" horiz-adv-x="180" unicode="'"/><glyph d="M280 -110q-100 64 -165 178.5t-65 281.5t65 281.5t165 178.5l2 -2q-53 -66 -87.5 -193.5t-34.5 -264.5t34.5 -264.5t87.5 -193.5z" glyph-name="parenleft" horiz-adv-x="292" unicode="("/><glyph d="M10 -108q53 66 87.5 193.5t34.5 264.5t-34.5 264.5t-87.5 193.5l2 2q100 -64 165 -178.5t65 -281.5t-65 -281.5t-165 -178.5z" glyph-name="parenright" horiz-adv-x="292" unicode=")"/><glyph d="M40 453q18 21 36.5 35t46 29.5t43.5 26.5q-18 -1 -51 -5t-55.5 -3.5t-49.5 7.5l33 101q26 -11 44.5 -24t42.5 -34.5t39 -33.5q-7 18 -20.5 47.5t-20 51t-8.5 49.5h106q-2 -28 -8.5 -49.5t-20 -51t-20.5 -47.5q15 12 39 33.5t42.5 34.5t44.5 24l33 -101q-27 -7 -49.5 -7.5 t-55.5 3.5t-51 5q16 -11 43.5 -26.5t46 -29.5t36.5 -35l-85 -63q-14 24 -21.5 44.5t-15 55t-11.5 48.5q-4 -14 -11.5 -48.5t-15 -55t-21.5 -44.5z" glyph-name="asterisk" horiz-adv-x="346" unicode="*"/><glyph d="M196 279q0 20 -19 20l-147 -4l5 25l142 -4q19 0 19 19v162l31 3v-164q0 -20 19 -20l146 4l-5 -25l-141 4q-19 0 -19 -19v-163l-31 -3v165z" glyph-name="plus" unicode="+"/><glyph d="M44 -200l-2 2l43 198h-60v2l100 138q90 -28 90 -96q0 -39 -33.5 -88t-137.5 -156z" glyph-name="comma" horiz-adv-x="247" unicode=","/><glyph d="M30 267l5 25l129 -5q27 -2 55 0l133 5l-5 -25l-128 4q-27 2 -55 0z" glyph-name="hyphen" horiz-adv-x="382" unicode="-"/><glyph d="M139 -120q-18 54 -41.5 77.5t-77.5 41.5v2q55 18 78 41t41 78h2q19 -55 41.5 -77.5t77.5 -41.5v-2q-54 -18 -77 -41t-42 -78h-2z" glyph-name="period" horiz-adv-x="280" unicode="."/><glyph d="M51 -100h-41l178 900h41z" glyph-name="slash" horiz-adv-x="239" unicode="/"/><glyph d="M223 -15q-92 0 -147.5 100t-55.5 266q0 165 55.5 264.5t147.5 99.5t148 -99.5t56 -264.5q0 -166 -56 -266t-148 -100zM223 5q64 0 64 346q0 344 -64 344q-63 0 -63 -344q0 -346 63 -346z" glyph-name="zero" horiz-adv-x="447" unicode="0"/><glyph d="M30 0v2q24 16 32 34.5t8 64.5l-1 360q0 31 -9 33t-53 -20l-2 3l192 238h2l1 -614q0 -46 8 -64.5t32 -34.5v-2h-210z" glyph-name="one" horiz-adv-x="250" unicode="1"/><glyph d="M188 384q55 115 55 208q0 102 -61 102q-37 0 -49 -38.5t3 -104.5l16 -69l-2 -2l-135 88q42 147 186 147q80 0 129 -44.5t49 -125.5q0 -57 -28.5 -113t-98.5 -133l-171 -189h199q43 0 60 7.5t39 35.5h2l-12 -153h-364z" glyph-name="two" horiz-adv-x="401" unicode="2"/><glyph d="M20 -12q97 25 165 94t68 165q0 70 -37 101.5t-98 15.5l-19 -5l-6 18l28 9q61 19 90 74.5t29 118.5q0 54 -20 84.5t-50 30.5q-63 0 -34 -133l15 -69l-1 -2l-135 88q15 63 61.5 100t121.5 37q78 0 123.5 -40t45.5 -105q0 -127 -181 -179v-2q96 15 150 -22t54 -110 q0 -62 -38.5 -118t-124.5 -99.5t-206 -54.5z" glyph-name="three" horiz-adv-x="410" unicode="3"/><glyph d="M176 0v2q24 16 32 34.5t8 64.5v51h-211v2l341 561h2v-453h83l-9 -110h-74v-51q0 -46 8 -64.5t32 -34.5v-2h-212zM93 262h123v199z" glyph-name="four" horiz-adv-x="441" unicode="4"/><glyph d="M19 -12q100 22 165 98t65 183q0 142 -96 142q-56 0 -93 -78h-12l33 367h295l-12 -130h-276l-15 -178h2q61 36 91.5 47.5t63.5 11.5q72 0 115.5 -47.5t43.5 -126.5q0 -113 -98.5 -195.5t-270.5 -96.5z" glyph-name="five" horiz-adv-x="409" unicode="5"/><glyph d="M376 712q-95 -25 -159 -115t-57 -231h2q70 47 116 47q60 0 101 -52.5t41 -148.5q0 -98 -53 -162.5t-134 -64.5q-56 0 -98.5 25t-67 67.5t-36 92.5t-11.5 107q0 195 95 310t260 128zM220 382q-30 0 -44 -42.5t-14 -138.5q0 -196 61 -196q57 0 57 187q0 100 -14 145t-46 45 z" glyph-name="six" horiz-adv-x="440" unicode="6"/><glyph d="M20 0l283 570h-196q-43 0 -60 -7.5t-39 -35.5h-2l16 173h331l-163 -700h-170z" glyph-name="seven" horiz-adv-x="358" unicode="7"/><glyph d="M221 -15q-92 0 -146.5 58t-54.5 158q0 84 42.5 138.5t116.5 67.5v2q-54 11 -85 50t-31 99q0 72 42.5 114.5t115.5 42.5q72 0 114 -42.5t42 -114.5q0 -59 -30.5 -98.5t-84.5 -50.5v-2q74 -13 116 -67.5t42 -138.5q0 -100 -53.5 -158t-145.5 -58zM160 191q0 -191 61 -191 q59 0 59 191q0 206 -59 206q-61 0 -61 -206zM176 551q0 -134 45 -134q43 0 43 134q0 149 -43 149q-45 0 -45 -149z" glyph-name="eight" horiz-adv-x="440" unicode="8"/><glyph d="M44 -12q103 24 173 114.5t63 231.5h-2q-71 -47 -116 -47q-60 0 -101 52.5t-41 148.5q0 98 53 162.5t134 64.5q56 0 98.5 -25t67 -67.5t36 -92.5t11.5 -107q0 -196 -98 -310.5t-277 -127.5zM220 318q30 0 44 42.5t14 138.5q0 196 -61 196q-57 0 -57 -187q0 -100 14 -145 t46 -45z" glyph-name="nine" horiz-adv-x="440" unicode="9"/><glyph d="M139 -120q-18 54 -41.5 77.5t-77.5 41.5v2q55 18 78 41t41 78h2q19 -55 41.5 -77.5t77.5 -41.5v-2q-54 -18 -77 -41t-42 -78h-2zM139 275q-18 54 -41.5 77.5t-77.5 41.5v2q55 18 78 41t41 78h2q19 -55 41.5 -77.5t77.5 -41.5v-2q-54 -18 -77 -41t-42 -78h-2z" glyph-name="colon" horiz-adv-x="280" unicode=":"/><glyph d="M138 275q-18 54 -41.5 77.5t-77.5 41.5v2q55 18 78 41t41 78h2q19 -55 41.5 -77.5t77.5 -41.5v-2q-54 -18 -77 -41t-42 -78h-2zM58 -200l-2 2l43 198h-60v2l100 138q90 -28 90 -96q0 -39 -33.5 -88t-137.5 -156z" glyph-name="semicolon" horiz-adv-x="278" unicode=";"/><glyph d="M387 0q-229 160 -357 234l4 30q145 87 358 236l-5 -34q-157 -92 -332 -218q196 -138 337 -219z" glyph-name="less" unicode="&lt;"/><glyph d="M30 375l5 25l149 -5q28 -2 55 0l153 5l-5 -25l-148 4h-55zM30 215l5 25l149 -5q28 -2 55 0l153 5l-5 -25l-148 4h-55z" glyph-name="equal" unicode="="/><glyph d="M35 34q157 92 332 218q-196 138 -337 219l5 29q229 -160 357 -234l-4 -30q-145 -87 -358 -236z" glyph-name="greater" unicode=">"/><glyph d="M173 154q-34 58 -44.5 109.5t6 108t65.5 114.5q64 75 64 135q0 34 -17.5 53.5t-47.5 19.5q-42 0 -59 -38.5t-2 -104.5l16 -69l-2 -2l-135 88q20 70 69 108.5t123 38.5q78 0 122.5 -46.5t44.5 -115.5q0 -47 -24 -90.5t-80 -95.5q-95 -88 -97 -213h-2zM175 -120 q-18 54 -41.5 77.5t-77.5 41.5v2q55 18 78 41t41 78h2q19 -55 41.5 -77.5t77.5 -41.5v-2q-54 -18 -77 -41t-42 -78h-2z" glyph-name="question" horiz-adv-x="389" unicode="?"/><glyph d="M353 -115q-152 0 -242.5 93t-90.5 259q0 80 23.5 133.5t78.5 110.5q62 64 125 94t150 30q149 0 239.5 -80t90.5 -216q0 -54 -17.5 -98t-60.5 -94q-75 -88 -142 -88q-70 0 -75 93h-2l-34 -47q-37 -51 -80 -51q-50 0 -82 56.5t-32 177.5q0 119 32 173t81 54q44 0 81 -51 l31 -43h2l7 81h106v-350q0 -35 3.5 -48t15.5 -13q27 0 46 62t19 147q0 152 -65.5 236t-176.5 84q-118 0 -190.5 -91.5t-72.5 -239.5t76.5 -232.5t215.5 -84.5q134 0 220 68l2 -2q-72 -63 -134.5 -93t-147.5 -30zM376 85q53 0 53 167q0 172 -54 172q-51 0 -51 -169 q0 -170 52 -170z" glyph-name="at" horiz-adv-x="747" unicode="@"/><glyph d="M5 2q56 63 102 281l54 256q14 62 -3 127l-8 34h142l184 -700h-185v2q22 15 24.5 32.5t-10.5 63.5l-30 115h-161q-12 -117 54 -211v-2h-163v2zM116 233h154l-85 323h-2l-58 -273q-6 -28 -9 -50z" glyph-name="A" horiz-adv-x="496" unicode="A"/><glyph d="M280 0h-270v2q24 16 32 34.5t8 64.5v498q0 46 -8 64.5t-32 34.5v2h299q132 0 132 -87q0 -48 -61 -107q-33 -31 -36.5 -60t19.5 -60q68 -95 90.5 -141t22.5 -88q0 -72 -51.5 -114.5t-144.5 -42.5zM190 20q128 0 128 134q0 42 -12.5 91.5t-51.5 149.5h-2l-62 -56v-319z M190 362q112 121 112 216q0 102 -112 102v-318z" glyph-name="B" horiz-adv-x="491" unicode="B"/><glyph d="M248 -15q-102 0 -165 101.5t-63 265.5t64 263.5t170 99.5q71 0 123.5 -44t63.5 -108l-152 -95l-3 3l23 87q16 72 4.5 104t-41.5 32q-44 0 -73 -72.5t-29 -220.5q0 -163 37 -243.5t104 -80.5q52 0 85.5 42t65.5 121l3 -2q-22 -120 -79.5 -186.5t-137.5 -66.5z" glyph-name="C" horiz-adv-x="475" unicode="C"/><glyph d="M10 0v2q24 16 32 34.5t8 64.5v498q0 46 -8 64.5t-32 34.5v2h187q133 0 213.5 -95t80.5 -253q0 -160 -80.5 -256t-213.5 -96h-187zM190 20h6q75 0 110 78t35 246q0 336 -145 336h-6v-660z" glyph-name="D" horiz-adv-x="511" unicode="D"/><glyph d="M10 0v2q24 16 32 34.5t8 64.5v498q0 46 -8 64.5t-32 34.5v2h409v-202h-2q-71 118 -102.5 150t-90.5 32h-34v-289h19q32 0 58 28.5t60 100.5h2l20 -276h-2q-45 70 -75.5 98.5t-62.5 28.5h-19v-351h29q32 0 55.5 14t59.5 63t94 152h2l-19 -249h-401z" glyph-name="E" horiz-adv-x="450" unicode="E"/><glyph d="M10 0v2q24 16 32 34.5t8 64.5v498q0 46 -8 64.5t-32 34.5v2h419v-202h-2q-71 118 -102.5 150t-90.5 32h-44v-309h19q32 0 58 28.5t60 100.5h2l20 -276h-2q-45 70 -75.5 98.5t-62.5 28.5h-19v-250q0 -46 8 -64.5t32 -34.5v-2h-220z" glyph-name="F" horiz-adv-x="449" unicode="F"/><glyph d="M245 -15q-100 0 -162.5 100.5t-62.5 263.5q0 166 66 266t173 100q72 0 126.5 -44t65.5 -108l-152 -95l-3 3l23 87q15 72 0.5 104t-48.5 32q-51 0 -76 -79t-25 -249q0 -183 26.5 -265t81.5 -82q20 0 38 18t18 56v228h-90v20h221v-356h-2l-115 76q-20 -76 -103 -76z" glyph-name="G" horiz-adv-x="505" unicode="G"/><glyph d="M230 700v-2q-24 -16 -32 -34.5t-8 -64.5v-208h130v208q0 46 -8 64.5t-32 34.5v2h220v-2q-24 -16 -32 -34.5t-8 -64.5v-498q0 -46 8 -64.5t32 -34.5v-2h-220v2q24 16 32 34.5t8 64.5v270h-130v-270q0 -46 8 -64.5t32 -34.5v-2h-220v2q24 16 32 34.5t8 64.5v498 q0 46 -8 64.5t-32 34.5v2h220z" glyph-name="H" horiz-adv-x="510" unicode="H"/><glyph d="M230 700v-2q-24 -16 -32 -34.5t-8 -64.5v-498q0 -46 8 -64.5t32 -34.5v-2h-220v2q24 16 32 34.5t8 64.5v498q0 46 -8 64.5t-32 34.5v2h220z" glyph-name="I" horiz-adv-x="240" unicode="I"/><glyph d="M159 -15q-66 0 -106 43t-48 117l165 123l1 -2l-34 -117q-41 -144 25 -144q34 0 55 36t21 110v448q0 46 -8 64.5t-32 34.5v2h180v-400q0 -82 -15 -132.5t-54 -98.5q-68 -84 -150 -84z" glyph-name="J" horiz-adv-x="413" unicode="J"/><glyph d="M10 0v2q24 16 32 34.5t8 64.5v498q0 46 -8 64.5t-32 34.5v2h220v-2q-24 -16 -32 -34.5t-8 -64.5v-297l142 256q20 34 15 67.5t-40 72.5v2h201v-2q-120 -69 -156 -140q-18 -36 -15 -76.5t28 -107.5l143 -374h-217v2q23 15 26.5 32.5t-6.5 64.5l-57 275l-64 -115v-158 q0 -46 8 -64.5t32 -34.5v-2h-220z" glyph-name="K" horiz-adv-x="513" unicode="K"/><glyph d="M10 0v2q24 16 32 34.5t8 64.5v498q0 46 -8 64.5t-32 34.5v2h220v-2q-24 -16 -32 -34.5t-8 -64.5v-579h29q35 0 60.5 17.5t63.5 75t98 176.5h2l-22 -289h-411z" glyph-name="L" horiz-adv-x="453" unicode="L"/><glyph d="M5 2q26 45 38 109t19 172l15 236q7 96 -18 145l-17 34v2h148l168 -403h2l98 259q21 56 13 128l-2 16h187v-2q-23 -15 -29.5 -33.5t-2.5 -65.5l50 -599h-180v2q23 15 29.5 33.5t2.5 65.5l-39 467h-2l-182 -482h-2l-198 477h-2l-18 -280q-6 -96 13.5 -158.5t73.5 -122.5v-2 h-165v2z" glyph-name="M" horiz-adv-x="694" unicode="M"/><glyph d="M426 -15l-343 574h-2v-276q0 -92 20.5 -154.5t72.5 -126.5v-2h-169v2q29 38 42.5 101.5t13.5 179.5v255q0 40 -5.5 62.5t-26.5 57.5l-24 40v2h162l239 -411h2v128q0 91 -18.5 153.5t-64.5 127.5v2h159v-2q-31 -58 -43.5 -120.5t-12.5 -160.5v-432h-2z" glyph-name="N" horiz-adv-x="489" unicode="N"/><glyph d="M266 -15q-111 0 -178.5 100.5t-67.5 265.5t67.5 264.5t178.5 99.5t178 -99t67 -265t-67 -266t-178 -100zM266 5q49 0 72 81t23 257q0 352 -95 352q-96 0 -96 -352q0 -175 23 -256.5t73 -81.5z" glyph-name="O" horiz-adv-x="531" unicode="O"/><glyph d="M10 0v2q24 16 32 34.5t8 64.5v498q0 46 -8 64.5t-32 34.5v2h280q156 0 156 -112q0 -40 -27.5 -80.5t-72.5 -81.5t-156 -135v-190q0 -46 8 -64.5t32 -34.5v-2h-220zM190 311q116 131 116 246q0 65 -28.5 94t-87.5 29v-369z" glyph-name="P" horiz-adv-x="456" unicode="P"/><glyph d="M125 -165v2l148 150l-2 2q-8 -4 -22 -4q-104 0 -166.5 100.5t-62.5 266.5q0 164 67.5 263.5t179.5 99.5q108 0 176 -97t68 -241q0 -181 -150 -331l-95 -94h112q39 0 57 12t17 41h2l57 -108q0 -34 -27.5 -48t-88.5 -14h-270zM266 5q49 0 72 80.5t23 251.5q0 358 -95 358 q-49 0 -72.5 -87t-23.5 -271q0 -171 23.5 -251.5t72.5 -80.5z" glyph-name="Q" horiz-adv-x="526" unicode="Q"/><glyph d="M10 0v2q24 16 32 34.5t8 64.5v498q0 46 -8 64.5t-32 34.5v2h330q118 0 118 -84q0 -30 -20 -59.5t-69 -77.5q-27 -27 -28 -57t20 -78l137 -344h-213v2q22 15 25 32.5t-8 63.5l-62 268h-2l-48 -44v-221q0 -46 8 -64.5t32 -34.5v-2h-220zM190 351q69 69 97.5 121t28.5 103 q0 55 -30.5 80t-95.5 25v-329z" glyph-name="R" horiz-adv-x="503" unicode="R"/><glyph d="M220 -15q-81 0 -137 43.5t-68 115.5l154 110l2 -2l-18 -102q-12 -68 6 -106t61 -38q33 0 54.5 24t21.5 68q0 76 -73 149l-112 111q-80 79 -80 177q0 81 53 130.5t132 49.5q76 0 126 -41t58 -106l-135 -98l-2 2l19 88q14 64 -5 99t-60 35q-31 0 -51.5 -23.5t-20.5 -63.5 q0 -77 57 -133l133 -130q87 -84 87 -176q0 -81 -57 -132t-145 -51z" glyph-name="S" horiz-adv-x="437" unicode="S"/><glyph d="M440 700l18 -232h-2q-68 136 -94 174t-56 38h-2v-579q0 -46 8 -64.5t32 -34.5v-2h-220v2q24 16 32 34.5t8 64.5v579h-2q-30 0 -56 -38t-94 -174h-2l18 232h412z" glyph-name="T" horiz-adv-x="468" unicode="T"/><glyph d="M234 -15q-85 0 -137 62.5t-52 172.5v379q0 46 -8 64.5t-32 34.5v2h220v-2q-24 -16 -32 -34.5t-8 -64.5v-379q0 -81 25 -129t77 -48q101 0 101 175v199q0 90 -18.5 153t-64.5 128v2h159v-2q-31 -58 -43.5 -120.5t-12.5 -160.5v-199q0 -111 -45.5 -172t-128.5 -61z" glyph-name="U" horiz-adv-x="474" unicode="U"/><glyph d="M193 0l-178 700h190v-2q-22 -15 -24.5 -32.5t9.5 -63.5l115 -452h2l52 267q18 97 8.5 159t-51.5 122v2h163v-2q-38 -61 -59 -124.5t-40 -156.5l-51 -256q-8 -35 -7.5 -57t8.5 -59l10 -45h-147z" glyph-name="V" horiz-adv-x="484" unicode="V"/><glyph d="M170 0l-155 700h191v-2q-22 -15 -25.5 -32.5t6.5 -64.5l95 -454h2l61 314q8 47 -1 88l-33 151h151l116 -553h2l53 270q18 98 7.5 159.5t-52.5 121.5v2h163v-2q-62 -108 -97 -282l-51 -256q-12 -63 1 -120l9 -40h-147l-100 451h-2l-57 -291q-14 -64 0 -118l10 -42h-147z " glyph-name="W" horiz-adv-x="756" unicode="W"/><glyph d="M469 0h-195v2q22 17 21.5 31t-19.5 61l-82 199l-4 -10q-26 -57 -32.5 -103t1.5 -84.5t31 -93.5v-2h-185v2q57 60 90 120t73 161l15 38l-154 379h195v-2q-22 -17 -21.5 -30.5t19.5 -60.5l63 -154l3 7q46 117 -4 238v2h171l-2 -2q-37 -40 -66 -85.5t-41.5 -72t-43.5 -97.5 l-7 -15z" glyph-name="X" horiz-adv-x="474" unicode="X"/><glyph d="M123 0v2q24 16 32 34.5t8 64.5v209l-158 390h197v-2q-22 -14 -22 -31.5t17 -61.5l90 -242h2l24 74q25 70 22.5 133.5t-39.5 127.5v2h171v-2q-38 -38 -69 -100.5t-69 -179.5l-26 -79v-238q0 -46 8 -64.5t32 -34.5v-2h-220z" glyph-name="Y" horiz-adv-x="472" unicode="Y"/><glyph d="M10 0l273 680h-48q-59 0 -90.5 -32t-102.5 -150h-2v202h398l-273 -680h49q35 0 60.5 17.5t63.5 75t98 176.5h2l-22 -289h-406z" glyph-name="Z" horiz-adv-x="448" unicode="Z"/><glyph d="M63 -100v900h190v-20h-70v-860h70v-20h-190z" glyph-name="bracketleft" horiz-adv-x="263" unicode="["/><glyph d="M188 -100l-178 900h41l178 -900h-41z" glyph-name="backslash" horiz-adv-x="239" unicode="\"/><glyph d="M200 -100h-190v20h70v860h-70v20h190v-900z" glyph-name="bracketright" horiz-adv-x="263" unicode="]"/><glyph d="M38 535q26 54 78 128t75 112h2q23 -38 75 -112.5t78 -127.5h-2l-152 81l-152 -81h-2z" glyph-name="asciicircum" horiz-adv-x="384" unicode="^"/><glyph d="M30 -111l5 25l129 -5q28 -2 55 0l133 5l-5 -25l-128 4q-27 2 -55 0z" glyph-name="underscore" horiz-adv-x="382" unicode="_"/><glyph d="M173 535l-151 211h140l13 -209z" glyph-name="grave" horiz-adv-x="202" unicode="`"/><glyph d="M114 -15q-46 0 -75 34.5t-29 93.5q0 104 108 162l47 25v2l-128 89q17 60 63 92t107 32q80 0 122.5 -42t42.5 -125v-247q0 -46 8 -64.5t32 -34.5v-2h-160l-6 88h-2l-23 -36q-43 -67 -107 -67zM190 59q52 0 52 157v110l-20 -12q-77 -46 -77 -156q0 -99 45 -99zM176 307 l66 35v61q0 51 -11.5 74t-36.5 23q-50 0 -34 -97z" glyph-name="a" unicode="a"/><glyph d="M312 -15q-53 0 -95 59l-39 54h-2l-6 -98h-160v2q24 16 32 34.5t8 64.5v498q0 46 -8 64.5t-32 34.5v2h170v-293h2l35 49q42 59 96 59q56 0 91.5 -62t35.5 -200t-36 -203t-92 -65zM242 55q29 0 43.5 42t14.5 153t-14.5 153t-42.5 42q-32 0 -47.5 -45.5t-15.5 -151.5 q0 -103 15 -148t47 -45z" glyph-name="b" horiz-adv-x="460" unicode="b"/><glyph d="M218 -15q-90 0 -144 72.5t-54 193.5q0 120 54.5 192t144.5 72q62 0 109.5 -38.5t57.5 -93.5l-140 -79l-2 2l15 95q8 41 0 70t-32 29q-67 0 -67 -202q0 -126 32 -184.5t82 -58.5q74 0 129 115l2 -1q-19 -83 -70 -133.5t-117 -50.5z" glyph-name="c" horiz-adv-x="410" unicode="c"/><glyph d="M151 -15q-58 0 -94.5 64.5t-36.5 203.5q0 138 36.5 200t92.5 62q52 0 94 -59l35 -49h2v192q0 46 -10 64.5t-38 34.5v2h178v-599q0 -46 8 -64.5t32 -34.5v-2h-160l-6 98h-2l-39 -54q-43 -59 -92 -59zM215 55q65 0 65 193q0 197 -65 197q-29 0 -42 -42t-13 -153t13 -153 t42 -42z" glyph-name="d" horiz-adv-x="460" unicode="d"/><glyph d="M219 -15q-90 0 -144.5 72.5t-54.5 193.5q0 120 56 192t149 72q86 0 134 -67t40 -177h-239v-10q0 -96 33 -151t81 -55q74 0 129 115l2 -1q-19 -83 -69.5 -133.5t-116.5 -50.5zM160 286h102l3 99q4 115 -40 115q-62 0 -65 -214z" glyph-name="e" horiz-adv-x="420" unicode="e"/><glyph d="M10 0v2q24 16 32 34.5t8 64.5v384h-49v15h49q49 99 108 153t118 54v-177h-2l-81 53q-49 31 -63 14t22 -62l28 -35h66v-15h-66v-384q0 -46 10 -64.5t38 -34.5v-2h-218z" glyph-name="f" horiz-adv-x="286" unicode="f"/><glyph d="M123 -187q-55 0 -84 21.5t-29 56.5q0 36 26 74l30 44q-34 15 -34 53q0 32 35 79l28 39v2q-70 53 -70 152q0 78 49 129.5t143 51.5q48 0 84 -15h125v-15h-94v-2q73 -53 73 -149q0 -77 -48.5 -133t-140.5 -56q-43 0 -72 11q-28 10 -44 2.5t-16 -26.5q0 -27 33 -27h196 q116 0 116 -104q0 -39 -11 -69.5t-27 -49.5t-41 -33t-45.5 -21t-49 -10.5t-43.5 -4t-36 -0.5h-53zM216 160q27 0 38 38t11 127q0 93 -11.5 134t-37.5 41q-27 0 -39 -41.5t-12 -132.5q0 -90 12 -128t39 -38zM50 -51q0 -16 11.5 -26t30.5 -10h271q19 0 30.5 10t11.5 26 t-11.5 26t-30.5 10h-271q-19 0 -30.5 -10t-11.5 -26z" glyph-name="g" horiz-adv-x="449" unicode="g"/><glyph d="M10 0v2q24 16 32 34.5t8 64.5v498q0 46 -8 64.5t-32 34.5v2h170v-315h2l40 61q24 37 47 53t55 16q48 0 77 -34.5t29 -110.5v-269q0 -46 8 -64.5t32 -34.5v-2h-206v2q21 16 28.5 34.5t7.5 64.5v289q0 26 -12 39.5t-28 13.5q-18 0 -35 -15t-31 -59t-14 -112v-156 q0 -46 7.5 -64.5t28.5 -34.5v-2h-206z" glyph-name="h" horiz-adv-x="480" unicode="h"/><glyph d="M220 500v-2q-24 -16 -32 -34.5t-8 -64.5v-298q0 -46 8 -64.5t32 -34.5v-2h-210v2q24 16 32 34.5t8 64.5v298q0 46 -8 64.5t-32 34.5v2h210zM114 535q-18 54 -41.5 77.5t-77.5 41.5v2q55 18 78 41t41 78h2q19 -55 41.5 -77.5t77.5 -41.5v-2q-54 -18 -77 -41t-42 -78h-2z " glyph-name="i" horiz-adv-x="230" unicode="i"/><glyph d="M9 -200l-2 2l7 12q36 63 36 186v399q0 46 -8 64.5t-32 34.5v2h210v-2q-24 -16 -32 -34.5t-8 -64.5v-276q0 -74 -27 -134.5t-98 -138.5zM113 535q-18 54 -41.5 77.5t-77.5 41.5v2q55 18 78 41t41 78h2q19 -55 41.5 -77.5t77.5 -41.5v-2q-54 -18 -77 -41t-42 -78h-2z" glyph-name="j" horiz-adv-x="230" unicode="j"/><glyph d="M10 0v2q24 16 32 34.5t8 64.5v498q0 46 -8 64.5t-32 34.5v2h210v-2q-24 -16 -32 -34.5t-8 -64.5v-389h2l90 142q26 40 26 67.5t-36 78.5v2h166v-2q-81 -48 -107 -90q-17 -33 -15.5 -54.5t18.5 -62.5l121 -291h-192v2q22 15 25.5 32.5t-6.5 64.5l-35 167l-57 -86v-79 q0 -46 8 -64.5t32 -34.5v-2h-210z" glyph-name="k" horiz-adv-x="450" unicode="k"/><glyph d="M10 0v2q24 16 32 34.5t8 64.5v498q0 46 -8 64.5t-32 34.5v2h170v-599q0 -46 8 -64.5t32 -34.5v-2h-210z" glyph-name="l" horiz-adv-x="230" unicode="l"/><glyph d="M10 0v2q24 16 32 34.5t8 64.5v298q0 46 -8 64.5t-32 34.5v2h160l7 -117h2l33 67q32 65 98 65q46 0 74.5 -27t33.5 -81l2 -20h2l30 63q31 65 98 65q110 0 110 -145v-269q0 -46 8 -64.5t32 -34.5v-2h-206v2q21 16 28.5 34.5t7.5 64.5v289q0 55 -36 55q-74 0 -74 -188v-156 q0 -46 7.5 -64.5t28.5 -34.5v-2h-202v2q21 16 28.5 34.5t7.5 64.5v289q0 55 -36 55q-74 0 -74 -188v-156q0 -46 7.5 -64.5t28.5 -34.5v-2h-206z" glyph-name="m" horiz-adv-x="710" unicode="m"/><glyph d="M10 0v2q24 16 32 34.5t8 64.5v298q0 46 -8 64.5t-32 34.5v2h160l7 -120h2l43 66q24 37 47 53t55 16q48 0 77 -34.5t29 -110.5v-269q0 -46 8 -64.5t32 -34.5v-2h-206v2q21 16 28.5 34.5t7.5 64.5v289q0 26 -12 39.5t-28 13.5q-18 0 -35 -15t-31 -59t-14 -112v-156 q0 -46 7.5 -64.5t28.5 -34.5v-2h-206z" glyph-name="n" horiz-adv-x="480" unicode="n"/><glyph d="M221 -15q-91 0 -146 72.5t-55 193.5q0 120 55 192t146 72q90 0 144.5 -72t54.5 -192q0 -121 -54.5 -193.5t-144.5 -72.5zM221 0q59 0 59 241q0 259 -59 259q-61 0 -61 -259q0 -241 61 -241z" glyph-name="o" horiz-adv-x="440" unicode="o"/><glyph d="M10 -200v2q24 16 32 34.5t8 64.5v498q0 46 -8 64.5t-32 34.5v2h160l6 -98h2l39 54q42 59 93 59q57 0 93.5 -64.5t36.5 -203.5q0 -138 -36.5 -200t-92.5 -62q-52 0 -94 59l-35 49h-2v-192q0 -46 10 -64.5t38 -34.5v-2h-218zM245 55q29 0 42 42t13 153t-13 153t-42 42 q-65 0 -65 -197q0 -193 65 -193z" glyph-name="p" horiz-adv-x="460" unicode="p"/><glyph d="M242 -200v2q28 16 38 34.5t10 64.5v192h-2l-35 -49q-42 -59 -94 -59q-56 0 -92.5 62t-36.5 200q0 139 36.5 203.5t93.5 64.5q51 0 93 -59l39 -54h2l6 98h160v-2q-24 -16 -32 -34.5t-8 -64.5v-498q0 -46 8 -64.5t32 -34.5v-2h-218zM225 55q65 0 65 193q0 197 -65 197 q-29 0 -42 -42t-13 -153t13 -153t42 -42z" glyph-name="q" horiz-adv-x="470" unicode="q"/><glyph d="M15 0v2q24 16 32 34.5t8 64.5v298q0 46 -8 64.5t-32 34.5v2h160l7 -120h2l46 71q22 35 42 49.5t60 14.5v-192h-2l-60 40q-45 31 -65 20.5t-20 -66.5v-216q0 -46 10 -64.5t38 -34.5v-2h-218z" glyph-name="r" horiz-adv-x="342" unicode="r"/><glyph d="M188 -15q-75 0 -120.5 36t-57.5 99l124 69l2 -2l-8 -94q-4 -47 12.5 -69t45.5 -22q28 0 43.5 19t15.5 50q0 55 -47 92l-74 60q-95 78 -95 154q0 60 43 99t116 39q67 0 108.5 -31.5t51.5 -80.5l-124 -69l-2 2l8 79q8 85 -46 85q-47 0 -47 -61q0 -52 52 -95l96 -80 q25 -20 37.5 -32t28 -41.5t15.5 -63.5q0 -64 -49.5 -103t-128.5 -39z" glyph-name="s" horiz-adv-x="376" unicode="s"/><glyph d="M50 130v355h-49v15h49l128 138h2v-138h86v-15h-86v-365q0 -46 28 -46q11 0 23.5 8t42.5 35l2 -2l-36 -63q-21 -37 -41.5 -52t-50.5 -15q-42 0 -70 35t-28 110z" glyph-name="t" horiz-adv-x="286" unicode="t"/><glyph d="M153 -15q-47 0 -75 34.5t-28 110.5v269q0 46 -8 64.5t-32 34.5v2h170v-390q0 -51 35 -51q7 0 16 5t19.5 18t19.5 33t14.5 53t5.5 75v156q0 46 -8 64.5t-32 34.5v2h170v-399q0 -46 8 -64.5t32 -34.5v-2h-160l-7 119h-2l-41 -71q-37 -63 -97 -63z" glyph-name="u" horiz-adv-x="470" unicode="u"/><glyph d="M152 0l-142 500h180v-2q-22 -15 -24 -32.5t11 -62.5l86 -316h2l35 162q18 83 10.5 137.5t-44.5 111.5v2h139v-2q-36 -69 -54.5 -117t-34.5 -125l-37 -174q-6 -29 1 -63l4 -19h-132z" glyph-name="v" horiz-adv-x="410" unicode="v"/><glyph d="M126 0l-116 500h175v-2q-22 -15 -25 -32.5t8 -63.5l74 -317h2l44 233q9 49 -3 112l-14 70h132l87 -415h2l38 163q9 39 10.5 72.5t-5.5 64t-17 55.5t-28 58v2h133v-2q-19 -41 -34 -84t-21.5 -70t-20.5 -88l-41 -181q-7 -29 -3 -60l3 -15h-137l-63 310h-2l-46 -235 q-6 -33 -2 -60l3 -15h-133z" glyph-name="w" horiz-adv-x="628" unicode="w"/><glyph d="M5 1q77 86 129 190l19 37l-131 272h191v-2q-15 -10 -18.5 -20.5t0.5 -23.5t19 -47l37 -85l7 15q32 68 0 162v1h127v-1q-30 -33 -49.5 -60.5t-29 -45t-28.5 -56.5l-17 -36l145 -301h-191v2q15 10 18.5 20.5t-0.5 23.5t-19 46l-51 116l-9 -17q-15 -30 -17.5 -61t4 -58.5 t21.5 -70.5v-1h-157v1z" glyph-name="x" horiz-adv-x="411" unicode="x"/><glyph d="M18 -215v167h2q67 -35 127 -35q26 0 34 20.5t-5 58.5l-171 504h184v-2q-22 -15 -23.5 -32t14.5 -62l82 -259h2l29 109q20 85 13 131t-41 113v2h139v-2q-58 -101 -94 -242l-31 -118q-37 -142 -104.5 -234t-156.5 -119z" glyph-name="y" horiz-adv-x="409" unicode="y"/><glyph d="M5 0l210 480h-16q-34 0 -74 -40l-100 -99h-2l12 159h326l-210 -480h26q42 0 77 35l105 104h2l-12 -159h-344z" glyph-name="z" horiz-adv-x="381" unicode="z"/><glyph d="M277 -120q-190 77 -190 235q0 27 5 64t7 59.5t-0.5 46t-19.5 37.5t-49 20v16q32 6 49 20t19.5 37.5t0.5 46t-7 59.5t-5 64q0 158 190 235l2 -2q-47 -53 -64.5 -104.5t-17.5 -118.5q0 -4 0.5 -29t0 -35.5t-3 -35t-7.5 -37.5t-15 -33t-24.5 -32t-37 -24t-50.5 -18v-2 q28 -6 50.5 -18t37 -24t24.5 -32t15 -33t7.5 -37.5t3 -35t0 -35.5t-0.5 -29q0 -67 17.5 -118.5t64.5 -104.5z" glyph-name="braceleft" horiz-adv-x="289" unicode="{"/><glyph d="M60 -100v900h36v-900h-36z" glyph-name="bar" horiz-adv-x="156" unicode="|"/><glyph d="M10 -118q47 53 64.5 104.5t17.5 118.5q0 4 -0.5 29t0 35.5t3 35t7.5 37.5t15 33t24.5 32t37 24t50.5 18v2q-28 6 -50.5 18t-37 24t-24.5 32t-15 33t-7.5 37.5t-3 35t0 35.5t0.5 29q0 67 -17.5 118.5t-64.5 104.5l2 2q190 -77 190 -235q0 -27 -5 -64t-7 -59.5t0.5 -46 t19.5 -37.5t49 -20v-16q-32 -6 -49 -20t-19.5 -37.5t-0.5 -46t7 -59.5t5 -64q0 -158 -190 -235z" glyph-name="braceright" horiz-adv-x="289" unicode="}"/><glyph d="M378 310q-38 -31 -95 -31q-35 0 -82 19.5t-75 19.5q-56 0 -88 -32l-8 21q41 31 96 31q35 0 79.5 -19.5t75.5 -19.5q53 0 89 32z" glyph-name="asciitilde" horiz-adv-x="408" unicode="~"/><glyph glyph-name="uni00A0" horiz-adv-x="160" unicode=" "/><glyph d="M46 0q11 107 40 265t39 264h2q10 -104 39 -261.5t40 -267.5h-160zM125 580q-19 55 -41.5 77.5t-77.5 41.5v2q54 18 77 41t42 78h2q18 -54 41.5 -77.5t77.5 -41.5v-2q-55 -18 -78 -41t-41 -78h-2z" glyph-name="exclamdown" horiz-adv-x="252" unicode="¡"/><glyph d="M203 -65v151q-83 6 -133 78t-50 187q0 114 49.5 185t133.5 78v151h20v-150q61 -1 107 -39.5t56 -92.5l-140 -79l-2 2l15 95q8 41 0 70t-32 29h-4v-427q24 -18 51 -18q74 0 129 115l2 -1q-19 -82 -68.5 -132t-113.5 -52v-150h-20zM160 398q0 -143 43 -203v396 q-43 -35 -43 -193z" glyph-name="cent" horiz-adv-x="410" unicode="¢"/><glyph d="M10 0q45 54 60.5 100.5t15.5 113.5q0 38 -3 69h-73v20h71q-6 49 -15 90h-56v20h52q-16 73 -16 117q0 85 47.5 135t137.5 50q75 0 124 -40.5t60 -106.5l-135 -98l-2 2l19 88q13 60 -4.5 97t-59.5 37q-75 0 -75 -82q0 -24 6.5 -55t17.5 -75t16 -69h158v-20h-155 q8 -42 8 -77v-13h147v-20h-149q-12 -113 -97 -173h214q43 0 60 7.5t39 35.5h2l-12 -153h-403z" glyph-name="sterling" horiz-adv-x="435" unicode="£"/><glyph d="M48 104l-18 18l74 71q12 11 3 25q-35 49 -35 111q0 59 34 109q11 14 -2 25l-74 71l18 18l70 -73q11 -11 25 -2q47 38 110 38q62 0 111 -38q14 -11 25 1l70 74l18 -18l-74 -71q-13 -11 -2 -25q34 -50 34 -109q0 -62 -35 -111q-9 -14 3 -25l74 -71l-18 -18l-70 74 q-11 12 -24 2q-48 -39 -112 -39q-62 0 -109 38q-15 12 -26 -1zM253 161q67 0 113.5 49t46.5 119t-46.5 118t-113.5 48t-113 -48t-46 -118q0 -71 46 -119.5t113 -48.5z" glyph-name="currency" horiz-adv-x="507" unicode="¤"/><glyph d="M58 283v20h105v7l-34 83h-71v20h63l-116 287h197v-2q-22 -14 -22 -31.5t17 -61.5l90 -242h2l24 74q25 70 22.5 133.5t-39.5 127.5v2h171v-2q-38 -38 -69 -100.5t-69 -179.5l-2 -5h86v-20h-92l-18 -54v-36h110v-20h-110v-182q0 -46 8 -64.5t32 -34.5v-2h-220v2 q24 16 32 34.5t8 64.5v182h-105z" glyph-name="yen" horiz-adv-x="472" unicode="¥"/><glyph d="M182 -15q-68 0 -114.5 35t-57.5 91l121 68l2 -2l-5 -82q-3 -47 13.5 -70t43.5 -23q22 0 35 14.5t13 40.5q0 50 -48 89l-99 81q-68 55 -68 123q0 38 18 67t49 44q-58 59 -58 123q0 60 42 95.5t108 35.5q63 0 102.5 -31.5t48.5 -80.5l-109 -63l-2 2l6 79q3 37 -9.5 58 t-38.5 21q-22 0 -34 -14.5t-12 -39.5q0 -51 57 -97l91 -73q65 -52 65 -115q0 -85 -71 -112q34 -29 52.5 -59t18.5 -70q0 -59 -44 -97t-116 -38zM93 422q0 -23 21 -41l142 -119q7 9 7 22q0 23 -21 41l-111 93q-6 6 -17 15t-14 12q-7 -11 -7 -23z" glyph-name="section" horiz-adv-x="352" unicode="§"/><glyph d="M94 555q-9 47 -25 68t-56 31v2q40 9 56 30t25 69h2q9 -47 25 -68t56 -31v-2q-40 -10 -56.5 -31t-24.5 -68h-2zM264 555q-9 47 -25 68t-56 31v2q40 9 56 30t25 69h2q9 -47 25 -68t56 -31v-2q-40 -10 -56.5 -31t-24.5 -68h-2z" glyph-name="dieresis" horiz-adv-x="360" unicode="¨"/><glyph d="M343 -15q-138 0 -230.5 105t-92.5 261q0 155 92.5 259.5t230.5 104.5t231 -104.5t93 -259.5q0 -156 -93 -261t-231 -105zM343 5q125 0 209.5 99t84.5 247q0 147 -84.5 245.5t-209.5 98.5t-209 -98.5t-84 -245.5q0 -148 84 -247t209 -99zM344 135q-75 0 -123.5 59.5 t-48.5 156.5q0 96 48.5 155t123.5 59q67 0 112.5 -46t54.5 -122h-30q-8 67 -45.5 107.5t-91.5 40.5q-62 0 -102 -53.5t-40 -140.5t40 -141.5t102 -54.5q54 0 91.5 40.5t45.5 108.5h30q-9 -77 -54.5 -123t-112.5 -46z" glyph-name="copyright" horiz-adv-x="687" unicode="©"/><glyph d="M91 304q-33 0 -54.5 26t-21.5 71q0 81 82 126l32 16v2l-95 67q25 96 126 96q56 0 87 -32.5t31 -93.5v-186q0 -37 6.5 -51.5t25.5 -27.5v-2h-115l-5 69h-1l-19 -29q-33 -51 -79 -51zM143 356q44 0 44 127v80l-17 -10q-62 -35 -62 -122q0 -75 35 -75zM136 548l51 27v45 q0 76 -39 76q-43 0 -27 -78z" glyph-name="ordfeminine" horiz-adv-x="315" unicode="ª"/><glyph d="M269 61l-248 226v2l248 226l2 -2l-93 -225l93 -225zM478 61l-248 226v2l248 226l2 -2l-93 -225l93 -225z" glyph-name="guillemotleft" horiz-adv-x="505" unicode="«"/><glyph d="M30 375l5 25l149 -5q28 -2 55 0l153 5v-182l-31 -3v161l-122 3h-55z" glyph-name="logicalnot" unicode="¬"/><glyph glyph-name="uni00AD" horiz-adv-x="0" unicode="­"/><glyph d="M343 -15q-138 0 -230.5 105t-92.5 261q0 155 92.5 259.5t230.5 104.5t231 -104.5t93 -259.5q0 -156 -93 -261t-231 -105zM343 5q125 0 209.5 99t84.5 247q0 147 -84.5 245.5t-209.5 98.5t-209 -98.5t-84 -245.5q0 -148 84 -247t209 -99zM259 145v410h110q38 0 57 -16.5 t19 -42.5q0 -25 -13.5 -44t-40.5 -44q-16 -15 -18 -30t8 -37l85 -196h-32l-89 217h-1l-55 -50v-167h-30zM289 336q78 70 102 98t24 54q0 47 -63 47h-63v-199z" glyph-name="registered" horiz-adv-x="687" unicode="®"/><glyph d="M50 651v15h308v-15h-308z" glyph-name="macron" horiz-adv-x="408" unicode="¯"/><glyph d="M140 474q-43 0 -71.5 34t-28.5 85q0 50 28.5 83.5t71.5 33.5q42 0 70 -33.5t28 -83.5q0 -51 -28 -85t-70 -34zM140 497q33 0 53 25.5t20 66.5q0 44 -20 71t-53 27q-34 0 -54.5 -27t-20.5 -71q0 -41 20.5 -66.5t54.5 -25.5z" glyph-name="degree" horiz-adv-x="278" unicode="°"/><glyph d="M196 279q0 20 -19 20l-147 -4l5 25l142 -4q19 0 19 19v162l31 3v-164q0 -20 19 -20l146 4l-5 -25l-141 4q-19 0 -19 -19v-163l-31 -3v165zM30 0l5 25l149 -5q28 -2 55 0l153 5l-5 -25l-148 4h-55z" glyph-name="plusminus" unicode="±"/><glyph d="M29 535l-2 2l13 209h140z" glyph-name="acute" horiz-adv-x="202" unicode="´"/><glyph d="M10 -200v2q24 16 32 34.5t8 64.5v498q0 46 -8 64.5t-32 34.5v2h170v-390q0 -51 35 -51q7 0 16 5t19.5 18t19.5 33t14.5 53t5.5 75v156q0 46 -8 64.5t-32 34.5v2h170v-399q0 -46 8 -64.5t32 -34.5v-2h-160l-7 119h-2l-41 -71q-30 -51 -70 -60v-87q0 -46 10 -64.5t38 -34.5 v-2h-218z" glyph-name="mu" horiz-adv-x="470" unicode="µ"/><glyph d="M160 418q-73 0 -111.5 35.5t-38.5 104.5q0 68 39 105t111 37h90v-900h-90v618zM300 -200v900h90v-900h-90z" glyph-name="paragraph" horiz-adv-x="430" unicode="¶"/><glyph d="M142 138q-18 54 -41.5 77.5t-77.5 41.5v2q55 18 78 41t41 78h2q19 -55 41.5 -77.5t77.5 -41.5v-2q-54 -18 -77 -41t-42 -78h-2z" glyph-name="periodcentered" horiz-adv-x="286" unicode="·"/><glyph d="M19 -213q83 110 83 129q0 13 -12 13q-10 0 -53 -32h-2l33 123h21l-21 -75l48 3q38 2 53 -6.5t15 -28.5q0 -32 -37 -61t-126 -67z" glyph-name="cedilla" horiz-adv-x="204" unicode="¸"/><glyph d="M166 304q-66 0 -106 55.5t-40 146.5t40 146.5t106 55.5q65 0 104.5 -55t39.5 -147q0 -91 -39.5 -146.5t-104.5 -55.5zM166 316q49 0 49 183q0 197 -49 197q-51 0 -51 -197q0 -183 51 -183z" glyph-name="ordmasculine" horiz-adv-x="330" unicode="º"/><glyph d="M236 515l248 -226v-2l-248 -226l-2 2l93 225l-93 225zM27 515l248 -226v-2l-248 -226l-2 2l93 225l-93 225z" glyph-name="guillemotright" horiz-adv-x="505" unicode="»"/><glyph d="M16 383v2q19 13 25.5 27.5t6.5 51.5l-1 96q0 13 -2 16.5t-9 2t-25 -11.5l-1 2l111 138h1v-243q0 -37 6.5 -51.5t25.5 -27.5v-2h-138zM34 0l302 700h41l-302 -700h-41zM267 0v2q18 12 24.5 25.5t7.5 45.5h-127v2l195 249h2v-190h49l-5 -61h-44q1 -32 7.5 -45.5t24.5 -25.5 v-2h-134zM236 134h63v79z" glyph-name="onequarter" horiz-adv-x="428" unicode="¼"/><glyph d="M16 383v2q19 13 25.5 27.5t6.5 51.5l-1 96q0 13 -2 16.5t-9 2t-25 -11.5l-1 2l111 138h1v-243q0 -37 6.5 -51.5t25.5 -27.5v-2h-138zM34 0l302 700h41l-302 -700h-41zM297 115q47 61 47 136q0 60 -31 60q-20 0 -27 -24.5t3 -66.5l10 -43l-2 -1l-84 55q9 44 37 68.5 t72 24.5q46 0 74 -24t28 -62q0 -32 -16.5 -57t-55.5 -56l-83 -64h98q25 0 36 4.5t24 21.5h2l-8 -87h-214z" glyph-name="onehalf" horiz-adv-x="439" unicode="½"/><glyph d="M13 378q65 10 102.5 42.5t37.5 73.5q0 30 -18 46t-52 5l-15 -5l-4 13l16 5q66 21 66 85q0 52 -36 52t-22 -58l11 -43l-2 -3l-87 37q26 79 113 79q42 0 67.5 -17.5t25.5 -48.5q0 -55 -85 -75v-1q43 7 71.5 -9.5t28.5 -53.5q0 -53 -60 -88.5t-157 -38.5zM79 0l302 700h41 l-302 -700h-41zM310 0v2q18 12 24.5 25.5t7.5 45.5h-127v2l195 249h2v-190h49l-5 -61h-44q1 -32 7.5 -45.5t24.5 -25.5v-2h-134zM279 134h63v79z" glyph-name="threequarters" horiz-adv-x="471" unicode="¾"/><glyph d="M180 -15q-78 0 -122.5 46.5t-44.5 115.5q0 47 24 90.5t80 95.5q95 88 97 213h2q34 -58 44.5 -109.5t-6 -108t-65.5 -114.5q-64 -75 -64 -135q0 -34 17.5 -53.5t47.5 -19.5q42 0 59 38.5t2 104.5l-16 69l2 2l135 -88q-20 -70 -69 -108.5t-123 -38.5zM212 580 q-19 55 -41.5 77.5t-77.5 41.5v2q54 18 77 41t42 78h2q18 -54 41.5 -77.5t77.5 -41.5v-2q-55 -18 -78 -41t-41 -78h-2z" glyph-name="questiondown" horiz-adv-x="389" unicode="¿"/><glyph d="M5 2q56 63 102 281l54 256q14 62 -3 127l-8 34h142l184 -700h-185v2q22 15 24.5 32.5t-10.5 63.5l-30 115h-161q-12 -117 54 -211v-2h-163v2zM258 735l-151 211h140l13 -209zM116 233h154l-85 323h-2l-58 -273q-6 -28 -9 -50z" glyph-name="Agrave" horiz-adv-x="496" unicode="À"/><glyph d="M5 2q56 63 102 281l54 256q14 62 -3 127l-8 34h142l184 -700h-185v2q22 15 24.5 32.5t-10.5 63.5l-30 115h-161q-12 -117 54 -211v-2h-163v2zM196 735l-2 2l13 209h140zM116 233h154l-85 323h-2l-58 -273q-6 -28 -9 -50z" glyph-name="Aacute" horiz-adv-x="496" unicode="Á"/><glyph d="M5 2q56 63 102 281l54 256q14 62 -3 127l-8 34h142l184 -700h-185v2q22 15 24.5 32.5t-10.5 63.5l-30 115h-161q-12 -117 54 -211v-2h-163v2zM73 735l153 240h2l153 -240h-2l-152 81l-152 -81h-2zM116 233h154l-85 323h-2l-58 -273q-6 -28 -9 -50z" glyph-name="Acircumflex" horiz-adv-x="496" unicode="Â"/><glyph d="M5 2q56 63 102 281l54 256q14 62 -3 127l-8 34h142l184 -700h-185v2q22 15 24.5 32.5t-10.5 63.5l-30 115h-161q-12 -117 54 -211v-2h-163v2zM78 777q0 159 90 159q32 0 78 -28.5t66 -28.5q22 0 35.5 13t26.5 44h2q0 -159 -90 -159q-32 0 -78 28.5t-65 28.5 q-24 0 -37 -13t-26 -44h-2zM116 233h154l-85 323h-2l-58 -273q-6 -28 -9 -50z" glyph-name="Atilde" horiz-adv-x="496" unicode="Ã"/><glyph d="M5 2q56 63 102 281l54 256q14 62 -3 127l-8 34h142l184 -700h-185v2q22 15 24.5 32.5t-10.5 63.5l-30 115h-161q-12 -117 54 -211v-2h-163v2zM141 755q-9 47 -25 68t-56 31v2q40 9 56 30t25 69h2q9 -47 25 -68t56 -31v-2q-40 -10 -56.5 -31t-24.5 -68h-2zM311 755 q-9 47 -25 68t-56 31v2q40 9 56 30t25 69h2q9 -47 25 -68t56 -31v-2q-40 -10 -56.5 -31t-24.5 -68h-2zM116 233h154l-85 323h-2l-58 -273q-6 -28 -9 -50z" glyph-name="Adieresis" horiz-adv-x="496" unicode="Ä"/><glyph d="M5 2q56 63 102 281l54 256q14 62 -3 127l-8 34h142l184 -700h-185v2q22 15 24.5 32.5t-10.5 63.5l-30 115h-161q-12 -117 54 -211v-2h-163v2zM228 755q-66 0 -99.5 31t-33.5 79t33.5 79t99.5 31q65 0 98 -31t33 -79t-33 -79t-98 -31zM228 768q22 0 31.5 21t9.5 70 q0 55 -9.5 79t-31.5 24q-23 0 -33 -24t-10 -79q0 -49 10 -70t33 -21zM116 233h154l-85 323h-2l-58 -273q-6 -28 -9 -50z" glyph-name="Aring" horiz-adv-x="496" unicode="Å"/><glyph d="M5 2q102 158 148 281l106 283q17 45 17 90v44h359v-202h-2q-71 118 -102.5 150t-90.5 32h-24v-289h9q32 0 58 28.5t60 100.5h2l20 -276h-2q-45 70 -75.5 98.5t-62.5 28.5h-9v-351h19q32 0 55.5 14t59.5 63t94 152h2l-19 -249h-391v2q24 16 32 34.5t8 64.5v112h-126 q-23 -99 18 -211v-2h-163v2zM155 233h121v323h-2l-102 -273q-12 -34 -17 -50z" glyph-name="AE" horiz-adv-x="666" unicode="Æ"/><glyph d="M248 -15h-13l-11 -40l48 3q38 2 53 -6.5t15 -28.5q0 -32 -37 -61t-126 -67l-2 2q83 110 83 129q0 13 -12 13q-10 0 -53 -32h-2l24 91q-88 17 -141.5 116t-53.5 248q0 164 64 263.5t170 99.5q71 0 123.5 -44t63.5 -108l-152 -95l-3 3l23 87q16 72 4.5 104t-41.5 32 q-44 0 -73 -72.5t-29 -220.5q0 -163 37 -243.5t104 -80.5q52 0 85.5 42t65.5 121l3 -2q-22 -120 -79.5 -186.5t-137.5 -66.5z" glyph-name="Ccedilla" horiz-adv-x="475" unicode="Ç"/><glyph d="M10 0v2q24 16 32 34.5t8 64.5v498q0 46 -8 64.5t-32 34.5v2h409v-202h-2q-71 118 -102.5 150t-90.5 32h-34v-289h19q32 0 58 28.5t60 100.5h2l20 -276h-2q-45 70 -75.5 98.5t-62.5 28.5h-19v-351h29q32 0 55.5 14t59.5 63t94 152h2l-19 -249h-401zM274 735l-151 211h140 l13 -209z" glyph-name="Egrave" horiz-adv-x="450" unicode="È"/><glyph d="M10 0v2q24 16 32 34.5t8 64.5v498q0 46 -8 64.5t-32 34.5v2h409v-202h-2q-71 118 -102.5 150t-90.5 32h-34v-289h19q32 0 58 28.5t60 100.5h2l20 -276h-2q-45 70 -75.5 98.5t-62.5 28.5h-19v-351h29q32 0 55.5 14t59.5 63t94 152h2l-19 -249h-401zM212 735l-2 2l13 209 h140z" glyph-name="Eacute" horiz-adv-x="450" unicode="É"/><glyph d="M10 0v2q24 16 32 34.5t8 64.5v498q0 46 -8 64.5t-32 34.5v2h409v-202h-2q-71 118 -102.5 150t-90.5 32h-34v-289h19q32 0 58 28.5t60 100.5h2l20 -276h-2q-45 70 -75.5 98.5t-62.5 28.5h-19v-351h29q32 0 55.5 14t59.5 63t94 152h2l-19 -249h-401zM89 735l153 240h2 l153 -240h-2l-152 81l-152 -81h-2z" glyph-name="Ecircumflex" horiz-adv-x="450" unicode="Ê"/><glyph d="M10 0v2q24 16 32 34.5t8 64.5v498q0 46 -8 64.5t-32 34.5v2h409v-202h-2q-71 118 -102.5 150t-90.5 32h-34v-289h19q32 0 58 28.5t60 100.5h2l20 -276h-2q-45 70 -75.5 98.5t-62.5 28.5h-19v-351h29q32 0 55.5 14t59.5 63t94 152h2l-19 -249h-401zM157 755q-9 47 -25 68 t-56 31v2q40 9 56 30t25 69h2q9 -47 25 -68t56 -31v-2q-40 -10 -56.5 -31t-24.5 -68h-2zM327 755q-9 47 -25 68t-56 31v2q40 9 56 30t25 69h2q9 -47 25 -68t56 -31v-2q-40 -10 -56.5 -31t-24.5 -68h-2z" glyph-name="Edieresis" horiz-adv-x="450" unicode="Ë"/><glyph d="M230 700v-2q-24 -16 -32 -34.5t-8 -64.5v-498q0 -46 8 -64.5t32 -34.5v-2h-220v2q24 16 32 34.5t8 64.5v498q0 46 -8 64.5t-32 34.5v2h220zM151 735l-151 211h140l13 -209z" glyph-name="Igrave" horiz-adv-x="240" unicode="Ì"/><glyph d="M230 700v-2q-24 -16 -32 -34.5t-8 -64.5v-498q0 -46 8 -64.5t32 -34.5v-2h-220v2q24 16 32 34.5t8 64.5v498q0 46 -8 64.5t-32 34.5v2h220zM89 735l-2 2l13 209h140z" glyph-name="Iacute" horiz-adv-x="240" unicode="Í"/><glyph d="M230 700v-2q-24 -16 -32 -34.5t-8 -64.5v-498q0 -46 8 -64.5t32 -34.5v-2h-220v2q24 16 32 34.5t8 64.5v498q0 46 -8 64.5t-32 34.5v2h220zM-34 735l153 240h2l153 -240h-2l-152 81l-152 -81h-2z" glyph-name="Icircumflex" horiz-adv-x="240" unicode="Î"/><glyph d="M230 700v-2q-24 -16 -32 -34.5t-8 -64.5v-498q0 -46 8 -64.5t32 -34.5v-2h-220v2q24 16 32 34.5t8 64.5v498q0 46 -8 64.5t-32 34.5v2h220zM34 755q-9 47 -25 68t-56 31v2q40 9 56 30t25 69h2q9 -47 25 -68t56 -31v-2q-40 -10 -56.5 -31t-24.5 -68h-2zM204 755 q-9 47 -25 68t-56 31v2q40 9 56 30t25 69h2q9 -47 25 -68t56 -31v-2q-40 -10 -56.5 -31t-24.5 -68h-2z" glyph-name="Idieresis" horiz-adv-x="240" unicode="Ï"/><glyph d="M14 0v2q24 16 32 34.5t8 64.5v270h-32v20h32v208q0 46 -8 64.5t-32 34.5v2h187q133 0 213.5 -95t80.5 -253q0 -160 -80.5 -256t-213.5 -96h-187zM194 20h6q75 0 110 78t35 246q0 336 -145 336h-6v-289h92v-20h-92v-351z" glyph-name="Eth" horiz-adv-x="528" unicode="Ð"/><glyph d="M426 -15l-343 574h-2v-276q0 -92 20.5 -154.5t72.5 -126.5v-2h-169v2q29 38 42.5 101.5t13.5 179.5v255q0 40 -5.5 62.5t-26.5 57.5l-24 40v2h162l239 -411h2v128q0 91 -18.5 153.5t-64.5 127.5v2h159v-2q-31 -58 -43.5 -120.5t-12.5 -160.5v-432h-2zM106 777 q0 159 90 159q32 0 78 -28.5t66 -28.5q22 0 35.5 13t26.5 44h2q0 -159 -90 -159q-32 0 -78 28.5t-65 28.5q-24 0 -37 -13t-26 -44h-2z" glyph-name="Ntilde" horiz-adv-x="489" unicode="Ñ"/><glyph d="M266 -15q-111 0 -178.5 100.5t-67.5 265.5t67.5 264.5t178.5 99.5t178 -99t67 -265t-67 -266t-178 -100zM266 5q49 0 72 81t23 257q0 352 -95 352q-96 0 -96 -352q0 -175 23 -256.5t73 -81.5zM297 735l-151 211h140l13 -209z" glyph-name="Ograve" horiz-adv-x="531" unicode="Ò"/><glyph d="M266 -15q-111 0 -178.5 100.5t-67.5 265.5t67.5 264.5t178.5 99.5t178 -99t67 -265t-67 -266t-178 -100zM266 5q49 0 72 81t23 257q0 352 -95 352q-96 0 -96 -352q0 -175 23 -256.5t73 -81.5zM235 735l-2 2l13 209h140z" glyph-name="Oacute" horiz-adv-x="531" unicode="Ó"/><glyph d="M266 -15q-111 0 -178.5 100.5t-67.5 265.5t67.5 264.5t178.5 99.5t178 -99t67 -265t-67 -266t-178 -100zM266 5q49 0 72 81t23 257q0 352 -95 352q-96 0 -96 -352q0 -175 23 -256.5t73 -81.5zM112 735l153 240h2l153 -240h-2l-152 81l-152 -81h-2z" glyph-name="Ocircumflex" horiz-adv-x="531" unicode="Ô"/><glyph d="M266 -15q-111 0 -178.5 100.5t-67.5 265.5t67.5 264.5t178.5 99.5t178 -99t67 -265t-67 -266t-178 -100zM266 5q49 0 72 81t23 257q0 352 -95 352q-96 0 -96 -352q0 -175 23 -256.5t73 -81.5zM117 777q0 159 90 159q31 0 78 -28.5t66 -28.5q22 0 35.5 13t26.5 44h2 q0 -159 -90 -159q-31 0 -77 28.5t-66 28.5q-24 0 -37 -13t-26 -44h-2z" glyph-name="Otilde" horiz-adv-x="531" unicode="Õ"/><glyph d="M266 -15q-111 0 -178.5 100.5t-67.5 265.5t67.5 264.5t178.5 99.5t178 -99t67 -265t-67 -266t-178 -100zM266 5q49 0 72 81t23 257q0 352 -95 352q-96 0 -96 -352q0 -175 23 -256.5t73 -81.5zM180 755q-9 47 -25 68t-56 31v2q40 9 56 30t25 69h2q9 -47 25 -68t56 -31v-2 q-40 -10 -56.5 -31t-24.5 -68h-2zM350 755q-9 47 -25 68t-56 31v2q40 9 56 30t25 69h2q9 -47 25 -68t56 -31v-2q-40 -10 -56.5 -31t-24.5 -68h-2z" glyph-name="Odieresis" horiz-adv-x="531" unicode="Ö"/><glyph d="M53 150l-23 15l137 127q14 14 0 28l-136 129l23 16l124 -134q14 -14 28 0l125 134l23 -15l-136 -130q-14 -14 0 -28l135 -126l-23 -16l-124 130q-14 14 -28 0z" glyph-name="multiply" horiz-adv-x="384" unicode="×"/><glyph d="M197 -100h-21l17 98q-80 30 -126.5 124t-46.5 229q0 165 67.5 264.5t178.5 99.5q26 0 52 -6l16 91h21l-17 -97q81 -30 127 -123t46 -229q0 -166 -67 -266t-178 -100q-29 0 -53 7zM266 5q49 0 72 81t23 257q0 217 -34 298l-107 -612q18 -24 46 -24zM170 343 q0 -208 33 -286l108 613q-18 25 -45 25q-96 0 -96 -352z" glyph-name="Oslash" horiz-adv-x="531" unicode="Ø"/><glyph d="M234 -15q-85 0 -137 62.5t-52 172.5v379q0 46 -8 64.5t-32 34.5v2h220v-2q-24 -16 -32 -34.5t-8 -64.5v-379q0 -81 25 -129t77 -48q101 0 101 175v199q0 90 -18.5 153t-64.5 128v2h159v-2q-31 -58 -43.5 -120.5t-12.5 -160.5v-199q0 -111 -45.5 -172t-128.5 -61zM272 735 l-151 211h140l13 -209z" glyph-name="Ugrave" horiz-adv-x="474" unicode="Ù"/><glyph d="M234 -15q-85 0 -137 62.5t-52 172.5v379q0 46 -8 64.5t-32 34.5v2h220v-2q-24 -16 -32 -34.5t-8 -64.5v-379q0 -81 25 -129t77 -48q101 0 101 175v199q0 90 -18.5 153t-64.5 128v2h159v-2q-31 -58 -43.5 -120.5t-12.5 -160.5v-199q0 -111 -45.5 -172t-128.5 -61zM210 735 l-2 2l13 209h140z" glyph-name="Uacute" horiz-adv-x="474" unicode="Ú"/><glyph d="M234 -15q-85 0 -137 62.5t-52 172.5v379q0 46 -8 64.5t-32 34.5v2h220v-2q-24 -16 -32 -34.5t-8 -64.5v-379q0 -81 25 -129t77 -48q101 0 101 175v199q0 90 -18.5 153t-64.5 128v2h159v-2q-31 -58 -43.5 -120.5t-12.5 -160.5v-199q0 -111 -45.5 -172t-128.5 -61zM87 735 l153 240h2l153 -240h-2l-152 81l-152 -81h-2z" glyph-name="Ucircumflex" horiz-adv-x="474" unicode="Û"/><glyph d="M234 -15q-85 0 -137 62.5t-52 172.5v379q0 46 -8 64.5t-32 34.5v2h220v-2q-24 -16 -32 -34.5t-8 -64.5v-379q0 -81 25 -129t77 -48q101 0 101 175v199q0 90 -18.5 153t-64.5 128v2h159v-2q-31 -58 -43.5 -120.5t-12.5 -160.5v-199q0 -111 -45.5 -172t-128.5 -61zM155 755 q-9 47 -25 68t-56 31v2q40 9 56 30t25 69h2q9 -47 25 -68t56 -31v-2q-40 -10 -56.5 -31t-24.5 -68h-2zM325 755q-9 47 -25 68t-56 31v2q40 9 56 30t25 69h2q9 -47 25 -68t56 -31v-2q-40 -10 -56.5 -31t-24.5 -68h-2z" glyph-name="Udieresis" horiz-adv-x="474" unicode="Ü"/><glyph d="M123 0v2q24 16 32 34.5t8 64.5v209l-158 390h197v-2q-22 -14 -22 -31.5t17 -61.5l90 -242h2l24 74q25 70 22.5 133.5t-39.5 127.5v2h171v-2q-38 -38 -69 -100.5t-69 -179.5l-26 -79v-238q0 -46 8 -64.5t32 -34.5v-2h-220zM202 735l-2 2l13 209h140z" glyph-name="Yacute" horiz-adv-x="472" unicode="Ý"/><glyph d="M10 0v2q24 16 32 34.5t8 64.5v498q0 46 -8 64.5t-32 34.5v2h220v-2q-24 -16 -32 -34.5t-8 -64.5v-95l33 35q53 56 100 56q55 0 91 -59t36 -183q0 -125 -36 -186.5t-92 -61.5q-46 0 -99 56l-33 35v-95q0 -46 8 -64.5t32 -34.5v-2h-220zM190 343q0 -178 62 -178q30 0 44 42 t14 143q0 185 -57 185q-63 0 -63 -192z" glyph-name="Thorn" horiz-adv-x="470" unicode="Þ"/><glyph d="M267 -200l-2 2l5 12q37 89 37 196q0 92 -37 177l-62 143q41 45 55 90.5t14 112.5q0 58 -12 91t-33 33q-47 0 -47 -112v-444q0 -46 8 -64.5t32 -34.5v-2h-210v2q24 16 32 34.5t8 64.5v334q0 45 10.5 74.5t37.5 56.5l77 80q36 38 88 48.5t91 -11.5t39 -70q0 -15 -1 -26.5 t-6.5 -24.5t-8.5 -20t-14.5 -23t-17.5 -23t-25 -30.5t-29 -35.5l66 -148q42 -94 42 -179q0 -59 -20.5 -112.5t-81.5 -140.5z" glyph-name="germandbls" horiz-adv-x="424" unicode="ß"/><glyph d="M114 -15q-46 0 -75 34.5t-29 93.5q0 104 108 162l47 25v2l-128 89q17 60 63 92t107 32q80 0 122.5 -42t42.5 -125v-247q0 -46 8 -64.5t32 -34.5v-2h-160l-6 88h-2l-23 -36q-43 -67 -107 -67zM190 59q52 0 52 157v110l-20 -12q-77 -46 -77 -156q0 -99 45 -99zM176 307 l66 35v61q0 51 -11.5 74t-36.5 23q-50 0 -34 -97zM237 535l-151 211h140l13 -209z" glyph-name="agrave" unicode="à"/><glyph d="M114 -15q-46 0 -75 34.5t-29 93.5q0 104 108 162l47 25v2l-128 89q17 60 63 92t107 32q80 0 122.5 -42t42.5 -125v-247q0 -46 8 -64.5t32 -34.5v-2h-160l-6 88h-2l-23 -36q-43 -67 -107 -67zM190 59q52 0 52 157v110l-20 -12q-77 -46 -77 -156q0 -99 45 -99zM176 307 l66 35v61q0 51 -11.5 74t-36.5 23q-50 0 -34 -97zM175 535l-2 2l13 209h140z" glyph-name="aacute" unicode="á"/><glyph d="M114 -15q-46 0 -75 34.5t-29 93.5q0 104 108 162l47 25v2l-128 89q17 60 63 92t107 32q80 0 122.5 -42t42.5 -125v-247q0 -46 8 -64.5t32 -34.5v-2h-160l-6 88h-2l-23 -36q-43 -67 -107 -67zM190 59q52 0 52 157v110l-20 -12q-77 -46 -77 -156q0 -99 45 -99zM176 307 l66 35v61q0 51 -11.5 74t-36.5 23q-50 0 -34 -97zM52 535l153 240h2l153 -240h-2l-152 81l-152 -81h-2z" glyph-name="acircumflex" unicode="â"/><glyph d="M114 -15q-46 0 -75 34.5t-29 93.5q0 104 108 162l47 25v2l-128 89q17 60 63 92t107 32q80 0 122.5 -42t42.5 -125v-247q0 -46 8 -64.5t32 -34.5v-2h-160l-6 88h-2l-23 -36q-43 -67 -107 -67zM190 59q52 0 52 157v110l-20 -12q-77 -46 -77 -156q0 -99 45 -99zM176 307 l66 35v61q0 51 -11.5 74t-36.5 23q-50 0 -34 -97zM57 577q0 159 90 159q31 0 78 -28.5t66 -28.5q22 0 35.5 13t26.5 44h2q0 -159 -90 -159q-31 0 -77 28.5t-66 28.5q-24 0 -37 -13t-26 -44h-2z" glyph-name="atilde" unicode="ã"/><glyph d="M114 -15q-46 0 -75 34.5t-29 93.5q0 104 108 162l47 25v2l-128 89q17 60 63 92t107 32q80 0 122.5 -42t42.5 -125v-247q0 -46 8 -64.5t32 -34.5v-2h-160l-6 88h-2l-23 -36q-43 -67 -107 -67zM190 59q52 0 52 157v110l-20 -12q-77 -46 -77 -156q0 -99 45 -99zM176 307 l66 35v61q0 51 -11.5 74t-36.5 23q-50 0 -34 -97zM120 555q-9 47 -25 68t-56 31v2q40 9 56 30t25 69h2q9 -47 25 -68t56 -31v-2q-40 -10 -56.5 -31t-24.5 -68h-2zM290 555q-9 47 -25 68t-56 31v2q40 9 56 30t25 69h2q9 -47 25 -68t56 -31v-2q-40 -10 -56.5 -31t-24.5 -68h-2 z" glyph-name="adieresis" unicode="ä"/><glyph d="M114 -15q-46 0 -75 34.5t-29 93.5q0 104 108 162l47 25v2l-128 89q17 60 63 92t107 32q80 0 122.5 -42t42.5 -125v-247q0 -46 8 -64.5t32 -34.5v-2h-160l-6 88h-2l-23 -36q-43 -67 -107 -67zM190 59q52 0 52 157v110l-20 -12q-77 -46 -77 -156q0 -99 45 -99zM176 307 l66 35v61q0 51 -11.5 74t-36.5 23q-50 0 -34 -97zM207 555q-66 0 -99.5 31t-33.5 79t33.5 79t99.5 31q65 0 98 -31t33 -79t-33 -79t-98 -31zM207 568q22 0 31.5 21t9.5 70q0 55 -9.5 79t-31.5 24q-23 0 -33 -24t-10 -79q0 -49 10 -70t33 -21z" glyph-name="aring" unicode="å"/><glyph d="M114 -15q-46 0 -75 34.5t-29 93.5q0 104 108 162l47 25v2l-128 89q17 60 63 92t107 32q79 0 122 -41q50 41 119 41q86 0 134 -67t40 -177h-239v-10q0 -96 33 -151t81 -55q74 0 129 115l2 -1q-19 -83 -69.5 -133.5t-116.5 -50.5q-62 0 -108.5 35.5t-69.5 99.5l-43 -68 q-43 -67 -107 -67zM190 59q52 0 52 157v110l-20 -12q-77 -46 -77 -156q0 -99 45 -99zM176 307l66 35v61q0 51 -11.5 74t-36.5 23q-50 0 -34 -97zM383 286h102l3 99q4 115 -40 115q-62 0 -65 -214z" glyph-name="ae" horiz-adv-x="643" unicode="æ"/><glyph d="M218 -15q-8 0 -24 2l-12 -42l48 3q38 2 53 -6.5t15 -28.5q0 -32 -37 -61t-126 -67l-2 2q83 110 83 129q0 13 -12 13q-10 0 -53 -32h-2l25 93q-71 17 -112.5 86.5t-41.5 174.5q0 120 54.5 192t144.5 72q62 0 109.5 -38.5t57.5 -93.5l-140 -79l-2 2l15 95q8 41 0 70t-32 29 q-67 0 -67 -202q0 -126 32 -184.5t82 -58.5q74 0 129 115l2 -1q-19 -83 -70 -133.5t-117 -50.5z" glyph-name="ccedilla" horiz-adv-x="410" unicode="ç"/><glyph d="M219 -15q-90 0 -144.5 72.5t-54.5 193.5q0 120 56 192t149 72q86 0 134 -67t40 -177h-239v-10q0 -96 33 -151t81 -55q74 0 129 115l2 -1q-19 -83 -69.5 -133.5t-116.5 -50.5zM253 535l-151 211h140l13 -209zM160 286h102l3 99q4 115 -40 115q-62 0 -65 -214z" glyph-name="egrave" horiz-adv-x="420" unicode="è"/><glyph d="M219 -15q-90 0 -144.5 72.5t-54.5 193.5q0 120 56 192t149 72q86 0 134 -67t40 -177h-239v-10q0 -96 33 -151t81 -55q74 0 129 115l2 -1q-19 -83 -69.5 -133.5t-116.5 -50.5zM191 535l-2 2l13 209h140zM160 286h102l3 99q4 115 -40 115q-62 0 -65 -214z" glyph-name="eacute" horiz-adv-x="420" unicode="é"/><glyph d="M219 -15q-90 0 -144.5 72.5t-54.5 193.5q0 120 56 192t149 72q86 0 134 -67t40 -177h-239v-10q0 -96 33 -151t81 -55q74 0 129 115l2 -1q-19 -83 -69.5 -133.5t-116.5 -50.5zM68 535l153 240h2l153 -240h-2l-152 81l-152 -81h-2zM160 286h102l3 99q4 115 -40 115 q-62 0 -65 -214z" glyph-name="ecircumflex" horiz-adv-x="420" unicode="ê"/><glyph d="M219 -15q-90 0 -144.5 72.5t-54.5 193.5q0 120 56 192t149 72q86 0 134 -67t40 -177h-239v-10q0 -96 33 -151t81 -55q74 0 129 115l2 -1q-19 -83 -69.5 -133.5t-116.5 -50.5zM136 555q-9 47 -25 68t-56 31v2q40 9 56 30t25 69h2q9 -47 25 -68t56 -31v-2 q-40 -10 -56.5 -31t-24.5 -68h-2zM306 555q-9 47 -25 68t-56 31v2q40 9 56 30t25 69h2q9 -47 25 -68t56 -31v-2q-40 -10 -56.5 -31t-24.5 -68h-2zM160 286h102l3 99q4 115 -40 115q-62 0 -65 -214z" glyph-name="edieresis" horiz-adv-x="420" unicode="ë"/><glyph d="M220 500v-2q-24 -16 -32 -34.5t-8 -64.5v-298q0 -46 8 -64.5t32 -34.5v-2h-210v2q24 16 32 34.5t8 64.5v298q0 46 -8 64.5t-32 34.5v2h210zM146 535l-151 211h140l13 -209z" glyph-name="igrave" horiz-adv-x="230" unicode="ì"/><glyph d="M220 500v-2q-24 -16 -32 -34.5t-8 -64.5v-298q0 -46 8 -64.5t32 -34.5v-2h-210v2q24 16 32 34.5t8 64.5v298q0 46 -8 64.5t-32 34.5v2h210zM84 535l-2 2l13 209h140z" glyph-name="iacute" horiz-adv-x="230" unicode="í"/><glyph d="M220 500v-2q-24 -16 -32 -34.5t-8 -64.5v-298q0 -46 8 -64.5t32 -34.5v-2h-210v2q24 16 32 34.5t8 64.5v298q0 46 -8 64.5t-32 34.5v2h210zM-39 535l153 240h2l153 -240h-2l-152 81l-152 -81h-2z" glyph-name="icircumflex" horiz-adv-x="230" unicode="î"/><glyph d="M220 500v-2q-24 -16 -32 -34.5t-8 -64.5v-298q0 -46 8 -64.5t32 -34.5v-2h-210v2q24 16 32 34.5t8 64.5v298q0 46 -8 64.5t-32 34.5v2h210zM29 555q-9 47 -25 68t-56 31v2q40 9 56 30t25 69h2q9 -47 25 -68t56 -31v-2q-40 -10 -56.5 -31t-24.5 -68h-2zM199 555 q-9 47 -25 68t-56 31v2q40 9 56 30t25 69h2q9 -47 25 -68t56 -31v-2q-40 -10 -56.5 -31t-24.5 -68h-2z" glyph-name="idieresis" horiz-adv-x="230" unicode="ï"/><glyph d="M192 -15q-76 0 -124 65t-48 214q0 129 35.5 190t88.5 61q30 0 60 -23t76 -85h2q-7 101 -61 179l-111 -41v16l102 38q-36 50 -102 99v2h162q30 -26 53 -59l81 30v-16l-72 -27q72 -112 72 -283q0 -94 -21 -172.5t-71 -133t-122 -54.5zM216 3q64 0 64 229q0 119 -16.5 166 t-48.5 47q-19 0 -30.5 -16t-18 -63t-6.5 -133q0 -88 7 -140t18.5 -71t30.5 -19z" glyph-name="eth" horiz-adv-x="426" unicode="ð"/><glyph d="M10 0v2q24 16 32 34.5t8 64.5v298q0 46 -8 64.5t-32 34.5v2h160l7 -120h2l43 66q24 37 47 53t55 16q48 0 77 -34.5t29 -110.5v-269q0 -46 8 -64.5t32 -34.5v-2h-206v2q21 16 28.5 34.5t7.5 64.5v289q0 26 -12 39.5t-28 13.5q-18 0 -35 -15t-31 -59t-14 -112v-156 q0 -46 7.5 -64.5t28.5 -34.5v-2h-206zM97 577q0 159 90 159q32 0 78.5 -28.5t65.5 -28.5q22 0 35.5 13t26.5 44h2q0 -159 -90 -159q-31 0 -77.5 28.5t-65.5 28.5q-24 0 -37 -13t-26 -44h-2z" glyph-name="ntilde" horiz-adv-x="480" unicode="ñ"/><glyph d="M221 -15q-91 0 -146 72.5t-55 193.5q0 120 55 192t146 72q90 0 144.5 -72t54.5 -192q0 -121 -54.5 -193.5t-144.5 -72.5zM221 0q59 0 59 241q0 259 -59 259q-61 0 -61 -259q0 -241 61 -241zM251 535l-151 211h140l13 -209z" glyph-name="ograve" horiz-adv-x="440" unicode="ò"/><glyph d="M221 -15q-91 0 -146 72.5t-55 193.5q0 120 55 192t146 72q90 0 144.5 -72t54.5 -192q0 -121 -54.5 -193.5t-144.5 -72.5zM221 0q59 0 59 241q0 259 -59 259q-61 0 -61 -259q0 -241 61 -241zM189 535l-2 2l13 209h140z" glyph-name="oacute" horiz-adv-x="440" unicode="ó"/><glyph d="M221 -15q-91 0 -146 72.5t-55 193.5q0 120 55 192t146 72q90 0 144.5 -72t54.5 -192q0 -121 -54.5 -193.5t-144.5 -72.5zM221 0q59 0 59 241q0 259 -59 259q-61 0 -61 -259q0 -241 61 -241zM66 535l153 240h2l153 -240h-2l-152 81l-152 -81h-2z" glyph-name="ocircumflex" horiz-adv-x="440" unicode="ô"/><glyph d="M221 -15q-91 0 -146 72.5t-55 193.5q0 120 55 192t146 72q90 0 144.5 -72t54.5 -192q0 -121 -54.5 -193.5t-144.5 -72.5zM221 0q59 0 59 241q0 259 -59 259q-61 0 -61 -259q0 -241 61 -241zM71 577q0 159 90 159q32 0 78.5 -28.5t65.5 -28.5q22 0 35.5 13t26.5 44h2 q0 -159 -90 -159q-31 0 -77 28.5t-66 28.5q-24 0 -37 -13t-26 -44h-2z" glyph-name="otilde" horiz-adv-x="440" unicode="õ"/><glyph d="M221 -15q-91 0 -146 72.5t-55 193.5q0 120 55 192t146 72q90 0 144.5 -72t54.5 -192q0 -121 -54.5 -193.5t-144.5 -72.5zM221 0q59 0 59 241q0 259 -59 259q-61 0 -61 -259q0 -241 61 -241zM134 555q-9 47 -25 68t-56 31v2q40 9 56 30t25 69h2q9 -47 25 -68t56 -31v-2 q-40 -10 -56.5 -31t-24.5 -68h-2zM304 555q-9 47 -25 68t-56 31v2q40 9 56 30t25 69h2q9 -47 25 -68t56 -31v-2q-40 -10 -56.5 -31t-24.5 -68h-2z" glyph-name="odieresis" horiz-adv-x="440" unicode="ö"/><glyph d="M210 390q-9 30 -22 43t-45 24v2q31 10 44 23t23 44h2q11 -32 24 -45t43 -22v-2q-31 -11 -44 -23.5t-23 -43.5h-2zM210 94q-9 30 -22 43t-45 24v2q31 10 44 22.5t23 44.5h2q11 -32 24 -45t43 -22v-2q-31 -11 -44 -23.5t-23 -43.5h-2zM30 295l5 25l149 -5q28 -2 55 0l153 5 l-5 -25l-148 4h-55z" glyph-name="divide" unicode="÷"/><glyph d="M226 -15q-19 0 -37 3l-15 -88h-21l16 92q-72 18 -110.5 84.5t-38.5 174.5q0 127 53.5 195.5t152.5 68.5q13 0 35 -2l15 87h21l-16 -91q72 -18 110.5 -84t38.5 -174q0 -127 -53 -196.5t-151 -69.5zM226 0q34 0 49 57t15 184q0 151 -19 211l-77 -435q13 -17 32 -17z M160 241q0 -137 19 -193l77 436q-13 16 -30 16q-66 0 -66 -259z" glyph-name="oslash" horiz-adv-x="450" unicode="ø"/><glyph d="M153 -15q-47 0 -75 34.5t-28 110.5v269q0 46 -8 64.5t-32 34.5v2h170v-390q0 -51 35 -51q7 0 16 5t19.5 18t19.5 33t14.5 53t5.5 75v156q0 46 -8 64.5t-32 34.5v2h170v-399q0 -46 8 -64.5t32 -34.5v-2h-160l-7 119h-2l-41 -71q-37 -63 -97 -63zM258 535l-151 211h140 l13 -209z" glyph-name="ugrave" horiz-adv-x="470" unicode="ù"/><glyph d="M153 -15q-47 0 -75 34.5t-28 110.5v269q0 46 -8 64.5t-32 34.5v2h170v-390q0 -51 35 -51q7 0 16 5t19.5 18t19.5 33t14.5 53t5.5 75v156q0 46 -8 64.5t-32 34.5v2h170v-399q0 -46 8 -64.5t32 -34.5v-2h-160l-7 119h-2l-41 -71q-37 -63 -97 -63zM196 535l-2 2l13 209h140z " glyph-name="uacute" horiz-adv-x="470" unicode="ú"/><glyph d="M153 -15q-47 0 -75 34.5t-28 110.5v269q0 46 -8 64.5t-32 34.5v2h170v-390q0 -51 35 -51q7 0 16 5t19.5 18t19.5 33t14.5 53t5.5 75v156q0 46 -8 64.5t-32 34.5v2h170v-399q0 -46 8 -64.5t32 -34.5v-2h-160l-7 119h-2l-41 -71q-37 -63 -97 -63zM73 535l153 240h2 l153 -240h-2l-152 81l-152 -81h-2z" glyph-name="ucircumflex" horiz-adv-x="470" unicode="û"/><glyph d="M153 -15q-47 0 -75 34.5t-28 110.5v269q0 46 -8 64.5t-32 34.5v2h170v-390q0 -51 35 -51q7 0 16 5t19.5 18t19.5 33t14.5 53t5.5 75v156q0 46 -8 64.5t-32 34.5v2h170v-399q0 -46 8 -64.5t32 -34.5v-2h-160l-7 119h-2l-41 -71q-37 -63 -97 -63zM141 555q-9 47 -25 68 t-56 31v2q40 9 56 30t25 69h2q9 -47 25 -68t56 -31v-2q-40 -10 -56.5 -31t-24.5 -68h-2zM311 555q-9 47 -25 68t-56 31v2q40 9 56 30t25 69h2q9 -47 25 -68t56 -31v-2q-40 -10 -56.5 -31t-24.5 -68h-2z" glyph-name="udieresis" horiz-adv-x="470" unicode="ü"/><glyph d="M18 -215v167h2q67 -35 127 -35q26 0 34 20.5t-5 58.5l-171 504h184v-2q-22 -15 -23.5 -32t14.5 -62l82 -259h2l29 109q20 85 13 131t-41 113v2h139v-2q-58 -101 -94 -242l-31 -118q-37 -142 -104.5 -234t-156.5 -119zM179 535l-2 2l13 209h140z" glyph-name="yacute" horiz-adv-x="409" unicode="ý"/><glyph d="M12 -200v2q24 16 32 34.5t8 64.5v698q0 46 -8 64.5t-32 34.5v2h210v-2q-24 -16 -32 -34.5t-8 -64.5v-192l37 49q46 59 90 59q60 0 96.5 -64.5t36.5 -203.5t-36.5 -200.5t-96.5 -61.5q-44 0 -90 59l-37 49v-192q0 -46 8 -64.5t32 -34.5v-2h-210zM244 55q31 0 44.5 41 t13.5 154t-13.5 154t-44.5 41q-62 0 -62 -197q0 -193 62 -193z" glyph-name="thorn" horiz-adv-x="477" unicode="þ"/><glyph d="M18 -215v167h2q67 -35 127 -35q26 0 34 20.5t-5 58.5l-171 504h184v-2q-22 -15 -23.5 -32t14.5 -62l82 -259h2l29 109q20 85 13 131t-41 113v2h139v-2q-58 -101 -94 -242l-31 -118q-37 -142 -104.5 -234t-156.5 -119zM124 555q-9 47 -25 68t-56 31v2q40 9 56 30t25 69h2 q9 -47 25 -68t56 -31v-2q-40 -10 -56.5 -31t-24.5 -68h-2zM294 555q-9 47 -25 68t-56 31v2q40 9 56 30t25 69h2q9 -47 25 -68t56 -31v-2q-40 -10 -56.5 -31t-24.5 -68h-2z" glyph-name="ydieresis" horiz-adv-x="409" unicode="ÿ"/><glyph d="M5 2q56 63 102 281l54 256q14 62 -3 127l-8 34h142l184 -700h-185v2q22 15 24.5 32.5t-10.5 63.5l-30 115h-161q-12 -117 54 -211v-2h-163v2zM73 851v15h308v-15h-308zM116 233h154l-85 323h-2l-58 -273q-6 -28 -9 -50z" glyph-name="Amacron" horiz-adv-x="496" unicode="Ā"/><glyph d="M114 -15q-46 0 -75 34.5t-29 93.5q0 104 108 162l47 25v2l-128 89q17 60 63 92t107 32q80 0 122.5 -42t42.5 -125v-247q0 -46 8 -64.5t32 -34.5v-2h-160l-6 88h-2l-23 -36q-43 -67 -107 -67zM190 59q52 0 52 157v110l-20 -12q-77 -46 -77 -156q0 -99 45 -99zM176 307 l66 35v61q0 51 -11.5 74t-36.5 23q-50 0 -34 -97zM52 651v15h308v-15h-308z" glyph-name="amacron" unicode="ā"/><glyph d="M5 2q56 63 102 281l54 256q14 62 -3 127l-8 34h142l184 -700h-185v2q22 15 24.5 32.5t-10.5 63.5l-30 115h-161q-12 -117 54 -211v-2h-163v2zM105 953q10 -43 33 -58.5t89 -15.5q67 0 89 15.5t33 58.5h2q-4 -180 -124 -180q-57 0 -88.5 41t-35.5 139h2zM116 233h154 l-85 323h-2l-58 -273q-6 -28 -9 -50z" glyph-name="Abreve" horiz-adv-x="496" unicode="Ă"/><glyph d="M114 -15q-46 0 -75 34.5t-29 93.5q0 104 108 162l47 25v2l-128 89q17 60 63 92t107 32q80 0 122.5 -42t42.5 -125v-247q0 -46 8 -64.5t32 -34.5v-2h-160l-6 88h-2l-23 -36q-43 -67 -107 -67zM190 59q52 0 52 157v110l-20 -12q-77 -46 -77 -156q0 -99 45 -99zM176 307 l66 35v61q0 51 -11.5 74t-36.5 23q-50 0 -34 -97zM84 753q10 -43 33 -58.5t89 -15.5q67 0 89 15.5t33 58.5h2q-4 -180 -124 -180q-57 0 -88.5 41t-35.5 139h2z" glyph-name="abreve" unicode="ă"/><glyph d="M5 2q56 63 102 281l54 256q14 62 -3 127l-8 34h142l184 -700q-89 -22 -89 -70q0 -18 16.5 -29t45.5 -11q23 0 51 9l2 -2q-62 -97 -116 -97q-43 0 -43 44q0 30 19 73l37 83h-108v2q22 15 24.5 32.5t-10.5 63.5l-30 115h-161q-12 -117 54 -211v-2h-163v2zM116 233h154 l-85 323h-2l-58 -273q-6 -28 -9 -50z" glyph-name="Aogonek" horiz-adv-x="496" unicode="Ą"/><glyph d="M114 -15q-46 0 -75 34.5t-29 93.5q0 104 108 162l47 25v2l-128 89q17 60 63 92t107 32q80 0 122.5 -42t42.5 -125v-247q0 -46 8 -64.5t32 -34.5v-2h-85q-89 -22 -89 -70q0 -18 16.5 -29t45.5 -11q22 0 51 9l2 -2q-62 -97 -116 -97q-43 0 -43 44q0 30 19 73l39 87l-6 84 h-2l-23 -36q-43 -67 -107 -67zM190 59q52 0 52 157v110l-20 -12q-77 -46 -77 -156q0 -99 45 -99zM176 307l66 35v61q0 51 -11.5 74t-36.5 23q-50 0 -34 -97z" glyph-name="aogonek" unicode="ą"/><glyph d="M248 -15q-102 0 -165 101.5t-63 265.5t64 263.5t170 99.5q71 0 123.5 -44t63.5 -108l-152 -95l-3 3l23 87q16 72 4.5 104t-41.5 32q-44 0 -73 -72.5t-29 -220.5q0 -163 37 -243.5t104 -80.5q52 0 85.5 42t65.5 121l3 -2q-22 -120 -79.5 -186.5t-137.5 -66.5zM224 735 l-2 2l13 209h140z" glyph-name="Cacute" horiz-adv-x="475" unicode="Ć"/><glyph d="M218 -15q-90 0 -144 72.5t-54 193.5q0 120 54.5 192t144.5 72q62 0 109.5 -38.5t57.5 -93.5l-140 -79l-2 2l15 95q8 41 0 70t-32 29q-67 0 -67 -202q0 -126 32 -184.5t82 -58.5q74 0 129 115l2 -1q-19 -83 -70 -133.5t-117 -50.5zM193 535l-2 2l13 209h140z" glyph-name="cacute" horiz-adv-x="410" unicode="ć"/><glyph d="M248 -15q-102 0 -165 101.5t-63 265.5t64 263.5t170 99.5q71 0 123.5 -44t63.5 -108l-152 -95l-3 3l23 87q16 72 4.5 104t-41.5 32q-44 0 -73 -72.5t-29 -220.5q0 -163 37 -243.5t104 -80.5q52 0 85.5 42t65.5 121l3 -2q-22 -120 -79.5 -186.5t-137.5 -66.5zM101 735 l153 240h2l153 -240h-2l-152 81l-152 -81h-2z" glyph-name="Ccircumflex" horiz-adv-x="475" unicode="Ĉ"/><glyph d="M218 -15q-90 0 -144 72.5t-54 193.5q0 120 54.5 192t144.5 72q62 0 109.5 -38.5t57.5 -93.5l-140 -79l-2 2l15 95q8 41 0 70t-32 29q-67 0 -67 -202q0 -126 32 -184.5t82 -58.5q74 0 129 115l2 -1q-19 -83 -70 -133.5t-117 -50.5zM70 535l153 240h2l153 -240h-2l-152 81 l-152 -81h-2z" glyph-name="ccircumflex" horiz-adv-x="410" unicode="ĉ"/><glyph d="M248 -15q-102 0 -165 101.5t-63 265.5t64 263.5t170 99.5q71 0 123.5 -44t63.5 -108l-152 -95l-3 3l23 87q16 72 4.5 104t-41.5 32q-44 0 -73 -72.5t-29 -220.5q0 -163 37 -243.5t104 -80.5q52 0 85.5 42t65.5 121l3 -2q-22 -120 -79.5 -186.5t-137.5 -66.5zM254 735 q-18 54 -41.5 77.5t-77.5 41.5v2q55 18 78 41t41 78h2q19 -55 41.5 -77.5t77.5 -41.5v-2q-54 -18 -77 -41t-42 -78h-2z" glyph-name="Cdotaccent" horiz-adv-x="475" unicode="Ċ"/><glyph d="M218 -15q-90 0 -144 72.5t-54 193.5q0 120 54.5 192t144.5 72q62 0 109.5 -38.5t57.5 -93.5l-140 -79l-2 2l15 95q8 41 0 70t-32 29q-67 0 -67 -202q0 -126 32 -184.5t82 -58.5q74 0 129 115l2 -1q-19 -83 -70 -133.5t-117 -50.5zM223 535q-18 54 -41.5 77.5t-77.5 41.5 v2q55 18 78 41t41 78h2q19 -55 41.5 -77.5t77.5 -41.5v-2q-54 -18 -77 -41t-42 -78h-2z" glyph-name="cdotaccent" horiz-adv-x="410" unicode="ċ"/><glyph d="M248 -15q-102 0 -165 101.5t-63 265.5t64 263.5t170 99.5q71 0 123.5 -44t63.5 -108l-152 -95l-3 3l23 87q16 72 4.5 104t-41.5 32q-44 0 -73 -72.5t-29 -220.5q0 -163 37 -243.5t104 -80.5q52 0 85.5 42t65.5 121l3 -2q-22 -120 -79.5 -186.5t-137.5 -66.5zM409 975 l-153 -240h-2l-153 240h2l152 -81l152 81h2z" glyph-name="Ccaron" horiz-adv-x="475" unicode="Č"/><glyph d="M218 -15q-90 0 -144 72.5t-54 193.5q0 120 54.5 192t144.5 72q62 0 109.5 -38.5t57.5 -93.5l-140 -79l-2 2l15 95q8 41 0 70t-32 29q-67 0 -67 -202q0 -126 32 -184.5t82 -58.5q74 0 129 115l2 -1q-19 -83 -70 -133.5t-117 -50.5zM378 775l-153 -240h-2l-153 240h2 l152 -81l152 81h2z" glyph-name="ccaron" horiz-adv-x="410" unicode="č"/><glyph d="M10 0v2q24 16 32 34.5t8 64.5v498q0 46 -8 64.5t-32 34.5v2h187q133 0 213.5 -95t80.5 -253q0 -160 -80.5 -256t-213.5 -96h-187zM391 975l-153 -240h-2l-153 240h2l152 -81l152 81h2zM190 20h6q75 0 110 78t35 246q0 336 -145 336h-6v-660z" glyph-name="Dcaron" horiz-adv-x="511" unicode="Ď"/><glyph d="M151 -15q-58 0 -94.5 64.5t-36.5 203.5q0 138 36.5 200t92.5 62q52 0 94 -59l35 -49h2v192q0 46 -10 64.5t-38 34.5v2h178v-599q0 -46 8 -64.5t32 -34.5v-2h-160l-6 98h-2l-39 -54q-43 -59 -92 -59zM215 55q65 0 65 193q0 197 -65 197q-29 0 -42 -42t-13 -153t13 -153 t42 -42zM502 375h-2l-20 325h145z" glyph-name="dcaron" horiz-adv-x="650" unicode="ď"/><glyph d="M14 0v2q24 16 32 34.5t8 64.5v270h-32v20h32v208q0 46 -8 64.5t-32 34.5v2h187q133 0 213.5 -95t80.5 -253q0 -160 -80.5 -256t-213.5 -96h-187zM194 20h6q75 0 110 78t35 246q0 336 -145 336h-6v-289h92v-20h-92v-351z" glyph-name="Dcroat" horiz-adv-x="528" unicode="Đ"/><glyph d="M151 -15q-58 0 -94.5 64.5t-36.5 203.5q0 138 36.5 200t92.5 62q52 0 94 -59l35 -49h2v192v1h-115v15h115q-1 36 -11.5 52.5t-36.5 30.5v2h178v-85h51v-15h-51v-499q0 -46 8 -64.5t32 -34.5v-2h-160l-6 98h-2l-39 -54q-43 -59 -92 -59zM215 55q65 0 65 193q0 197 -65 197 q-29 0 -42 -42t-13 -153t13 -153t42 -42z" glyph-name="dcroat" horiz-adv-x="471" unicode="đ"/><glyph d="M10 0v2q24 16 32 34.5t8 64.5v498q0 46 -8 64.5t-32 34.5v2h409v-202h-2q-71 118 -102.5 150t-90.5 32h-34v-289h19q32 0 58 28.5t60 100.5h2l20 -276h-2q-45 70 -75.5 98.5t-62.5 28.5h-19v-351h29q32 0 55.5 14t59.5 63t94 152h2l-19 -249h-401zM89 851v15h308v-15 h-308z" glyph-name="Emacron" horiz-adv-x="450" unicode="Ē"/><glyph d="M219 -15q-90 0 -144.5 72.5t-54.5 193.5q0 120 56 192t149 72q86 0 134 -67t40 -177h-239v-10q0 -96 33 -151t81 -55q74 0 129 115l2 -1q-19 -83 -69.5 -133.5t-116.5 -50.5zM68 651v15h308v-15h-308zM160 286h102l3 99q4 115 -40 115q-62 0 -65 -214z" glyph-name="emacron" horiz-adv-x="420" unicode="ē"/><glyph d="M10 0v2q24 16 32 34.5t8 64.5v498q0 46 -8 64.5t-32 34.5v2h409v-202h-2q-71 118 -102.5 150t-90.5 32h-34v-289h19q32 0 58 28.5t60 100.5h2l20 -276h-2q-45 70 -75.5 98.5t-62.5 28.5h-19v-351h29q32 0 55.5 14t59.5 63t94 152h2l-19 -249h-401zM242 735 q-18 54 -41.5 77.5t-77.5 41.5v2q55 18 78 41t41 78h2q19 -55 41.5 -77.5t77.5 -41.5v-2q-54 -18 -77 -41t-42 -78h-2z" glyph-name="Edotaccent" horiz-adv-x="450" unicode="Ė"/><glyph d="M219 -15q-90 0 -144.5 72.5t-54.5 193.5q0 120 56 192t149 72q86 0 134 -67t40 -177h-239v-10q0 -96 33 -151t81 -55q74 0 129 115l2 -1q-19 -83 -69.5 -133.5t-116.5 -50.5zM221 535q-18 54 -41.5 77.5t-77.5 41.5v2q55 18 78 41t41 78h2q19 -55 41.5 -77.5t77.5 -41.5 v-2q-54 -18 -77 -41t-42 -78h-2zM160 286h102l3 99q4 115 -40 115q-62 0 -65 -214z" glyph-name="edotaccent" horiz-adv-x="420" unicode="ė"/><glyph d="M10 0v2q24 16 32 34.5t8 64.5v498q0 46 -8 64.5t-32 34.5v2h409v-202h-2q-71 118 -102.5 150t-90.5 32h-34v-289h19q32 0 58 28.5t60 100.5h2l20 -276h-2q-45 70 -75.5 98.5t-62.5 28.5h-19v-351h29q32 0 55.5 14t59.5 63t94 152h2l-19 -249q-89 -22 -89 -70 q0 -18 16.5 -29t45.5 -11q22 0 51 9l2 -2q-62 -97 -116 -97q-43 0 -43 44q0 30 19 73l37 83h-324z" glyph-name="Eogonek" horiz-adv-x="450" unicode="Ę"/><glyph d="M188 -200q-43 0 -43 44q0 30 19 73l31 69q-80 11 -127.5 82t-47.5 183q0 120 56 192t149 72q86 0 134 -67t40 -177h-239v-10q0 -96 33 -151t81 -55q74 0 129 115l2 -1q-18 -78 -63.5 -127.5t-106.5 -55.5q-46 -21 -46 -56q0 -18 16.5 -29t45.5 -11q23 0 51 9l2 -2 q-62 -97 -116 -97zM160 286h102l3 99q4 115 -40 115q-62 0 -65 -214z" glyph-name="eogonek" horiz-adv-x="420" unicode="ę"/><glyph d="M10 0v2q24 16 32 34.5t8 64.5v498q0 46 -8 64.5t-32 34.5v2h409v-202h-2q-71 118 -102.5 150t-90.5 32h-34v-289h19q32 0 58 28.5t60 100.5h2l20 -276h-2q-45 70 -75.5 98.5t-62.5 28.5h-19v-351h29q32 0 55.5 14t59.5 63t94 152h2l-19 -249h-401zM397 975l-153 -240h-2 l-153 240h2l152 -81l152 81h2z" glyph-name="Ecaron" horiz-adv-x="450" unicode="Ě"/><glyph d="M219 -15q-90 0 -144.5 72.5t-54.5 193.5q0 120 56 192t149 72q86 0 134 -67t40 -177h-239v-10q0 -96 33 -151t81 -55q74 0 129 115l2 -1q-19 -83 -69.5 -133.5t-116.5 -50.5zM376 775l-153 -240h-2l-153 240h2l152 -81l152 81h2zM160 286h102l3 99q4 115 -40 115 q-62 0 -65 -214z" glyph-name="ecaron" horiz-adv-x="420" unicode="ě"/><glyph d="M245 -15q-100 0 -162.5 100.5t-62.5 263.5q0 166 66 266t173 100q72 0 126.5 -44t65.5 -108l-152 -95l-3 3l23 87q15 72 0.5 104t-48.5 32q-51 0 -76 -79t-25 -249q0 -183 26.5 -265t81.5 -82q20 0 38 18t18 56v228h-90v20h221v-356h-2l-115 76q-20 -76 -103 -76z M108 735l153 240h2l153 -240h-2l-152 81l-152 -81h-2z" glyph-name="Gcircumflex" horiz-adv-x="505" unicode="Ĝ"/><glyph d="M123 -187q-55 0 -84 21.5t-29 56.5q0 36 26 74l30 44q-34 15 -34 53q0 32 35 79l28 39v2q-70 53 -70 152q0 78 49 129.5t143 51.5q48 0 84 -15h125v-15h-94v-2q73 -53 73 -149q0 -77 -48.5 -133t-140.5 -56q-43 0 -72 11q-28 10 -44 2.5t-16 -26.5q0 -27 33 -27h196 q116 0 116 -104q0 -39 -11 -69.5t-27 -49.5t-41 -33t-45.5 -21t-49 -10.5t-43.5 -4t-36 -0.5h-53zM216 160q27 0 38 38t11 127q0 93 -11.5 134t-37.5 41q-27 0 -39 -41.5t-12 -132.5q0 -90 12 -128t39 -38zM62 535l153 240h2l153 -240h-2l-152 81l-152 -81h-2zM50 -51 q0 -16 11.5 -26t30.5 -10h271q19 0 30.5 10t11.5 26t-11.5 26t-30.5 10h-271q-19 0 -30.5 -10t-11.5 -26z" glyph-name="gcircumflex" horiz-adv-x="449" unicode="ĝ"/><glyph d="M245 -15q-100 0 -162.5 100.5t-62.5 263.5q0 166 66 266t173 100q72 0 126.5 -44t65.5 -108l-152 -95l-3 3l23 87q15 72 0.5 104t-48.5 32q-51 0 -76 -79t-25 -249q0 -183 26.5 -265t81.5 -82q20 0 38 18t18 56v228h-90v20h221v-356h-2l-115 76q-20 -76 -103 -76z M140 953q10 -43 33 -58.5t89 -15.5q67 0 89 15.5t33 58.5h2q-4 -180 -124 -180q-57 0 -88.5 41t-35.5 139h2z" glyph-name="Gbreve" horiz-adv-x="505" unicode="Ğ"/><glyph d="M123 -187q-55 0 -84 21.5t-29 56.5q0 36 26 74l30 44q-34 15 -34 53q0 32 35 79l28 39v2q-70 53 -70 152q0 78 49 129.5t143 51.5q48 0 84 -15h125v-15h-94v-2q73 -53 73 -149q0 -77 -48.5 -133t-140.5 -56q-43 0 -72 11q-28 10 -44 2.5t-16 -26.5q0 -27 33 -27h196 q116 0 116 -104q0 -39 -11 -69.5t-27 -49.5t-41 -33t-45.5 -21t-49 -10.5t-43.5 -4t-36 -0.5h-53zM216 160q27 0 38 38t11 127q0 93 -11.5 134t-37.5 41q-27 0 -39 -41.5t-12 -132.5q0 -90 12 -128t39 -38zM94 753q10 -43 33 -58.5t89 -15.5q67 0 89 15.5t33 58.5h2 q-4 -180 -124 -180q-57 0 -88.5 41t-35.5 139h2zM50 -51q0 -16 11.5 -26t30.5 -10h271q19 0 30.5 10t11.5 26t-11.5 26t-30.5 10h-271q-19 0 -30.5 -10t-11.5 -26z" glyph-name="gbreve" horiz-adv-x="449" unicode="ğ"/><glyph d="M245 -15q-100 0 -162.5 100.5t-62.5 263.5q0 166 66 266t173 100q72 0 126.5 -44t65.5 -108l-152 -95l-3 3l23 87q15 72 0.5 104t-48.5 32q-51 0 -76 -79t-25 -249q0 -183 26.5 -265t81.5 -82q20 0 38 18t18 56v228h-90v20h221v-356h-2l-115 76q-20 -76 -103 -76z M261 735q-18 54 -41.5 77.5t-77.5 41.5v2q55 18 78 41t41 78h2q19 -55 41.5 -77.5t77.5 -41.5v-2q-54 -18 -77 -41t-42 -78h-2z" glyph-name="Gdotaccent" horiz-adv-x="505" unicode="Ġ"/><glyph d="M123 -187q-55 0 -84 21.5t-29 56.5q0 36 26 74l30 44q-34 15 -34 53q0 32 35 79l28 39v2q-70 53 -70 152q0 78 49 129.5t143 51.5q48 0 84 -15h125v-15h-94v-2q73 -53 73 -149q0 -77 -48.5 -133t-140.5 -56q-43 0 -72 11q-28 10 -44 2.5t-16 -26.5q0 -27 33 -27h196 q116 0 116 -104q0 -39 -11 -69.5t-27 -49.5t-41 -33t-45.5 -21t-49 -10.5t-43.5 -4t-36 -0.5h-53zM216 160q27 0 38 38t11 127q0 93 -11.5 134t-37.5 41q-27 0 -39 -41.5t-12 -132.5q0 -90 12 -128t39 -38zM215 535q-18 54 -41.5 77.5t-77.5 41.5v2q55 18 78 41t41 78h2 q19 -55 41.5 -77.5t77.5 -41.5v-2q-54 -18 -77 -41t-42 -78h-2zM50 -51q0 -16 11.5 -26t30.5 -10h271q19 0 30.5 10t11.5 26t-11.5 26t-30.5 10h-271q-19 0 -30.5 -10t-11.5 -26z" glyph-name="gdotaccent" horiz-adv-x="449" unicode="ġ"/><glyph d="M245 -15q-100 0 -162.5 100.5t-62.5 263.5q0 166 66 266t173 100q72 0 126.5 -44t65.5 -108l-152 -95l-3 3l23 87q15 72 0.5 104t-48.5 32q-51 0 -76 -79t-25 -249q0 -183 26.5 -265t81.5 -82q20 0 38 18t18 56v228h-90v20h221v-356h-2l-115 76q-20 -76 -103 -76z M202 -275l-2 2l38 135h-57v2l74 101q37 0 62.5 -21t25.5 -53q0 -70 -141 -166z" glyph-name="uni0122" horiz-adv-x="505" unicode="Ģ"/><glyph d="M123 -187q-55 0 -84 21.5t-29 56.5q0 36 26 74l30 44q-34 15 -34 53q0 32 35 79l28 39v2q-70 53 -70 152q0 78 49 129.5t143 51.5q48 0 84 -15h125v-15h-94v-2q73 -53 73 -149q0 -77 -48.5 -133t-140.5 -56q-43 0 -72 11q-28 10 -44 2.5t-16 -26.5q0 -27 33 -27h196 q116 0 116 -104q0 -39 -11 -69.5t-27 -49.5t-41 -33t-45.5 -21t-49 -10.5t-43.5 -4t-36 -0.5h-53zM216 160q27 0 38 38t11 127q0 93 -11.5 134t-37.5 41q-27 0 -39 -41.5t-12 -132.5q0 -90 12 -128t39 -38zM276 775l2 -2l-38 -135h57v-2l-74 -101q-37 0 -62.5 21t-25.5 53 q0 70 141 166zM50 -51q0 -16 11.5 -26t30.5 -10h271q19 0 30.5 10t11.5 26t-11.5 26t-30.5 10h-271q-19 0 -30.5 -10t-11.5 -26z" glyph-name="uni0123" horiz-adv-x="449" unicode="ģ"/><glyph d="M230 700v-2q-24 -16 -32 -34.5t-8 -64.5v-208h130v208q0 46 -8 64.5t-32 34.5v2h220v-2q-24 -16 -32 -34.5t-8 -64.5v-498q0 -46 8 -64.5t32 -34.5v-2h-220v2q24 16 32 34.5t8 64.5v270h-130v-270q0 -46 8 -64.5t32 -34.5v-2h-220v2q24 16 32 34.5t8 64.5v498 q0 46 -8 64.5t-32 34.5v2h220zM101 735l153 240h2l153 -240h-2l-152 81l-152 -81h-2z" glyph-name="Hcircumflex" horiz-adv-x="510" unicode="Ĥ"/><glyph d="M10 0v2q24 16 32 34.5t8 64.5v498q0 46 -8 64.5t-32 34.5v2h170v-315h2l40 61q24 37 47 53t55 16q48 0 77 -34.5t29 -110.5v-269q0 -46 8 -64.5t32 -34.5v-2h-206v2q21 16 28.5 34.5t7.5 64.5v289q0 26 -12 39.5t-28 13.5q-18 0 -35 -15t-31 -59t-14 -112v-156 q0 -46 7.5 -64.5t28.5 -34.5v-2h-206zM-43 735l153 240h2l153 -240h-2l-152 81l-152 -81h-2z" glyph-name="hcircumflex" horiz-adv-x="480" unicode="ĥ"/><glyph d="M233 700v-2q-24 -16 -32 -34.5t-8 -64.5v-54h130v54q0 46 -8 64.5t-32 34.5v2h220v-2q-24 -16 -32 -34.5t-8 -64.5v-54h30v-15h-30v-429q0 -46 8 -64.5t32 -34.5v-2h-220v2q24 16 32 34.5t8 64.5v270h-130v-270q0 -46 8 -64.5t32 -34.5v-2h-220v2q24 16 32 34.5t8 64.5 v429h-30v15h30v54q0 46 -8 64.5t-32 34.5v2h220zM193 391h130v139h-130v-139z" glyph-name="Hbar" horiz-adv-x="516" unicode="Ħ"/><glyph d="M11 600v15h39q-1 36 -9.5 52.5t-30.5 30.5v2h170v-85h127v-15h-127v-215h2l40 61q24 37 47 53t55 16q48 0 77 -34.5t29 -110.5v-269q0 -46 8 -64.5t32 -34.5v-2h-206v2q21 16 28.5 34.5t7.5 64.5v289q0 26 -12 39.5t-28 13.5q-18 0 -35 -15t-31 -59t-14 -112v-156 q0 -46 7.5 -64.5t28.5 -34.5v-2h-206v2q24 16 32 34.5t8 64.5v498v1h-39z" glyph-name="hbar" horiz-adv-x="480" unicode="ħ"/><glyph d="M230 700v-2q-24 -16 -32 -34.5t-8 -64.5v-498q0 -46 8 -64.5t32 -34.5v-2h-220v2q24 16 32 34.5t8 64.5v498q0 46 -8 64.5t-32 34.5v2h220zM-29 777q0 159 90 159q31 0 78 -28.5t66 -28.5q22 0 35.5 13t26.5 44h2q0 -159 -90 -159q-31 0 -77 28.5t-66 28.5q-24 0 -37 -13 t-26 -44h-2z" glyph-name="Itilde" horiz-adv-x="240" unicode="Ĩ"/><glyph d="M220 500v-2q-24 -16 -32 -34.5t-8 -64.5v-298q0 -46 8 -64.5t32 -34.5v-2h-210v2q24 16 32 34.5t8 64.5v298q0 46 -8 64.5t-32 34.5v2h210zM-34 577q0 159 90 159q31 0 77.5 -28.5t66.5 -28.5q22 0 35.5 13t26.5 44h2q0 -159 -90 -159q-32 0 -78 28.5t-65 28.5 q-24 0 -37 -13t-26 -44h-2z" glyph-name="itilde" horiz-adv-x="230" unicode="ĩ"/><glyph d="M230 700v-2q-24 -16 -32 -34.5t-8 -64.5v-498q0 -46 8 -64.5t32 -34.5v-2h-220v2q24 16 32 34.5t8 64.5v498q0 46 -8 64.5t-32 34.5v2h220zM-34 851v15h308v-15h-308z" glyph-name="Imacron" horiz-adv-x="240" unicode="Ī"/><glyph d="M220 500v-2q-24 -16 -32 -34.5t-8 -64.5v-298q0 -46 8 -64.5t32 -34.5v-2h-210v2q24 16 32 34.5t8 64.5v298q0 46 -8 64.5t-32 34.5v2h210zM-39 651v15h308v-15h-308z" glyph-name="imacron" horiz-adv-x="230" unicode="ī"/><glyph d="M230 700v-2q-24 -16 -32 -34.5t-8 -64.5v-498q0 -46 8 -64.5t32 -34.5v-2h-70q-89 -22 -89 -70q0 -18 16.5 -29t45.5 -11q23 0 51 9l2 -2q-62 -97 -116 -97q-43 0 -43 44q0 30 19 73l37 83h-73v2q24 16 32 34.5t8 64.5v498q0 46 -8 64.5t-32 34.5v2h220z" glyph-name="Iogonek" horiz-adv-x="240" unicode="Į"/><glyph d="M220 500v-2q-24 -16 -32 -34.5t-8 -64.5v-298q0 -46 8 -64.5t32 -34.5v-2h-50q-89 -22 -89 -70q0 -18 16.5 -29t45.5 -11q23 0 51 9l2 -2q-62 -97 -116 -97q-43 0 -43 44q0 30 19 73l37 83h-83v2q24 16 32 34.5t8 64.5v298q0 46 -8 64.5t-32 34.5v2h210zM114 535 q-18 54 -41.5 77.5t-77.5 41.5v2q55 18 78 41t41 78h2q19 -55 41.5 -77.5t77.5 -41.5v-2q-54 -18 -77 -41t-42 -78h-2z" glyph-name="iogonek" horiz-adv-x="230" unicode="į"/><glyph d="M230 700v-2q-24 -16 -32 -34.5t-8 -64.5v-498q0 -46 8 -64.5t32 -34.5v-2h-220v2q24 16 32 34.5t8 64.5v498q0 46 -8 64.5t-32 34.5v2h220zM119 735q-18 54 -41.5 77.5t-77.5 41.5v2q55 18 78 41t41 78h2q19 -55 41.5 -77.5t77.5 -41.5v-2q-54 -18 -77 -41t-42 -78h-2z " glyph-name="Idotaccent" horiz-adv-x="240" unicode="İ"/><glyph d="M220 500v-2q-24 -16 -32 -34.5t-8 -64.5v-298q0 -46 8 -64.5t32 -34.5v-2h-210v2q24 16 32 34.5t8 64.5v298q0 46 -8 64.5t-32 34.5v2h210z" glyph-name="dotlessi" horiz-adv-x="230" unicode="ı"/><glyph d="M230 700v-2q-24 -16 -32 -34.5t-8 -64.5v-498q0 -46 8 -64.5t32 -34.5v-2h-220v2q24 16 32 34.5t8 64.5v498q0 46 -8 64.5t-32 34.5v2h220zM399 -15q-66 0 -106 43t-48 117l165 123l1 -2l-34 -117q-41 -144 25 -144q34 0 55 36t21 110v448q0 46 -8 64.5t-32 34.5v2h180 v-400q0 -82 -15 -132.5t-54 -98.5q-68 -84 -150 -84z" glyph-name="IJ" horiz-adv-x="653" unicode="Ĳ"/><glyph d="M220 500v-2q-24 -16 -32 -34.5t-8 -64.5v-298q0 -46 8 -64.5t32 -34.5v-2h-210v2q24 16 32 34.5t8 64.5v298q0 46 -8 64.5t-32 34.5v2h210zM114 535q-18 54 -41.5 77.5t-77.5 41.5v2q55 18 78 41t41 78h2q18 -53 40 -76t74 -41q51 17 73.5 40.5t39.5 76.5h2 q19 -55 41.5 -77.5t77.5 -41.5v-2q-54 -18 -77 -41t-42 -78h-2q-17 53 -39.5 76.5t-73.5 40.5q-51 -17 -73.5 -40t-40.5 -77h-2zM239 -200l-2 2l7 12q36 63 36 186v399q0 46 -8 64.5t-32 34.5v2h210v-2q-24 -16 -32 -34.5t-8 -64.5v-276q0 -74 -27 -134.5t-98 -138.5z" glyph-name="ij" horiz-adv-x="460" unicode="ĳ"/><glyph d="M159 -15q-66 0 -106 43t-48 117l165 123l1 -2l-34 -117q-41 -144 25 -144q34 0 55 36t21 110v448q0 46 -8 64.5t-32 34.5v2h180v-400q0 -82 -15 -132.5t-54 -98.5q-68 -84 -150 -84zM144 735l153 240h2l153 -240h-2l-152 81l-152 -81h-2z" glyph-name="Jcircumflex" horiz-adv-x="413" unicode="Ĵ"/><glyph d="M9 -200l-2 2l7 12q36 63 36 186v399q0 46 -8 64.5t-32 34.5v2h210v-2q-24 -16 -32 -34.5t-8 -64.5v-276q0 -74 -27 -134.5t-98 -138.5zM-40 535l153 240h2l153 -240h-2l-152 81l-152 -81h-2z" glyph-name="jcircumflex" horiz-adv-x="230" unicode="ĵ"/><glyph d="M10 0v2q24 16 32 34.5t8 64.5v498q0 46 -8 64.5t-32 34.5v2h220v-2q-24 -16 -32 -34.5t-8 -64.5v-297l142 256q20 34 15 67.5t-40 72.5v2h201v-2q-120 -69 -156 -140q-18 -36 -15 -76.5t28 -107.5l143 -374h-217v2q23 15 26.5 32.5t-6.5 64.5l-57 275l-64 -115v-158 q0 -46 8 -64.5t32 -34.5v-2h-220zM194 -275l-2 2l38 135h-57v2l74 101q37 0 62.5 -21t25.5 -53q0 -70 -141 -166z" glyph-name="uni0136" horiz-adv-x="513" unicode="Ķ"/><glyph d="M10 0v2q24 16 32 34.5t8 64.5v498q0 46 -8 64.5t-32 34.5v2h210v-2q-24 -16 -32 -34.5t-8 -64.5v-389h2l90 142q26 40 26 67.5t-36 78.5v2h166v-2q-81 -48 -107 -90q-17 -33 -15.5 -54.5t18.5 -62.5l121 -291h-192v2q22 15 25.5 32.5t-6.5 64.5l-35 167l-57 -86v-79 q0 -46 8 -64.5t32 -34.5v-2h-210zM184 -275l-2 2l38 135h-57v2l74 101q37 0 62.5 -21t25.5 -53q0 -70 -141 -166z" glyph-name="uni0137" horiz-adv-x="450" unicode="ķ"/><glyph d="M10 0v2q24 16 32 34.5t8 64.5v498q0 46 -8 64.5t-32 34.5v2h220v-2q-24 -16 -32 -34.5t-8 -64.5v-579h29q35 0 60.5 17.5t63.5 75t98 176.5h2l-22 -289h-411zM89 735l-2 2l13 209h140z" glyph-name="Lacute" horiz-adv-x="453" unicode="Ĺ"/><glyph d="M10 0v2q24 16 32 34.5t8 64.5v498q0 46 -8 64.5t-32 34.5v2h170v-599q0 -46 8 -64.5t32 -34.5v-2h-210zM84 735l-2 2l13 209h140z" glyph-name="lacute" horiz-adv-x="230" unicode="ĺ"/><glyph d="M10 0v2q24 16 32 34.5t8 64.5v498q0 46 -8 64.5t-32 34.5v2h220v-2q-24 -16 -32 -34.5t-8 -64.5v-579h29q35 0 60.5 17.5t63.5 75t98 176.5h2l-22 -289h-411zM144 -275l-2 2l38 135h-57v2l74 101q37 0 62.5 -21t25.5 -53q0 -70 -141 -166z" glyph-name="uni013B" horiz-adv-x="453" unicode="Ļ"/><glyph d="M10 0v2q24 16 32 34.5t8 64.5v498q0 46 -8 64.5t-32 34.5v2h170v-599q0 -46 8 -64.5t32 -34.5v-2h-210zM55 -275l-2 2l38 135h-57v2l74 101q37 0 62.5 -21t25.5 -53q0 -70 -141 -166z" glyph-name="uni013C" horiz-adv-x="230" unicode="ļ"/><glyph d="M10 0v2q24 16 32 34.5t8 64.5v498q0 46 -8 64.5t-32 34.5v2h220v-2q-24 -16 -32 -34.5t-8 -64.5v-579h29q35 0 60.5 17.5t63.5 75t98 176.5h2l-22 -289h-411zM317 375h-2l-20 325h145z" glyph-name="Lcaron" horiz-adv-x="453" unicode="Ľ"/><glyph d="M10 0v2q24 16 32 34.5t8 64.5v498q0 46 -8 64.5t-32 34.5v2h170v-599q0 -46 8 -64.5t32 -34.5v-2h-210zM262 375h-2l-20 325h145z" glyph-name="lcaron" horiz-adv-x="410" unicode="ľ"/><glyph d="M10 0v2q24 16 32 34.5t8 64.5v498q0 46 -8 64.5t-32 34.5v2h220v-2q-24 -16 -32 -34.5t-8 -64.5v-579h29q35 0 60.5 17.5t63.5 75t98 176.5h2l-22 -289h-411zM343 265q-18 54 -41.5 77.5t-77.5 41.5v2q55 18 78 41t41 78h2q19 -55 41.5 -77.5t77.5 -41.5v-2 q-54 -18 -77 -41t-42 -78h-2z" glyph-name="Ldot" horiz-adv-x="453" unicode="Ŀ"/><glyph d="M14 0v2q24 16 32 34.5t8 64.5v203l-32 -14v22l32 14v273q0 46 -8 64.5t-32 34.5v2h220v-2q-24 -16 -32 -34.5t-8 -64.5v-211l124 54v-22l-124 -54v-346h29q35 0 60.5 17.5t63.5 75t98 176.5h2l-22 -289h-411z" glyph-name="Lslash" horiz-adv-x="457" unicode="Ł"/><glyph d="M28 0v2q24 16 32 34.5t8 64.5v140l-58 -26v17l58 26v341q0 46 -8 64.5t-32 34.5v2h170v-385l62 27v-17l-62 -27v-197q0 -46 8 -64.5t32 -34.5v-2h-210z" glyph-name="lslash" horiz-adv-x="270" unicode="ł"/><glyph d="M426 -15l-343 574h-2v-276q0 -92 20.5 -154.5t72.5 -126.5v-2h-169v2q29 38 42.5 101.5t13.5 179.5v255q0 40 -5.5 62.5t-26.5 57.5l-24 40v2h162l239 -411h2v128q0 91 -18.5 153.5t-64.5 127.5v2h159v-2q-31 -58 -43.5 -120.5t-12.5 -160.5v-432h-2zM224 735l-2 2 l13 209h140z" glyph-name="Nacute" horiz-adv-x="489" unicode="Ń"/><glyph d="M10 0v2q24 16 32 34.5t8 64.5v298q0 46 -8 64.5t-32 34.5v2h160l7 -120h2l43 66q24 37 47 53t55 16q48 0 77 -34.5t29 -110.5v-269q0 -46 8 -64.5t32 -34.5v-2h-206v2q21 16 28.5 34.5t7.5 64.5v289q0 26 -12 39.5t-28 13.5q-18 0 -35 -15t-31 -59t-14 -112v-156 q0 -46 7.5 -64.5t28.5 -34.5v-2h-206zM215 535l-2 2l13 209h140z" glyph-name="nacute" horiz-adv-x="480" unicode="ń"/><glyph d="M426 -15l-343 574h-2v-276q0 -92 20.5 -154.5t72.5 -126.5v-2h-169v2q29 38 42.5 101.5t13.5 179.5v255q0 40 -5.5 62.5t-26.5 57.5l-24 40v2h162l239 -411h2v128q0 91 -18.5 153.5t-64.5 127.5v2h159v-2q-31 -58 -43.5 -120.5t-12.5 -160.5v-432h-2zM190 -275l-2 2 l38 135h-57v2l74 101q37 0 62.5 -21t25.5 -53q0 -70 -141 -166z" glyph-name="uni0145" horiz-adv-x="489" unicode="Ņ"/><glyph d="M10 0v2q24 16 32 34.5t8 64.5v298q0 46 -8 64.5t-32 34.5v2h160l7 -120h2l43 66q24 37 47 53t55 16q48 0 77 -34.5t29 -110.5v-269q0 -46 8 -64.5t32 -34.5v-2h-206v2q21 16 28.5 34.5t7.5 64.5v289q0 26 -12 39.5t-28 13.5q-18 0 -35 -15t-31 -59t-14 -112v-156 q0 -46 7.5 -64.5t28.5 -34.5v-2h-206zM181 -275l-2 2l38 135h-57v2l74 101q37 0 62.5 -21t25.5 -53q0 -70 -141 -166z" glyph-name="uni0146" horiz-adv-x="480" unicode="ņ"/><glyph d="M426 -15l-343 574h-2v-276q0 -92 20.5 -154.5t72.5 -126.5v-2h-169v2q29 38 42.5 101.5t13.5 179.5v255q0 40 -5.5 62.5t-26.5 57.5l-24 40v2h162l239 -411h2v128q0 91 -18.5 153.5t-64.5 127.5v2h159v-2q-31 -58 -43.5 -120.5t-12.5 -160.5v-432h-2zM409 975l-153 -240 h-2l-153 240h2l152 -81l152 81h2z" glyph-name="Ncaron" horiz-adv-x="489" unicode="Ň"/><glyph d="M10 0v2q24 16 32 34.5t8 64.5v298q0 46 -8 64.5t-32 34.5v2h160l7 -120h2l43 66q24 37 47 53t55 16q48 0 77 -34.5t29 -110.5v-269q0 -46 8 -64.5t32 -34.5v-2h-206v2q21 16 28.5 34.5t7.5 64.5v289q0 26 -12 39.5t-28 13.5q-18 0 -35 -15t-31 -59t-14 -112v-156 q0 -46 7.5 -64.5t28.5 -34.5v-2h-206zM400 775l-153 -240h-2l-153 240h2l152 -81l152 81h2z" glyph-name="ncaron" horiz-adv-x="480" unicode="ň"/><glyph d="M247 -200l-2 2l21 36q62 107 62 209q0 60 -18 111.5t-65 129.5l-162 271h-2v-276q0 -92 20.5 -154.5t72.5 -126.5v-2h-169v2q29 38 42.5 101.5t13.5 179.5v255q0 41 -5 63t-24 53l-27 44v2h162l239 -411h2v128q0 91 -18.5 153.5t-64.5 127.5v2h159v-2 q-31 -58 -43.5 -120.5t-12.5 -160.5v-244q0 -91 -26 -162.5t-91 -141.5z" glyph-name="Eng" horiz-adv-x="489" unicode="Ŋ"/><glyph d="M310 390q0 27 -12 40t-31 13q-16 0 -32 -14.5t-30.5 -59.5t-14.5 -112v-156q0 -46 7.5 -64.5t28.5 -34.5v-2h-206v2q24 16 32 34.5t8 64.5v298q0 46 -8 64.5t-32 34.5v2h160l7 -120h2l43 66q44 69 98 69q110 0 110 -145v-247q0 -74 -27 -134.5t-98 -138.5l-46 -50l-2 2 l6 12q37 75 37 186v390z" glyph-name="eng" horiz-adv-x="490" unicode="ŋ"/><glyph d="M266 -15q-111 0 -178.5 100.5t-67.5 265.5t67.5 264.5t178.5 99.5t178 -99t67 -265t-67 -266t-178 -100zM266 5q49 0 72 81t23 257q0 352 -95 352q-96 0 -96 -352q0 -175 23 -256.5t73 -81.5zM112 851v15h308v-15h-308z" glyph-name="Omacron" horiz-adv-x="531" unicode="Ō"/><glyph d="M221 -15q-91 0 -146 72.5t-55 193.5q0 120 55 192t146 72q90 0 144.5 -72t54.5 -192q0 -121 -54.5 -193.5t-144.5 -72.5zM221 0q59 0 59 241q0 259 -59 259q-61 0 -61 -259q0 -241 61 -241zM66 651v15h308v-15h-308z" glyph-name="omacron" horiz-adv-x="440" unicode="ō"/><glyph d="M266 -15q-111 0 -178.5 100.5t-67.5 265.5t67.5 264.5t178.5 99.5t178 -99t67 -265t-67 -266t-178 -100zM266 5q49 0 72 81t23 257q0 352 -95 352q-96 0 -96 -352q0 -175 23 -256.5t73 -81.5zM157 735l-2 2l13 209h140zM307 735l-2 2l13 209h140z" glyph-name="Ohungarumlaut" horiz-adv-x="531" unicode="Ő"/><glyph d="M221 -15q-91 0 -146 72.5t-55 193.5q0 120 55 192t146 72q90 0 144.5 -72t54.5 -192q0 -121 -54.5 -193.5t-144.5 -72.5zM221 0q59 0 59 241q0 259 -59 259q-61 0 -61 -259q0 -241 61 -241zM111 535l-2 2l13 209h140zM261 535l-2 2l13 209h140z" glyph-name="ohungarumlaut" horiz-adv-x="440" unicode="ő"/><glyph d="M266 -15q-111 0 -178.5 100.5t-67.5 265.5t67.5 264.5t178.5 99.5q42 0 78 -15h366v-202h-2q-71 118 -102.5 150t-90.5 32h-133q55 -38 88.5 -113t39.5 -176q33 0 57.5 29t50.5 100h2l20 -276h-2q-37 69 -66.5 98t-60.5 29v-20q0 -117 -34.5 -203t-95.5 -128h129 q32 0 55.5 14t59.5 63t94 152h2l-19 -249h-358q-36 -15 -78 -15zM266 5q49 0 72 81t23 257q0 352 -95 352q-96 0 -96 -352q0 -175 23 -256.5t73 -81.5z" glyph-name="OE" horiz-adv-x="741" unicode="Œ"/><glyph d="M221 -15q-91 0 -146 72.5t-55 193.5q0 120 55 192t146 72q82 0 133 -59q54 59 138 59q86 0 134 -67t40 -177h-239v-10q0 -96 33 -151t81 -55q74 0 129 115l2 -1q-19 -83 -69.5 -133.5t-116.5 -50.5q-80 0 -132 58q-53 -58 -133 -58zM221 0q59 0 59 241q0 259 -59 259 q-61 0 -61 -259q0 -241 61 -241zM427 286h102l3 99q4 115 -40 115q-62 0 -65 -214z" glyph-name="oe" horiz-adv-x="687" unicode="œ"/><glyph d="M10 0v2q24 16 32 34.5t8 64.5v498q0 46 -8 64.5t-32 34.5v2h330q118 0 118 -84q0 -30 -20 -59.5t-69 -77.5q-27 -27 -28 -57t20 -78l137 -344h-213v2q22 15 25 32.5t-8 63.5l-62 268h-2l-48 -44v-221q0 -46 8 -64.5t32 -34.5v-2h-220zM203 735l-2 2l13 209h140zM190 351 q69 69 97.5 121t28.5 103q0 55 -30.5 80t-95.5 25v-329z" glyph-name="Racute" horiz-adv-x="503" unicode="Ŕ"/><glyph d="M15 0v2q24 16 32 34.5t8 64.5v298q0 46 -8 64.5t-32 34.5v2h160l7 -120h2l46 71q22 35 42 49.5t60 14.5v-192h-2l-60 40q-45 31 -65 20.5t-20 -66.5v-216q0 -46 10 -64.5t38 -34.5v-2h-218zM162 535l-2 2l13 209h140z" glyph-name="racute" horiz-adv-x="342" unicode="ŕ"/><glyph d="M10 0v2q24 16 32 34.5t8 64.5v498q0 46 -8 64.5t-32 34.5v2h330q118 0 118 -84q0 -30 -20 -59.5t-69 -77.5q-27 -27 -28 -57t20 -78l137 -344h-213v2q22 15 25 32.5t-8 63.5l-62 268h-2l-48 -44v-221q0 -46 8 -64.5t32 -34.5v-2h-220zM197 -275l-2 2l38 135h-57v2l74 101 q37 0 62.5 -21t25.5 -53q0 -70 -141 -166zM190 351q69 69 97.5 121t28.5 103q0 55 -30.5 80t-95.5 25v-329z" glyph-name="uni0156" horiz-adv-x="503" unicode="Ŗ"/><glyph d="M15 0v2q24 16 32 34.5t8 64.5v298q0 46 -8 64.5t-32 34.5v2h160l7 -120h2l46 71q22 35 42 49.5t60 14.5v-192h-2l-60 40q-45 31 -65 20.5t-20 -66.5v-216q0 -46 10 -64.5t38 -34.5v-2h-218zM60 -275l-2 2l38 135h-57v2l74 101q37 0 62.5 -21t25.5 -53q0 -70 -141 -166z " glyph-name="uni0157" horiz-adv-x="342" unicode="ŗ"/><glyph d="M10 0v2q24 16 32 34.5t8 64.5v498q0 46 -8 64.5t-32 34.5v2h330q118 0 118 -84q0 -30 -20 -59.5t-69 -77.5q-27 -27 -28 -57t20 -78l137 -344h-213v2q22 15 25 32.5t-8 63.5l-62 268h-2l-48 -44v-221q0 -46 8 -64.5t32 -34.5v-2h-220zM388 975l-153 -240h-2l-153 240h2 l152 -81l152 81h2zM190 351q69 69 97.5 121t28.5 103q0 55 -30.5 80t-95.5 25v-329z" glyph-name="Rcaron" horiz-adv-x="503" unicode="Ř"/><glyph d="M15 0v2q24 16 32 34.5t8 64.5v298q0 46 -8 64.5t-32 34.5v2h160l7 -120h2l46 71q22 35 42 49.5t60 14.5v-192h-2l-60 40q-45 31 -65 20.5t-20 -66.5v-216q0 -46 10 -64.5t38 -34.5v-2h-218zM347 775l-153 -240h-2l-153 240h2l152 -81l152 81h2z" glyph-name="rcaron" horiz-adv-x="342" unicode="ř"/><glyph d="M220 -15q-81 0 -137 43.5t-68 115.5l154 110l2 -2l-18 -102q-12 -68 6 -106t61 -38q33 0 54.5 24t21.5 68q0 76 -73 149l-112 111q-80 79 -80 177q0 81 53 130.5t132 49.5q76 0 126 -41t58 -106l-135 -98l-2 2l19 88q14 64 -5 99t-60 35q-31 0 -51.5 -23.5t-20.5 -63.5 q0 -77 57 -133l133 -130q87 -84 87 -176q0 -81 -57 -132t-145 -51zM186 735l-2 2l13 209h140z" glyph-name="Sacute" horiz-adv-x="437" unicode="Ś"/><glyph d="M188 -15q-75 0 -120.5 36t-57.5 99l124 69l2 -2l-8 -94q-4 -47 12.5 -69t45.5 -22q28 0 43.5 19t15.5 50q0 55 -47 92l-74 60q-95 78 -95 154q0 60 43 99t116 39q67 0 108.5 -31.5t51.5 -80.5l-124 -69l-2 2l8 79q8 85 -46 85q-47 0 -47 -61q0 -52 52 -95l96 -80 q25 -20 37.5 -32t28 -41.5t15.5 -63.5q0 -64 -49.5 -103t-128.5 -39zM157 535l-2 2l13 209h140z" glyph-name="sacute" horiz-adv-x="376" unicode="ś"/><glyph d="M220 -15q-81 0 -137 43.5t-68 115.5l154 110l2 -2l-18 -102q-12 -68 6 -106t61 -38q33 0 54.5 24t21.5 68q0 76 -73 149l-112 111q-80 79 -80 177q0 81 53 130.5t132 49.5q76 0 126 -41t58 -106l-135 -98l-2 2l19 88q14 64 -5 99t-60 35q-31 0 -51.5 -23.5t-20.5 -63.5 q0 -77 57 -133l133 -130q87 -84 87 -176q0 -81 -57 -132t-145 -51zM63 735l153 240h2l153 -240h-2l-152 81l-152 -81h-2z" glyph-name="Scircumflex" horiz-adv-x="437" unicode="Ŝ"/><glyph d="M188 -15q-75 0 -120.5 36t-57.5 99l124 69l2 -2l-8 -94q-4 -47 12.5 -69t45.5 -22q28 0 43.5 19t15.5 50q0 55 -47 92l-74 60q-95 78 -95 154q0 60 43 99t116 39q67 0 108.5 -31.5t51.5 -80.5l-124 -69l-2 2l8 79q8 85 -46 85q-47 0 -47 -61q0 -52 52 -95l96 -80 q25 -20 37.5 -32t28 -41.5t15.5 -63.5q0 -64 -49.5 -103t-128.5 -39zM34 535l153 240h2l153 -240h-2l-152 81l-152 -81h-2z" glyph-name="scircumflex" horiz-adv-x="376" unicode="ŝ"/><glyph d="M220 -15q-16 0 -24 1l-12 -41l48 3q38 2 53 -6.5t15 -28.5q0 -32 -37 -61t-126 -67l-2 2q83 110 83 129q0 13 -12 13q-10 0 -53 -32h-2l25 92q-65 11 -108 52.5t-53 102.5l154 110l2 -2l-18 -102q-12 -68 6 -106t61 -38q33 0 54.5 24t21.5 68q0 76 -73 149l-112 111 q-80 79 -80 177q0 81 53 130.5t132 49.5q76 0 126 -41t58 -106l-135 -98l-2 2l19 88q14 64 -5 99t-60 35q-31 0 -51.5 -23.5t-20.5 -63.5q0 -77 57 -133l133 -130q87 -84 87 -176q0 -81 -57 -132t-145 -51z" glyph-name="Scedilla" horiz-adv-x="437" unicode="Ş"/><glyph d="M188 -15q-14 0 -20 1l-12 -41l48 3q38 2 53 -6.5t15 -28.5q0 -32 -37 -61t-126 -67l-2 2q83 110 83 129q0 13 -12 13q-10 0 -53 -32h-2l25 91q-115 18 -138 132l124 69l2 -2l-8 -94q-4 -47 12.5 -69t45.5 -22q28 0 43.5 19t15.5 50q0 55 -47 92l-74 60q-95 78 -95 154 q0 60 43 99t116 39q67 0 108.5 -31.5t51.5 -80.5l-124 -69l-2 2l8 79q8 85 -46 85q-47 0 -47 -61q0 -52 52 -95l96 -80q25 -20 37.5 -32t28 -41.5t15.5 -63.5q0 -64 -49.5 -103t-128.5 -39z" glyph-name="scedilla" horiz-adv-x="376" unicode="ş"/><glyph d="M220 -15q-81 0 -137 43.5t-68 115.5l154 110l2 -2l-18 -102q-12 -68 6 -106t61 -38q33 0 54.5 24t21.5 68q0 76 -73 149l-112 111q-80 79 -80 177q0 81 53 130.5t132 49.5q76 0 126 -41t58 -106l-135 -98l-2 2l19 88q14 64 -5 99t-60 35q-31 0 -51.5 -23.5t-20.5 -63.5 q0 -77 57 -133l133 -130q87 -84 87 -176q0 -81 -57 -132t-145 -51zM371 975l-153 -240h-2l-153 240h2l152 -81l152 81h2z" glyph-name="Scaron" horiz-adv-x="437" unicode="Š"/><glyph d="M188 -15q-75 0 -120.5 36t-57.5 99l124 69l2 -2l-8 -94q-4 -47 12.5 -69t45.5 -22q28 0 43.5 19t15.5 50q0 55 -47 92l-74 60q-95 78 -95 154q0 60 43 99t116 39q67 0 108.5 -31.5t51.5 -80.5l-124 -69l-2 2l8 79q8 85 -46 85q-47 0 -47 -61q0 -52 52 -95l96 -80 q25 -20 37.5 -32t28 -41.5t15.5 -63.5q0 -64 -49.5 -103t-128.5 -39zM342 775l-153 -240h-2l-153 240h2l152 -81l152 81h2z" glyph-name="scaron" horiz-adv-x="376" unicode="š"/><glyph d="M440 700l18 -232h-2q-68 136 -94 174t-56 38h-2v-579q0 -46 8 -64.5t32 -34.5v-2h-130l-15 -55l48 3q38 2 53 -6.5t15 -28.5q0 -32 -37 -61t-126 -67l-2 2q83 110 83 129q0 13 -12 13q-10 0 -53 -32h-2l28 103h-70v2q24 16 32 34.5t8 64.5v579h-2q-30 0 -56 -38t-94 -174 h-2l18 232h412z" glyph-name="uni0162" horiz-adv-x="468" unicode="Ţ"/><glyph d="M50 130v355h-49v15h49l128 138h2v-138h86v-15h-86v-365q0 -46 28 -46q11 0 23.5 8t42.5 35l2 -2l-36 -63q-21 -37 -41.5 -52t-50.5 -15q-6 0 -18 2l-12 -42l48 3q38 2 53 -6.5t15 -28.5q0 -32 -37 -61t-126 -67l-2 2q83 110 83 129q0 13 -12 13q-10 0 -53 -32h-2l26 96 q-61 28 -61 137z" glyph-name="uni0163" horiz-adv-x="286" unicode="ţ"/><glyph d="M440 700l18 -232h-2q-68 136 -94 174t-56 38h-2v-579q0 -46 8 -64.5t32 -34.5v-2h-220v2q24 16 32 34.5t8 64.5v579h-2q-30 0 -56 -38t-94 -174h-2l18 232h412zM388 975l-153 -240h-2l-153 240h2l152 -81l152 81h2z" glyph-name="Tcaron" horiz-adv-x="468" unicode="Ť"/><glyph d="M50 130v355h-49v15h49l128 138h2v-138h86v-15h-86v-365q0 -46 28 -46q11 0 23.5 8t42.5 35l2 -2l-36 -63q-21 -37 -41.5 -52t-50.5 -15q-42 0 -70 35t-28 110zM308 375h-2l-20 325h145z" glyph-name="tcaron" horiz-adv-x="456" unicode="ť"/><glyph d="M440 700l18 -232h-2q-68 136 -94 174t-56 38h-2v-289h112v-20h-112v-270q0 -46 8 -64.5t32 -34.5v-2h-220v2q24 16 32 34.5t8 64.5v270h-112v20h112v289h-2q-30 0 -56 -38t-94 -174h-2l18 232h412z" glyph-name="Tbar" horiz-adv-x="468" unicode="Ŧ"/><glyph d="M50 130v141h-49v15h49v199h-49v15h49l128 138h2v-138h86v-15h-86v-199h86v-15h-86v-151q0 -46 28 -46q11 0 23.5 8t42.5 35l2 -2l-36 -63q-21 -37 -41.5 -52t-50.5 -15q-42 0 -70 35t-28 110z" glyph-name="tbar" horiz-adv-x="286" unicode="ŧ"/><glyph d="M234 -15q-85 0 -137 62.5t-52 172.5v379q0 46 -8 64.5t-32 34.5v2h220v-2q-24 -16 -32 -34.5t-8 -64.5v-379q0 -81 25 -129t77 -48q101 0 101 175v199q0 90 -18.5 153t-64.5 128v2h159v-2q-31 -58 -43.5 -120.5t-12.5 -160.5v-199q0 -111 -45.5 -172t-128.5 -61zM92 777 q0 159 90 159q31 0 77.5 -28.5t66.5 -28.5q22 0 35.5 13t26.5 44h2q0 -159 -90 -159q-32 0 -78 28.5t-65 28.5q-24 0 -37 -13t-26 -44h-2z" glyph-name="Utilde" horiz-adv-x="474" unicode="Ũ"/><glyph d="M153 -15q-47 0 -75 34.5t-28 110.5v269q0 46 -8 64.5t-32 34.5v2h170v-390q0 -51 35 -51q7 0 16 5t19.5 18t19.5 33t14.5 53t5.5 75v156q0 46 -8 64.5t-32 34.5v2h170v-399q0 -46 8 -64.5t32 -34.5v-2h-160l-7 119h-2l-41 -71q-37 -63 -97 -63zM78 577q0 159 90 159 q32 0 78 -28.5t66 -28.5q22 0 35.5 13t26.5 44h2q0 -159 -90 -159q-32 0 -78 28.5t-65 28.5q-24 0 -37 -13t-26 -44h-2z" glyph-name="utilde" horiz-adv-x="470" unicode="ũ"/><glyph d="M234 -15q-85 0 -137 62.5t-52 172.5v379q0 46 -8 64.5t-32 34.5v2h220v-2q-24 -16 -32 -34.5t-8 -64.5v-379q0 -81 25 -129t77 -48q101 0 101 175v199q0 90 -18.5 153t-64.5 128v2h159v-2q-31 -58 -43.5 -120.5t-12.5 -160.5v-199q0 -111 -45.5 -172t-128.5 -61zM87 851 v15h308v-15h-308z" glyph-name="Umacron" horiz-adv-x="474" unicode="Ū"/><glyph d="M153 -15q-47 0 -75 34.5t-28 110.5v269q0 46 -8 64.5t-32 34.5v2h170v-390q0 -51 35 -51q7 0 16 5t19.5 18t19.5 33t14.5 53t5.5 75v156q0 46 -8 64.5t-32 34.5v2h170v-399q0 -46 8 -64.5t32 -34.5v-2h-160l-7 119h-2l-41 -71q-37 -63 -97 -63zM73 651v15h308v-15h-308z " glyph-name="umacron" horiz-adv-x="470" unicode="ū"/><glyph d="M234 -15q-85 0 -137 62.5t-52 172.5v379q0 46 -8 64.5t-32 34.5v2h220v-2q-24 -16 -32 -34.5t-8 -64.5v-379q0 -81 25 -129t77 -48q101 0 101 175v199q0 90 -18.5 153t-64.5 128v2h159v-2q-31 -58 -43.5 -120.5t-12.5 -160.5v-199q0 -111 -45.5 -172t-128.5 -61zM119 953 q10 -43 33 -58.5t89 -15.5q67 0 89 15.5t33 58.5h2q-4 -180 -124 -180q-57 0 -88.5 41t-35.5 139h2z" glyph-name="Ubreve" horiz-adv-x="474" unicode="Ŭ"/><glyph d="M153 -15q-47 0 -75 34.5t-28 110.5v269q0 46 -8 64.5t-32 34.5v2h170v-390q0 -51 35 -51q7 0 16 5t19.5 18t19.5 33t14.5 53t5.5 75v156q0 46 -8 64.5t-32 34.5v2h170v-399q0 -46 8 -64.5t32 -34.5v-2h-160l-7 119h-2l-41 -71q-37 -63 -97 -63zM105 753q10 -43 33 -58.5 t89 -15.5q67 0 89 15.5t33 58.5h2q-4 -180 -124 -180q-57 0 -88.5 41t-35.5 139h2z" glyph-name="ubreve" horiz-adv-x="470" unicode="ŭ"/><glyph d="M234 -15q-85 0 -137 62.5t-52 172.5v379q0 46 -8 64.5t-32 34.5v2h220v-2q-24 -16 -32 -34.5t-8 -64.5v-379q0 -81 25 -129t77 -48q101 0 101 175v199q0 90 -18.5 153t-64.5 128v2h159v-2q-31 -58 -43.5 -120.5t-12.5 -160.5v-199q0 -111 -45.5 -172t-128.5 -61zM242 755 q-66 0 -99.5 31t-33.5 79t33.5 79t99.5 31q65 0 98 -31t33 -79t-33 -79t-98 -31zM242 768q22 0 31.5 21t9.5 70q0 55 -9.5 79t-31.5 24q-23 0 -33 -24t-10 -79q0 -49 10 -70t33 -21z" glyph-name="Uring" horiz-adv-x="474" unicode="Ů"/><glyph d="M153 -15q-47 0 -75 34.5t-28 110.5v269q0 46 -8 64.5t-32 34.5v2h170v-390q0 -51 35 -51q7 0 16 5t19.5 18t19.5 33t14.5 53t5.5 75v156q0 46 -8 64.5t-32 34.5v2h170v-399q0 -46 8 -64.5t32 -34.5v-2h-160l-7 119h-2l-41 -71q-37 -63 -97 -63zM228 555q-66 0 -99.5 31 t-33.5 79t33.5 79t99.5 31q65 0 98 -31t33 -79t-33 -79t-98 -31zM228 568q22 0 31.5 21t9.5 70q0 55 -9.5 79t-31.5 24q-23 0 -33 -24t-10 -79q0 -49 10 -70t33 -21z" glyph-name="uring" horiz-adv-x="470" unicode="ů"/><glyph d="M234 -15q-85 0 -137 62.5t-52 172.5v379q0 46 -8 64.5t-32 34.5v2h220v-2q-24 -16 -32 -34.5t-8 -64.5v-379q0 -81 25 -129t77 -48q101 0 101 175v199q0 90 -18.5 153t-64.5 128v2h159v-2q-31 -58 -43.5 -120.5t-12.5 -160.5v-199q0 -111 -45.5 -172t-128.5 -61zM132 735 l-2 2l13 209h140zM282 735l-2 2l13 209h140z" glyph-name="Uhungarumlaut" horiz-adv-x="474" unicode="Ű"/><glyph d="M153 -15q-47 0 -75 34.5t-28 110.5v269q0 46 -8 64.5t-32 34.5v2h170v-390q0 -51 35 -51q7 0 16 5t19.5 18t19.5 33t14.5 53t5.5 75v156q0 46 -8 64.5t-32 34.5v2h170v-399q0 -46 8 -64.5t32 -34.5v-2h-160l-7 119h-2l-41 -71q-37 -63 -97 -63zM118 535l-2 2l13 209h140z M268 535l-2 2l13 209h140z" glyph-name="uhungarumlaut" horiz-adv-x="470" unicode="ű"/><glyph d="M185 -210q-43 0 -43 44q0 30 19 73l36 81q-70 14 -111 74.5t-41 157.5v379q0 46 -8 64.5t-32 34.5v2h220v-2q-24 -16 -32 -34.5t-8 -64.5v-379q0 -81 25 -129t77 -48q101 0 101 175v199q0 90 -18.5 153t-64.5 128v2h159v-2q-31 -58 -43.5 -120.5t-12.5 -160.5v-199 q0 -100 -37 -160t-106 -71q-79 -22 -79 -67q0 -18 16.5 -29t45.5 -11q22 0 51 9l2 -2q-62 -97 -116 -97z" glyph-name="Uogonek" horiz-adv-x="474" unicode="Ų"/><glyph d="M153 -15q-47 0 -75 34.5t-28 110.5v269q0 46 -8 64.5t-32 34.5v2h170v-390q0 -51 35 -51q7 0 16 5t19.5 18t19.5 33t14.5 53t5.5 75v156q0 46 -8 64.5t-32 34.5v2h170v-399q0 -46 8 -64.5t32 -34.5v-2h-86q-89 -22 -89 -70q0 -18 16.5 -29t45.5 -11q23 0 51 9l2 -2 q-62 -97 -116 -97q-43 0 -43 44q0 30 19 73l40 89l-7 113h-2l-41 -71q-37 -63 -97 -63z" glyph-name="uogonek" horiz-adv-x="470" unicode="ų"/><glyph d="M170 0l-155 700h191v-2q-22 -15 -25.5 -32.5t6.5 -64.5l95 -454h2l61 314q8 47 -1 88l-33 151h151l116 -553h2l53 270q18 98 7.5 159.5t-52.5 121.5v2h163v-2q-62 -108 -97 -282l-51 -256q-12 -63 1 -120l9 -40h-147l-100 451h-2l-57 -291q-14 -64 0 -118l10 -42h-147z M235 735l153 240h2l153 -240h-2l-152 81l-152 -81h-2z" glyph-name="Wcircumflex" horiz-adv-x="756" unicode="Ŵ"/><glyph d="M126 0l-116 500h175v-2q-22 -15 -25 -32.5t8 -63.5l74 -317h2l44 233q9 49 -3 112l-14 70h132l87 -415h2l38 163q9 39 10.5 72.5t-5.5 64t-17 55.5t-28 58v2h133v-2q-19 -41 -34 -84t-21.5 -70t-20.5 -88l-41 -181q-7 -29 -3 -60l3 -15h-137l-63 310h-2l-46 -235 q-6 -33 -2 -60l3 -15h-133zM182 535l153 240h2l153 -240h-2l-152 81l-152 -81h-2z" glyph-name="wcircumflex" horiz-adv-x="628" unicode="ŵ"/><glyph d="M123 0v2q24 16 32 34.5t8 64.5v209l-158 390h197v-2q-22 -14 -22 -31.5t17 -61.5l90 -242h2l24 74q25 70 22.5 133.5t-39.5 127.5v2h171v-2q-38 -38 -69 -100.5t-69 -179.5l-26 -79v-238q0 -46 8 -64.5t32 -34.5v-2h-220zM79 735l153 240h2l153 -240h-2l-152 81l-152 -81 h-2z" glyph-name="Ycircumflex" horiz-adv-x="472" unicode="Ŷ"/><glyph d="M18 -215v167h2q67 -35 127 -35q26 0 34 20.5t-5 58.5l-171 504h184v-2q-22 -15 -23.5 -32t14.5 -62l82 -259h2l29 109q20 85 13 131t-41 113v2h139v-2q-58 -101 -94 -242l-31 -118q-37 -142 -104.5 -234t-156.5 -119zM56 535l153 240h2l153 -240h-2l-152 81l-152 -81h-2z " glyph-name="ycircumflex" horiz-adv-x="409" unicode="ŷ"/><glyph d="M123 0v2q24 16 32 34.5t8 64.5v209l-158 390h197v-2q-22 -14 -22 -31.5t17 -61.5l90 -242h2l24 74q25 70 22.5 133.5t-39.5 127.5v2h171v-2q-38 -38 -69 -100.5t-69 -179.5l-26 -79v-238q0 -46 8 -64.5t32 -34.5v-2h-220zM147 755q-9 47 -25 68t-56 31v2q40 9 56 30 t25 69h2q9 -47 25 -68t56 -31v-2q-40 -10 -56.5 -31t-24.5 -68h-2zM317 755q-9 47 -25 68t-56 31v2q40 9 56 30t25 69h2q9 -47 25 -68t56 -31v-2q-40 -10 -56.5 -31t-24.5 -68h-2z" glyph-name="Ydieresis" horiz-adv-x="472" unicode="Ÿ"/><glyph d="M10 0l273 680h-48q-59 0 -90.5 -32t-102.5 -150h-2v202h398l-273 -680h49q35 0 60.5 17.5t63.5 75t98 176.5h2l-22 -289h-406zM215 735l-2 2l13 209h140z" glyph-name="Zacute" horiz-adv-x="448" unicode="Ź"/><glyph d="M5 0l210 480h-16q-34 0 -74 -40l-100 -99h-2l12 159h326l-210 -480h26q42 0 77 35l105 104h2l-12 -159h-344zM163 535l-2 2l13 209h140z" glyph-name="zacute" horiz-adv-x="381" unicode="ź"/><glyph d="M10 0l273 680h-48q-59 0 -90.5 -32t-102.5 -150h-2v202h398l-273 -680h49q35 0 60.5 17.5t63.5 75t98 176.5h2l-22 -289h-406zM245 735q-18 54 -41.5 77.5t-77.5 41.5v2q55 18 78 41t41 78h2q19 -55 41.5 -77.5t77.5 -41.5v-2q-54 -18 -77 -41t-42 -78h-2z" glyph-name="Zdotaccent" horiz-adv-x="448" unicode="Ż"/><glyph d="M5 0l210 480h-16q-34 0 -74 -40l-100 -99h-2l12 159h326l-210 -480h26q42 0 77 35l105 104h2l-12 -159h-344zM193 535q-18 54 -41.5 77.5t-77.5 41.5v2q55 18 78 41t41 78h2q19 -55 41.5 -77.5t77.5 -41.5v-2q-54 -18 -77 -41t-42 -78h-2z" glyph-name="zdotaccent" horiz-adv-x="381" unicode="ż"/><glyph d="M10 0l273 680h-48q-59 0 -90.5 -32t-102.5 -150h-2v202h398l-273 -680h49q35 0 60.5 17.5t63.5 75t98 176.5h2l-22 -289h-406zM400 975l-153 -240h-2l-153 240h2l152 -81l152 81h2z" glyph-name="Zcaron" horiz-adv-x="448" unicode="Ž"/><glyph d="M5 0l210 480h-16q-34 0 -74 -40l-100 -99h-2l12 159h326l-210 -480h26q42 0 77 35l105 104h2l-12 -159h-344zM348 775l-153 -240h-2l-153 240h2l152 -81l152 81h2z" glyph-name="zcaron" horiz-adv-x="381" unicode="ž"/><glyph d="M14 0v2q24 16 32 34.5t8 64.5v270h-32v20h32v208q0 46 -8 64.5t-32 34.5v2h187q133 0 213.5 -95t80.5 -253q0 -160 -80.5 -256t-213.5 -96h-187zM194 20h6q75 0 110 78t35 246q0 336 -145 336h-6v-289h92v-20h-92v-351z" glyph-name="uni0189" horiz-adv-x="528" unicode="Ɖ"/><glyph d="M247 -15q-82 0 -136.5 50t-73.5 129.5t-7 176.5h315q0 86 -3.5 143.5t-13.5 108.5t-30.5 76t-51.5 25q-79 0 -58 -136l13 -87l-3 -3l-142 95q19 66 73 109t128 43q105 0 171.5 -96t66.5 -258q0 -172 -68.5 -274t-179.5 -102zM236 5q58 0 82.5 72.5t26.5 243.5h-168 q-20 -161 -5.5 -238.5t64.5 -77.5z" glyph-name="uni018F" horiz-adv-x="515" unicode="Ə"/><glyph d="M15 -186q35 82 35 186v599q0 46 -8 64.5t-32 34.5v2h418v-202h-2q-71 118 -102.5 150t-90.5 32h-43v-309h20q32 0 58 28.5t60 100.5h2l20 -276h-2q-45 70 -75.5 98.5t-62.5 28.5h-20v-218q0 -79 -29.5 -141t-103.5 -141l-48 -51z" glyph-name="uni0191" horiz-adv-x="448" unicode="Ƒ"/><glyph d="M10 -15v159h2l46 -30q47 -30 66 -37.5t23 0.5q11 12 2 55l-46 211h-93v15h90l-3 13q-18 83 10 164t86.5 130.5t124.5 49.5v-159h-2l-46 30q-77 51 -89 37q-11 -13 -2 -54l46 -211h93v-15h-90l3 -14q18 -83 -10 -164t-86 -130.5t-125 -49.5z" glyph-name="florin" horiz-adv-x="328" unicode="ƒ"/><glyph d="M243 700v-2q-24 -16 -32 -34.5t-8 -64.5v-210h40v-20h-40v-268q0 -46 8 -64.5t32 -34.5v-2h-220v2q24 16 32 34.5t8 64.5v268h-40v20h40v210q0 46 -8 64.5t-32 34.5v2h220z" glyph-name="uni0197" horiz-adv-x="266" unicode="Ɨ"/><glyph d="M266 -15q-111 0 -178.5 100.5t-67.5 265.5t67.5 264.5t178.5 99.5t178 -99t67 -265t-67 -266t-178 -100zM266 5q49 0 72 81t23 257v28h-191v-28q0 -175 23 -256.5t73 -81.5zM170 391h191q-6 304 -95 304q-90 0 -96 -304z" glyph-name="uni019F" horiz-adv-x="531" unicode="Ɵ"/><glyph d="M220 -15q-81 0 -137 43.5t-68 115.5l154 110l2 -2l-18 -102q-12 -68 6 -106t61 -38q33 0 54.5 24t21.5 68q0 76 -73 149l-112 111q-80 79 -80 177q0 81 53 130.5t132 49.5q76 0 126 -41t58 -106l-135 -98l-2 2l19 88q14 64 -5 99t-60 35q-31 0 -51.5 -23.5t-20.5 -63.5 q0 -77 57 -133l133 -130q87 -84 87 -176q0 -81 -57 -132t-145 -51zM159 -275l-2 2l38 135h-57v2l74 101q37 0 62.5 -21t25.5 -53q0 -70 -141 -166z" glyph-name="uni0218" horiz-adv-x="437" unicode="Ș"/><glyph d="M188 -15q-75 0 -120.5 36t-57.5 99l124 69l2 -2l-8 -94q-4 -47 12.5 -69t45.5 -22q28 0 43.5 19t15.5 50q0 55 -47 92l-74 60q-95 78 -95 154q0 60 43 99t116 39q67 0 108.5 -31.5t51.5 -80.5l-124 -69l-2 2l8 79q8 85 -46 85q-47 0 -47 -61q0 -52 52 -95l96 -80 q25 -20 37.5 -32t28 -41.5t15.5 -63.5q0 -64 -49.5 -103t-128.5 -39zM131 -275l-2 2l38 135h-57v2l74 101q37 0 62.5 -21t25.5 -53q0 -70 -141 -166z" glyph-name="uni0219" horiz-adv-x="376" unicode="ș"/><glyph d="M440 700l18 -232h-2q-68 136 -94 174t-56 38h-2v-579q0 -46 8 -64.5t32 -34.5v-2h-220v2q24 16 32 34.5t8 64.5v579h-2q-30 0 -56 -38t-94 -174h-2l18 232h412zM174 -275l-2 2l38 135h-57v2l74 101q37 0 62.5 -21t25.5 -53q0 -70 -141 -166z" glyph-name="uni021A" horiz-adv-x="468" unicode="Ț"/><glyph d="M50 130v355h-49v15h49l128 138h2v-138h86v-15h-86v-365q0 -46 28 -46q11 0 23.5 8t42.5 35l2 -2l-36 -63q-21 -37 -41.5 -52t-50.5 -15q-42 0 -70 35t-28 110zM93 -275l-2 2l38 135h-57v2l74 101q37 0 62.5 -21t25.5 -53q0 -70 -141 -166z" glyph-name="uni021B" horiz-adv-x="286" unicode="ț"/><glyph d="M9 -200l-2 2l7 12q36 63 36 186v399q0 46 -8 64.5t-32 34.5v2h210v-2q-24 -16 -32 -34.5t-8 -64.5v-276q0 -74 -27 -134.5t-98 -138.5z" glyph-name="uni0237" horiz-adv-x="230" unicode="ȷ"/><glyph d="M184 -69l-18 4l9 66q-72 33 -113.5 126.5t-41.5 224.5q0 164 64 263.5t170 99.5q13 0 19 -1l8 55l18 -4l-7 -54q58 -11 99 -52t50 -96l-152 -95l-3 3l23 87q29 113 -20 133l-76 -547q36 -67 98 -67q52 0 85.5 42t65.5 121l3 -2q-22 -120 -79.5 -186.5t-137.5 -66.5 q-30 0 -55 9zM170 401q0 -145 29 -224l72 517q-44 -1 -72.5 -73.5t-28.5 -219.5z" glyph-name="uni023B" horiz-adv-x="475" unicode="Ȼ"/><glyph d="M158 -62l-20 4l10 57q-60 25 -94 91.5t-34 160.5q0 120 54.5 192t144.5 72q13 0 20 -1l8 48l20 -4l-8 -48q49 -11 84 -46.5t43 -80.5l-140 -79l-2 2l15 95q10 56 -5 83l-64 -366q29 -63 84 -63q74 0 129 115l2 -1q-19 -83 -70 -133.5t-117 -50.5q-29 0 -51 7zM160 298 q0 -84 16 -142l60 343q-3 1 -9 1q-67 0 -67 -202z" glyph-name="uni023C" horiz-adv-x="410" unicode="ȼ"/><glyph d="M205 -15q-92 0 -140.5 77t-28.5 224h234v13q0 111 -12 156t-40 45q-50 0 -45 -99l5 -95l-2 -2l-130 79q19 60 63.5 96t113.5 36q85 0 136 -70t51 -186q0 -127 -56 -200.5t-149 -73.5zM163 115q-2 -62 6.5 -88.5t34.5 -26.5q33 0 49 61t17 210h-101z" glyph-name="uni0259" horiz-adv-x="430" unicode="ə"/><glyph d="M236 500v-2q-24 -16 -32 -34.5t-8 -64.5v-113h64v-15h-64v-170q0 -46 8 -64.5t32 -34.5v-2h-210v2q24 16 32 34.5t8 64.5v170h-56v15h56v113q0 46 -8 64.5t-32 34.5v2h210zM130 535q-18 54 -41.5 77.5t-77.5 41.5v2q55 18 78 41t41 78h2q19 -55 41.5 -77.5t77.5 -41.5v-2 q-54 -18 -77 -41t-42 -78h-2z" glyph-name="uni0268" horiz-adv-x="271" unicode="ɨ"/><glyph d="M221 -15q-91 0 -146 72.5t-55 193.5q0 120 55 192t146 72q90 0 144.5 -72t54.5 -192q0 -121 -54.5 -193.5t-144.5 -72.5zM221 0q59 0 59 241v30h-120v-30q0 -241 61 -241zM160 286h120q-6 214 -59 214q-55 0 -61 -214z" glyph-name="uni0275" horiz-adv-x="440" unicode="ɵ"/><glyph d="M176 -200v2q24 16 32 34.5t8 64.5v84q-89 2 -142.5 74.5t-53.5 191.5q0 118 53.5 190t142.5 74v84q0 46 -8 64.5t-32 34.5v2h210v-2q-24 -16 -32 -34.5t-8 -64.5v-84q88 -2 141 -74t53 -190q0 -119 -53 -191.5t-141 -74.5v-84q0 -46 8 -64.5t32 -34.5v-2h-210zM150 241 q0 -232 66 -241v500q-66 -9 -66 -259zM346 0q64 9 64 241q0 248 -64 259v-500z" glyph-name="uni0278" horiz-adv-x="560" unicode="ɸ"/><glyph d="M10 535l153 240h2l153 -240h-2l-152 81l-152 -81h-2z" glyph-name="circumflex" horiz-adv-x="328" unicode="ˆ"/><glyph d="M318 775l-153 -240h-2l-153 240h2l152 -81l152 81h2z" glyph-name="caron" horiz-adv-x="328" unicode="ˇ"/><glyph d="M50 753q10 -43 33 -58.5t89 -15.5q67 0 89 15.5t33 58.5h2q-4 -180 -124 -180q-57 0 -88.5 41t-35.5 139h2z" glyph-name="breve" horiz-adv-x="344" unicode="˘"/><glyph d="M130 535q-18 54 -41.5 77.5t-77.5 41.5v2q55 18 78 41t41 78h2q19 -55 41.5 -77.5t77.5 -41.5v-2q-54 -18 -77 -41t-42 -78h-2z" glyph-name="dotaccent" horiz-adv-x="262" unicode="˙"/><glyph d="M164 555q-66 0 -99.5 31t-33.5 79t33.5 79t99.5 31q65 0 98 -31t33 -79t-33 -79t-98 -31zM164 568q22 0 31.5 21t9.5 70q0 55 -9.5 79t-31.5 24q-23 0 -33 -24t-10 -79q0 -49 10 -70t33 -21z" glyph-name="ring" horiz-adv-x="326" unicode="˚"/><glyph d="M73 -200q-43 0 -43 44q0 30 19 73l41 92l73 -9q-89 -22 -89 -70q0 -18 16.5 -29t45.5 -11q22 0 51 9l2 -2q-62 -97 -116 -97z" glyph-name="ogonek" horiz-adv-x="205" unicode="˛"/><glyph d="M37 577q0 159 90 159q31 0 77.5 -28.5t66.5 -28.5q22 0 35.5 13t26.5 44h2q0 -159 -90 -159q-31 0 -77.5 28.5t-65.5 28.5q-24 0 -37 -13t-26 -44h-2z" glyph-name="tilde" horiz-adv-x="372" unicode="˜"/><glyph d="M173 535l-151 211h140l13 -209z" glyph-name="gravecomb" horiz-adv-x="0" unicode="̀"/><glyph d="M29 535l-2 2l13 209h140z" glyph-name="acutecomb" horiz-adv-x="0" unicode="́"/><glyph d="M10 535l153 240h2l153 -240h-2l-152 81l-152 -81h-2z" glyph-name="uni0302" horiz-adv-x="0" unicode="̂"/><glyph d="M37 577q0 159 90 159q31 0 77.5 -28.5t66.5 -28.5q22 0 35.5 13t26.5 44h2q0 -159 -90 -159q-31 0 -77.5 28.5t-65.5 28.5q-24 0 -37 -13t-26 -44h-2z" glyph-name="tildecomb" horiz-adv-x="0" unicode="̃"/><glyph d="M50 651v15h308v-15h-308z" glyph-name="uni0304" horiz-adv-x="0" unicode="̄"/><glyph d="M50 753q10 -43 33 -58.5t89 -15.5q67 0 89 15.5t33 58.5h2q-4 -180 -124 -180q-57 0 -88.5 41t-35.5 139h2z" glyph-name="uni0306" horiz-adv-x="0" unicode="̆"/><glyph d="M130 535q-18 54 -41.5 77.5t-77.5 41.5v2q55 18 78 41t41 78h2q19 -55 41.5 -77.5t77.5 -41.5v-2q-54 -18 -77 -41t-42 -78h-2z" glyph-name="uni0307" horiz-adv-x="0" unicode="̇"/><glyph d="M94 555q-9 47 -25 68t-56 31v2q40 9 56 30t25 69h2q9 -47 25 -68t56 -31v-2q-40 -10 -56.5 -31t-24.5 -68h-2zM264 555q-9 47 -25 68t-56 31v2q40 9 56 30t25 69h2q9 -47 25 -68t56 -31v-2q-40 -10 -56.5 -31t-24.5 -68h-2z" glyph-name="uni0308" horiz-adv-x="0" unicode="̈"/><glyph d="M164 555q-66 0 -99.5 31t-33.5 79t33.5 79t99.5 31q65 0 98 -31t33 -79t-33 -79t-98 -31zM164 568q22 0 31.5 21t9.5 70q0 55 -9.5 79t-31.5 24q-23 0 -33 -24t-10 -79q0 -49 10 -70t33 -21z" glyph-name="uni030A" horiz-adv-x="0" unicode="̊"/><glyph d="M31 535l-2 2l13 209h140zM181 535l-2 2l13 209h140z" glyph-name="uni030B" horiz-adv-x="0" unicode="̋"/><glyph d="M318 775l-153 -240h-2l-153 240h2l152 -81l152 81h2z" glyph-name="uni030C" horiz-adv-x="0" unicode="̌"/><glyph d="M181 775l2 -2l-38 -135h57v-2l-74 -101q-37 0 -62.5 21t-25.5 53q0 70 141 166z" glyph-name="uni0312" horiz-adv-x="0" unicode="̒"/><glyph d="M130 -275q-18 54 -41.5 77.5t-77.5 41.5v2q55 18 78 41t41 78h2q19 -55 41.5 -77.5t77.5 -41.5v-2q-54 -18 -77 -41t-42 -78h-2z" glyph-name="dotbelowcomb" horiz-adv-x="0" unicode="̣"/><glyph d="M61 -275l-2 2l38 135h-57v2l74 101q37 0 62.5 -21t25.5 -53q0 -70 -141 -166z" glyph-name="uni0326" horiz-adv-x="0" unicode="̦"/><glyph d="M19 -213q83 110 83 129q0 13 -12 13q-10 0 -53 -32h-2l33 123h21l-21 -75l48 3q38 2 53 -6.5t15 -28.5q0 -32 -37 -61t-126 -67z" glyph-name="uni0327" horiz-adv-x="0" unicode="̧"/><glyph d="M73 -200q-43 0 -43 44q0 30 19 73l41 92l73 -9q-89 -22 -89 -70q0 -18 16.5 -29t45.5 -11q22 0 51 9l2 -2q-62 -97 -116 -97z" glyph-name="uni0328" horiz-adv-x="0" unicode="̨"/><glyph d="M138 275q-18 54 -41.5 77.5t-77.5 41.5v2q55 18 78 41t41 78h2q19 -55 41.5 -77.5t77.5 -41.5v-2q-54 -18 -77 -41t-42 -78h-2zM58 -200l-2 2l43 198h-60v2l100 138q90 -28 90 -96q0 -39 -33.5 -88t-137.5 -156z" glyph-name="uni037E" horiz-adv-x="278" unicode=";"/><glyph d="M10 -200v2q24 16 32 34.5t8 64.5v498q0 46 -8 64.5t-32 34.5v2h170v-390q0 -51 35 -51q7 0 16 5t19.5 18t19.5 33t14.5 53t5.5 75v156q0 46 -8 64.5t-32 34.5v2h170v-399q0 -46 8 -64.5t32 -34.5v-2h-160l-7 119h-2l-41 -71q-30 -51 -70 -60v-87q0 -46 10 -64.5t38 -34.5 v-2h-218z" glyph-name="uni03BC" horiz-adv-x="470" unicode="μ"/><glyph d="M245 -15q-100 0 -162.5 100.5t-62.5 263.5q0 166 66 266t173 100q72 0 126.5 -44t65.5 -108l-152 -95l-3 3l23 87q15 72 0.5 104t-48.5 32q-51 0 -76 -79t-25 -249q0 -183 26.5 -265t81.5 -82q20 0 38 18t18 56v228h-90v20h221v-356h-2l-115 76q-20 -76 -103 -76z M108 851v15h308v-15h-308z" glyph-name="uni1E20" horiz-adv-x="505" unicode="Ḡ"/><glyph d="M123 -187q-55 0 -84 21.5t-29 56.5q0 36 26 74l30 44q-34 15 -34 53q0 32 35 79l28 39v2q-70 53 -70 152q0 78 49 129.5t143 51.5q48 0 84 -15h125v-15h-94v-2q73 -53 73 -149q0 -77 -48.5 -133t-140.5 -56q-43 0 -72 11q-28 10 -44 2.5t-16 -26.5q0 -27 33 -27h196 q116 0 116 -104q0 -39 -11 -69.5t-27 -49.5t-41 -33t-45.5 -21t-49 -10.5t-43.5 -4t-36 -0.5h-53zM216 160q27 0 38 38t11 127q0 93 -11.5 134t-37.5 41q-27 0 -39 -41.5t-12 -132.5q0 -90 12 -128t39 -38zM62 651v15h308v-15h-308zM50 -51q0 -16 11.5 -26t30.5 -10h271 q19 0 30.5 10t11.5 26t-11.5 26t-30.5 10h-271q-19 0 -30.5 -10t-11.5 -26z" glyph-name="uni1E21" horiz-adv-x="449" unicode="ḡ"/><glyph d="M170 0l-155 700h191v-2q-22 -15 -25.5 -32.5t6.5 -64.5l95 -454h2l61 314q8 47 -1 88l-33 151h151l116 -553h2l53 270q18 98 7.5 159.5t-52.5 121.5v2h163v-2q-62 -108 -97 -282l-51 -256q-12 -63 1 -120l9 -40h-147l-100 451h-2l-57 -291q-14 -64 0 -118l10 -42h-147z M420 735l-151 211h140l13 -209z" glyph-name="Wgrave" horiz-adv-x="756" unicode="Ẁ"/><glyph d="M126 0l-116 500h175v-2q-22 -15 -25 -32.5t8 -63.5l74 -317h2l44 233q9 49 -3 112l-14 70h132l87 -415h2l38 163q9 39 10.5 72.5t-5.5 64t-17 55.5t-28 58v2h133v-2q-19 -41 -34 -84t-21.5 -70t-20.5 -88l-41 -181q-7 -29 -3 -60l3 -15h-137l-63 310h-2l-46 -235 q-6 -33 -2 -60l3 -15h-133zM367 535l-151 211h140l13 -209z" glyph-name="wgrave" horiz-adv-x="628" unicode="ẁ"/><glyph d="M170 0l-155 700h191v-2q-22 -15 -25.5 -32.5t6.5 -64.5l95 -454h2l61 314q8 47 -1 88l-33 151h151l116 -553h2l53 270q18 98 7.5 159.5t-52.5 121.5v2h163v-2q-62 -108 -97 -282l-51 -256q-12 -63 1 -120l9 -40h-147l-100 451h-2l-57 -291q-14 -64 0 -118l10 -42h-147z M358 735l-2 2l13 209h140z" glyph-name="Wacute" horiz-adv-x="756" unicode="Ẃ"/><glyph d="M126 0l-116 500h175v-2q-22 -15 -25 -32.5t8 -63.5l74 -317h2l44 233q9 49 -3 112l-14 70h132l87 -415h2l38 163q9 39 10.5 72.5t-5.5 64t-17 55.5t-28 58v2h133v-2q-19 -41 -34 -84t-21.5 -70t-20.5 -88l-41 -181q-7 -29 -3 -60l3 -15h-137l-63 310h-2l-46 -235 q-6 -33 -2 -60l3 -15h-133zM305 535l-2 2l13 209h140z" glyph-name="wacute" horiz-adv-x="628" unicode="ẃ"/><glyph d="M170 0l-155 700h191v-2q-22 -15 -25.5 -32.5t6.5 -64.5l95 -454h2l61 314q8 47 -1 88l-33 151h151l116 -553h2l53 270q18 98 7.5 159.5t-52.5 121.5v2h163v-2q-62 -108 -97 -282l-51 -256q-12 -63 1 -120l9 -40h-147l-100 451h-2l-57 -291q-14 -64 0 -118l10 -42h-147z M303 755q-9 47 -25 68t-56 31v2q40 9 56 30t25 69h2q9 -47 25 -68t56 -31v-2q-40 -10 -56.5 -31t-24.5 -68h-2zM473 755q-9 47 -25 68t-56 31v2q40 9 56 30t25 69h2q9 -47 25 -68t56 -31v-2q-40 -10 -56.5 -31t-24.5 -68h-2z" glyph-name="Wdieresis" horiz-adv-x="756" unicode="Ẅ"/><glyph d="M126 0l-116 500h175v-2q-22 -15 -25 -32.5t8 -63.5l74 -317h2l44 233q9 49 -3 112l-14 70h132l87 -415h2l38 163q9 39 10.5 72.5t-5.5 64t-17 55.5t-28 58v2h133v-2q-19 -41 -34 -84t-21.5 -70t-20.5 -88l-41 -181q-7 -29 -3 -60l3 -15h-137l-63 310h-2l-46 -235 q-6 -33 -2 -60l3 -15h-133zM250 555q-9 47 -25 68t-56 31v2q40 9 56 30t25 69h2q9 -47 25 -68t56 -31v-2q-40 -10 -56.5 -31t-24.5 -68h-2zM420 555q-9 47 -25 68t-56 31v2q40 9 56 30t25 69h2q9 -47 25 -68t56 -31v-2q-40 -10 -56.5 -31t-24.5 -68h-2z" glyph-name="wdieresis" horiz-adv-x="628" unicode="ẅ"/><glyph d="M247 -200l-3 2l23 51q47 104 47 204q0 75 -29 184l-29 109q-26 101 -3 192l34 138h-97v-579q0 -46 8 -64.5t32 -34.5v-2h-220v2q24 16 32 34.5t8 64.5v498q0 46 -8 64.5t-32 34.5v2h449v-2l-132 -180q-34 -46 0 -100l64 -101q68 -108 68 -190q0 -132 -125 -247z" glyph-name="uni1E9E" horiz-adv-x="474" unicode="ẞ"/><glyph d="M10 0v2q24 16 32 34.5t8 64.5v498q0 46 -8 64.5t-32 34.5v2h409v-202h-2q-71 118 -102.5 150t-90.5 32h-34v-289h19q32 0 58 28.5t60 100.5h2l20 -276h-2q-45 70 -75.5 98.5t-62.5 28.5h-19v-351h29q32 0 55.5 14t59.5 63t94 152h2l-19 -249h-401zM94 777q0 159 90 159 q32 0 78 -28.5t66 -28.5q22 0 35.5 13t26.5 44h2q0 -159 -90 -159q-32 0 -78 28.5t-65 28.5q-24 0 -37 -13t-26 -44h-2z" glyph-name="uni1EBC" horiz-adv-x="450" unicode="Ẽ"/><glyph d="M219 -15q-90 0 -144.5 72.5t-54.5 193.5q0 120 56 192t149 72q86 0 134 -67t40 -177h-239v-10q0 -96 33 -151t81 -55q74 0 129 115l2 -1q-19 -83 -69.5 -133.5t-116.5 -50.5zM73 577q0 159 90 159q31 0 78 -28.5t66 -28.5q22 0 35.5 13t26.5 44h2q0 -159 -90 -159 q-31 0 -77 28.5t-66 28.5q-24 0 -37 -13t-26 -44h-2zM160 286h102l3 99q4 115 -40 115q-62 0 -65 -214z" glyph-name="uni1EBD" horiz-adv-x="420" unicode="ẽ"/><glyph d="M123 0v2q24 16 32 34.5t8 64.5v209l-158 390h197v-2q-22 -14 -22 -31.5t17 -61.5l90 -242h2l24 74q25 70 22.5 133.5t-39.5 127.5v2h171v-2q-38 -38 -69 -100.5t-69 -179.5l-26 -79v-238q0 -46 8 -64.5t32 -34.5v-2h-220zM264 735l-151 211h140l13 -209z" glyph-name="Ygrave" horiz-adv-x="472" unicode="Ỳ"/><glyph d="M18 -215v167h2q67 -35 127 -35q26 0 34 20.5t-5 58.5l-171 504h184v-2q-22 -15 -23.5 -32t14.5 -62l82 -259h2l29 109q20 85 13 131t-41 113v2h139v-2q-58 -101 -94 -242l-31 -118q-37 -142 -104.5 -234t-156.5 -119zM241 535l-151 211h140l13 -209z" glyph-name="ygrave" horiz-adv-x="409" unicode="ỳ"/><glyph d="M123 0v2q24 16 32 34.5t8 64.5v209l-158 390h197v-2q-22 -14 -22 -31.5t17 -61.5l90 -242h2l24 74q25 70 22.5 133.5t-39.5 127.5v2h171v-2q-38 -38 -69 -100.5t-69 -179.5l-26 -79v-238q0 -46 8 -64.5t32 -34.5v-2h-220zM84 777q0 159 90 159q32 0 78 -28.5t66 -28.5 q22 0 35.5 13t26.5 44h2q0 -159 -90 -159q-32 0 -78 28.5t-65 28.5q-24 0 -37 -13t-26 -44h-2z" glyph-name="uni1EF8" horiz-adv-x="472" unicode="Ỹ"/><glyph d="M18 -215v167h2q67 -35 127 -35q26 0 34 20.5t-5 58.5l-171 504h184v-2q-22 -15 -23.5 -32t14.5 -62l82 -259h2l29 109q20 85 13 131t-41 113v2h139v-2q-58 -101 -94 -242l-31 -118q-37 -142 -104.5 -234t-156.5 -119zM61 577q0 159 90 159q31 0 78 -28.5t66 -28.5 q22 0 35.5 13t26.5 44h2q0 -159 -90 -159q-31 0 -77 28.5t-66 28.5q-24 0 -37 -13t-26 -44h-2z" glyph-name="uni1EF9" horiz-adv-x="409" unicode="ỹ"/><glyph glyph-name="uni2000" horiz-adv-x="500" unicode=" "/><glyph glyph-name="uni2001" horiz-adv-x="1000" unicode=" "/><glyph glyph-name="uni2002" horiz-adv-x="500" unicode=" "/><glyph glyph-name="uni2003" horiz-adv-x="1000" unicode=" "/><glyph glyph-name="uni2004" horiz-adv-x="333" unicode=" "/><glyph glyph-name="uni2005" horiz-adv-x="250" unicode=" "/><glyph glyph-name="uni2006" horiz-adv-x="166" unicode=" "/><glyph glyph-name="uni2007" horiz-adv-x="447" unicode=" "/><glyph glyph-name="uni2008" horiz-adv-x="280" unicode=" "/><glyph glyph-name="uni2009" horiz-adv-x="125" unicode=" "/><glyph glyph-name="uni200A" horiz-adv-x="70" unicode=" "/><glyph glyph-name="uni200B" horiz-adv-x="0" unicode="​"/><glyph d="M30 267l5 25l194 -5q58 -2 115 0l198 5l-5 -25l-193 4q-58 2 -115 0z" glyph-name="endash" horiz-adv-x="572" unicode="–"/><glyph d="M30 267l5 25l356 -5q91 -2 182 0l359 5l-5 -25l-354 4q-91 2 -182 0z" glyph-name="emdash" horiz-adv-x="962" unicode="—"/><glyph d="M203 700l2 -2l-43 -198h60v-2l-100 -138q-90 28 -90 96q0 39 33.5 88t137.5 156z" glyph-name="quoteleft" horiz-adv-x="247" unicode="‘"/><glyph d="M44 375l-2 2l43 198h-60v2l100 138q90 -28 90 -96q0 -39 -33.5 -88t-137.5 -156z" glyph-name="quoteright" horiz-adv-x="252" unicode="’"/><glyph d="M44 -200l-2 2l43 198h-60v2l100 138q90 -28 90 -96q0 -39 -33.5 -88t-137.5 -156z" glyph-name="quotesinglbase" horiz-adv-x="247" unicode="‚"/><glyph d="M208 375q-104 107 -137.5 156t-33.5 88q0 68 90 96l100 -138v-2h-60l43 -198z" glyph-name="quotereversed" horiz-adv-x="252" unicode="‛"/><glyph d="M413 700l2 -2l-43 -198h60v-2l-100 -138q-90 28 -90 96q0 39 33.5 88t137.5 156zM203 700l2 -2l-43 -198h60v-2l-100 -138q-90 28 -90 96q0 39 33.5 88t137.5 156z" glyph-name="quotedblleft" horiz-adv-x="457" unicode="“"/><glyph d="M44 375l-2 2l43 198h-60v2l100 138q90 -28 90 -96q0 -39 -33.5 -88t-137.5 -156zM254 375l-2 2l43 198h-60v2l100 138q90 -28 90 -96q0 -39 -33.5 -88t-137.5 -156z" glyph-name="quotedblright" horiz-adv-x="457" unicode="”"/><glyph d="M44 -200l-2 2l43 198h-60v2l100 138q90 -28 90 -96q0 -39 -33.5 -88t-137.5 -156zM254 -200l-2 2l43 198h-60v2l100 138q90 -28 90 -96q0 -39 -33.5 -88t-137.5 -156z" glyph-name="quotedblbase" horiz-adv-x="457" unicode="„"/><glyph d="M136 659q0 13 -4.5 16t-16.5 3l-85 -3l5 25l82 -2q19 0 19 20v10q0 11 -14 28.5t-14 29.5q0 16 13 16q7 0 14 -5q5 18 18 18q12 0 17 -18q7 5 14 5q13 0 13 -16q0 -12 -13.5 -29t-13.5 -29v-10q0 -20 19 -20l86 2l-5 -25l-79 3q-8 0 -11.5 -0.5t-6.5 -5t-3 -13.5v-485 l-34 -3v488z" glyph-name="dagger" horiz-adv-x="305" unicode="†"/><glyph d="M136 499q0 13 -4.5 16t-16.5 3l-85 -3l5 25l82 -2q19 0 19 20v101q0 13 -4.5 16t-16.5 3l-85 -3l5 25l82 -2q19 0 19 20v10q0 11 -14 28.5t-14 29.5q0 16 13 16q7 0 14 -5q5 18 18 18q12 0 17 -18q7 5 14 5q13 0 13 -16q0 -12 -13.5 -29t-13.5 -29v-10q0 -20 19 -20l86 2 l-5 -25l-79 3q-8 0 -11.5 -0.5t-6.5 -5t-3 -13.5v-101q0 -20 19 -20l86 2l-5 -25l-79 3q-8 0 -11.5 -0.5t-6.5 -5t-3 -13.5v-325l-34 -3v328z" glyph-name="daggerdbl" horiz-adv-x="305" unicode="‡"/><glyph d="M20 259q88 30 125.5 67.5t66.5 124.5h2q30 -88 67 -125t125 -67v-2q-88 -29 -125.5 -66.5t-66.5 -125.5h-2q-30 88 -67.5 125.5t-124.5 66.5v2z" glyph-name="bullet" horiz-adv-x="426" unicode="•"/><glyph d="M139 -120q-18 54 -41.5 77.5t-77.5 41.5v2q55 18 78 41t41 78h2q19 -55 41.5 -77.5t77.5 -41.5v-2q-54 -18 -77 -41t-42 -78h-2zM389 -120q-18 54 -41.5 77.5t-77.5 41.5v2q55 18 78 41t41 78h2q19 -55 41.5 -77.5t77.5 -41.5v-2q-54 -18 -77 -41t-42 -78h-2zM639 -120 q-18 54 -41.5 77.5t-77.5 41.5v2q55 18 78 41t41 78h2q19 -55 41.5 -77.5t77.5 -41.5v-2q-54 -18 -77 -41t-42 -78h-2z" glyph-name="ellipsis" horiz-adv-x="786" unicode="…"/><glyph glyph-name="uni202F" horiz-adv-x="32" unicode=" "/><glyph d="M748 -15q-65 0 -103.5 51t-38.5 139q0 87 38.5 138t103.5 51q64 0 102 -51t38 -138q0 -88 -37.5 -139t-102.5 -51zM443 -15q-65 0 -103.5 51t-38.5 139q0 87 38.5 138t103.5 51q64 0 102 -51t38 -138q0 -88 -37.5 -139t-102.5 -51zM442 5q30 0 43 39.5t13 126.5 q0 173 -56 173t-56 -173q0 -88 13.5 -127t42.5 -39zM125 0l302 700h41l-302 -700h-41zM152 336q-65 0 -103.5 51t-38.5 139q0 87 38.5 138t103.5 51q64 0 102 -51t38 -138q0 -88 -37.5 -139t-102.5 -51zM152 356q55 0 55 162q0 177 -55 177q-30 0 -43.5 -42t-13.5 -135 q0 -85 13.5 -123.5t43.5 -38.5zM747 5q30 0 43 39.5t13 126.5q0 173 -56 173t-56 -173q0 -88 13.5 -127t42.5 -39z" glyph-name="perthousand" horiz-adv-x="898" unicode="‰"/><glyph d="M269 61l-248 226v2l248 226l2 -2l-93 -225l93 -225z" glyph-name="guilsinglleft" horiz-adv-x="296" unicode="‹"/><glyph d="M27 515l248 -226v-2l-248 -226l-2 2l93 225l-93 225z" glyph-name="guilsinglright" horiz-adv-x="296" unicode="›"/><glyph d="M-120 0l302 700h41l-302 -700h-41z" glyph-name="fraction" horiz-adv-x="103" unicode="⁄"/><glyph d="M203 34q-25 14 -26.5 37.5t19.5 47.5l175 217l-217 -175q-24 -21 -47.5 -19.5t-37.5 26.5t-3.5 45t40.5 32l260 100l-275 -43q-32 -5 -51.5 7t-19.5 41t19.5 41t51.5 7l275 -43l-260 100q-30 12 -40.5 32t3.5 46q14 24 37.5 25.5t47.5 -19.5l217 -175l-175 217 q-21 24 -19.5 47.5t25.5 37.5q26 14 46 3.5t32 -40.5l100 -260l-43 275q-5 32 7 51.5t41 19.5t41 -19.5t7 -51.5l-43 -275l100 260q12 30 32 40.5t46 -3.5q24 -14 25.5 -37.5t-19.5 -47.5l-175 -217l217 175q24 21 47.5 19.5t37.5 -25.5q14 -26 3.5 -46t-40.5 -32l-260 -100 l275 43q32 5 51.5 -7t19.5 -41t-19.5 -41t-51.5 -7l-275 43l260 -100q30 -12 40.5 -32t-3.5 -45t-37.5 -26.5t-47.5 19.5l-217 175l175 -217q21 -24 19.5 -47.5t-26.5 -37.5t-45 -3.5t-32 40.5l-100 260l43 -275q5 -32 -7 -51.5t-41 -19.5t-41 19.5t-7 51.5l43 275 l-100 -260q-12 -30 -32 -40.5t-45 3.5z" glyph-name="uni2055" horiz-adv-x="770" unicode="⁕"/><glyph glyph-name="uni205F" horiz-adv-x="222" unicode=" "/><glyph d="M10 393v20h63q11 138 73.5 220t157.5 82q71 0 123.5 -44t63.5 -108l-152 -95l-3 3l23 87q16 72 4.5 104t-41.5 32q-43 0 -72 -69.5t-30 -211.5h196v-20h-196q0 -36 4 -90h192v-20h-190q25 -206 135 -206q52 0 85.5 42t65.5 121l3 -2q-22 -120 -79.5 -186.5t-137.5 -66.5 q-90 0 -150.5 81t-74.5 217h-63v20h62q-2 32 -2 49q0 28 1 41h-61z" glyph-name="Euro" horiz-adv-x="525" unicode="€"/><glyph d="M426 -15l-343 574h-2v-276q0 -92 20.5 -154.5t72.5 -126.5v-2h-169v2q29 38 42.5 101.5t13.5 179.5v255q0 40 -5.5 62.5t-26.5 57.5l-24 40v2h162l239 -411h2v128q0 91 -18.5 153.5t-64.5 127.5v2h159v-2q-31 -58 -43.5 -120.5t-12.5 -160.5v-432h-2zM655 304 q-66 0 -106 55.5t-40 146.5t40 146.5t106 55.5q65 0 104.5 -55t39.5 -147q0 -91 -39.5 -146.5t-104.5 -55.5zM655 316q49 0 49 183q0 197 -49 197q-51 0 -51 -197q0 -183 51 -183zM509 207l5 25l84 -5q57 -4 112 0l89 5l-5 -25l-84 4q-55 2 -112 0z" glyph-name="uni2116" horiz-adv-x="819" unicode="№"/><glyph d="M269 385q22 51 26 126l6 112q1 34 -7 55l-9 21v1h87l72 -167h2l44 103q10 26 9 47l-1 17h108v-2q-18 -12 -23 -26.5t-2 -52.5l20 -236h-107v2q18 12 23 26.5t2 51.5l-15 168l-90 -217h-1l-96 215h-1l-7 -118q-5 -78 38 -126l1 -2h-78zM69 383v2q19 13 25.5 27.5t6.5 51.5 v217q-16 0 -30.5 -17t-48.5 -79h-2l9 115h220l8 -115h-2q-33 61 -48 78.5t-31 17.5v-217q0 -37 6.5 -51.5t25.5 -27.5v-2h-139z" glyph-name="trademark" horiz-adv-x="646" unicode="™"/><glyph d="M16 383v2q19 13 25.5 27.5t6.5 51.5l-1 96q0 13 -2 16.5t-9 2t-25 -11.5l-1 2l111 138h1v-243q0 -37 6.5 -51.5t25.5 -27.5v-2h-138zM44 0l302 700h41l-302 -700h-41zM335 -7q-53 0 -83 26.5t-30 69.5q0 78 96 91v1q-38 2 -60 21t-22 48q0 34 26.5 54t72.5 20t72.5 -20 t26.5 -54q0 -29 -22 -48t-60 -21v-1q96 -13 96 -91q0 -43 -30 -69.5t-83 -26.5zM335 5q35 0 35 82q0 84 -35 84t-35 -84q0 -82 35 -82zM335 189q29 0 29 63q0 60 -29 60t-29 -60q0 -63 29 -63z" glyph-name="oneeighth" horiz-adv-x="458" unicode="⅛"/><glyph d="M13 378q65 10 102.5 42.5t37.5 73.5q0 30 -18 46t-52 5l-15 -5l-4 13l16 5q66 21 66 85q0 52 -36 52t-22 -58l11 -43l-2 -3l-87 37q26 79 113 79q42 0 67.5 -17.5t25.5 -48.5q0 -55 -85 -75v-1q43 7 71.5 -9.5t28.5 -53.5q0 -53 -60 -88.5t-157 -38.5zM79 0l302 700h41 l-302 -700h-41zM370 -7q-53 0 -83 26.5t-30 69.5q0 78 96 91v1q-38 2 -60 21t-22 48q0 34 26.5 54t72.5 20t72.5 -20t26.5 -54q0 -29 -22 -48t-60 -21v-1q96 -13 96 -91q0 -43 -30 -69.5t-83 -26.5zM370 5q35 0 35 82q0 84 -35 84t-35 -84q0 -82 35 -82zM370 189q29 0 29 63 q0 60 -29 60t-29 -60q0 -63 29 -63z" glyph-name="threeeighths" horiz-adv-x="493" unicode="⅜"/><glyph d="M21 378q55 10 90.5 48.5t35.5 93.5q0 63 -46 63q-36 0 -60 -56h-15l15 173h177l-8 -61h-160l-6 -69h2q49 31 95 31q38 0 61 -21t23 -60q0 -62 -55 -101.5t-148 -43.5zM70 0l302 700h41l-302 -700h-41zM361 -7q-53 0 -83 26.5t-30 69.5q0 78 96 91v1q-38 2 -60 21t-22 48 q0 34 26.5 54t72.5 20t72.5 -20t26.5 -54q0 -29 -22 -48t-60 -21v-1q96 -13 96 -91q0 -43 -30 -69.5t-83 -26.5zM361 5q35 0 35 82q0 84 -35 84t-35 -84q0 -82 35 -82zM361 189q29 0 29 63q0 60 -29 60t-29 -60q0 -63 29 -63z" glyph-name="fiveeighths" horiz-adv-x="484" unicode="⅝"/><glyph d="M28 383l159 256h-115q-25 0 -36 -4.5t-24 -21.5h-2l8 87h204l-92 -317h-102zM47 0l302 700h41l-302 -700h-41zM338 -7q-53 0 -83 26.5t-30 69.5q0 78 96 91v1q-38 2 -60 21t-22 48q0 34 26.5 54t72.5 20t72.5 -20t26.5 -54q0 -29 -22 -48t-60 -21v-1q96 -13 96 -91 q0 -43 -30 -69.5t-83 -26.5zM338 5q35 0 35 82q0 84 -35 84t-35 -84q0 -82 35 -82zM338 189q29 0 29 63q0 60 -29 60t-29 -60q0 -63 29 -63z" glyph-name="seveneighths" horiz-adv-x="461" unicode="⅞"/><glyph d="M284 65l-274 248v2l274 248h3l-116 -234h62q50 0 80 19t54 65l67 129h204l-91 -228l91 -228h-204l-67 129q-24 46 -54 65t-80 19h-62l116 -234h-3z" glyph-name="arrowleft" horiz-adv-x="648" unicode="←"/><glyph d="M51 0v204l99 67q46 31 65 59t19 75v62l-204 -116v3l218 274h2l218 -274v-3l-204 116v-62q0 -47 19 -75t65 -59l99 -67v-204l-198 91z" glyph-name="arrowup" horiz-adv-x="498" unicode="↑"/><glyph d="M361 65l116 234h-62q-50 0 -80 -19t-54 -65l-67 -129h-204l91 228l-91 228h204l67 -129q24 -46 54 -65t80 -19h62l-116 234h3l274 -248v-2l-274 -248h-3z" glyph-name="arrowright" horiz-adv-x="648" unicode="→"/><glyph d="M248 0l-218 274v3l204 -116v62q0 47 -19 75t-65 59l-99 67v204l198 -91l198 91v-204l-99 -67q-46 -31 -65 -59t-19 -75v-62l204 116v-3l-218 -274h-2z" glyph-name="arrowdown" horiz-adv-x="498" unicode="↓"/><glyph d="M284 65l-274 248v2l274 248h3l-116 -234h291l-116 234h3l274 -248v-2l-274 -248h-3l116 234h-291l116 -234h-3z" glyph-name="arrowboth" horiz-adv-x="633" unicode="↔"/><glyph d="M238 -15l-208 274v3l194 -116v408l-194 -116v3l208 274h2l208 -274v-3l-194 116v-408l194 116v-3l-208 -274h-2z" glyph-name="arrowupdn" horiz-adv-x="478" unicode="↕"/><glyph d="M314 11l-144 144l43 139q16 50 8 84.5t-43 69.5l-44 44l-83 -248l-2 2l-19 369l2 2l369 -19l2 -2l-248 -83l44 -44q35 -35 69.5 -43t84.5 8l139 43l144 -144l-225 -97z" glyph-name="uni2196" horiz-adv-x="646" unicode="↖"/><glyph d="M332 11l-97 225l-225 97l144 144l139 -43q50 -16 84.5 -8t69.5 43l44 44l-248 83l2 2l369 19l2 -2l-19 -369l-2 -2l-83 248l-44 -44q-35 -35 -43 -69.5t8 -84.5l43 -139z" glyph-name="uni2197" horiz-adv-x="646" unicode="↗"/><glyph d="M614 11l-369 19l-2 2l248 83l-44 44q-35 35 -69.5 43t-84.5 -8l-139 -43l-144 144l225 97l97 225l144 -144l-43 -139q-16 -50 -8 -84.5t43 -69.5l44 -44l83 248l2 -2l19 -369z" glyph-name="uni2198" horiz-adv-x="646" unicode="↘"/><glyph d="M32 11l-2 2l19 369l2 2l83 -248l44 44q35 35 43 69.5t-8 84.5l-43 139l144 144l97 -225l225 -97l-144 -144l-139 43q-50 16 -84.5 8t-69.5 -43l-44 -44l248 -83l-2 -2z" glyph-name="uni2199" horiz-adv-x="646" unicode="↙"/><glyph d="M192 -15q-76 0 -124 65t-48 214q0 129 35.5 190t88.5 61q30 0 60 -23t76 -85h2q-13 175 -172 291v2h162q134 -116 134 -355q0 -94 -21 -172.5t-71 -133t-122 -54.5zM216 3q64 0 64 229q0 119 -16.5 166t-48.5 47q-19 0 -30.5 -16t-18 -63t-6.5 -133q0 -88 7 -140 t18.5 -71t30.5 -19z" glyph-name="partialdiff" horiz-adv-x="426" unicode="∂"/><glyph d="M25 -45l-15 15l83 88q13 13 2 28q-55 71 -55 165q0 110 74.5 187t181.5 77q90 0 160 -57q15 -12 28 2l84 85l15 -15l-83 -87q-13 -13 -2 -28q55 -71 55 -164q0 -111 -75 -188.5t-182 -77.5q-89 0 -159 57q-15 12 -28 -2zM442 415q14 16 -1 29q-62 51 -145 51 q-98 0 -166 -71t-68 -173q0 -82 47 -148q13 -18 28 -2zM296 5q98 0 166.5 71.5t68.5 174.5q0 81 -47 147q-13 18 -28 2l-305 -315q-14 -16 0 -28q65 -52 145 -52z" glyph-name="emptyset" horiz-adv-x="593" unicode="∅"/><glyph d="M240 -200v2q24 16 32 34.5t8 64.5v779h-90v-779q0 -46 8 -64.5t32 -34.5v-2h-220v2q24 16 32 34.5t8 64.5v698q0 46 -8 64.5t-32 34.5v2h450v-2q-24 -16 -32 -34.5t-8 -64.5v-698q0 -46 8 -64.5t32 -34.5v-2h-220z" glyph-name="product" horiz-adv-x="470" unicode="∏"/><glyph d="M10 0l157 368l-157 332h379v-202h-2q-71 118 -102.5 150t-90.5 32h-25l146 -299l-148 -361h22q32 0 55.5 14t59.5 63t94 152h2l-19 -249h-371z" glyph-name="summation" horiz-adv-x="420" unicode="∑"/><glyph d="M30 295l5 25l149 -5q28 -2 55 0l153 5l-5 -25l-148 4h-55z" glyph-name="minus" unicode="−"/><glyph d="M120 -100l-90 345h52l68 -264l177 719h50l-198 -800h-59z" glyph-name="radical" horiz-adv-x="407" unicode="√"/><glyph d="M432 180q-85 0 -143 107q-55 -107 -139 -107q-52 0 -86 37t-34 91t33.5 91t86.5 37q82 0 143 -106q57 106 140 106q52 0 85.5 -36.5t33.5 -91.5q0 -54 -34 -91t-86 -37zM152 200q77 0 128 105q-33 59 -63 85t-67 26q-44 0 -71 -30t-27 -78t27.5 -78t72.5 -30zM432 200 q44 0 71 30t27 78t-27 78t-71 30q-77 0 -130 -103q33 -60 63 -86.5t67 -26.5z" glyph-name="infinity" horiz-adv-x="582" unicode="∞"/><glyph d="M-50 -215v159h2l46 -30q77 -50 89 -37q9 10 2 55l-66 439q-13 83 17.5 164t89 130.5t124.5 49.5v-159h-2l-46 30q-42 27 -61.5 36t-27.5 1q-9 -10 -2 -54l66 -440q13 -84 -17.5 -165t-89 -130t-124.5 -49z" glyph-name="integral" horiz-adv-x="264" unicode="∫"/><glyph d="M283 357q-35 0 -82 19.5t-75 19.5q-56 0 -88 -32l-8 21q41 31 96 31q35 0 79.5 -19.5t75.5 -19.5q53 0 89 32l8 -21q-38 -31 -95 -31zM283 196q-35 0 -82 19.5t-75 19.5q-56 0 -88 -32l-8 21q41 31 96 31q35 0 79.5 -19.5t75.5 -19.5q53 0 89 32l8 -21q-38 -31 -95 -31z " glyph-name="approxequal" horiz-adv-x="408" unicode="≈"/><glyph d="M106 0l64 219l-140 -4l5 25l140 -5l42 144h-33l-154 -4l5 25l149 -5q12 -1 37 -1l64 219h32l-64 -218l139 5l-5 -25l-138 4l-43 -145q22 0 33 1l153 5l-5 -25l-148 4h-37l-64 -219h-32z" glyph-name="notequal" unicode="≠"/><glyph d="M387 118q-184 98 -357 177l4 28q172 75 358 177l-5 -31q-169 -74 -329 -161q171 -95 334 -164zM30 0l5 25l149 -5q28 -2 55 0l153 5l-5 -25l-148 4h-55z" glyph-name="lessequal" unicode="≤"/><glyph d="M35 149q169 74 329 161q-171 95 -334 164l5 26q184 -98 357 -177l-4 -28q-172 -75 -358 -177zM30 0l5 25l149 -5q28 -2 55 0l153 5l-5 -25l-148 4h-55z" glyph-name="greaterequal" unicode="≥"/><glyph d="M159 -15q-66 0 -106 43t-48 117l165 123l1 -2l-34 -117q-41 -144 25 -144q34 0 55 36t21 110v448q0 46 -8 64.5t-32 34.5v2h180v-400q0 -82 -15 -132.5t-54 -98.5q-68 -84 -150 -84zM267 735l-2 2l13 209h140z" glyph-name="glyph428" horiz-adv-x="413"/><glyph d="M10 0v2q24 16 32 34.5t8 64.5v498q0 46 -8 64.5t-32 34.5v2h220v-2q-24 -16 -32 -34.5t-8 -64.5v-579h29q35 0 60.5 17.5t63.5 75t98 176.5h2l-22 -289h-411zM144 -275l-2 2l38 135h-57v2l74 101q37 0 62.5 -21t25.5 -53q0 -70 -141 -166z" glyph-name="uni013B.locl" horiz-adv-x="453"/><glyph d="M426 -15l-343 574h-2v-276q0 -92 20.5 -154.5t72.5 -126.5v-2h-169v2q29 38 42.5 101.5t13.5 179.5v255q0 40 -5.5 62.5t-26.5 57.5l-24 40v2h162l239 -411h2v128q0 91 -18.5 153.5t-64.5 127.5v2h159v-2q-31 -58 -43.5 -120.5t-12.5 -160.5v-432h-2zM190 -275l-2 2 l38 135h-57v2l74 101q37 0 62.5 -21t25.5 -53q0 -70 -141 -166z" glyph-name="uni0145.locl" horiz-adv-x="489"/><glyph d="M220 500v-2q-24 -16 -32 -34.5t-8 -64.5v-298q0 -46 8 -64.5t32 -34.5v-2h-210v2q24 16 32 34.5t8 64.5v298q0 46 -8 64.5t-32 34.5v2h210zM114 535q-18 54 -41.5 77.5t-77.5 41.5v2q55 18 78 41t41 78h2q19 -55 41.5 -77.5t77.5 -41.5v-2q-54 -18 -77 -41t-42 -78h-2z " glyph-name="i.locl" horiz-adv-x="230"/><glyph d="M9 -200l-2 2l7 12q36 63 36 186v399q0 46 -8 64.5t-32 34.5v2h210v-2q-24 -16 -32 -34.5t-8 -64.5v-276q0 -74 -27 -134.5t-98 -138.5zM83 535l-2 2l13 209h140z" glyph-name="glyph432" horiz-adv-x="230"/><glyph d="M10 0v2q24 16 32 34.5t8 64.5v498q0 46 -8 64.5t-32 34.5v2h170v-599q0 -46 8 -64.5t32 -34.5v-2h-210zM55 -275l-2 2l38 135h-57v2l74 101q37 0 62.5 -21t25.5 -53q0 -70 -141 -166z" glyph-name="uni013C.locl" horiz-adv-x="230"/><glyph d="M10 0v2q24 16 32 34.5t8 64.5v298q0 46 -8 64.5t-32 34.5v2h160l7 -120h2l43 66q24 37 47 53t55 16q48 0 77 -34.5t29 -110.5v-269q0 -46 8 -64.5t32 -34.5v-2h-206v2q21 16 28.5 34.5t7.5 64.5v289q0 26 -12 39.5t-28 13.5q-18 0 -35 -15t-31 -59t-14 -112v-156 q0 -46 7.5 -64.5t28.5 -34.5v-2h-206zM181 -275l-2 2l38 135h-57v2l74 101q37 0 62.5 -21t25.5 -53q0 -70 -141 -166z" glyph-name="uni0146.locl" horiz-adv-x="480"/><glyph d="M216 -15q-89 0 -142.5 72.5t-53.5 193.5q0 120 53.5 192t142.5 72q88 0 141 -72t53 -192q0 -121 -53 -193.5t-141 -72.5zM216 0q59 0 59 241q0 259 -59 259q-61 0 -61 -259q0 -241 61 -241z" glyph-name="zero.oldstyle" horiz-adv-x="430"/><glyph d="M30 0v2q24 16 32 34.5t8 64.5l-1 160q0 31 -9 33t-53 -20l-2 3l192 238h2l1 -414q0 -46 8 -64.5t32 -34.5v-2h-210z" glyph-name="one.oldstyle" horiz-adv-x="250"/><glyph d="M158 184q85 102 85 208q0 102 -61 102q-37 0 -49 -38.5t3 -104.5l16 -69l-2 -2l-135 88q42 147 186 147q77 0 122.5 -37.5t45.5 -98.5q0 -52 -26.5 -94t-90.5 -86l-129 -89h157q43 0 60 7.5t39 35.5h2l-12 -153h-364z" glyph-name="two.oldstyle" horiz-adv-x="401"/><glyph d="M20 -212q97 25 165 94t68 165q0 70 -37 101.5t-98 15.5l-19 -5l-6 18l28 9q61 19 90 74.5t29 118.5q0 54 -20 84.5t-50 30.5q-63 0 -34 -133l15 -69l-1 -2l-135 88q15 63 61.5 100t121.5 37q78 0 123.5 -40t45.5 -105q0 -127 -181 -179v-2q96 15 150 -22t54 -110 q0 -62 -38.5 -118t-124.5 -99.5t-206 -54.5z" glyph-name="three.oldstyle" horiz-adv-x="410"/><glyph d="M216 -200v200h-211v2l341 513h2v-405h83l-9 -110h-74v-200h-132zM100 110h116v173z" glyph-name="four.oldstyle" horiz-adv-x="441"/><glyph d="M19 -212q100 22 165 98t65 183q0 142 -96 142q-56 0 -93 -78h-12l33 367h295l-12 -130h-276l-15 -178h2q61 36 91.5 47.5t63.5 11.5q72 0 115.5 -47.5t43.5 -126.5q0 -113 -98.5 -195.5t-270.5 -96.5z" glyph-name="five.oldstyle" horiz-adv-x="409"/><glyph d="M376 712q-95 -25 -159 -115t-57 -231h2q70 47 116 47q60 0 101 -52.5t41 -148.5q0 -98 -53 -162.5t-134 -64.5q-56 0 -98.5 25t-67 67.5t-36 92.5t-11.5 107q0 195 95 310t260 128zM220 382q-30 0 -44 -42.5t-14 -138.5q0 -196 61 -196q57 0 57 187q0 100 -14 145t-46 45 z" glyph-name="six.oldstyle" horiz-adv-x="440"/><glyph d="M20 -200l283 570h-196q-43 0 -60 -7.5t-39 -35.5h-2l16 173h331l-163 -700h-170z" glyph-name="seven.oldstyle" horiz-adv-x="358"/><glyph d="M221 -15q-92 0 -146.5 58t-54.5 158q0 84 42.5 138.5t116.5 67.5v2q-54 11 -85 50t-31 99q0 72 42.5 114.5t115.5 42.5q72 0 114 -42.5t42 -114.5q0 -59 -30.5 -98.5t-84.5 -50.5v-2q74 -13 116 -67.5t42 -138.5q0 -100 -53.5 -158t-145.5 -58zM221 0q59 0 59 191 q0 206 -59 206q-61 0 -61 -206q0 -191 61 -191zM221 417q43 0 43 134q0 149 -43 149q-45 0 -45 -149q0 -134 45 -134z" glyph-name="eight.oldstyle" horiz-adv-x="440"/><glyph d="M44 -212q103 24 173 114.5t63 231.5h-2q-71 -47 -116 -47q-60 0 -101 52.5t-41 148.5q0 98 53 162.5t134 64.5q56 0 98.5 -25t67 -67.5t36 -92.5t11.5 -107q0 -196 -98 -310.5t-277 -127.5zM220 118q30 0 44 42.5t14 138.5q0 196 -61 196q-57 0 -57 -187q0 -100 14 -145 t46 -45z" glyph-name="nine.oldstyle" horiz-adv-x="440"/><glyph d="M151 -7q-55 0 -88 45.5t-33 119.5q0 75 33 120.5t88 45.5q54 0 86.5 -45.5t32.5 -120.5q0 -74 -32.5 -119.5t-86.5 -45.5zM150 3q41 0 41 148q0 161 -41 161t-41 -161q0 -148 41 -148z" glyph-name="zero.dnom" horiz-adv-x="300"/><glyph d="M16 0v2q19 13 25.5 27.5t6.5 51.5l-1 96q0 13 -2 16.5t-9 2t-25 -11.5l-1 2l111 138h1v-243q0 -37 6.5 -51.5t25.5 -27.5v-2h-138z" glyph-name="one.dnom" horiz-adv-x="164"/><glyph d="M100 115q47 61 47 136q0 60 -31 60q-20 0 -27 -24.5t3 -66.5l10 -43l-2 -1l-84 55q9 44 37 68.5t72 24.5q46 0 74 -24t28 -62q0 -32 -16.5 -57t-55.5 -56l-83 -64h98q25 0 36 4.5t24 21.5h2l-8 -87h-214z" glyph-name="two.dnom" horiz-adv-x="252"/><glyph d="M18 -5q65 10 102.5 42.5t37.5 73.5q0 30 -18 46t-52 5l-15 -5l-4 13l16 5q66 21 66 85q0 52 -36 52q-37 0 -22 -58l11 -43l-2 -3l-87 37q26 79 113 79q42 0 67.5 -17.5t25.5 -48.5q0 -55 -85 -75v-1q43 7 71.5 -9.5t28.5 -53.5q0 -53 -60 -88.5t-157 -38.5z" glyph-name="three.dnom" horiz-adv-x="256"/><glyph d="M100 0v2q18 12 24.5 25.5t7.5 45.5h-127v2l195 249h2v-190h49l-5 -61h-44q1 -32 7.5 -45.5t24.5 -25.5v-2h-134zM69 134h63v79z" glyph-name="four.dnom" horiz-adv-x="261"/><glyph d="M21 -5q55 10 90.5 48.5t35.5 93.5q0 63 -46 63q-36 0 -60 -56h-15l15 173h177l-8 -61h-160l-6 -69h2q49 31 95 31q38 0 61 -21t23 -60q0 -62 -55 -101.5t-148 -43.5z" glyph-name="five.dnom" horiz-adv-x="245"/><glyph d="M142 -7q-57 0 -89.5 37.5t-32.5 99.5q0 89 55 140.5t150 56.5l1 -3q-59 -15 -93 -54.5t-34 -102.5h2q34 15 60 15q40 0 64 -24t24 -64q0 -46 -29 -73.5t-78 -27.5zM136 5q36 0 36 83q0 81 -36 81t-36 -81q0 -83 36 -83z" glyph-name="six.dnom" horiz-adv-x="264"/><glyph d="M33 0l159 256h-115q-25 0 -36 -4.5t-24 -21.5h-2l8 87h204l-92 -317h-102z" glyph-name="seven.dnom" horiz-adv-x="232"/><glyph d="M128 -7q-53 0 -83 26.5t-30 69.5q0 78 96 91v1q-38 2 -60 21t-22 48q0 34 26.5 54t72.5 20t72.5 -20t26.5 -54q0 -29 -22 -48t-60 -21v-1q96 -13 96 -91q0 -43 -30 -69.5t-83 -26.5zM128 5q35 0 35 82q0 84 -35 84t-35 -84q0 -82 35 -82zM128 189q29 0 29 63q0 60 -29 60 t-29 -60q0 -63 29 -63z" glyph-name="eight.dnom" horiz-adv-x="256"/><glyph d="M122 324q57 0 89.5 -37.5t32.5 -99.5q0 -89 -55 -140.5t-150 -56.5l-1 3q59 15 93 54.5t34 102.5h-2q-34 -15 -60 -15q-40 0 -64 24t-24 64q0 46 29 73.5t78 27.5zM128 312q-36 0 -36 -83q0 -81 36 -81t36 81q0 83 -36 83z" glyph-name="nine.dnom" horiz-adv-x="264"/><glyph d="M151 376q-55 0 -88 45.5t-33 119.5q0 75 33 120.5t88 45.5q54 0 86.5 -45.5t32.5 -120.5q0 -74 -32.5 -119.5t-86.5 -45.5zM150 386q41 0 41 148q0 161 -41 161t-41 -161q0 -148 41 -148z" glyph-name="zero.numr" horiz-adv-x="300"/><glyph d="M16 383v2q19 13 25.5 27.5t6.5 51.5l-1 96q0 13 -2 16.5t-9 2t-25 -11.5l-1 2l111 138h1v-243q0 -37 6.5 -51.5t25.5 -27.5v-2h-138z" glyph-name="one.numr" horiz-adv-x="164"/><glyph d="M100 498q47 61 47 136q0 60 -31 60q-20 0 -27 -24.5t3 -66.5l10 -43l-2 -1l-84 55q9 44 37 68.5t72 24.5q46 0 74 -24t28 -62q0 -32 -16.5 -57t-55.5 -56l-83 -64h98q25 0 36 4.5t24 21.5h2l-8 -87h-214z" glyph-name="two.numr" horiz-adv-x="252"/><glyph d="M18 378q65 10 102.5 42.5t37.5 73.5q0 30 -18 46t-52 5l-15 -5l-4 13l16 5q66 21 66 85q0 52 -36 52q-37 0 -22 -58l11 -43l-2 -3l-87 37q26 79 113 79q42 0 67.5 -17.5t25.5 -48.5q0 -55 -85 -75v-1q43 7 71.5 -9.5t28.5 -53.5q0 -53 -60 -88.5t-157 -38.5z" glyph-name="three.numr" horiz-adv-x="256"/><glyph d="M100 383v2q18 12 24.5 25.5t7.5 45.5h-127v2l195 249h2v-190h49l-5 -61h-44q1 -32 7.5 -45.5t24.5 -25.5v-2h-134zM69 517h63v79z" glyph-name="four.numr" horiz-adv-x="261"/><glyph d="M21 378q55 10 90.5 48.5t35.5 93.5q0 63 -46 63q-36 0 -60 -56h-15l15 173h177l-8 -61h-160l-6 -69h2q49 31 95 31q38 0 61 -21t23 -60q0 -62 -55 -101.5t-148 -43.5z" glyph-name="five.numr" horiz-adv-x="245"/><glyph d="M142 376q-57 0 -89.5 37.5t-32.5 99.5q0 89 55 140.5t150 56.5l1 -3q-59 -15 -93 -54.5t-34 -102.5h2q34 15 60 15q40 0 64 -24t24 -64q0 -46 -29 -73.5t-78 -27.5zM136 388q36 0 36 83q0 81 -36 81t-36 -81q0 -83 36 -83z" glyph-name="six.numr" horiz-adv-x="264"/><glyph d="M33 383l159 256h-115q-25 0 -36 -4.5t-24 -21.5h-2l8 87h204l-92 -317h-102z" glyph-name="seven.numr" horiz-adv-x="232"/><glyph d="M128 376q-53 0 -83 26.5t-30 69.5q0 78 96 91v1q-38 2 -60 21t-22 48q0 34 26.5 54t72.5 20t72.5 -20t26.5 -54q0 -29 -22 -48t-60 -21v-1q96 -13 96 -91q0 -43 -30 -69.5t-83 -26.5zM128 388q35 0 35 82q0 84 -35 84t-35 -84q0 -82 35 -82zM128 572q29 0 29 63 q0 60 -29 60t-29 -60q0 -63 29 -63z" glyph-name="eight.numr" horiz-adv-x="256"/><glyph d="M122 707q57 0 89.5 -37.5t32.5 -99.5q0 -89 -55 -140.5t-150 -56.5l-1 3q59 15 93 54.5t34 102.5h-2q-34 -15 -60 -15q-40 0 -64 24t-24 64q0 46 29 73.5t78 27.5zM128 695q-36 0 -36 -83q0 -81 36 -81t36 81q0 83 -36 83z" glyph-name="nine.numr" horiz-adv-x="264"/><glyph d="M104 375h-2l-20 325h145z" glyph-name="glyph474" horiz-adv-x="0"/><glyph d="M19 -213q83 110 83 129q0 13 -12 13q-10 0 -53 -32h-2l28 103h21l-16 -55l48 3q38 2 53 -6.5t15 -28.5q0 -32 -37 -61t-126 -67z" glyph-name="glyph475" horiz-adv-x="0"/><glyph d="M61 -275l-2 2l38 135h-57v2l74 101q37 0 62.5 -21t25.5 -53q0 -70 -141 -166z" glyph-name="uni0326.locl" horiz-adv-x="0"/><glyph d="M130 -275q-18 54 -41.5 77.5t-77.5 41.5v2q55 18 78 41t41 78h2q19 -55 41.5 -77.5t77.5 -41.5v-2q-54 -18 -77 -41t-42 -78h-2z" glyph-name="glyph477" horiz-adv-x="262"/></font>
</defs>
</svg>
