<?xml version="1.0" standalone="no"?>
<!DOCTYPE svg PUBLIC "-//W3C//DTD SVG 1.1//EN" "http://www.w3.org/Graphics/SVG/1.1/DTD/svg11.dtd">
<svg version="1.1" xmlns="http://www.w3.org/2000/svg" xmlns:xlink="http://www.w3.org/1999/xlink"><metadata>This SVG WebFont was generated by YouWorkForThem.
</metadata><defs><font horiz-adv-x="0" id="ywftsvg"><font-face ascent="800" bbox="-164 -275 939 975" cap-height="700" descent="-200" font-family="" font-stretch="normal" font-weight="700" panose-1="0 0 0 0 0 0 0 0 0 0" underline-position="0" underline-thickness="0" unicode-range="U+0020-F025" units-per-em="1000" x-height="500"/><missing-glyph horiz-adv-x="600"/><glyph d="M-32 -215l124 700h-49l2 15h49q65 98 132.5 152.5t120.5 54.5l-32 -177h-2l-61 53q-41 36 -59.5 16.5t9.5 -64.5l22 -35h106l153 138h2l-25 -138h86l-2 -15h-87l-69 -406l105 51l2 -2l-72 -89q-31 -39 -67 -51.5t-64.5 13t-33.5 90.5l70 394h-106l-63 -350 q-14 -82 -42 -143.5t-80 -124.5l-67 -82h-2z" glyph-name="uniF024" horiz-adv-x="527" unicode="ft"/><glyph d="M428 39q-31 -39 -67 -51.5t-64.5 13t-33.5 90.5l70 394h-107l-69 -406l105 51l2 -2l-72 -89q-31 -39 -67 -51.5t-64.5 13t-33.5 90.5l70 394h-49l2 15h49l153 138h2l-25 -138h106l153 138h2l-25 -138h86l-2 -15h-87l-69 -406l105 51l2 -2z" glyph-name="uniF025" horiz-adv-x="532" unicode="tt"/><glyph d="M-32 -215l124 700h-49l2 15h49q56 85 151 142.5t181 57.5h71l-61 -342h2l58 93q41 64 83 64q33 0 53 -31t20 -95q0 -105 -29.5 -197t-84 -149.5t-121.5 -57.5q-43 0 -78.5 12t-86.5 54l94 535l-53 22q-44 20 -59 11t-13 -57l3 -62h66l-2 -15h-66l-63 -350 q-14 -82 -42 -143.5t-80 -124.5l-67 -82h-2zM393 3q45 0 84.5 119.5t39.5 220.5q0 52 -27 52q-59 0 -117 -388q8 -4 20 -4z" glyph-name="f_b.liga" horiz-adv-x="658" unicode="fb"/><glyph d="M205 -215l124 700h-107l-63 -350q-14 -82 -42 -143.5t-80 -124.5l-67 -82h-2l124 700h-49l2 15h49q65 98 132.5 152.5t120.5 54.5l-32 -177h-2l-61 53q-41 36 -59.5 16.5t9.5 -64.5l22 -35h107q65 98 132.5 152.5t120.5 54.5l-32 -177h-2l-61 53q-41 36 -59.5 16.5 t9.5 -64.5l22 -35h66l-2 -15h-66l-63 -350q-14 -82 -42 -143.5t-80 -124.5l-67 -82h-2z" glyph-name="f_f.liga" horiz-adv-x="523" unicode="ff"/><glyph d="M-32 -215l124 700h-49l2 15h49q65 98 132.5 152.5t120.5 54.5l-32 -177h-2l-61 53q-41 36 -59.5 16.5t9.5 -64.5l22 -35h107q66 99 155.5 153t187.5 54l-30 -169h-2l-45 45q-66 66 -103.5 52t-33.5 -103l1 -32h68q50 0 81 10q37 12 51.5 -6.5t20.5 -94.5l-57 -318l80 39 l2 -2l-55 -67q-64 -81 -107 -75.5t-50 105.5l72 394h-108l-63 -350q-14 -82 -42 -143.5t-80 -124.5l-67 -82h-2l124 700h-107l-63 -350q-14 -82 -42 -143.5t-80 -124.5l-67 -82h-2z" glyph-name="f_f_i.liga" horiz-adv-x="711" unicode="ffi"/><glyph d="M205 -215l124 700h-107l-63 -350q-14 -82 -42 -143.5t-80 -124.5l-67 -82h-2l124 700h-49l2 15h49q65 98 132.5 152.5t120.5 54.5l-32 -177h-2l-61 53q-41 36 -59.5 16.5t9.5 -64.5l22 -35h107q56 85 151 142.5t181 57.5h71l-108 -609l80 39l2 -2l-55 -67 q-64 -81 -107 -75.5t-50 105.5l87 495l-53 22q-44 20 -59 11t-13 -57l3 -62h66l-2 -15h-66l-63 -350q-14 -82 -42 -143.5t-80 -124.5l-67 -82h-2z" glyph-name="f_f_l.liga" horiz-adv-x="712" unicode="ffl"/><glyph d="M-32 -215l124 700h-49l2 15h49q56 85 151 142.5t181 57.5h71l-56 -322h2l35 49q34 47 59.5 67.5t60.5 20.5q43 0 64.5 -35t8.5 -110l-55 -279l81 39l2 -2l-56 -67q-65 -81 -108 -75.5t-49 105.5l57 289q11 61 -21 61q-39 0 -79.5 -117t-69.5 -324h-130l103 586l-53 22 q-44 20 -59 11t-13 -57l3 -62h66l-2 -15h-66l-63 -350q-14 -82 -42 -143.5t-80 -124.5l-67 -82h-2z" glyph-name="f_h.liga" horiz-adv-x="703" unicode="fh"/><glyph d="M-32 -215l124 700h-49l2 15h49q66 99 155.5 153t187.5 54l-30 -169h-2l-45 45q-66 66 -103.5 52t-33.5 -103l1 -32h68q50 0 81 10q37 12 51.5 -6.5t20.5 -94.5l-57 -318l80 39l2 -2l-55 -67q-64 -81 -107 -75.5t-50 105.5l72 394h-108l-63 -350q-14 -82 -42 -143.5 t-80 -124.5l-67 -82h-2z" glyph-name="f_i.liga" horiz-adv-x="474" unicode="fi"/><glyph d="M-32 -215l124 700h-49l2 15h49q66 99 155.5 153t187.5 54l-30 -169h-2l-45 45q-66 66 -103.5 52t-33.5 -103l1 -32h68q50 0 81 10q37 12 51.5 -6.5t20.5 -94.5l-51 -286q-13 -72 -52 -132.5t-126 -140.5l-55 -50l-2 2l9 13q52 73 73 185l89 485h-108l-63 -350 q-14 -82 -42 -143.5t-80 -124.5l-67 -82h-2z" glyph-name="f_j.liga" horiz-adv-x="472" unicode="fj"/><glyph d="M-32 -215l124 700h-49l2 15h49q56 85 151 142.5t181 57.5h71l-56 -322h2l35 49q62 88 138 88q27 0 43.5 -16t16.5 -42q0 -34 -31.5 -67.5t-90.5 -73.5l39 -219l67 33l2 -2l-55 -67q-42 -52 -67.5 -67t-39.5 -0.5t-26 59.5l-27 209q107 72 107 135q0 44 -28 44 q-42 0 -82.5 -115.5t-70.5 -325.5h-130l103 586l-53 22q-44 20 -59 11t-13 -57l3 -62h66l-2 -15h-66l-63 -350q-14 -82 -42 -143.5t-80 -124.5l-67 -82h-2z" glyph-name="f_k.liga" horiz-adv-x="664" unicode="fk"/><glyph d="M-32 -215l124 700h-49l2 15h49q56 85 151 142.5t181 57.5h71l-108 -609l80 39l2 -2l-55 -67q-64 -81 -107 -75.5t-50 105.5l87 495l-53 22q-44 20 -59 11t-13 -57l3 -62h66l-2 -15h-66l-63 -350q-14 -82 -42 -143.5t-80 -124.5l-67 -82h-2z" glyph-name="f_l.liga" horiz-adv-x="475" unicode="fl"/><glyph glyph-name=".notdef" horiz-adv-x="600"/><glyph glyph-name="glyph1"/><glyph glyph-name="glyph2" horiz-adv-x="333"/><glyph glyph-name="space" horiz-adv-x="160" unicode=" "/><glyph d="M111 171q8 104 7 261t7 268h160q-30 -108 -86.5 -265.5t-85.5 -263.5h-2zM60 -120q-8 55 -27 78t-71 41v2q58 18 85 41.5t55 77.5h2q8 -54 27.5 -77.5t70.5 -41.5v-2q-57 -17 -84.5 -40.5t-55.5 -78.5h-2z" glyph-name="exclam" horiz-adv-x="252" unicode="!"/><glyph d="M321 375q1 64 -10.5 161t-11.5 164h160q-23 -67 -68.5 -164t-67.5 -161h-2zM131 375q1 64 -10.5 161t-11.5 164h160q-23 -67 -68.5 -164t-67.5 -161h-2z" glyph-name="quotedbl" horiz-adv-x="410" unicode="&quot;"/><glyph d="M157 0l91 258h-101l-91 -258h-19l91 258h-107l9 25h106l48 135h-114l9 25h114l90 257h19l-90 -257h101l90 257h19l-90 -257h104l-9 -25h-104l-48 -135h112l-9 -25h-111l-91 -258h-19zM155 283h101l48 135h-101z" glyph-name="numbersign" horiz-adv-x="422" unicode="#"/><glyph d="M136 -75l14 78q-65 5 -106 46.5t-48 123.5l183 82l2 -2l-37 -94q-20 -56 -16.5 -88.5t26.5 -43.5l43 242l-69 94q-54 75 -54 144q0 84 53.5 137.5t137.5 53.5h8l10 57h20l-10 -59q62 -8 94.5 -49.5t36.5 -107.5l-150 -65l-2 2l29 92q24 74 -13 101l-39 -220l73 -99 q55 -75 55 -149q0 -86 -58 -142.5t-149 -56.5l-14 -77h-20zM173 22h4q33 0 53.5 27.5t20.5 75.5q0 62 -38 121zM187 586q0 -54 46 -115l36 206q-4 1 -12 1q-33 0 -51.5 -25.5t-18.5 -66.5z" glyph-name="dollar" horiz-adv-x="399" unicode="$"/><glyph d="M158 336q-48 0 -76 35.5t-28 98.5q0 108 53.5 176.5t117.5 68.5q47 0 74 -35.5t27 -97.5q0 -108 -52.5 -177t-115.5 -69zM347 -15q-48 0 -76 35.5t-28 98.5q0 108 53.5 176.5t117.5 68.5q47 0 74.5 -35.5t27.5 -97.5q0 -108 -53 -177t-116 -69zM349 5q36 0 62 102.5 t26 173.5q0 63 -28 63q-37 0 -62.5 -108.5t-25.5 -169.5t28 -61zM51 0l445 700h21l-445 -700h-21zM161 356q36 0 61 105t25 172q0 62 -26 62q-39 0 -64 -110t-25 -167q0 -62 29 -62z" glyph-name="percent" horiz-adv-x="535" unicode="%"/><glyph d="M158 -15q-74 0 -112.5 41t-38.5 105q0 71 46.5 129.5t130.5 93.5l-26 68q-22 59 -22 105q0 81 55.5 134.5t145.5 53.5q68 0 101.5 -31t33.5 -82q0 -116 -158 -188l99 -254q34 63 29.5 124t-47.5 103l-22 21l1 2h181q-33 -159 -134 -272l54 -138h-157l-14 36 q-66 -51 -146 -51zM144 183q0 -59 29 -95t83 -36q22 0 40 6l-103 271q-49 -73 -49 -146zM266 591q0 -55 25 -119l14 -36q69 86 69 185q0 73 -46 73q-62 0 -62 -103z" glyph-name="ampersand" horiz-adv-x="552" unicode="&amp;"/><glyph d="M111 375q1 64 -10.5 161t-11.5 164h160q-23 -67 -68.5 -164t-67.5 -161h-2z" glyph-name="quotesingle" horiz-adv-x="180" unicode="'"/><glyph d="M217 -110q-160 117 -160 341q0 76 18 154t54.5 156t101 149t148.5 120l2 -2q-97 -89 -156.5 -262.5t-59.5 -364.5q0 -101 15 -179t39 -110z" glyph-name="parenleft" horiz-adv-x="293" unicode="("/><glyph d="M-53 -108q97 89 156.5 262.5t59.5 364.5q0 101 -15 179t-39 110l2 2q160 -117 160 -341q0 -76 -18 -154t-54.5 -156t-101 -149t-148.5 -120z" glyph-name="parenright" horiz-adv-x="293" unicode=")"/><glyph d="M76 453q21 21 42.5 35t51.5 29t49 27q-18 -1 -52 -5t-56.5 -3.5t-48.5 7.5l51 101q24 -11 40 -24t36 -34.5t33 -33.5q-3 16 -11.5 47t-11 52t0.5 49h106q-7 -28 -18 -50t-29.5 -50.5t-28.5 -47.5q17 12 45 33.5t49.5 34.5t48.5 24l15 -101q-28 -7 -50.5 -7.5t-54.5 3.5 t-51 5q14 -11 39 -26.5t41 -29.5t30 -35l-91 -63q-8 19 -13 39t-6.5 30t-4 40.5t-3.5 38.5q-8 -19 -19 -50t-21.5 -53t-28.5 -45z" glyph-name="asterisk" horiz-adv-x="346" unicode="*"/><glyph d="M207 274q5 21 -15 21h-154l9 25h148q19 0 24 20l23 157l26 3l-32 -159q-5 -20 14 -21h154l-9 -25h-147q-19 0 -24 -20l-24 -158l-25 -3z" glyph-name="plus" horiz-adv-x="422" unicode="+"/><glyph d="M-35 -200l-2 2l78 198h-60v2l125 138q85 -28 73 -96q-7 -39 -49.5 -88t-164.5 -156z" glyph-name="comma" horiz-adv-x="247" unicode=","/><glyph d="M33 267l9 25h317l-9 -25h-317z" glyph-name="hyphen" horiz-adv-x="382" unicode="-"/><glyph d="M74 -120q-8 55 -27 78t-71 41v2q58 18 85 41.5t55 77.5h2q8 -54 27.5 -77.5t70.5 -41.5v-2q-57 -17 -84.5 -40.5t-55.5 -78.5h-2z" glyph-name="period" horiz-adv-x="280" unicode="."/><glyph d="M-10 -100h-42l336 900h42z" glyph-name="slash" horiz-adv-x="239" unicode="/"/><glyph d="M176 -15q-74 0 -113 58.5t-39 166.5q0 57 10 122t32 133.5t53.5 123.5t80 90.5t105.5 35.5q75 0 114 -58t39 -166q0 -55 -9.5 -119.5t-32 -133.5t-54 -125t-80 -92t-106.5 -36zM182 5q42 0 79.5 123t55.5 254t18 201q0 65 -8.5 88.5t-27.5 23.5q-41 0 -78 -122.5 t-55.5 -254t-18.5 -200.5q0 -65 8.5 -89t26.5 -24z" glyph-name="zero" horiz-adv-x="447" unicode="0"/><glyph d="M106 461q5 31 -3.5 33t-56.5 -20l-1 3l234 238h2l-126 -715h-130z" glyph-name="one" horiz-adv-x="249" unicode="1"/><glyph d="M201 391q87 142 87 228q0 75 -44 75q-54 0 -54 -143v-83l-2 -2l-130 82q41 86 92 126.5t126 40.5q73 0 112.5 -39t39.5 -103q0 -57 -29 -109.5t-97 -118.5l-245 -235h294l-58 -110h-332z" glyph-name="two" horiz-adv-x="396" unicode="2"/><glyph d="M-26 -12q126 30 202 110t76 179q0 54 -27 77t-79 10l-20 -5l-4 18l29 8q74 23 112.5 93t38.5 138q0 78 -41 78q-32 0 -46 -32.5t-14 -100.5v-83l-2 -2l-130 82q60 157 209 157q68 0 109 -32.5t41 -91.5q0 -72 -56 -122.5t-153 -77.5v-2q71 14 121 -15t50 -99 q0 -112 -110 -193.5t-305 -96.5z" glyph-name="three" horiz-adv-x="409" unicode="3"/><glyph d="M152 0l29 152h-193v2l420 561h2l-81 -453h98l-60 -110h-57l-27 -152h-131zM93 262h109l37 195z" glyph-name="four" horiz-adv-x="435" unicode="4"/><glyph d="M-28 -12q120 29 197.5 123.5t77.5 207.5q0 92 -66 92q-56 0 -106 -78h-12l97 367h295l-35 -130h-276l-46 -178h2q69 36 100.5 47.5t64.5 11.5q59 0 91 -35.5t32 -97.5q0 -126 -115 -222t-300 -111z" glyph-name="five" horiz-adv-x="400" unicode="5"/><glyph d="M454 712q-99 -31 -178 -122.5t-98 -223.5h2q79 47 125 47q49 0 80.5 -36.5t31.5 -104.5q0 -123 -72 -205t-161 -82q-85 0 -126 53t-41 147q0 206 127.5 359t308.5 171zM246 382q-38 0 -72.5 -91.5t-34.5 -205.5q0 -80 34 -80q38 0 73 96.5t35 207.5q0 73 -35 73z" glyph-name="six" horiz-adv-x="439" unicode="6"/><glyph d="M-34 0l381 570h-280l35 130h320l-286 -700h-170z" glyph-name="seven" horiz-adv-x="348" unicode="7"/><glyph d="M168 -15q-70 0 -115.5 46.5t-45.5 117.5q0 98 55.5 171t140.5 87v2q-38 7 -62.5 41t-24.5 80q0 80 50.5 132.5t127.5 52.5q55 0 90.5 -35t35.5 -89q0 -67 -38.5 -118.5t-97.5 -63.5v-2q51 -9 84.5 -53t33.5 -103q0 -115 -66.5 -190.5t-167.5 -75.5zM131 73q0 -73 40 -73 q36 0 62 65t36 135t10 121q0 74 -38 74q-25 0 -46.5 -35t-35 -86t-21 -105t-7.5 -96zM215 474q0 -54 30 -54q32 0 54 76t22 150q0 54 -27 54q-34 0 -56.5 -75t-22.5 -151z" glyph-name="eight" horiz-adv-x="427" unicode="8"/><glyph d="M0 -12q102 28 189.5 121.5t106.5 224.5h-2q-79 -47 -125 -47q-49 0 -80.5 36.5t-31.5 104.5q0 123 72 205t161 82q85 0 126 -53t41 -147q0 -208 -131 -360t-325 -170zM228 318q38 0 72.5 91.5t34.5 205.5q0 80 -34 80q-38 0 -73 -96.5t-35 -207.5q0 -73 35 -73z" glyph-name="nine" horiz-adv-x="439" unicode="9"/><glyph d="M74 -120q-8 55 -27 78t-71 41v2q58 18 85 41.5t55 77.5h2q8 -54 27.5 -77.5t70.5 -41.5v-2q-57 -17 -84.5 -40.5t-55.5 -78.5h-2zM144 275q-8 55 -27 78t-71 41v2q58 18 85 41.5t55 77.5h2q8 -54 27.5 -77.5t70.5 -41.5v-2q-57 -17 -84.5 -40.5t-55.5 -78.5h-2z" glyph-name="colon" horiz-adv-x="281" unicode=":"/><glyph d="M143 275q-8 55 -27 78t-71 41v2q58 18 85 41.5t55 77.5h2q8 -54 27.5 -77.5t70.5 -41.5v-2q-57 -17 -84.5 -40.5t-55.5 -78.5h-2zM-21 -200l-2 2l78 198h-60v2l125 138q85 -28 73 -96q-7 -39 -49.5 -88t-164.5 -156z" glyph-name="semicolon" horiz-adv-x="278" unicode=";"/><glyph d="M343 0l-316 234l9 30l400 236l-11 -34l-375 -220l301 -222z" glyph-name="less" horiz-adv-x="422" unicode="&lt;"/><glyph d="M52 375l9 25h357l-9 -25h-357zM24 215l9 25h357l-9 -25h-357z" glyph-name="equal" horiz-adv-x="422" unicode="="/><glyph d="M-14 0l11 34l375 220l-301 222l8 24l316 -234l-9 -30z" glyph-name="greater" horiz-adv-x="422" unicode=">"/><glyph d="M163 154q-23 58 -24 109.5t25.5 108t85.5 114.5q89 87 89 154q0 26 -14.5 40t-39.5 14q-42 0 -66 -39t-20 -104l4 -69l-2 -2l-133 68q30 80 88 123.5t137 43.5q69 0 108 -36.5t39 -92.5q0 -63 -37 -114.5t-102 -104.5q-112 -88 -136 -213h-2zM118 -120q-8 55 -27 78 t-71 41v2q58 18 85 41.5t55 77.5h2q8 -54 27.5 -77.5t70.5 -41.5v-2q-57 -17 -84.5 -40.5t-55.5 -78.5h-2z" glyph-name="question" horiz-adv-x="397" unicode="?"/><glyph d="M272 -115q-129 0 -197.5 70t-68.5 183q0 176 159 323q70 65 136.5 99.5t150.5 34.5q123 0 191 -62t68 -175q0 -126 -105 -242q-82 -92 -160 -92q-44 0 -59 36.5t-5 96.5h-2l-50 -79q-34 -54 -79 -54q-67 0 -67 117q0 73 22.5 149t74.5 135.5t122 59.5q77 0 138 -70 l-53 -296q-11 -59 20 -59q41 0 71.5 99.5t30.5 204.5q0 213 -171 213q-92 0 -168.5 -59.5t-117.5 -153t-41 -198.5q0 -224 227 -224q137 0 234 68l2 -2q-83 -62 -151 -92.5t-152 -30.5zM328 125q17 0 33 31.5t30 91t22.5 106t18.5 113.5q-8 3 -13 3q-41 0 -75 -106t-34 -191 q0 -48 18 -48z" glyph-name="at" horiz-adv-x="716" unicode="@"/><glyph d="M-39 2q82 101 147 281l85 232q26 72 19 151l-3 34h142l51 -700h-185v2q23 15 29.5 33.5t3.5 65.5l-8 112h-136q-17 -67 -12 -114t30 -97v-2h-163v2zM112 233h129l-21 299h-2l-90 -249q-14 -42 -16 -50z" glyph-name="A" horiz-adv-x="466" unicode="A"/><glyph d="M236 0h-270v2q26 17 37.5 35t19.5 62l89 502q8 47 4 64.5t-27 32.5v2h299q112 0 112 -74q0 -58 -75 -120q-37 -30 -45 -58t8 -63q36 -84 50 -125t14 -73q0 -87 -60 -137t-156 -50zM150 20q71 0 108.5 48t37.5 143q0 50 -16 184h-2l-73 -57zM209 362q153 139 153 243 q0 75 -96 75z" glyph-name="B" horiz-adv-x="481" unicode="B"/><glyph d="M197 -15q-77 0 -123 64t-46 180q0 220 93.5 353t230.5 133q75 0 115 -46t37 -126l-175 -75l-3 3l38 87q20 45 21.5 77t-9 45.5t-27.5 13.5q-43 0 -81.5 -63.5t-62 -168.5t-23.5 -220q0 -155 85 -155q59 0 178 116l3 -2q-33 -52 -55 -82.5t-54.5 -65.5t-67.5 -51.5 t-74 -16.5z" glyph-name="C" horiz-adv-x="467" unicode="C"/><glyph d="M-34 0v2q26 17 37.5 35t19.5 62l89 502q8 47 4 64.5t-27 32.5v2h187q231 0 231 -260q0 -99 -31.5 -184t-82.5 -139.5t-113.5 -85.5t-126.5 -31h-187zM150 20h6q75 0 142 140.5t67 354.5q0 165 -93 165h-7z" glyph-name="D" horiz-adv-x="502" unicode="D"/><glyph d="M-34 0v2q26 17 37.5 35t19.5 62l89 502q8 47 4 64.5t-27 32.5v2h399l-35 -202h-2q-51 117 -72 144q-35 37 -89 38h-25l-50 -289h9q32 0 63 28.5t78 100.5h2l-29 -276h-2q-33 71 -58.5 99t-57.5 28h-9l-61 -351h19q32 0 57.5 14t70 63t121.5 152h2l-63 -249h-391z" glyph-name="E" horiz-adv-x="440" unicode="E"/><glyph d="M-34 0v2q26 17 37.5 35t19.5 62l89 502q8 47 4 64.5t-27 32.5v2h399l-35 -202h-2q-51 117 -72 144q-35 37 -89 38h-25l-54 -309h9q33 0 64 28.5t77 100.5h2l-29 -276h-2q-32 70 -57.5 98.5t-57.5 28.5h-10l-44 -252q-8 -47 -4 -64.5t27 -32.5v-2h-220z" glyph-name="F" horiz-adv-x="429" unicode="F"/><glyph d="M181 -15q-68 0 -109.5 64t-41.5 170q0 221 92.5 358.5t218.5 137.5q83 0 123.5 -45.5t37.5 -126.5l-176 -75l-3 3l39 87q20 46 24.5 77.5t-5 45t-27.5 13.5q-40 0 -82.5 -78.5t-71 -200t-28.5 -237.5q0 -78 17 -115t43 -37q51 0 66 82l37 213h-80l3 20h211l-62 -356h-2 l-102 76q-39 -76 -122 -76z" glyph-name="G" horiz-adv-x="494" unicode="G"/><glyph d="M309 700v-2q-26 -17 -37.5 -35t-19.5 -62l-37 -210h120l37 210q8 47 4 64.5t-27 32.5v2h220v-2q-26 -17 -37.5 -35t-19.5 -62l-89 -502q-8 -47 -4 -64.5t27 -32.5v-2h-220v2q26 17 37.5 35t19.5 62l48 272h-120l-48 -272q-8 -47 -4 -64.5t27 -32.5v-2h-220v2 q26 17 37.5 35t19.5 62l89 502q8 47 4 64.5t-27 32.5v2h220z" glyph-name="H" horiz-adv-x="500" unicode="H"/><glyph d="M309 700v-2q-26 -17 -37.5 -35t-19.5 -62l-89 -502q-8 -47 -4 -64.5t27 -32.5v-2h-220v2q26 17 37.5 35t19.5 62l89 502q8 47 4 64.5t-27 32.5v2h220z" glyph-name="I" horiz-adv-x="240" unicode="I"/><glyph d="M109 -15q-60 0 -91 46.5t-28 133.5l200 103v-2l-64 -117q-24 -43 -33 -76.5t-3 -50.5t25 -17q28 0 53.5 37t38.5 109l79 450q9 47 5 64.5t-27 32.5v2h180l-71 -400q-14 -79 -38.5 -132.5t-70.5 -98.5q-85 -84 -155 -84z" glyph-name="J" horiz-adv-x="400" unicode="J"/><glyph d="M-34 0v2q26 17 37.5 35t19.5 62l89 502q8 47 4 64.5t-27 32.5v2h220v-2q-26 -17 -37.5 -35t-19.5 -62l-53 -299l177 243q56 75 0 153v2h201v-2q-114 -59 -169 -139q-25 -37 -30.5 -78.5t6.5 -106.5l70 -374h-212v2q23 16 31 34.5t7 64.5l-4 273l-84 -115l-28 -160 q-9 -47 -5 -64.5t27 -32.5v-2h-220z" glyph-name="K" horiz-adv-x="503" unicode="K"/><glyph d="M-34 0v2q26 17 37.5 35t19.5 62l89 502q8 47 4 64.5t-27 32.5v2h220v-2q-26 -17 -37.5 -35t-19.5 -62l-102 -581h19q34 0 62.5 17t77 75t129.5 177h2l-73 -289h-401z" glyph-name="L" horiz-adv-x="443" unicode="L"/><glyph d="M-39 2q38 62 61 124.5t46 156.5l57 236q16 73 2 132l-11 47v2h143l97 -403h2l144 259q22 41 27 97l4 47h182v-2q-24 -16 -34.5 -35t-14.5 -64l-56 -599h-180v2q24 16 34.5 35t14.5 64l42 450l-257 -465h-2l-109 457h-2l-62 -260q-23 -93 -15 -156.5t52 -124.5v-2h-165v2z " glyph-name="M" horiz-adv-x="674" unicode="M"/><glyph d="M359 -15l-221 574h-2l-49 -276q-16 -93 -6.5 -154.5t49.5 -126.5v-2h-169v2q41 58 65 120.5t41 160.5l45 255q12 60 -9 113l-19 47v2h152l158 -405h2l22 122q16 93 8.5 155t-42.5 126v2h159v-2q-41 -58 -64.5 -121t-40.5 -160l-77 -432h-2z" glyph-name="N" horiz-adv-x="469" unicode="N"/><glyph d="M206 -15q-82 0 -129.5 68t-47.5 182q0 199 91 339.5t222 140.5q88 0 134 -66.5t46 -182.5q0 -131 -41 -241.5t-113.5 -175t-161.5 -64.5zM212 5q46 0 88.5 114t64.5 246t22 216q0 114 -47 114t-90 -116t-65 -247.5t-22 -212.5q0 -114 49 -114z" glyph-name="O" horiz-adv-x="516" unicode="O"/><glyph d="M-34 0v2q26 17 37.5 35t19.5 62l89 502q8 47 4 64.5t-27 32.5v2h237q166 0 166 -98q0 -39 -19.5 -73t-84.5 -91t-191 -147l-34 -192q-8 -47 -4 -64.5t27 -32.5v-2h-220zM200 311q151 142 151 284q0 85 -85 85z" glyph-name="P" horiz-adv-x="442" unicode="P"/><glyph d="M46 -165v2l175 150l-2 2q-8 -4 -22 -4q-73 0 -120.5 69t-47.5 181q0 199 91 339.5t222 140.5q88 0 134 -66.5t46 -182.5q0 -248 -203 -420l-111 -94h100q75 0 83 53h2l38 -108q-6 -34 -36 -48t-91 -14h-258zM212 5q46 0 88.5 114t64.5 246t22 216q0 114 -47 114t-90 -116 t-65 -247.5t-22 -212.5q0 -114 49 -114z" glyph-name="Q" horiz-adv-x="513" unicode="Q"/><glyph d="M-34 0v2q26 17 37.5 35t19.5 62l89 502q8 47 4 64.5t-27 32.5v2h315q110 0 110 -71q0 -36 -24.5 -70t-77.5 -78q-33 -28 -39.5 -58t5.5 -79l66 -344h-213v2q23 16 31 34.5t7 64.5l-7 270h-2l-57 -45l-40 -227q-8 -47 -4 -64.5t27 -32.5v-2h-220zM208 354q82 75 120 133.5 t38 115.5q0 41 -22 59t-78 18z" glyph-name="R" horiz-adv-x="493" unicode="R"/><glyph d="M177 -15q-77 0 -125.5 43.5t-56.5 135.5l192 86l2 -2l-39 -98q-26 -72 -15 -108t49 -36q35 0 56.5 28.5t21.5 79.5q0 72 -46 136l-83 114q-56 77 -56 150q0 89 56 145t144 56q79 0 120.5 -45.5t45.5 -121.5l-157 -68l-2 2l30 96q16 55 3 85.5t-49 30.5q-35 0 -54 -26.5 t-19 -70.5q0 -57 48 -121l93 -126q58 -78 58 -156q0 -91 -61 -150t-156 -59z" glyph-name="S" horiz-adv-x="417" unicode="S"/><glyph d="M499 700l-23 -232h-2q-44 135 -61.5 173.5t-40.5 38.5h-3l-102 -581q-8 -47 -4 -64.5t27 -32.5v-2h-220v2q26 17 37.5 35t19.5 62l102 581h-1q-23 0 -55 -38.5t-123 -173.5h-2l59 232h392z" glyph-name="T" horiz-adv-x="448" unicode="T"/><glyph d="M187 -15q-86 0 -126.5 63t-21.5 172l67 381q9 47 5 64.5t-27 32.5v2h220v-2q-25 -17 -37.5 -35t-20.5 -62l-67 -381q-14 -81 2.5 -129t68.5 -48q91 0 122 175l35 199q16 95 8 155t-42 126l1 2h159l-1 -2q-41 -58 -64.5 -120.5t-40.5 -160.5l-35 -199q-41 -233 -205 -233z " glyph-name="U" horiz-adv-x="464" unicode="U"/><glyph d="M145 0l-51 700h190v-2q-23 -16 -30 -34t-3 -65l30 -448h2l94 269q33 94 32.5 155.5t-33.5 122.5v2h163v-2q-79 -102 -142 -281l-90 -256q-10 -28 -13.5 -39t-6.5 -34.5t1 -44.5l3 -43h-146z" glyph-name="V" horiz-adv-x="465" unicode="V"/><glyph d="M126 0l-32 700h191v-2q-24 -16 -31 -34.5t-6 -64.5l15 -452h2l94 278q29 84 25 173l-4 102h151l18 -553h2l91 270q31 92 30 155.5t-35 125.5v2h163v-2q-80 -111 -137 -282l-86 -256q-15 -45 -18.5 -66.5t-1.5 -56.5l2 -37h-147l-21 451h-2l-98 -291q-15 -46 -18.5 -66 t-1.5 -57l2 -37h-147z" glyph-name="W" horiz-adv-x="736" unicode="W"/><glyph d="M405 0h-195v2q22 15 25.5 32.5t-6.5 64.5l-39 182l-3 -6q-45 -82 -53.5 -141t12.5 -132v-2h-185v2q66 60 108 119.5t103 169.5l11 21l-85 388h195v-2q-22 -15 -25.5 -32.5t6.5 -64.5l31 -146l5 11q61 121 33 232v2h171v-2q-125 -112 -186 -241l-16 -34z" glyph-name="X" horiz-adv-x="454" unicode="X"/><glyph d="M79 0v2q26 17 37.5 35.5t19.5 62.5l37 210l-89 390h197v-2q-23 -15 -26.5 -32.5t6.5 -64.5l46 -233h2l29 61q38 80 45 140.5t-17 128.5v2h171v-2q-98 -94 -183 -280l-36 -79l-42 -239q-8 -48 -4 -65.5t27 -32.5v-2h-220z" glyph-name="Y" horiz-adv-x="463" unicode="Y"/><glyph d="M-34 0l358 680h-13q-21 0 -37 -2.5t-34.5 -13.5t-30 -20t-35 -36t-38 -45.5t-50.5 -64.5h-2l35 202h368l-358 -680h25q34 0 62.5 17t77 75t129.5 177h2l-73 -289h-386z" glyph-name="Z" horiz-adv-x="428" unicode="Z"/><glyph d="M1 -100l159 900h190l-4 -20h-70l-151 -860h70l-4 -20h-190z" glyph-name="bracketleft" horiz-adv-x="263" unicode="["/><glyph d="M127 -100l-20 900h40l20 -900h-40z" glyph-name="backslash" horiz-adv-x="239" unicode="\"/><glyph d="M138 -100h-190l4 20h70l151 860h-70l4 20h190z" glyph-name="bracketright" horiz-adv-x="263" unicode="]"/><glyph d="M88 535q36 54 101.5 128.5t94.5 111.5h2q16 -39 54.5 -113t55.5 -127h-2l-137 81l-167 -81h-2z" glyph-name="asciicircum" horiz-adv-x="384" unicode="^"/><glyph d="M-44 -111l9 25h317l-9 -25h-317z" glyph-name="underscore" horiz-adv-x="371" unicode="_"/><glyph d="M223 535l-114 211h140l-24 -209z" glyph-name="grave" horiz-adv-x="202" unicode="`"/><glyph d="M77 -15q-30 0 -50.5 34t-20.5 92q0 105 29 197t83 149.5t121 57.5q40 0 70.5 -9t66.5 -38l33 32h4l-74 -409l80 39l2 -2l-55 -67q-64 -81 -106 -75.5t-46 105.5l7 52h-2l-59 -94q-41 -64 -83 -64zM166 105q59 0 117 388q-8 4 -20 4q-45 0 -83.5 -119t-38.5 -221 q0 -52 25 -52z" glyph-name="a" horiz-adv-x="425" unicode="a"/><glyph d="M182 -15q-43 0 -78.5 12t-86.5 54l97 550q8 46 -2.5 64t-52.5 33v2h203l-61 -342h2l58 93q41 64 83 64q33 0 53 -31t20 -95q0 -105 -29.5 -197t-84 -149.5t-121.5 -57.5zM158 3q45 0 84.5 119.5t39.5 220.5q0 52 -27 52q-59 0 -117 -388q8 -4 20 -4z" glyph-name="b" horiz-adv-x="423" unicode="b"/><glyph d="M136 -15q-56 0 -89.5 48.5t-33.5 131.5q0 54 12.5 111t38.5 112.5t74.5 91t111.5 35.5t98 -37t34 -110l-140 -68l-2 2l32 99q31 99 -15 99q-31 0 -55.5 -65.5t-35.5 -137t-11 -116.5q0 -105 56 -105q17 0 30 4t42.5 26.5t69.5 65.5l2 -2q-67 -107 -115.5 -146t-103.5 -39 z" glyph-name="c" horiz-adv-x="381" unicode="c"/><glyph d="M81 -15q-33 0 -53 31t-20 95q0 105 23.5 197t66.5 149.5t95 57.5q45 0 71 -33l14 -18h2l24 136q8 47 -2.5 65t-52.5 33v2h203l-109 -609l80 39l2 -2l-55 -67q-64 -81 -106 -75.5t-46 105.5l7 52h-2l-59 -94q-41 -64 -83 -64zM170 105q36 0 67 121.5t31 195.5q0 47 -19 47 q-34 0 -70 -109t-36 -203q0 -52 27 -52z" glyph-name="d" horiz-adv-x="429" unicode="d"/><glyph d="M136 -15q-56 0 -89.5 48.5t-33.5 131.5q0 42 7.5 87t25.5 92.5t44.5 85t69.5 61.5t96 24q62 0 96.5 -28t34.5 -75q0 -32 -13.5 -59t-49 -56t-69 -50t-100.5 -59q0 -112 56 -112q17 0 30 4t42.5 26.5t69.5 65.5l2 -2q-67 -107 -115.5 -146t-103.5 -39zM156 220 q23 -12 51.5 23.5t47.5 95t19 111.5q0 50 -21 50q-35 0 -63 -94.5t-34 -185.5z" glyph-name="e" horiz-adv-x="379" unicode="e"/><glyph d="M-32 -215l124 700h-49l2 15h49q65 98 132.5 152.5t120.5 54.5l-32 -177h-2l-61 53q-41 36 -59.5 16.5t9.5 -64.5l22 -35h66l-2 -15h-66l-63 -350q-14 -82 -42 -143.5t-80 -124.5l-67 -82h-2z" glyph-name="f" horiz-adv-x="286" unicode="f"/><glyph d="M-37 -215l32 173h2l76 -77q31 -31 51 -35t31 13.5t21 60.5q25 104 46 222h-2l-60 -93q-42 -64 -84 -64q-33 0 -52.5 31t-18.5 95q2 105 33 197t86.5 149.5t122.5 57.5q40 0 70.5 -9t66.5 -38l33 32h4l-54 -280q-83 -435 -404 -435zM167 105q60 0 124 388q-8 4 -20 4 q-45 0 -86.5 -119.5t-43.5 -220.5q-1 -52 26 -52z" glyph-name="g" horiz-adv-x="411" unicode="g"/><glyph d="M114 601q8 46 -2.5 64t-52.5 33v2h203l-56 -322h2l35 49q34 47 59.5 67.5t60.5 20.5q43 0 64.5 -35t8.5 -110l-55 -279l81 39l2 -2l-56 -67q-65 -81 -108 -75.5t-49 105.5l57 289q11 61 -21 61q-39 0 -79.5 -117t-69.5 -324h-130z" glyph-name="h" horiz-adv-x="468" unicode="h"/><glyph d="M181 61q-65 -81 -108 -75.5t-49 105.5l63 318l-81 -39l-2 2l56 67q65 81 108 75.5t49 -105.5l-63 -318l81 39l2 -2zM168 535q-8 55 -27 78t-71 41v2q59 19 86 42t54 77h2q9 -54 28 -77.5t70 -41.5v-2q-57 -17 -84.5 -40.5t-55.5 -78.5h-2z" glyph-name="i" horiz-adv-x="241" unicode="i"/><glyph d="M88 409l-80 -39l-2 2l56 67q65 81 108 75.5t48 -105.5l-55 -286q-14 -73 -52.5 -133.5t-125.5 -139.5l-55 -50l-2 2l9 13q50 71 72 185zM161 535q-8 55 -27 78t-71 41v2q59 19 86 42t54 77h2q9 -54 28 -77.5t70 -41.5v-2q-57 -17 -84.5 -40.5t-55.5 -78.5h-2z" glyph-name="j" horiz-adv-x="236" unicode="j"/><glyph d="M211 250q56 47 82 80.5t26 66.5q0 44 -28 44q-42 0 -82.5 -115.5t-70.5 -325.5h-130l106 601q8 46 -2.5 64t-52.5 33v2h203l-56 -322h2l36 44q44 55 70 74t62 19q30 0 46.5 -18t16.5 -45q0 -71 -120 -136l39 -219l67 33l2 -2l-55 -67q-42 -52 -68 -66.5t-42 -0.5t-33 59z " glyph-name="k" horiz-adv-x="429" unicode="k"/><glyph d="M181 61q-64 -81 -107 -75.5t-50 105.5l90 510q8 46 -2.5 64t-52.5 33v2h203l-108 -609l80 39l2 -2z" glyph-name="l" horiz-adv-x="240" unicode="l"/><glyph d="M7 0l80 409l-81 -39l-2 2l56 67q65 81 107 75.5t43 -105.5l-5 -39h2l42 57q34 47 60.5 67.5t61.5 20.5q40 0 60 -31t9 -99l-2 -15h2l42 57q34 47 60.5 67.5t61.5 20.5q42 0 62 -35t5 -110l-55 -279l81 39l2 -2l-56 -67q-65 -81 -108 -75.5t-49 105.5l57 289q13 61 -17 61 q-38 0 -80.5 -116.5t-75.5 -324.5h-130l76 389q7 52 -23 52q-38 0 -80.5 -116.5t-75.5 -324.5h-130z" glyph-name="m" horiz-adv-x="703" unicode="m"/><glyph d="M7 0l80 409l-81 -39l-2 2l56 67q65 81 107 75.5t43 -105.5l-5 -39h2l42 57q35 48 61.5 68t57.5 20q47 0 65 -38t5 -107l-55 -279l81 39l2 -2l-56 -67q-65 -81 -108 -75.5t-49 105.5l58 300q11 50 -16 50q-39 0 -82 -117t-76 -324h-130z" glyph-name="n" horiz-adv-x="470" unicode="n"/><glyph d="M165 -15q-71 0 -111 51t-40 139q0 152 75.5 246t169.5 94q71 0 110.5 -50t39.5 -138q0 -151 -75.5 -246.5t-168.5 -95.5zM169 0q41 0 77 171.5t36 259.5q0 69 -26 69q-30 0 -58.5 -92.5t-43 -190t-14.5 -144.5q0 -73 29 -73z" glyph-name="o" horiz-adv-x="423" unicode="o"/><glyph d="M-23 -200l109 609l-80 -39l-2 2l55 67q64 81 106 75.5t46 -105.5l-7 -52h2l59 94q41 64 83 64q33 0 53 -31t20 -95q0 -105 -23.5 -197t-66.5 -149.5t-95 -57.5q-45 0 -71 33l-14 18h-2l-41 -236h-131zM180 31q34 0 70 109t36 203q0 52 -27 52q-36 0 -67 -121.5 t-31 -195.5q0 -47 19 -47z" glyph-name="p" horiz-adv-x="429" unicode="p"/><glyph d="M161 -200l61 342h-2l-58 -93q-41 -64 -83 -64q-33 0 -53 31t-20 95q0 105 29.5 197t84 149.5t121.5 57.5q81 0 138 -46l32 31h4l-123 -700h-131zM168 105q59 0 117 388q-8 4 -20 4q-45 0 -84.5 -119.5t-39.5 -220.5q0 -52 27 -52z" glyph-name="q" horiz-adv-x="411" unicode="q"/><glyph d="M7 0l80 409l-81 -39l-2 2l56 67q65 81 107 75.5t43 -105.5l-8 -76h2l75 118q23 36 41 50t50 14l-28 -202h-2l-35 28q-41 33 -63 17q-36 -26 -80 -230q-11 -54 -25 -128h-130z" glyph-name="r" horiz-adv-x="340" unicode="r"/><glyph d="M144 -15q-68 0 -108 37t-48 104l135 65l2 -2l-21 -105q-8 -40 3.5 -61t35.5 -21q52 0 52 78q0 53 -43 100l-48 54q-52 58 -54 121q-3 69 42 114.5t121 45.5q69 0 106 -42t35 -104l-119 -52l-2 2l18 87q9 45 -3 69.5t-39 24.5q-25 0 -39.5 -20t-14.5 -48q0 -47 43 -95 l65 -75q56 -65 56 -125q0 -68 -49.5 -110t-125.5 -42z" glyph-name="s" horiz-adv-x="352" unicode="s"/><glyph d="M184 39q-32 -39 -67 -51.5t-62.5 13t-31.5 90.5l74 394h-49l2 15h49l154 138h2l-26 -138h86l-2 -15h-87l-76 -406l106 51l2 -2z" glyph-name="t" horiz-adv-x="290" unicode="t"/><glyph d="M96 -15q-43 0 -60 38t-4 107l55 279l-81 -39l-2 2l56 67q65 81 108 75.5t49 -105.5l-58 -300q-11 -50 13 -50q34 0 76 118t75 323h130l-80 -409l81 39l2 -2l-56 -67q-65 -81 -107 -75.5t-43 105.5l5 39h-2l-42 -57q-35 -47 -61 -67.5t-54 -20.5z" glyph-name="u" horiz-adv-x="460" unicode="u"/><glyph d="M119 -15q-47 0 -70.5 30.5t-23.5 85.5q0 75 42 146.5t110 122.5h-155l62 130h149q-71 -198 -71 -352q0 -115 36 -115q28 0 45.5 70.5t17.5 183.5q0 107 -19 211v2h172q-106 -515 -295 -515z" glyph-name="v" horiz-adv-x="395" unicode="v"/><glyph d="M126 -15q-48 0 -74 32.5t-26 89.5q0 72 41.5 142t109.5 121h-155l62 130h149q-71 -200 -71 -362q0 -105 30 -105q26 0 41 63t28 191l22 213h133q-34 -292 -34 -374q0 -93 28 -93q27 0 44 69.5t17 183.5q0 108 -19 212v2h152q-38 -256 -107.5 -385.5t-159.5 -129.5 q-81 0 -83 103h-2q-43 -103 -126 -103z" glyph-name="w" horiz-adv-x="586" unicode="w"/><glyph d="M304 55q-59 -75 -85 -69.5t-70 105.5l-24 113l-4 -7q-19 -34 -24.5 -65.5t-0.5 -59t19 -70.5v-2h-169v2q126 148 153 195l20 35l-37 177l-67 -33l-2 2l53 67q59 75 85 69.5t68 -105.5l22 -101l1 2q29 48 32.5 90.5t-15.5 97.5v2h149v-2q-113 -133 -149 -195l-12 -21 l41 -191l67 33l2 -2z" glyph-name="x" horiz-adv-x="370" unicode="x"/><glyph d="M-74 -215l29 167h2q63 -33 105 -33q37 0 71 40l-84 541h184v-2q-23 -15 -28.5 -33.5t-0.5 -64.5l31 -272h2q27 56 47 127q22 81 19 130t-30 113v2h139v-2q-34 -50 -56.5 -96t-29.5 -67t-25 -79q-49 -158 -116 -254q-55 -79 -127 -139.5t-132 -77.5z" glyph-name="y" horiz-adv-x="373" unicode="y"/><glyph d="M-43 0l285 370h-210l62 130h278l-288 -370h223l-62 -130h-288z" glyph-name="z" horiz-adv-x="329" unicode="z"/><glyph d="M212 -120q-153 67 -153 191q0 33 10.5 73.5t20.5 70t14.5 57.5t-9.5 45.5t-49 24.5l3 16q33 6 52.5 20t26.5 38t8.5 46.5t3 59.5t6.5 64q28 157 231 234l2 -2q-56 -53 -82.5 -104t-38.5 -117q-1 -6 -4.5 -29t-6 -35t-9 -35.5t-14 -37.5t-21 -33.5t-30 -32.5t-41 -24.5 t-54.5 -18.5l-1 -2q44 -10 69.5 -28.5t34 -39.5t8 -52t-6.5 -59t-12 -67t-6 -70q0 -80 50 -151z" glyph-name="braceleft" horiz-adv-x="289" unicode="{"/><glyph d="M-2 -100l159 900h36l-159 -900h-36z" glyph-name="bar" horiz-adv-x="156" unicode="|"/><glyph d="M-65 -118q56 53 82.5 104t38.5 117q1 6 4.5 29t6 35t9 35.5t14 37.5t21 33.5t30 32.5t41 24.5t54.5 18.5l1 2q-44 10 -69.5 28.5t-34 39.5t-8 52t6.5 59t12 67t6 70q0 80 -50 151l2 2q153 -67 153 -191q0 -33 -10.5 -73.5t-20.5 -70t-14.5 -57.5t9.5 -45.5t49 -24.5 l-3 -16q-33 -6 -52.5 -20t-26.5 -38t-8.5 -46.5t-3 -59.5t-6.5 -64q-28 -157 -231 -234z" glyph-name="braceright" horiz-adv-x="279" unicode="}"/><glyph d="M389 310q-44 -31 -101 -31q-35 0 -78.5 19.5t-71.5 19.5q-56 0 -94 -32l-4 21q47 31 101 31q35 0 76.5 -19.5t72.5 -19.5q53 0 94 32z" glyph-name="asciitilde" horiz-adv-x="408" unicode="~"/><glyph glyph-name="uni00A0" horiz-adv-x="160" unicode=" "/><glyph d="M2 0q30 108 86.5 265.5t85.5 263.5h2q-8 -104 -7 -261t-7 -268h-160zM183 580q-8 54 -27.5 77.5t-70.5 41.5v2q57 17 84.5 40.5t55.5 78.5h2q8 -55 27 -78t71 -41v-2q-58 -18 -85 -41.5t-55 -77.5h-2z" glyph-name="exclamdown" horiz-adv-x="252" unicode="¡"/><glyph d="M177 85q-65 0 -105.5 50.5t-40.5 139.5q0 80 26 154.5t83 128t132 57.5l27 150h20l-27 -150q61 -3 98 -41t43 -111l-145 -59l-2 2l18 95q10 40 9 69t-23 30l-74 -419q12 -5 26 -5q18 0 32.5 3.5t47 26.5t72.5 66l2 -2q-68 -99 -110.5 -138.5t-86.5 -45.5l-27 -151h-20 l27 150h-2zM176 291q0 -70 22 -96l71 400q-44 -22 -68.5 -127.5t-24.5 -176.5z" glyph-name="cent" horiz-adv-x="407" unicode="¢"/><glyph d="M-34 0q115 115 124 283h-74l3 20h72q1 17 1 50q0 27 -1 40h-56l4 20h52q-1 14 -1 41q0 112 50.5 186.5t156.5 74.5q73 0 118 -45t53 -122l-157 -68l-2 2l30 96q16 55 2.5 85.5t-47.5 30.5q-76 0 -76 -141q0 -24 3 -76t3 -64h161l-4 -20h-157q1 -14 1 -42q0 -25 -3 -48 h143l-3 -20h-143q-26 -128 -137 -173h308l-58 -110h-366z" glyph-name="sterling" horiz-adv-x="425" unicode="£"/><glyph d="M22 104l-15 18l87 71q14 11 7 25q-19 36 -19 77q0 78 56 142q13 14 3 26l-61 72l20 17l58 -73q9 -12 24 -2q56 38 117 38q63 0 105 -38q12 -10 25 1l83 74l15 -18l-87 -71q-13 -11 -6 -26q17 -32 17 -75q0 -79 -57 -144q-12 -14 -2 -25l62 -72l-20 -17l-58 74 q-9 12 -25 1q-54 -38 -118 -38q-61 0 -101 37q-14 12 -27 0zM237 161q71 0 131.5 58.5t60.5 140.5q0 59 -37.5 97t-95.5 38q-71 0 -131 -57.5t-60 -140.5q0 -59 36.5 -97.5t95.5 -38.5z" glyph-name="currency" horiz-adv-x="507" unicode="¤"/><glyph d="M74 283l3 20h95l1 7l-19 83h-63l3 20h55l-65 287h197v-2q-23 -15 -26.5 -32.5t6.5 -64.5l46 -233h2l29 61q38 80 45 140.5t-17 128.5v2h171v-2q-98 -94 -183 -280l-2 -5h79l-3 -20h-85l-25 -54l-6 -36h102l-3 -20h-103l-32 -183q-8 -48 -4 -65.5t27 -32.5v-2h-220v2 q26 17 37.5 35.5t19.5 62.5l32 183h-94z" glyph-name="yen" horiz-adv-x="463" unicode="¥"/><glyph d="M144 -15q-138 0 -156 143l135 63l2 -2l-21 -105q-16 -82 34 -82q24 0 38 21.5t14 58.5q0 57 -38 98l-62 68q-45 48 -45 108q0 43 20.5 75t53.5 44q-29 46 -29 98q0 61 41 101.5t109 40.5q69 0 106.5 -39.5t37.5 -103.5l-116 -54l-2 2l17 95q7 42 -5 63.5t-37 21.5 q-24 0 -37 -18t-13 -48q0 -58 40 -101l75 -80q53 -58 53 -106q0 -45 -21 -80.5t-54 -51.5q25 -43 25 -85q0 -64 -45.5 -104.5t-119.5 -40.5zM124 426q0 -23 25 -52l100 -112q9 -10 23 -28q8 11 8 27q0 23 -27 55l-98 112q-8 9 -22 27q-9 -14 -9 -29z" glyph-name="section" horiz-adv-x="356" unicode="§"/><glyph d="M148 555q-1 47 -13 68t-50 31v2q41 9 61 30t37 69h2q0 -47 12.5 -68t51.5 -31v-2q-42 -10 -62 -31t-37 -68h-2zM318 555q-1 47 -13 68t-50 31v2q41 9 61 30t37 69h2q0 -47 12.5 -68t51.5 -31v-2q-42 -10 -62 -31t-37 -68h-2z" glyph-name="dieresis" horiz-adv-x="360" unicode="¨"/><glyph d="M280 -15q-114 0 -181 77t-67 214q0 93 32.5 176t85 140t120.5 90t137 33q115 0 181 -77t66 -214q0 -122 -55 -224.5t-140.5 -158.5t-178.5 -56zM284 5q63 0 125 32t110 86.5t78 133.5t30 167q0 129 -60.5 200t-164.5 71q-131 0 -237 -121.5t-106 -297.5 q0 -128 60.5 -199.5t164.5 -71.5zM301 135q-63 0 -96 43t-33 119q0 118 65 193t150 75q63 0 97.5 -45.5t29.5 -122.5h-30q4 68 -23 108t-78 40q-70 0 -125.5 -70t-55.5 -177q0 -67 26 -105t76 -38q57 0 100 40t64 109h30q-23 -78 -75 -123.5t-122 -45.5z" glyph-name="copyright" horiz-adv-x="651" unicode="©"/><glyph d="M117 304q-22 0 -39 27t-17 85q0 65 18.5 130t59.5 113.5t94 48.5q33 0 61 -9.5t65 -40.5l-53 -277l54 10l2 -2l-25 -33q-28 -35 -52 -47.5t-41.5 5t-20.5 67.5l6 43h-1l-43 -64q-36 -56 -68 -56zM175 381q26 0 55.5 103.5t44.5 205.5q-17 5 -25 5q-38 0 -66.5 -92 t-28.5 -165q0 -34 4.5 -45.5t15.5 -11.5z" glyph-name="ordfeminine" horiz-adv-x="338" unicode="ª"/><glyph d="M236 61l-208 226v2l288 226l2 -2l-133 -225l53 -225zM445 61l-208 226v2l288 226l2 -2l-133 -225l53 -225z" glyph-name="guillemotleft" horiz-adv-x="505" unicode="«"/><glyph d="M52 375l9 25h357l-15 -68q-5 -19 -8 -47l-9 -67l-25 -3l15 70l8 46l6 44h-338z" glyph-name="logicalnot" horiz-adv-x="422" unicode="¬"/><glyph glyph-name="uni00AD" unicode="­"/><glyph d="M280 -15q-114 0 -181 77t-67 214q0 93 32.5 176t85 140t120.5 90t137 33q115 0 181 -77t66 -214q0 -122 -55 -224.5t-140.5 -158.5t-178.5 -56zM284 5q63 0 125 32t110 86.5t78 133.5t30 167q0 129 -60.5 200t-164.5 71q-131 0 -237 -121.5t-106 -297.5 q0 -128 60.5 -199.5t164.5 -71.5zM221 145l74 424h110q33 0 49.5 -15.5t16.5 -38.5q0 -21 -13 -43t-25 -33t-35 -31q-18 -15 -22 -30t2 -38l50 -195h-32l-51 216h-1l-64 -50l-29 -166h-30zM285 337q93 75 124 108.5t31 65.5q0 38 -55 38h-63z" glyph-name="registered" horiz-adv-x="651" unicode="®"/><glyph d="M121 651l2 15h308l-2 -15h-308z" glyph-name="macron" horiz-adv-x="408" unicode="¯"/><glyph d="M178 475q-36 0 -58 25t-22 66q0 61 38.5 102.5t84.5 41.5q36 0 58 -25t22 -66q0 -61 -38.5 -102.5t-84.5 -41.5zM179 498q36 0 66 34.5t30 86.5q0 31 -14.5 49.5t-40.5 18.5q-36 0 -66 -34.5t-30 -86.5q0 -31 14.5 -49.5t40.5 -18.5z" glyph-name="degree" horiz-adv-x="278" unicode="°"/><glyph d="M207 274q5 21 -15 21h-154l9 25h148q19 0 24 20l23 157l26 3l-32 -159q-5 -20 14 -21h154l-9 -25h-147q-19 0 -24 -20l-24 -158l-25 -3zM-14 0l9 25h357l-9 -25h-357z" glyph-name="plusminus" horiz-adv-x="422" unicode="±"/><glyph d="M80 535l-2 2l45 209h145z" glyph-name="acute" horiz-adv-x="202" unicode="´"/><glyph d="M-24 -200l50 286q2 20 6 44l55 279l-81 -39l-2 2l56 67q65 81 108 75.5t49 -105.5l-58 -300q-11 -50 13 -50q34 0 76 118t75 323h130l-80 -409l81 39l2 -2l-56 -67q-65 -81 -107 -75.5t-43 105.5l5 39h-2l-42 -57q-41 -56 -70 -74l-35 -199h-130z" glyph-name="mu" horiz-adv-x="460" unicode="µ"/><glyph d="M212 -200l158 900h90l-158 -900h-90zM72 -200l108 618q-55 0 -86.5 29t-31.5 81q0 72 43.5 122t124.5 50h90l-158 -900h-90z" glyph-name="paragraph" horiz-adv-x="421" unicode="¶"/><glyph d="M123 138q-8 55 -27 78t-71 41v2q58 18 85 41.5t55 77.5h2q8 -54 27.5 -77.5t70.5 -41.5v-2q-57 -17 -84.5 -40.5t-55.5 -78.5h-2z" glyph-name="periodcentered" horiz-adv-x="286" unicode="·"/><glyph d="M-63 -213q66 70 86 95t20 37q0 10 -10 10t-57 -30h-2l53 121h21l-34 -75l49 3q35 2 49 -4.5t14 -23.5q0 -61 -187 -135z" glyph-name="cedilla" horiz-adv-x="204" unicode="¸"/><glyph d="M167 304q-50 0 -78 37t-28 104q0 113 51 188t123 75q50 0 78 -37t28 -103q0 -113 -51 -188.5t-123 -75.5zM171 316q33 0 57 107.5t24 209.5q0 63 -22 63q-32 0 -56.5 -105.5t-24.5 -207.5q0 -67 22 -67z" glyph-name="ordmasculine" horiz-adv-x="311" unicode="º"/><glyph d="M283 515l208 -226v-2l-288 -226l-2 2l133 225l-53 225zM74 515l208 -226v-2l-288 -226l-2 2l133 225l-53 225z" glyph-name="guillemotright" horiz-adv-x="505" unicode="»"/><glyph d="M101 561q3 19 -3 19q-5 1 -31 -12l-1 2l135 138h1l-56 -324h-74zM-22 0l445 700h21l-445 -700h-21zM222 0l13 73h-117v2l230 249h2l-35 -190h50l-16 -61h-44l-13 -73h-70zM191 134h54l15 76z" glyph-name="onequarter" horiz-adv-x="395" unicode="¼"/><glyph d="M101 561q3 19 -3 19q-5 1 -31 -12l-1 2l135 138h1l-56 -324h-74zM-22 0l445 700h21l-445 -700h-21zM260 115q33 35 51 79.5t18 80.5t-21 36q-34 0 -28 -76l4 -54l-2 -1l-81 41q14 51 46 77t75 26q39 0 61.5 -18.5t22.5 -52.5q0 -61 -94 -128l-88 -64h150l-32 -61h-191z " glyph-name="onehalf" horiz-adv-x="417" unicode="½"/><glyph d="M36 378q63 10 107 45t44 80q0 29 -15.5 39.5t-41.5 2.5l-16 -5l-2 13l17 5q78 23 78 95q0 42 -28 42q-15 0 -23.5 -14t-3.5 -43l8 -43l-2 -3l-76 27q10 40 42.5 64.5t74.5 24.5q35 0 56.5 -15t21.5 -43q0 -61 -95 -85v-1q35 7 58.5 -10t23.5 -48q0 -59 -67 -94t-160 -37z M28 0l445 700h21l-445 -700h-21zM272 0l13 73h-117v2l230 249h2l-35 -190h50l-16 -61h-44l-13 -73h-70zM241 134h54l15 76z" glyph-name="threequarters" horiz-adv-x="445" unicode="¾"/><glyph d="M140 -15q-69 0 -108 36.5t-39 92.5q0 63 37 114.5t102 104.5q112 88 136 213h2q23 -58 24 -109.5t-25.5 -108t-85.5 -114.5q-89 -87 -89 -154q0 -26 14 -40t40 -14q42 0 66 39t20 104l-4 69l2 2l133 -68q-30 -80 -88 -123.5t-137 -43.5zM271 580q-8 54 -27.5 77.5 t-70.5 41.5v2q57 17 84.5 40.5t55.5 78.5h2q8 -55 27 -78t71 -41v-2q-58 -18 -85 -41.5t-55 -77.5h-2z" glyph-name="questiondown" horiz-adv-x="389" unicode="¿"/><glyph d="M-39 2q82 101 147 281l85 232q26 72 19 151l-3 34h142l51 -700h-185v2q23 15 29.5 33.5t3.5 65.5l-8 112h-136q-17 -67 -12 -114t30 -97v-2h-163v2zM316 735l-114 211h140l-24 -209zM112 233h129l-21 299h-2l-90 -249q-14 -42 -16 -50z" glyph-name="Agrave" horiz-adv-x="466" unicode="À"/><glyph d="M-39 2q82 101 147 281l85 232q26 72 19 151l-3 34h142l51 -700h-185v2q23 15 29.5 33.5t3.5 65.5l-8 112h-136q-17 -67 -12 -114t30 -97v-2h-163v2zM255 735l-2 2l45 209h145zM112 233h129l-21 299h-2l-90 -249q-14 -42 -16 -50z" glyph-name="Aacute" horiz-adv-x="466" unicode="Á"/><glyph d="M-39 2q82 101 147 281l85 232q26 72 19 151l-3 34h142l51 -700h-185v2q23 15 29.5 33.5t3.5 65.5l-8 112h-136q-17 -67 -12 -114t30 -97v-2h-163v2zM131 735l196 240h2l110 -240h-2l-137 81l-167 -81h-2zM112 233h129l-21 299h-2l-90 -249q-14 -42 -16 -50z" glyph-name="Acircumflex" horiz-adv-x="466" unicode="Â"/><glyph d="M-39 2q82 101 147 281l85 232q26 72 19 151l-3 34h142l51 -700h-185v2q23 15 29.5 33.5t3.5 65.5l-8 112h-136q-17 -67 -12 -114t30 -97v-2h-163v2zM144 777q27 159 118 159q32 0 73.5 -28.5t60.5 -28.5q22 0 38 13t34 44h2q-29 -159 -118 -159q-32 0 -73 28.5t-60 28.5 q-24 0 -39.5 -13t-33.5 -44h-2zM112 233h129l-21 299h-2l-90 -249q-14 -42 -16 -50z" glyph-name="Atilde" horiz-adv-x="466" unicode="Ã"/><glyph d="M-39 2q82 101 147 281l85 232q26 72 19 151l-3 34h142l51 -700h-185v2q23 15 29.5 33.5t3.5 65.5l-8 112h-136q-17 -67 -12 -114t30 -97v-2h-163v2zM203 755q-1 47 -13 68t-50 31v2q41 9 61 30t37 69h2q0 -47 12.5 -68t51.5 -31v-2q-42 -10 -62 -31t-37 -68h-2zM373 755 q-1 47 -13 68t-50 31v2q41 9 61 30t37 69h2q0 -47 12.5 -68t51.5 -31v-2q-42 -10 -62 -31t-37 -68h-2zM112 233h129l-21 299h-2l-90 -249q-14 -42 -16 -50z" glyph-name="Adieresis" horiz-adv-x="466" unicode="Ä"/><glyph d="M-39 2q82 101 147 281l85 232q26 72 19 151l-3 34h142l51 -700h-185v2q23 15 29.5 33.5t3.5 65.5l-8 112h-136q-17 -67 -12 -114t30 -97v-2h-163v2zM290 755q-58 0 -87 24.5t-29 65.5q0 56 43 93t112 37q57 0 85 -24t28 -64q0 -60 -43 -96t-109 -36zM292 768 q19 0 32.5 18t19.5 45.5t8.5 48.5t2.5 37q0 45 -29 45q-19 0 -33 -18.5t-20.5 -45.5t-9.5 -49t-3 -37q0 -44 32 -44zM112 233h129l-21 299h-2l-90 -249q-14 -42 -16 -50z" glyph-name="Aring" horiz-adv-x="466" unicode="Å"/><glyph d="M-39 2q132 161 197 281l156 289q22 41 32 94l6 34h349l-35 -202h-2q-51 117 -72 144q-35 37 -89 38h-15l-50 -289q31 0 62 29t78 100h2l-29 -276h-2q-33 70 -58 98t-57 29l-61 -351h9q32 0 57.5 14t70 63t121.5 152h2l-63 -249h-381v2q25 17 37.5 35t20.5 62l20 114h-123 q-40 -101 -20 -211v-2h-163v2zM153 233h117l57 323h-2l-147 -273q-18 -34 -25 -50z" glyph-name="AE" horiz-adv-x="653" unicode="Æ"/><glyph d="M197 -15q-9 0 -14 1l-18 -41l49 3q35 2 49 -4.5t14 -23.5q0 -61 -187 -135l-2 2q66 70 86 95t20 37q0 10 -10 10t-57 -30h-2l39 89q-63 14 -99.5 76.5t-36.5 164.5q0 220 93.5 353t230.5 133q75 0 115 -46t37 -126l-175 -75l-3 3l38 87q20 45 21.5 77t-9 45.5t-27.5 13.5 q-43 0 -81.5 -63.5t-62 -168.5t-23.5 -220q0 -155 85 -155q59 0 178 116l3 -2q-33 -52 -55 -82.5t-54.5 -65.5t-67.5 -51.5t-74 -16.5z" glyph-name="Ccedilla" horiz-adv-x="467" unicode="Ç"/><glyph d="M-34 0v2q26 17 37.5 35t19.5 62l89 502q8 47 4 64.5t-27 32.5v2h399l-35 -202h-2q-51 117 -72 144q-35 37 -89 38h-25l-50 -289h9q32 0 63 28.5t78 100.5h2l-29 -276h-2q-33 71 -58.5 99t-57.5 28h-9l-61 -351h19q32 0 57.5 14t70 63t121.5 152h2l-63 -249h-391zM349 735 l-114 211h140l-24 -209z" glyph-name="Egrave" horiz-adv-x="440" unicode="È"/><glyph d="M-34 0v2q26 17 37.5 35t19.5 62l89 502q8 47 4 64.5t-27 32.5v2h399l-35 -202h-2q-51 117 -72 144q-35 37 -89 38h-25l-50 -289h9q32 0 63 28.5t78 100.5h2l-29 -276h-2q-33 71 -58.5 99t-57.5 28h-9l-61 -351h19q32 0 57.5 14t70 63t121.5 152h2l-63 -249h-391zM288 735 l-2 2l45 209h145z" glyph-name="Eacute" horiz-adv-x="440" unicode="É"/><glyph d="M-34 0v2q26 17 37.5 35t19.5 62l89 502q8 47 4 64.5t-27 32.5v2h399l-35 -202h-2q-51 117 -72 144q-35 37 -89 38h-25l-50 -289h9q32 0 63 28.5t78 100.5h2l-29 -276h-2q-33 71 -58.5 99t-57.5 28h-9l-61 -351h19q32 0 57.5 14t70 63t121.5 152h2l-63 -249h-391zM164 735 l196 240h2l110 -240h-2l-137 81l-167 -81h-2z" glyph-name="Ecircumflex" horiz-adv-x="440" unicode="Ê"/><glyph d="M-34 0v2q26 17 37.5 35t19.5 62l89 502q8 47 4 64.5t-27 32.5v2h399l-35 -202h-2q-51 117 -72 144q-35 37 -89 38h-25l-50 -289h9q32 0 63 28.5t78 100.5h2l-29 -276h-2q-33 71 -58.5 99t-57.5 28h-9l-61 -351h19q32 0 57.5 14t70 63t121.5 152h2l-63 -249h-391zM236 755 q-1 47 -13 68t-50 31v2q41 9 61 30t37 69h2q0 -47 12.5 -68t51.5 -31v-2q-42 -10 -62 -31t-37 -68h-2zM406 755q-1 47 -13 68t-50 31v2q41 9 61 30t37 69h2q0 -47 12.5 -68t51.5 -31v-2q-42 -10 -62 -31t-37 -68h-2z" glyph-name="Edieresis" horiz-adv-x="440" unicode="Ë"/><glyph d="M309 700v-2q-26 -17 -37.5 -35t-19.5 -62l-89 -502q-8 -47 -4 -64.5t27 -32.5v-2h-220v2q26 17 37.5 35t19.5 62l89 502q8 47 4 64.5t-27 32.5v2h220zM236 735l-114 211h140l-24 -209z" glyph-name="Igrave" horiz-adv-x="240" unicode="Ì"/><glyph d="M309 700v-2q-26 -17 -37.5 -35t-19.5 -62l-89 -502q-8 -47 -4 -64.5t27 -32.5v-2h-220v2q26 17 37.5 35t19.5 62l89 502q8 47 4 64.5t-27 32.5v2h220zM175 735l-2 2l45 209h145z" glyph-name="Iacute" horiz-adv-x="240" unicode="Í"/><glyph d="M309 700v-2q-26 -17 -37.5 -35t-19.5 -62l-89 -502q-8 -47 -4 -64.5t27 -32.5v-2h-220v2q26 17 37.5 35t19.5 62l89 502q8 47 4 64.5t-27 32.5v2h220zM51 735l196 240h2l110 -240h-2l-137 81l-167 -81h-2z" glyph-name="Icircumflex" horiz-adv-x="240" unicode="Î"/><glyph d="M309 700v-2q-26 -17 -37.5 -35t-19.5 -62l-89 -502q-8 -47 -4 -64.5t27 -32.5v-2h-220v2q26 17 37.5 35t19.5 62l89 502q8 47 4 64.5t-27 32.5v2h220zM123 755q-1 47 -13 68t-50 31v2q41 9 61 30t37 69h2q0 -47 12.5 -68t51.5 -31v-2q-42 -10 -62 -31t-37 -68h-2z M293 755q-1 47 -13 68t-50 31v2q41 9 61 30t37 69h2q0 -47 12.5 -68t51.5 -31v-2q-42 -10 -62 -31t-37 -68h-2z" glyph-name="Idieresis" horiz-adv-x="240" unicode="Ï"/><glyph d="M-30 0v2q26 17 37.5 35t19.5 62l48 272h-32l4 20h32l37 210q8 47 4 64.5t-27 32.5v2h187q231 0 231 -260q0 -99 -31.5 -184t-82.5 -139.5t-113.5 -85.5t-126.5 -31h-187zM154 20h6q75 0 142 140.5t67 354.5q0 165 -93 165h-7l-50 -289h92l-4 -20h-92z" glyph-name="Eth" horiz-adv-x="530" unicode="Ð"/><glyph d="M359 -15l-221 574h-2l-49 -276q-16 -93 -6.5 -154.5t49.5 -126.5v-2h-169v2q41 58 65 120.5t41 160.5l45 255q12 60 -9 113l-19 47v2h152l158 -405h2l22 122q16 93 8.5 155t-42.5 126v2h159v-2q-41 -58 -64.5 -121t-40.5 -160l-77 -432h-2zM185 777q27 159 118 159 q31 0 73 -28.5t61 -28.5q22 0 38 13t34 44h2q-29 -159 -118 -159q-31 0 -72 28.5t-61 28.5q-24 0 -39.5 -13t-33.5 -44h-2z" glyph-name="Ntilde" horiz-adv-x="469" unicode="Ñ"/><glyph d="M206 -15q-82 0 -129.5 68t-47.5 182q0 199 91 339.5t222 140.5q88 0 134 -66.5t46 -182.5q0 -131 -41 -241.5t-113.5 -175t-161.5 -64.5zM212 5q46 0 88.5 114t64.5 246t22 216q0 114 -47 114t-90 -116t-65 -247.5t-22 -212.5q0 -114 49 -114zM371 735l-114 211h140 l-24 -209z" glyph-name="Ograve" horiz-adv-x="516" unicode="Ò"/><glyph d="M206 -15q-82 0 -129.5 68t-47.5 182q0 199 91 339.5t222 140.5q88 0 134 -66.5t46 -182.5q0 -131 -41 -241.5t-113.5 -175t-161.5 -64.5zM212 5q46 0 88.5 114t64.5 246t22 216q0 114 -47 114t-90 -116t-65 -247.5t-22 -212.5q0 -114 49 -114zM310 735l-2 2l45 209h145z " glyph-name="Oacute" horiz-adv-x="516" unicode="Ó"/><glyph d="M206 -15q-82 0 -129.5 68t-47.5 182q0 199 91 339.5t222 140.5q88 0 134 -66.5t46 -182.5q0 -131 -41 -241.5t-113.5 -175t-161.5 -64.5zM212 5q46 0 88.5 114t64.5 246t22 216q0 114 -47 114t-90 -116t-65 -247.5t-22 -212.5q0 -114 49 -114zM186 735l196 240h2 l110 -240h-2l-137 81l-167 -81h-2z" glyph-name="Ocircumflex" horiz-adv-x="516" unicode="Ô"/><glyph d="M206 -15q-82 0 -129.5 68t-47.5 182q0 199 91 339.5t222 140.5q88 0 134 -66.5t46 -182.5q0 -131 -41 -241.5t-113.5 -175t-161.5 -64.5zM212 5q46 0 88.5 114t64.5 246t22 216q0 114 -47 114t-90 -116t-65 -247.5t-22 -212.5q0 -114 49 -114zM199 777q27 159 118 159 q31 0 73 -28.5t61 -28.5q22 0 38 13t34 44h2q-29 -159 -118 -159q-31 0 -72 28.5t-61 28.5q-24 0 -39.5 -13t-33.5 -44h-2z" glyph-name="Otilde" horiz-adv-x="516" unicode="Õ"/><glyph d="M206 -15q-82 0 -129.5 68t-47.5 182q0 199 91 339.5t222 140.5q88 0 134 -66.5t46 -182.5q0 -131 -41 -241.5t-113.5 -175t-161.5 -64.5zM212 5q46 0 88.5 114t64.5 246t22 216q0 114 -47 114t-90 -116t-65 -247.5t-22 -212.5q0 -114 49 -114zM258 755q-1 47 -13 68 t-50 31v2q41 9 61 30t37 69h2q0 -47 12.5 -68t51.5 -31v-2q-42 -10 -62 -31t-37 -68h-2zM428 755q-1 47 -13 68t-50 31v2q41 9 61 30t37 69h2q0 -47 12.5 -68t51.5 -31v-2q-42 -10 -62 -31t-37 -68h-2z" glyph-name="Odieresis" horiz-adv-x="516" unicode="Ö"/><glyph d="M35 150l-20 15l158 125q17 14 5 28l-107 130l18 16l106 -129q13 -16 28 -2l146 132l20 -15l-158 -128q-16 -13 -3 -27l106 -129l-18 -16l-106 129q-12 15 -28 0z" glyph-name="multiply" horiz-adv-x="384" unicode="×"/><glyph d="M128 -100h-21l35 98q-54 24 -83.5 86t-29.5 151q0 199 91 339.5t222 140.5q28 0 50 -6l32 91h21l-35 -98q55 -23 83.5 -84.5t28.5 -151.5q0 -131 -41 -241.5t-113.5 -175t-161.5 -64.5q-25 0 -46 6zM212 5q46 0 88.5 114t64.5 246t22 216q0 20 -2 48l-210 -597 q12 -27 37 -27zM163 119q0 -29 3 -52l211 598q-12 30 -37 30q-47 0 -90 -116t-65 -247.5t-22 -212.5z" glyph-name="Oslash" horiz-adv-x="516" unicode="Ø"/><glyph d="M187 -15q-86 0 -126.5 63t-21.5 172l67 381q9 47 5 64.5t-27 32.5v2h220v-2q-25 -17 -37.5 -35t-20.5 -62l-67 -381q-14 -81 2.5 -129t68.5 -48q91 0 122 175l35 199q16 95 8 155t-42 126l1 2h159l-1 -2q-41 -58 -64.5 -120.5t-40.5 -160.5l-35 -199q-41 -233 -205 -233z M356 735l-114 211h140l-24 -209z" glyph-name="Ugrave" horiz-adv-x="464" unicode="Ù"/><glyph d="M187 -15q-86 0 -126.5 63t-21.5 172l67 381q9 47 5 64.5t-27 32.5v2h220v-2q-25 -17 -37.5 -35t-20.5 -62l-67 -381q-14 -81 2.5 -129t68.5 -48q91 0 122 175l35 199q16 95 8 155t-42 126l1 2h159l-1 -2q-41 -58 -64.5 -120.5t-40.5 -160.5l-35 -199q-41 -233 -205 -233z M295 735l-2 2l45 209h145z" glyph-name="Uacute" horiz-adv-x="464" unicode="Ú"/><glyph d="M187 -15q-86 0 -126.5 63t-21.5 172l67 381q9 47 5 64.5t-27 32.5v2h220v-2q-25 -17 -37.5 -35t-20.5 -62l-67 -381q-14 -81 2.5 -129t68.5 -48q91 0 122 175l35 199q16 95 8 155t-42 126l1 2h159l-1 -2q-41 -58 -64.5 -120.5t-40.5 -160.5l-35 -199q-41 -233 -205 -233z M171 735l196 240h2l110 -240h-2l-137 81l-167 -81h-2z" glyph-name="Ucircumflex" horiz-adv-x="464" unicode="Û"/><glyph d="M187 -15q-86 0 -126.5 63t-21.5 172l67 381q9 47 5 64.5t-27 32.5v2h220v-2q-25 -17 -37.5 -35t-20.5 -62l-67 -381q-14 -81 2.5 -129t68.5 -48q91 0 122 175l35 199q16 95 8 155t-42 126l1 2h159l-1 -2q-41 -58 -64.5 -120.5t-40.5 -160.5l-35 -199q-41 -233 -205 -233z M243 755q-1 47 -13 68t-50 31v2q41 9 61 30t37 69h2q0 -47 12.5 -68t51.5 -31v-2q-42 -10 -62 -31t-37 -68h-2zM413 755q-1 47 -13 68t-50 31v2q41 9 61 30t37 69h2q0 -47 12.5 -68t51.5 -31v-2q-42 -10 -62 -31t-37 -68h-2z" glyph-name="Udieresis" horiz-adv-x="464" unicode="Ü"/><glyph d="M79 0v2q26 17 37.5 35.5t19.5 62.5l37 210l-89 390h197v-2q-23 -15 -26.5 -32.5t6.5 -64.5l46 -233h2l29 61q38 80 45 140.5t-17 128.5v2h171v-2q-98 -94 -183 -280l-36 -79l-42 -239q-8 -48 -4 -65.5t27 -32.5v-2h-220zM287 735l-2 2l45 209h145z" glyph-name="Yacute" horiz-adv-x="463" unicode="Ý"/><glyph d="M-34 0v2q26 17 37.5 35t19.5 62l89 502q8 47 4 64.5t-27 32.5v2h220v-2q-26 -17 -37.5 -35.5t-19.5 -62.5l-17 -96l39 35q62 56 110 56q55 0 80.5 -59t3.5 -183q-22 -125 -69 -186.5t-103 -61.5q-45 0 -89 56l-27 34l-17 -96q-8 -47 -4 -64.5t27 -32.5v-2h-220zM202 319 q-24 -154 35 -154q30 0 51.5 42t39.5 143q32 185 -25 185q-63 0 -101 -216z" glyph-name="Thorn" horiz-adv-x="470" unicode="Þ"/><glyph d="M187 -200l-2 2l7 12q52 89 72 196q15 94 -6 177l-37 143q100 92 100 226q0 89 -34 89q-33 0 -53 -109l-94 -536h-131l69 385q22 116 94 185l77 72q42 39 90 52t81 -5t33 -62q0 -12 -2 -24.5t-8 -25.5t-10.5 -22.5t-15 -23.5t-15.5 -21t-19 -22t-18 -19.5t-20 -20.5 l-18 -18l40 -148q26 -92 10 -179q-10 -58 -40 -111t-107 -142z" glyph-name="germandbls" horiz-adv-x="428" unicode="ß"/><glyph d="M77 -15q-30 0 -50.5 34t-20.5 92q0 105 29 197t83 149.5t121 57.5q40 0 70.5 -9t66.5 -38l33 32h4l-74 -409l80 39l2 -2l-55 -67q-64 -81 -106 -75.5t-46 105.5l7 52h-2l-59 -94q-41 -64 -83 -64zM166 105q59 0 117 388q-8 4 -20 4q-45 0 -83.5 -119t-38.5 -221 q0 -52 25 -52zM297 535l-114 211h140l-24 -209z" glyph-name="agrave" horiz-adv-x="425" unicode="à"/><glyph d="M77 -15q-30 0 -50.5 34t-20.5 92q0 105 29 197t83 149.5t121 57.5q40 0 70.5 -9t66.5 -38l33 32h4l-74 -409l80 39l2 -2l-55 -67q-64 -81 -106 -75.5t-46 105.5l7 52h-2l-59 -94q-41 -64 -83 -64zM166 105q59 0 117 388q-8 4 -20 4q-45 0 -83.5 -119t-38.5 -221 q0 -52 25 -52zM236 535l-2 2l45 209h145z" glyph-name="aacute" horiz-adv-x="425" unicode="á"/><glyph d="M77 -15q-30 0 -50.5 34t-20.5 92q0 105 29 197t83 149.5t121 57.5q40 0 70.5 -9t66.5 -38l33 32h4l-74 -409l80 39l2 -2l-55 -67q-64 -81 -106 -75.5t-46 105.5l7 52h-2l-59 -94q-41 -64 -83 -64zM166 105q59 0 117 388q-8 4 -20 4q-45 0 -83.5 -119t-38.5 -221 q0 -52 25 -52zM112 535l196 240h2l110 -240h-2l-137 81l-167 -81h-2z" glyph-name="acircumflex" horiz-adv-x="425" unicode="â"/><glyph d="M77 -15q-30 0 -50.5 34t-20.5 92q0 105 29 197t83 149.5t121 57.5q40 0 70.5 -9t66.5 -38l33 32h4l-74 -409l80 39l2 -2l-55 -67q-64 -81 -106 -75.5t-46 105.5l7 52h-2l-59 -94q-41 -64 -83 -64zM166 105q59 0 117 388q-8 4 -20 4q-45 0 -83.5 -119t-38.5 -221 q0 -52 25 -52zM125 577q27 159 118 159q31 0 73 -28.5t61 -28.5q22 0 38 13t34 44h2q-29 -159 -118 -159q-31 0 -72 28.5t-61 28.5q-24 0 -39.5 -13t-33.5 -44h-2z" glyph-name="atilde" horiz-adv-x="425" unicode="ã"/><glyph d="M77 -15q-30 0 -50.5 34t-20.5 92q0 105 29 197t83 149.5t121 57.5q40 0 70.5 -9t66.5 -38l33 32h4l-74 -409l80 39l2 -2l-55 -67q-64 -81 -106 -75.5t-46 105.5l7 52h-2l-59 -94q-41 -64 -83 -64zM166 105q59 0 117 388q-8 4 -20 4q-45 0 -83.5 -119t-38.5 -221 q0 -52 25 -52zM184 555q-1 47 -13 68t-50 31v2q41 9 61 30t37 69h2q0 -47 12.5 -68t51.5 -31v-2q-42 -10 -62 -31t-37 -68h-2zM354 555q-1 47 -13 68t-50 31v2q41 9 61 30t37 69h2q0 -47 12.5 -68t51.5 -31v-2q-42 -10 -62 -31t-37 -68h-2z" glyph-name="adieresis" horiz-adv-x="425" unicode="ä"/><glyph d="M77 -15q-30 0 -50.5 34t-20.5 92q0 105 29 197t83 149.5t121 57.5q40 0 70.5 -9t66.5 -38l33 32h4l-74 -409l80 39l2 -2l-55 -67q-64 -81 -106 -75.5t-46 105.5l7 52h-2l-59 -94q-41 -64 -83 -64zM166 105q59 0 117 388q-8 4 -20 4q-45 0 -83.5 -119t-38.5 -221 q0 -52 25 -52zM271 555q-58 0 -87 24.5t-29 65.5q0 56 43 93t112 37q57 0 85 -24t28 -64q0 -60 -43 -96t-109 -36zM273 568q19 0 32.5 18t19.5 45.5t8.5 48.5t2.5 37q0 45 -29 45q-19 0 -33 -18.5t-20.5 -45.5t-9.5 -49t-3 -37q0 -44 32 -44z" glyph-name="aring" horiz-adv-x="425" unicode="å"/><glyph d="M77 -15q-30 0 -50.5 34t-20.5 92q0 105 29 197t83 149.5t121 57.5q68 0 124 -36q52 36 116 36q62 0 96.5 -28t34.5 -75q0 -32 -13.5 -59t-49 -56t-69 -50t-100.5 -59q0 -112 56 -112q17 0 30 4t42.5 26.5t69.5 65.5l2 -2q-67 -107 -115.5 -146t-103.5 -39 q-56 0 -89.5 48.5t-33.5 131.5v6l-76 -122q-41 -64 -83 -64zM166 105q59 0 117 388q-8 4 -20 4q-45 0 -83.5 -119t-38.5 -221q0 -52 25 -52zM379 220q23 -12 51.5 23.5t47.5 95t19 111.5q0 50 -21 50q-35 0 -63 -94.5t-34 -185.5z" glyph-name="ae" horiz-adv-x="602" unicode="æ"/><glyph d="M136 -15q-14 0 -26 3l-20 -43l49 3q35 2 49 -4.5t14 -23.5q0 -61 -187 -135l-2 2q66 70 86 95t20 37q0 10 -10 10t-57 -30h-2l42 95q-37 17 -58 61.5t-21 109.5q0 54 12.5 111t38.5 112.5t74.5 91t111.5 35.5t98 -37t34 -110l-140 -68l-2 2l32 99q31 99 -15 99 q-31 0 -55.5 -65.5t-35.5 -137t-11 -116.5q0 -105 56 -105q17 0 30 4t42.5 26.5t69.5 65.5l2 -2q-67 -107 -115.5 -146t-103.5 -39z" glyph-name="ccedilla" horiz-adv-x="381" unicode="ç"/><glyph d="M136 -15q-56 0 -89.5 48.5t-33.5 131.5q0 42 7.5 87t25.5 92.5t44.5 85t69.5 61.5t96 24q62 0 96.5 -28t34.5 -75q0 -32 -13.5 -59t-49 -56t-69 -50t-100.5 -59q0 -112 56 -112q17 0 30 4t42.5 26.5t69.5 65.5l2 -2q-67 -107 -115.5 -146t-103.5 -39zM280 535l-114 211 h140l-24 -209zM156 220q23 -12 51.5 23.5t47.5 95t19 111.5q0 50 -21 50q-35 0 -63 -94.5t-34 -185.5z" glyph-name="egrave" horiz-adv-x="379" unicode="è"/><glyph d="M136 -15q-56 0 -89.5 48.5t-33.5 131.5q0 42 7.5 87t25.5 92.5t44.5 85t69.5 61.5t96 24q62 0 96.5 -28t34.5 -75q0 -32 -13.5 -59t-49 -56t-69 -50t-100.5 -59q0 -112 56 -112q17 0 30 4t42.5 26.5t69.5 65.5l2 -2q-67 -107 -115.5 -146t-103.5 -39zM219 535l-2 2 l45 209h145zM156 220q23 -12 51.5 23.5t47.5 95t19 111.5q0 50 -21 50q-35 0 -63 -94.5t-34 -185.5z" glyph-name="eacute" horiz-adv-x="379" unicode="é"/><glyph d="M136 -15q-56 0 -89.5 48.5t-33.5 131.5q0 42 7.5 87t25.5 92.5t44.5 85t69.5 61.5t96 24q62 0 96.5 -28t34.5 -75q0 -32 -13.5 -59t-49 -56t-69 -50t-100.5 -59q0 -112 56 -112q17 0 30 4t42.5 26.5t69.5 65.5l2 -2q-67 -107 -115.5 -146t-103.5 -39zM95 535l196 240h2 l110 -240h-2l-137 81l-167 -81h-2zM156 220q23 -12 51.5 23.5t47.5 95t19 111.5q0 50 -21 50q-35 0 -63 -94.5t-34 -185.5z" glyph-name="ecircumflex" horiz-adv-x="379" unicode="ê"/><glyph d="M136 -15q-56 0 -89.5 48.5t-33.5 131.5q0 42 7.5 87t25.5 92.5t44.5 85t69.5 61.5t96 24q62 0 96.5 -28t34.5 -75q0 -32 -13.5 -59t-49 -56t-69 -50t-100.5 -59q0 -112 56 -112q17 0 30 4t42.5 26.5t69.5 65.5l2 -2q-67 -107 -115.5 -146t-103.5 -39zM167 555 q-1 47 -13 68t-50 31v2q41 9 61 30t37 69h2q0 -47 12.5 -68t51.5 -31v-2q-42 -10 -62 -31t-37 -68h-2zM337 555q-1 47 -13 68t-50 31v2q41 9 61 30t37 69h2q0 -47 12.5 -68t51.5 -31v-2q-42 -10 -62 -31t-37 -68h-2zM156 220q23 -12 51.5 23.5t47.5 95t19 111.5q0 50 -21 50 q-35 0 -63 -94.5t-34 -185.5z" glyph-name="edieresis" horiz-adv-x="379" unicode="ë"/><glyph d="M181 61q-65 -81 -108 -75.5t-49 105.5l63 318l-81 -39l-2 2l56 67q65 81 108 75.5t49 -105.5l-63 -318l81 39l2 -2zM200 535l-114 211h140l-24 -209z" glyph-name="igrave" horiz-adv-x="241" unicode="ì"/><glyph d="M181 61q-65 -81 -108 -75.5t-49 105.5l63 318l-81 -39l-2 2l56 67q65 81 108 75.5t49 -105.5l-63 -318l81 39l2 -2zM139 535l-2 2l45 209h145z" glyph-name="iacute" horiz-adv-x="241" unicode="í"/><glyph d="M181 61q-65 -81 -108 -75.5t-49 105.5l63 318l-81 -39l-2 2l56 67q65 81 108 75.5t49 -105.5l-63 -318l81 39l2 -2zM15 535l196 240h2l110 -240h-2l-137 81l-167 -81h-2z" glyph-name="icircumflex" horiz-adv-x="241" unicode="î"/><glyph d="M181 61q-65 -81 -108 -75.5t-49 105.5l63 318l-81 -39l-2 2l56 67q65 81 108 75.5t49 -105.5l-63 -318l81 39l2 -2zM87 555q-1 47 -13 68t-50 31v2q41 9 61 30t37 69h2q0 -47 12.5 -68t51.5 -31v-2q-42 -10 -62 -31t-37 -68h-2zM257 555q-1 47 -13 68t-50 31v2 q41 9 61 30t37 69h2q0 -47 12.5 -68t51.5 -31v-2q-42 -10 -62 -31t-37 -68h-2z" glyph-name="idieresis" horiz-adv-x="241" unicode="ï"/><glyph d="M132 -15q-53 0 -86 46t-33 132q0 50 11.5 108t33 114t60 93t86.5 37q21 0 36 -10t39 -41h2q-3 62 -32 125l-126 -44l3 16l117 41q-28 51 -71 96v2h145q22 -26 39 -59l85 30l-3 -16l-76 -27q35 -77 35 -184q0 -102 -31 -205.5t-93.5 -178.5t-140.5 -75zM167 8 q27 0 52 86.5t37.5 180.5t12.5 145q0 49 -19 49q-35 0 -70.5 -128t-35.5 -254q0 -79 23 -79z" glyph-name="eth" horiz-adv-x="394" unicode="ð"/><glyph d="M7 0l80 409l-81 -39l-2 2l56 67q65 81 107 75.5t43 -105.5l-5 -39h2l42 57q35 48 61.5 68t57.5 20q47 0 65 -38t5 -107l-55 -279l81 39l2 -2l-56 -67q-65 -81 -108 -75.5t-49 105.5l58 300q11 50 -16 50q-39 0 -82 -117t-76 -324h-130zM143 577q27 159 118 159 q31 0 73 -28.5t61 -28.5q22 0 38 13t34 44h2q-29 -159 -118 -159q-31 0 -72.5 28.5t-60.5 28.5q-24 0 -39.5 -13t-33.5 -44h-2z" glyph-name="ntilde" horiz-adv-x="470" unicode="ñ"/><glyph d="M165 -15q-71 0 -111 51t-40 139q0 152 75.5 246t169.5 94q71 0 110.5 -50t39.5 -138q0 -151 -75.5 -246.5t-168.5 -95.5zM169 0q41 0 77 171.5t36 259.5q0 69 -26 69q-30 0 -58.5 -92.5t-43 -190t-14.5 -144.5q0 -73 29 -73zM292 535l-114 211h140l-24 -209z" glyph-name="ograve" horiz-adv-x="423" unicode="ò"/><glyph d="M165 -15q-71 0 -111 51t-40 139q0 152 75.5 246t169.5 94q71 0 110.5 -50t39.5 -138q0 -151 -75.5 -246.5t-168.5 -95.5zM169 0q41 0 77 171.5t36 259.5q0 69 -26 69q-30 0 -58.5 -92.5t-43 -190t-14.5 -144.5q0 -73 29 -73zM231 535l-2 2l45 209h145z" glyph-name="oacute" horiz-adv-x="423" unicode="ó"/><glyph d="M165 -15q-71 0 -111 51t-40 139q0 152 75.5 246t169.5 94q71 0 110.5 -50t39.5 -138q0 -151 -75.5 -246.5t-168.5 -95.5zM169 0q41 0 77 171.5t36 259.5q0 69 -26 69q-30 0 -58.5 -92.5t-43 -190t-14.5 -144.5q0 -73 29 -73zM107 535l196 240h2l110 -240h-2l-137 81 l-167 -81h-2z" glyph-name="ocircumflex" horiz-adv-x="423" unicode="ô"/><glyph d="M165 -15q-71 0 -111 51t-40 139q0 152 75.5 246t169.5 94q71 0 110.5 -50t39.5 -138q0 -151 -75.5 -246.5t-168.5 -95.5zM169 0q41 0 77 171.5t36 259.5q0 69 -26 69q-30 0 -58.5 -92.5t-43 -190t-14.5 -144.5q0 -73 29 -73zM120 577q27 159 118 159q32 0 73 -28.5 t61 -28.5q22 0 38 13t34 44h2q-29 -159 -118 -159q-32 0 -73 28.5t-60 28.5q-24 0 -39.5 -13t-33.5 -44h-2z" glyph-name="otilde" horiz-adv-x="423" unicode="õ"/><glyph d="M165 -15q-71 0 -111 51t-40 139q0 152 75.5 246t169.5 94q71 0 110.5 -50t39.5 -138q0 -151 -75.5 -246.5t-168.5 -95.5zM169 0q41 0 77 171.5t36 259.5q0 69 -26 69q-30 0 -58.5 -92.5t-43 -190t-14.5 -144.5q0 -73 29 -73zM179 555q-1 47 -13 68t-50 31v2q41 9 61 30 t37 69h2q0 -47 12.5 -68t51.5 -31v-2q-42 -10 -62 -31t-37 -68h-2zM349 555q-1 47 -13 68t-50 31v2q41 9 61 30t37 69h2q0 -47 12.5 -68t51.5 -31v-2q-42 -10 -62 -31t-37 -68h-2z" glyph-name="odieresis" horiz-adv-x="423" unicode="ö"/><glyph d="M235 390q-4 29 -14.5 42.5t-40.5 24.5v2q33 10 48.5 23t30.5 44h2q5 -32 16 -45t39 -22v-2q-33 -10 -48 -23t-31 -44h-2zM183 94q-4 30 -15 43t-41 24l1 2q33 10 48.5 23t30.5 44h2q5 -32 16 -45t39 -22l-1 -2q-32 -11 -47 -23.5t-31 -43.5h-2zM38 295l9 25h357l-9 -25 h-357z" glyph-name="divide" horiz-adv-x="422" unicode="÷"/><glyph d="M179 -15q-19 0 -36 3l-31 -88h-21l32 92q-68 18 -95 84.5t-8 174.5q22 127 88 195.5t165 68.5q12 0 34 -2l31 87h21l-32 -91q68 -18 95 -84t8 -174q-22 -127 -87.5 -196.5t-163.5 -69.5zM182 0q34 0 59 57t47 184q27 148 19 210l-154 -434q10 -17 29 -17zM143 48l154 436 q-9 16 -27 16q-66 0 -112 -259q-24 -136 -15 -193z" glyph-name="oslash" horiz-adv-x="450" unicode="ø"/><glyph d="M96 -15q-43 0 -60 38t-4 107l55 279l-81 -39l-2 2l56 67q65 81 108 75.5t49 -105.5l-58 -300q-11 -50 13 -50q34 0 76 118t75 323h130l-80 -409l81 39l2 -2l-56 -67q-65 -81 -107 -75.5t-43 105.5l5 39h-2l-42 -57q-35 -47 -61 -67.5t-54 -20.5zM300 535l-114 211h140 l-24 -209z" glyph-name="ugrave" horiz-adv-x="460" unicode="ù"/><glyph d="M96 -15q-43 0 -60 38t-4 107l55 279l-81 -39l-2 2l56 67q65 81 108 75.5t49 -105.5l-58 -300q-11 -50 13 -50q34 0 76 118t75 323h130l-80 -409l81 39l2 -2l-56 -67q-65 -81 -107 -75.5t-43 105.5l5 39h-2l-42 -57q-35 -47 -61 -67.5t-54 -20.5zM239 535l-2 2l45 209h145 z" glyph-name="uacute" horiz-adv-x="460" unicode="ú"/><glyph d="M96 -15q-43 0 -60 38t-4 107l55 279l-81 -39l-2 2l56 67q65 81 108 75.5t49 -105.5l-58 -300q-11 -50 13 -50q34 0 76 118t75 323h130l-80 -409l81 39l2 -2l-56 -67q-65 -81 -107 -75.5t-43 105.5l5 39h-2l-42 -57q-35 -47 -61 -67.5t-54 -20.5zM115 535l196 240h2 l110 -240h-2l-137 81l-167 -81h-2z" glyph-name="ucircumflex" horiz-adv-x="460" unicode="û"/><glyph d="M96 -15q-43 0 -60 38t-4 107l55 279l-81 -39l-2 2l56 67q65 81 108 75.5t49 -105.5l-58 -300q-11 -50 13 -50q34 0 76 118t75 323h130l-80 -409l81 39l2 -2l-56 -67q-65 -81 -107 -75.5t-43 105.5l5 39h-2l-42 -57q-35 -47 -61 -67.5t-54 -20.5zM187 555q-1 47 -13 68 t-50 31v2q41 9 61 30t37 69h2q0 -47 12.5 -68t51.5 -31v-2q-42 -10 -62 -31t-37 -68h-2zM357 555q-1 47 -13 68t-50 31v2q41 9 61 30t37 69h2q0 -47 12.5 -68t51.5 -31v-2q-42 -10 -62 -31t-37 -68h-2z" glyph-name="udieresis" horiz-adv-x="460" unicode="ü"/><glyph d="M-74 -215l29 167h2q63 -33 105 -33q37 0 71 40l-84 541h184v-2q-23 -15 -28.5 -33.5t-0.5 -64.5l31 -272h2q27 56 47 127q22 81 19 130t-30 113v2h139v-2q-34 -50 -56.5 -96t-29.5 -67t-25 -79q-49 -158 -116 -254q-55 -79 -127 -139.5t-132 -77.5zM198 535l-2 2l45 209 h145z" glyph-name="yacute" horiz-adv-x="373" unicode="ý"/><glyph d="M-27 -200l158 900h130l-51 -292l45 48q56 59 101 59q97 0 97 -151q0 -59 -11.5 -122.5t-33.5 -122.5t-60.5 -96.5t-85.5 -37.5q-44 0 -79 59l-29 49l-51 -293h-130zM212 55q42 0 73.5 103.5t31.5 210.5q0 76 -39 76q-47 0 -77.5 -107t-30.5 -201q0 -82 42 -82z" glyph-name="thorn" horiz-adv-x="477" unicode="þ"/><glyph d="M-74 -215l29 167h2q63 -33 105 -33q37 0 71 40l-84 541h184v-2q-23 -15 -28.5 -33.5t-0.5 -64.5l31 -272h2q27 56 47 127q22 81 19 130t-30 113v2h139v-2q-34 -50 -56.5 -96t-29.5 -67t-25 -79q-49 -158 -116 -254q-55 -79 -127 -139.5t-132 -77.5zM146 555q-1 47 -13 68 t-50 31v2q41 9 61 30t37 69h2q0 -47 12.5 -68t51.5 -31v-2q-42 -10 -62 -31t-37 -68h-2zM316 555q-1 47 -13 68t-50 31v2q41 9 61 30t37 69h2q0 -47 12.5 -68t51.5 -31v-2q-42 -10 -62 -31t-37 -68h-2z" glyph-name="ydieresis" horiz-adv-x="373" unicode="ÿ"/><glyph d="M-39 2q82 101 147 281l85 232q26 72 19 151l-3 34h142l51 -700h-185v2q23 15 29.5 33.5t3.5 65.5l-8 112h-136q-17 -67 -12 -114t30 -97v-2h-163v2zM152 851l2 15h308l-2 -15h-308zM112 233h129l-21 299h-2l-90 -249q-14 -42 -16 -50z" glyph-name="Amacron" horiz-adv-x="466" unicode="Ā"/><glyph d="M77 -15q-30 0 -50.5 34t-20.5 92q0 105 29 197t83 149.5t121 57.5q40 0 70.5 -9t66.5 -38l33 32h4l-74 -409l80 39l2 -2l-55 -67q-64 -81 -106 -75.5t-46 105.5l7 52h-2l-59 -94q-41 -64 -83 -64zM166 105q59 0 117 388q-8 4 -20 4q-45 0 -83.5 -119t-38.5 -221 q0 -52 25 -52zM133 651l2 15h308l-2 -15h-308z" glyph-name="amacron" horiz-adv-x="425" unicode="ā"/><glyph d="M-39 2q82 101 147 281l85 232q26 72 19 151l-3 34h142l51 -700h-185v2q23 15 29.5 33.5t3.5 65.5l-8 112h-136q-17 -67 -12 -114t30 -97v-2h-163v2zM202 953q2 -43 22.5 -58.5t87.5 -15.5t91.5 15.5t42.5 58.5h2q-20 -98 -59.5 -139t-96.5 -41t-81.5 41t-10.5 139h2z M112 233h129l-21 299h-2l-90 -249q-14 -42 -16 -50z" glyph-name="Abreve" horiz-adv-x="466" unicode="Ă"/><glyph d="M77 -15q-30 0 -50.5 34t-20.5 92q0 105 29 197t83 149.5t121 57.5q40 0 70.5 -9t66.5 -38l33 32h4l-74 -409l80 39l2 -2l-55 -67q-64 -81 -106 -75.5t-46 105.5l7 52h-2l-59 -94q-41 -64 -83 -64zM166 105q59 0 117 388q-8 4 -20 4q-45 0 -83.5 -119t-38.5 -221 q0 -52 25 -52zM183 753q2 -43 22.5 -58.5t87.5 -15.5t91.5 15.5t42.5 58.5h2q-20 -98 -59.5 -139t-96.5 -41t-81.5 41t-10.5 139h2z" glyph-name="abreve" horiz-adv-x="425" unicode="ă"/><glyph d="M-39 2q82 101 147 281l85 232q26 72 19 151l-3 34h142l51 -700q-93 -22 -101 -70q-4 -18 11 -29t44 -11q22 0 52 9l2 -2q-80 -97 -133 -97q-43 0 -36 44q5 28 32 73l52 83h-108v2q23 15 29.5 33.5t3.5 65.5l-8 112h-136q-17 -67 -12 -114t30 -97v-2h-163v2zM112 233h129 l-21 299h-2l-90 -249q-14 -42 -16 -50z" glyph-name="Aogonek" horiz-adv-x="466" unicode="Ą"/><glyph d="M77 -15q-30 0 -50.5 34t-20.5 92q0 105 29 197t83 149.5t121 57.5q40 0 70.5 -9t66.5 -38l33 32h4l-74 -409l80 39l2 -2l-55 -67q-68 -84 -109 -75q-50 -21 -56 -56q-4 -18 11 -29t44 -11q22 0 52 9l2 -2q-80 -97 -133 -97q-43 0 -36 44q5 28 32 73l58 91q-16 28 -17 83 l7 52h-2l-59 -94q-41 -64 -83 -64zM166 105q59 0 117 388q-8 4 -20 4q-45 0 -83.5 -119t-38.5 -221q0 -52 25 -52z" glyph-name="aogonek" horiz-adv-x="425" unicode="ą"/><glyph d="M197 -15q-77 0 -123 64t-46 180q0 220 93.5 353t230.5 133q75 0 115 -46t37 -126l-175 -75l-3 3l38 87q20 45 21.5 77t-9 45.5t-27.5 13.5q-43 0 -81.5 -63.5t-62 -168.5t-23.5 -220q0 -155 85 -155q59 0 178 116l3 -2q-33 -52 -55 -82.5t-54.5 -65.5t-67.5 -51.5 t-74 -16.5zM318 735l-2 2l45 209h145z" glyph-name="Cacute" horiz-adv-x="467" unicode="Ć"/><glyph d="M136 -15q-56 0 -89.5 48.5t-33.5 131.5q0 54 12.5 111t38.5 112.5t74.5 91t111.5 35.5t98 -37t34 -110l-140 -68l-2 2l32 99q31 99 -15 99q-31 0 -55.5 -65.5t-35.5 -137t-11 -116.5q0 -105 56 -105q17 0 30 4t42.5 26.5t69.5 65.5l2 -2q-67 -107 -115.5 -146t-103.5 -39 zM225 535l-2 2l45 209h145z" glyph-name="cacute" horiz-adv-x="381" unicode="ć"/><glyph d="M197 -15q-77 0 -123 64t-46 180q0 220 93.5 353t230.5 133q75 0 115 -46t37 -126l-175 -75l-3 3l38 87q20 45 21.5 77t-9 45.5t-27.5 13.5q-43 0 -81.5 -63.5t-62 -168.5t-23.5 -220q0 -155 85 -155q59 0 178 116l3 -2q-33 -52 -55 -82.5t-54.5 -65.5t-67.5 -51.5 t-74 -16.5zM194 735l196 240h2l110 -240h-2l-137 81l-167 -81h-2z" glyph-name="Ccircumflex" horiz-adv-x="467" unicode="Ĉ"/><glyph d="M136 -15q-56 0 -89.5 48.5t-33.5 131.5q0 54 12.5 111t38.5 112.5t74.5 91t111.5 35.5t98 -37t34 -110l-140 -68l-2 2l32 99q31 99 -15 99q-31 0 -55.5 -65.5t-35.5 -137t-11 -116.5q0 -105 56 -105q17 0 30 4t42.5 26.5t69.5 65.5l2 -2q-67 -107 -115.5 -146t-103.5 -39 zM101 535l196 240h2l110 -240h-2l-137 81l-167 -81h-2z" glyph-name="ccircumflex" horiz-adv-x="381" unicode="ĉ"/><glyph d="M197 -15q-77 0 -123 64t-46 180q0 220 93.5 353t230.5 133q75 0 115 -46t37 -126l-175 -75l-3 3l38 87q20 45 21.5 77t-9 45.5t-27.5 13.5q-43 0 -81.5 -63.5t-62 -168.5t-23.5 -220q0 -155 85 -155q59 0 178 116l3 -2q-33 -52 -55 -82.5t-54.5 -65.5t-67.5 -51.5 t-74 -16.5zM347 735q-8 55 -27 78t-71 41v2q59 19 86 42t54 77h2q9 -54 28 -77.5t70 -41.5v-2q-57 -17 -84.5 -40.5t-55.5 -78.5h-2z" glyph-name="Cdotaccent" horiz-adv-x="467" unicode="Ċ"/><glyph d="M136 -15q-56 0 -89.5 48.5t-33.5 131.5q0 54 12.5 111t38.5 112.5t74.5 91t111.5 35.5t98 -37t34 -110l-140 -68l-2 2l32 99q31 99 -15 99q-31 0 -55.5 -65.5t-35.5 -137t-11 -116.5q0 -105 56 -105q17 0 30 4t42.5 26.5t69.5 65.5l2 -2q-67 -107 -115.5 -146t-103.5 -39 zM254 535q-8 55 -27 78t-71 41v2q59 19 86 42t54 77h2q9 -54 28 -77.5t70 -41.5v-2q-57 -17 -84.5 -40.5t-55.5 -78.5h-2z" glyph-name="cdotaccent" horiz-adv-x="381" unicode="ċ"/><glyph d="M197 -15q-77 0 -123 64t-46 180q0 220 93.5 353t230.5 133q75 0 115 -46t37 -126l-175 -75l-3 3l38 87q20 45 21.5 77t-9 45.5t-27.5 13.5q-43 0 -81.5 -63.5t-62 -168.5t-23.5 -220q0 -155 85 -155q59 0 178 116l3 -2q-33 -52 -55 -82.5t-54.5 -65.5t-67.5 -51.5 t-74 -16.5zM545 975l-196 -240h-2l-110 240h2l137 -81l167 81h2z" glyph-name="Ccaron" horiz-adv-x="467" unicode="Č"/><glyph d="M136 -15q-56 0 -89.5 48.5t-33.5 131.5q0 54 12.5 111t38.5 112.5t74.5 91t111.5 35.5t98 -37t34 -110l-140 -68l-2 2l32 99q31 99 -15 99q-31 0 -55.5 -65.5t-35.5 -137t-11 -116.5q0 -105 56 -105q17 0 30 4t42.5 26.5t69.5 65.5l2 -2q-67 -107 -115.5 -146t-103.5 -39 zM452 775l-196 -240h-2l-110 240h2l137 -81l167 81h2z" glyph-name="ccaron" horiz-adv-x="381" unicode="č"/><glyph d="M-34 0v2q26 17 37.5 35t19.5 62l89 502q8 47 4 64.5t-27 32.5v2h187q231 0 231 -260q0 -99 -31.5 -184t-82.5 -139.5t-113.5 -85.5t-126.5 -31h-187zM521 975l-196 -240h-2l-110 240h2l137 -81l167 81h2zM150 20h6q75 0 142 140.5t67 354.5q0 165 -93 165h-7z" glyph-name="Dcaron" horiz-adv-x="502" unicode="Ď"/><glyph d="M81 -15q-33 0 -53 31t-20 95q0 105 23.5 197t66.5 149.5t95 57.5q45 0 71 -33l14 -18h2l24 136q8 47 -2.5 65t-52.5 33v2h203l-109 -609l80 39l2 -2l-55 -67q-64 -81 -106 -75.5t-46 105.5l7 52h-2l-59 -94q-41 -64 -83 -64zM170 105q36 0 67 121.5t31 195.5q0 47 -19 47 q-34 0 -70 -109t-36 -203q0 -52 27 -52zM487 375h-2l37 325h145z" glyph-name="dcaron" horiz-adv-x="613" unicode="ď"/><glyph d="M-30 0v2q26 17 37.5 35t19.5 62l48 272h-32l4 20h32l37 210q8 47 4 64.5t-27 32.5v2h187q231 0 231 -260q0 -99 -31.5 -184t-82.5 -139.5t-113.5 -85.5t-126.5 -31h-187zM154 20h6q75 0 142 140.5t67 354.5q0 165 -93 165h-7l-50 -289h92l-4 -20h-92z" glyph-name="Dcroat" horiz-adv-x="530" unicode="Đ"/><glyph d="M81 -15q-33 0 -53 31t-20 95q0 105 23.5 197t66.5 149.5t95 57.5q45 0 71 -33l14 -18h2l24 136h-111l2 15h111q5 37 -7 53t-50 30v2h203l-15 -85h54l-2 -15h-55l-91 -509l80 39l2 -2l-55 -67q-64 -81 -106 -75.5t-46 105.5l7 52h-2l-59 -94q-41 -64 -83 -64zM170 105 q36 0 67 121.5t31 195.5q0 47 -19 47q-34 0 -70 -109t-36 -203q0 -52 27 -52z" glyph-name="dcroat" horiz-adv-x="429" unicode="đ"/><glyph d="M-34 0v2q26 17 37.5 35t19.5 62l89 502q8 47 4 64.5t-27 32.5v2h399l-35 -202h-2q-51 117 -72 144q-35 37 -89 38h-25l-50 -289h9q32 0 63 28.5t78 100.5h2l-29 -276h-2q-33 71 -58.5 99t-57.5 28h-9l-61 -351h19q32 0 57.5 14t70 63t121.5 152h2l-63 -249h-391zM185 851 l2 15h308l-2 -15h-308z" glyph-name="Emacron" horiz-adv-x="440" unicode="Ē"/><glyph d="M136 -15q-56 0 -89.5 48.5t-33.5 131.5q0 42 7.5 87t25.5 92.5t44.5 85t69.5 61.5t96 24q62 0 96.5 -28t34.5 -75q0 -32 -13.5 -59t-49 -56t-69 -50t-100.5 -59q0 -112 56 -112q17 0 30 4t42.5 26.5t69.5 65.5l2 -2q-67 -107 -115.5 -146t-103.5 -39zM116 651l2 15h308 l-2 -15h-308zM156 220q23 -12 51.5 23.5t47.5 95t19 111.5q0 50 -21 50q-35 0 -63 -94.5t-34 -185.5z" glyph-name="emacron" horiz-adv-x="379" unicode="ē"/><glyph d="M-34 0v2q26 17 37.5 35t19.5 62l89 502q8 47 4 64.5t-27 32.5v2h399l-35 -202h-2q-51 117 -72 144q-35 37 -89 38h-25l-50 -289h9q32 0 63 28.5t78 100.5h2l-29 -276h-2q-33 71 -58.5 99t-57.5 28h-9l-61 -351h19q32 0 57.5 14t70 63t121.5 152h2l-63 -249h-391zM317 735 q-8 55 -27 78t-71 41v2q59 19 86 42t54 77h2q9 -54 28 -77.5t70 -41.5v-2q-57 -17 -84.5 -40.5t-55.5 -78.5h-2z" glyph-name="Edotaccent" horiz-adv-x="440" unicode="Ė"/><glyph d="M136 -15q-56 0 -89.5 48.5t-33.5 131.5q0 42 7.5 87t25.5 92.5t44.5 85t69.5 61.5t96 24q62 0 96.5 -28t34.5 -75q0 -32 -13.5 -59t-49 -56t-69 -50t-100.5 -59q0 -112 56 -112q17 0 30 4t42.5 26.5t69.5 65.5l2 -2q-67 -107 -115.5 -146t-103.5 -39zM248 535 q-8 55 -27 78t-71 41v2q59 19 86 42t54 77h2q9 -54 28 -77.5t70 -41.5v-2q-57 -17 -84.5 -40.5t-55.5 -78.5h-2zM156 220q23 -12 51.5 23.5t47.5 95t19 111.5q0 50 -21 50q-35 0 -63 -94.5t-34 -185.5z" glyph-name="edotaccent" horiz-adv-x="379" unicode="ė"/><glyph d="M-34 0v2q26 17 37.5 35t19.5 62l89 502q8 47 4 64.5t-27 32.5v2h399l-35 -202h-2q-51 117 -72 144q-35 37 -89 38h-25l-50 -289h9q32 0 63 28.5t78 100.5h2l-29 -276h-2q-33 71 -58.5 99t-57.5 28h-9l-61 -351h19q32 0 57.5 14t70 63t121.5 152h2l-63 -249 q-93 -22 -101 -70q-4 -18 11 -29t44 -11q22 0 52 9l2 -2q-80 -97 -133 -97q-43 0 -36 44q5 28 32 73l52 83h-314z" glyph-name="Eogonek" horiz-adv-x="440" unicode="Ę"/><glyph d="M68 -200q-43 0 -36 44q5 28 32 73l45 71q-45 11 -70.5 57.5t-25.5 119.5q0 42 7.5 87t25.5 92.5t44.5 85t69.5 61.5t96 24q62 0 96.5 -28t34.5 -75q0 -32 -13.5 -59t-49 -56t-69 -50t-100.5 -59q0 -112 56 -112q17 0 30 4t42.5 26.5t69.5 65.5l2 -2q-64 -102 -111 -142 t-98 -43q-47 -19 -54 -55q-4 -18 11 -29t44 -11q22 0 52 9l2 -2q-80 -97 -133 -97zM156 220q23 -12 51.5 23.5t47.5 95t19 111.5q0 50 -21 50q-35 0 -63 -94.5t-34 -185.5z" glyph-name="eogonek" horiz-adv-x="379" unicode="ę"/><glyph d="M-34 0v2q26 17 37.5 35t19.5 62l89 502q8 47 4 64.5t-27 32.5v2h399l-35 -202h-2q-51 117 -72 144q-35 37 -89 38h-25l-50 -289h9q32 0 63 28.5t78 100.5h2l-29 -276h-2q-33 71 -58.5 99t-57.5 28h-9l-61 -351h19q32 0 57.5 14t70 63t121.5 152h2l-63 -249h-391zM515 975 l-196 -240h-2l-110 240h2l137 -81l167 81h2z" glyph-name="Ecaron" horiz-adv-x="440" unicode="Ě"/><glyph d="M136 -15q-56 0 -89.5 48.5t-33.5 131.5q0 42 7.5 87t25.5 92.5t44.5 85t69.5 61.5t96 24q62 0 96.5 -28t34.5 -75q0 -32 -13.5 -59t-49 -56t-69 -50t-100.5 -59q0 -112 56 -112q17 0 30 4t42.5 26.5t69.5 65.5l2 -2q-67 -107 -115.5 -146t-103.5 -39zM446 775l-196 -240 h-2l-110 240h2l137 -81l167 81h2zM156 220q23 -12 51.5 23.5t47.5 95t19 111.5q0 50 -21 50q-35 0 -63 -94.5t-34 -185.5z" glyph-name="ecaron" horiz-adv-x="379" unicode="ě"/><glyph d="M181 -15q-68 0 -109.5 64t-41.5 170q0 221 92.5 358.5t218.5 137.5q83 0 123.5 -45.5t37.5 -126.5l-176 -75l-3 3l39 87q20 46 24.5 77.5t-5 45t-27.5 13.5q-40 0 -82.5 -78.5t-71 -200t-28.5 -237.5q0 -78 17 -115t43 -37q51 0 66 82l37 213h-80l3 20h211l-62 -356h-2 l-102 76q-39 -76 -122 -76zM206 735l196 240h2l110 -240h-2l-137 81l-167 -81h-2z" glyph-name="Gcircumflex" horiz-adv-x="494" unicode="Ĝ"/><glyph d="M-37 -215l32 173h2l76 -77q31 -31 51 -35t31 13.5t21 60.5q25 104 46 222h-2l-60 -93q-42 -64 -84 -64q-33 0 -52.5 31t-18.5 95q2 105 33 197t86.5 149.5t122.5 57.5q40 0 70.5 -9t66.5 -38l33 32h4l-54 -280q-83 -435 -404 -435zM167 105q60 0 124 388q-8 4 -20 4 q-45 0 -86.5 -119.5t-43.5 -220.5q-1 -52 26 -52zM108 535l196 240h2l110 -240h-2l-137 81l-167 -81h-2z" glyph-name="gcircumflex" horiz-adv-x="411" unicode="ĝ"/><glyph d="M181 -15q-68 0 -109.5 64t-41.5 170q0 221 92.5 358.5t218.5 137.5q83 0 123.5 -45.5t37.5 -126.5l-176 -75l-3 3l39 87q20 46 24.5 77.5t-5 45t-27.5 13.5q-40 0 -82.5 -78.5t-71 -200t-28.5 -237.5q0 -78 17 -115t43 -37q51 0 66 82l37 213h-80l3 20h211l-62 -356h-2 l-102 76q-39 -76 -122 -76zM277 953q2 -43 22.5 -58.5t87.5 -15.5t91.5 15.5t42.5 58.5h2q-20 -98 -59.5 -139t-96.5 -41t-81.5 41t-10.5 139h2z" glyph-name="Gbreve" horiz-adv-x="494" unicode="Ğ"/><glyph d="M-37 -215l32 173h2l76 -77q31 -31 51 -35t31 13.5t21 60.5q25 104 46 222h-2l-60 -93q-42 -64 -84 -64q-33 0 -52.5 31t-18.5 95q2 105 33 197t86.5 149.5t122.5 57.5q40 0 70.5 -9t66.5 -38l33 32h4l-54 -280q-83 -435 -404 -435zM167 105q60 0 124 388q-8 4 -20 4 q-45 0 -86.5 -119.5t-43.5 -220.5q-1 -52 26 -52zM179 753q2 -43 22.5 -58.5t87.5 -15.5t91.5 15.5t42.5 58.5h2q-20 -98 -59.5 -139t-96.5 -41t-81.5 41t-10.5 139h2z" glyph-name="gbreve" horiz-adv-x="411" unicode="ğ"/><glyph d="M181 -15q-68 0 -109.5 64t-41.5 170q0 221 92.5 358.5t218.5 137.5q83 0 123.5 -45.5t37.5 -126.5l-176 -75l-3 3l39 87q20 46 24.5 77.5t-5 45t-27.5 13.5q-40 0 -82.5 -78.5t-71 -200t-28.5 -237.5q0 -78 17 -115t43 -37q51 0 66 82l37 213h-80l3 20h211l-62 -356h-2 l-102 76q-39 -76 -122 -76zM359 735q-8 55 -27 78t-71 41v2q59 19 86 42t54 77h2q9 -54 28 -77.5t70 -41.5v-2q-57 -17 -84.5 -40.5t-55.5 -78.5h-2z" glyph-name="Gdotaccent" horiz-adv-x="494" unicode="Ġ"/><glyph d="M-37 -215l32 173h2l76 -77q31 -31 51 -35t31 13.5t21 60.5q25 104 46 222h-2l-60 -93q-42 -64 -84 -64q-33 0 -52.5 31t-18.5 95q2 105 33 197t86.5 149.5t122.5 57.5q40 0 70.5 -9t66.5 -38l33 32h4l-54 -280q-83 -435 -404 -435zM167 105q60 0 124 388q-8 4 -20 4 q-45 0 -86.5 -119.5t-43.5 -220.5q-1 -52 26 -52zM261 535q-8 55 -27 78t-71 41v2q59 19 86 42t54 77h2q9 -54 28 -77.5t70 -41.5v-2q-57 -17 -84.5 -40.5t-55.5 -78.5h-2z" glyph-name="gdotaccent" horiz-adv-x="411" unicode="ġ"/><glyph d="M181 -15q-68 0 -109.5 64t-41.5 170q0 221 92.5 358.5t218.5 137.5q83 0 123.5 -45.5t37.5 -126.5l-176 -75l-3 3l39 87q20 46 24.5 77.5t-5 45t-27.5 13.5q-40 0 -82.5 -78.5t-71 -200t-28.5 -237.5q0 -78 17 -115t43 -37q51 0 66 82l37 213h-80l3 20h211l-62 -356h-2 l-102 76q-39 -76 -122 -76zM122 -275l-2 2l63 135h-57v2l92 101q37 0 58.5 -21t16.5 -53q-13 -70 -171 -166z" glyph-name="uni0122" horiz-adv-x="494" unicode="Ģ"/><glyph d="M-37 -215l32 173h2l76 -77q31 -31 51 -35t31 13.5t21 60.5q25 104 46 222h-2l-60 -93q-42 -64 -84 -64q-33 0 -52.5 31t-18.5 95q2 105 33 197t86.5 149.5t122.5 57.5q40 0 70.5 -9t66.5 -38l33 32h4l-54 -280q-83 -435 -404 -435zM167 105q60 0 124 388q-8 4 -20 4 q-45 0 -86.5 -119.5t-43.5 -220.5q-1 -52 26 -52zM365 775l2 -2l-63 -135h57v-2l-92 -101q-37 0 -58.5 21t-16.5 53q13 70 171 166z" glyph-name="uni0123" horiz-adv-x="411" unicode="ģ"/><glyph d="M309 700v-2q-26 -17 -37.5 -35t-19.5 -62l-37 -210h120l37 210q8 47 4 64.5t-27 32.5v2h220v-2q-26 -17 -37.5 -35t-19.5 -62l-89 -502q-8 -47 -4 -64.5t27 -32.5v-2h-220v2q26 17 37.5 35t19.5 62l48 272h-120l-48 -272q-8 -47 -4 -64.5t27 -32.5v-2h-220v2 q26 17 37.5 35t19.5 62l89 502q8 47 4 64.5t-27 32.5v2h220zM176 735l196 240h2l110 -240h-2l-137 81l-167 -81h-2z" glyph-name="Hcircumflex" horiz-adv-x="500" unicode="Ĥ"/><glyph d="M114 601q8 46 -2.5 64t-52.5 33v2h203l-56 -322h2l35 49q34 47 59.5 67.5t60.5 20.5q43 0 64.5 -35t8.5 -110l-55 -279l81 39l2 -2l-56 -67q-65 -81 -108 -75.5t-49 105.5l57 289q11 61 -21 61q-39 0 -79.5 -117t-69.5 -324h-130zM36 735l196 240h2l110 -240h-2l-137 81 l-167 -81h-2z" glyph-name="hcircumflex" horiz-adv-x="468" unicode="ĥ"/><glyph d="M309 700v-2q-26 -17 -37.5 -35t-19.5 -62l-10 -56h120l10 56q8 47 4 64.5t-27 32.5v2h220v-2q-26 -17 -37.5 -35t-19.5 -62l-10 -56h34l-2 -15h-35l-76 -431q-8 -47 -4 -64.5t27 -32.5v-2h-220v2q26 17 37.5 35t19.5 62l48 272h-120l-48 -272q-8 -47 -4 -64.5t27 -32.5 v-2h-220v2q26 17 37.5 35t19.5 62l76 431h-35l2 15h36l10 56q8 47 4 64.5t-27 32.5v2h220zM215 391h120l24 139h-120z" glyph-name="Hbar" horiz-adv-x="500" unicode="Ħ"/><glyph d="M73 600l2 15h41q5 37 -6.5 53t-50.5 30v2h203l-15 -85h124l-2 -15h-124l-39 -222h2l35 49q34 47 59.5 67.5t60.5 20.5q43 0 64.5 -35t8.5 -110l-55 -279l81 39l2 -2l-56 -67q-65 -81 -108 -75.5t-49 105.5l57 289q11 61 -21 61q-39 0 -79.5 -117t-69.5 -324h-130l106 600 h-41z" glyph-name="hbar" horiz-adv-x="468" unicode="ħ"/><glyph d="M309 700v-2q-26 -17 -37.5 -35t-19.5 -62l-89 -502q-8 -47 -4 -64.5t27 -32.5v-2h-220v2q26 17 37.5 35t19.5 62l89 502q8 47 4 64.5t-27 32.5v2h220zM64 777q27 159 118 159q32 0 73 -28.5t61 -28.5q22 0 38 13t34 44h2q-29 -159 -118 -159q-32 0 -73 28.5t-60 28.5 q-24 0 -39.5 -13t-33.5 -44h-2z" glyph-name="Itilde" horiz-adv-x="240" unicode="Ĩ"/><glyph d="M181 61q-65 -81 -108 -75.5t-49 105.5l63 318l-81 -39l-2 2l56 67q65 81 108 75.5t49 -105.5l-63 -318l81 39l2 -2zM28 577q27 159 118 159q32 0 73 -28.5t61 -28.5q22 0 38 13t34 44h2q-29 -159 -118 -159q-32 0 -73 28.5t-60 28.5q-24 0 -39.5 -13t-33.5 -44h-2z" glyph-name="itilde" horiz-adv-x="241" unicode="ĩ"/><glyph d="M309 700v-2q-26 -17 -37.5 -35t-19.5 -62l-89 -502q-8 -47 -4 -64.5t27 -32.5v-2h-220v2q26 17 37.5 35t19.5 62l89 502q8 47 4 64.5t-27 32.5v2h220zM72 851l2 15h308l-2 -15h-308z" glyph-name="Imacron" horiz-adv-x="240" unicode="Ī"/><glyph d="M181 61q-65 -81 -108 -75.5t-49 105.5l63 318l-81 -39l-2 2l56 67q65 81 108 75.5t49 -105.5l-63 -318l81 39l2 -2zM36 651l2 15h308l-2 -15h-308z" glyph-name="imacron" horiz-adv-x="241" unicode="ī"/><glyph d="M309 700v-2q-26 -17 -37.5 -35t-19.5 -62l-89 -502q-8 -47 -4 -64.5t27 -32.5v-2h-70q-93 -22 -101 -70q-4 -18 11 -29t44 -11q22 0 52 9l2 -2q-80 -97 -133 -97q-43 0 -36 44q5 28 32 73l52 83h-73v2q26 17 37.5 35t19.5 62l89 502q8 47 4 64.5t-27 32.5v2h220z" glyph-name="Iogonek" horiz-adv-x="240" unicode="Į"/><glyph d="M181 61q-37 -43 -63 -61h3l-6 -1q-23 -15 -41 -14q-47 -19 -54 -55q-4 -18 11 -29t44 -11q22 0 52 9l2 -2q-80 -97 -133 -97q-43 0 -36 44q5 28 32 73l54 86q-19 27 -22 88l63 318l-81 -39l-2 2l56 67q65 81 108 75.5t49 -105.5l-63 -318l81 39l2 -2zM168 535 q-8 55 -27 78t-71 41v2q59 19 86 42t54 77h2q9 -54 28 -77.5t70 -41.5v-2q-57 -17 -84.5 -40.5t-55.5 -78.5h-2z" glyph-name="iogonek" horiz-adv-x="241" unicode="į"/><glyph d="M309 700v-2q-26 -17 -37.5 -35t-19.5 -62l-89 -502q-8 -47 -4 -64.5t27 -32.5v-2h-220v2q26 17 37.5 35t19.5 62l89 502q8 47 4 64.5t-27 32.5v2h220zM204 735q-8 55 -27 78t-71 41v2q59 19 86 42t54 77h2q9 -54 28 -77.5t70 -41.5v-2q-57 -17 -84.5 -40.5t-55.5 -78.5 h-2z" glyph-name="Idotaccent" horiz-adv-x="240" unicode="İ"/><glyph d="M181 61q-65 -81 -108 -75.5t-49 105.5l63 318l-81 -39l-2 2l56 67q65 81 108 75.5t49 -105.5l-63 -318l81 39l2 -2z" glyph-name="dotlessi" horiz-adv-x="241" unicode="ı"/><glyph d="M309 700v-2q-26 -17 -37.5 -35t-19.5 -62l-89 -502q-8 -47 -4 -64.5t27 -32.5v-2h-220v2q26 17 37.5 35t19.5 62l89 502q8 47 4 64.5t-27 32.5v2h220zM349 -15q-60 0 -91 46.5t-28 133.5l200 103v-2l-64 -117q-24 -43 -33 -76.5t-3 -50.5t25 -17q28 0 53.5 37t38.5 109 l79 450q9 47 5 64.5t-27 32.5v2h180l-71 -400q-14 -79 -38.5 -132.5t-70.5 -98.5q-85 -84 -155 -84z" glyph-name="IJ" horiz-adv-x="640" unicode="Ĳ"/><glyph d="M181 61q-65 -81 -108 -75.5t-49 105.5l63 318l-81 -39l-2 2l56 67q65 81 108 75.5t49 -105.5l-63 -318l81 39l2 -2zM168 535q-8 55 -27 78t-71 41v2q59 19 86 42t54 77h2q9 -54 27.5 -77t67.5 -41q57 18 83.5 41.5t53.5 76.5h2q9 -54 28 -77.5t70 -41.5v-2 q-57 -17 -84.5 -40.5t-55.5 -78.5h-2q-8 54 -26.5 77t-68.5 41q-55 -17 -82 -40.5t-55 -77.5h-2zM329 409l-80 -39l-2 2l56 67q65 81 108 75.5t48 -105.5l-55 -286q-14 -73 -52.5 -133.5t-125.5 -139.5l-55 -50l-2 2l9 13q50 71 72 185z" glyph-name="ij" horiz-adv-x="477" unicode="ĳ"/><glyph d="M109 -15q-60 0 -91 46.5t-28 133.5l200 103v-2l-64 -117q-24 -43 -33 -76.5t-3 -50.5t25 -17q28 0 53.5 37t38.5 109l79 450q9 47 5 64.5t-27 32.5v2h180l-71 -400q-14 -79 -38.5 -132.5t-70.5 -98.5q-85 -84 -155 -84zM216 735l196 240h2l110 -240h-2l-137 81l-167 -81 h-2z" glyph-name="Jcircumflex" horiz-adv-x="400" unicode="Ĵ"/><glyph d="M88 409l-80 -39l-2 2l56 67q65 81 108 75.5t48 -105.5l-55 -286q-14 -73 -52.5 -133.5t-125.5 -139.5l-55 -50l-2 2l9 13q50 71 72 185zM8 535l196 240h2l110 -240h-2l-137 81l-167 -81h-2z" glyph-name="jcircumflex" horiz-adv-x="236" unicode="ĵ"/><glyph d="M-34 0v2q26 17 37.5 35t19.5 62l89 502q8 47 4 64.5t-27 32.5v2h220v-2q-26 -17 -37.5 -35t-19.5 -62l-53 -299l177 243q56 75 0 153v2h201v-2q-114 -59 -169 -139q-25 -37 -30.5 -78.5t6.5 -106.5l70 -374h-212v2q23 16 31 34.5t7 64.5l-4 273l-84 -115l-28 -160 q-9 -47 -5 -64.5t27 -32.5v-2h-220zM102 -275l-2 2l63 135h-57v2l92 101q37 0 58.5 -21t16.5 -53q-13 -70 -171 -166z" glyph-name="uni0136" horiz-adv-x="503" unicode="Ķ"/><glyph d="M211 250q56 47 82 80.5t26 66.5q0 44 -28 44q-42 0 -82.5 -115.5t-70.5 -325.5h-130l106 601q8 46 -2.5 64t-52.5 33v2h203l-56 -322h2l36 44q44 55 70 74t62 19q30 0 46.5 -18t16.5 -45q0 -71 -120 -136l39 -219l67 33l2 -2l-55 -67q-42 -52 -68 -66.5t-42 -0.5t-33 59z M93 -275l-2 2l63 135h-57v2l92 101q37 0 58.5 -21t16.5 -53q-13 -70 -171 -166z" glyph-name="uni0137" horiz-adv-x="429" unicode="ķ"/><glyph d="M-34 0v2q26 17 37.5 35t19.5 62l89 502q8 47 4 64.5t-27 32.5v2h220v-2q-26 -17 -37.5 -35t-19.5 -62l-102 -581h19q34 0 62.5 17t77 75t129.5 177h2l-73 -289h-401zM176 735l-2 2l45 209h145z" glyph-name="Lacute" horiz-adv-x="443" unicode="Ĺ"/><glyph d="M181 61q-64 -81 -107 -75.5t-50 105.5l90 510q8 46 -2.5 64t-52.5 33v2h203l-108 -609l80 39l2 -2zM171 735l-2 2l45 209h145z" glyph-name="lacute" horiz-adv-x="240" unicode="ĺ"/><glyph d="M-34 0v2q26 17 37.5 35t19.5 62l89 502q8 47 4 64.5t-27 32.5v2h220v-2q-26 -17 -37.5 -35t-19.5 -62l-102 -581h19q34 0 62.5 17t77 75t129.5 177h2l-73 -289h-401zM52 -275l-2 2l63 135h-57v2l92 101q37 0 58.5 -21t16.5 -53q-13 -70 -171 -166z" glyph-name="uni013B" horiz-adv-x="443" unicode="Ļ"/><glyph d="M181 61q-64 -81 -107 -75.5t-50 105.5l90 510q8 46 -2.5 64t-52.5 33v2h203l-108 -609l80 39l2 -2zM-32 -275l-2 2l63 135h-57v2l92 101q37 0 58.5 -21t16.5 -53q-13 -70 -171 -166z" glyph-name="uni013C" horiz-adv-x="240" unicode="ļ"/><glyph d="M-34 0v2q26 17 37.5 35t19.5 62l89 502q8 47 4 64.5t-27 32.5v2h220v-2q-26 -17 -37.5 -35t-19.5 -62l-102 -581h19q34 0 62.5 17t77 75t129.5 177h2l-73 -289h-401zM340 375h-2l37 325h145z" glyph-name="Lcaron" horiz-adv-x="443" unicode="Ľ"/><glyph d="M181 61q-64 -81 -107 -75.5t-50 105.5l90 510q8 46 -2.5 64t-52.5 33v2h203l-108 -609l80 39l2 -2zM287 375h-2l37 325h145z" glyph-name="lcaron" horiz-adv-x="413" unicode="ľ"/><glyph d="M-34 0v2q26 17 37.5 35t19.5 62l89 502q8 47 4 64.5t-27 32.5v2h220v-2q-26 -17 -37.5 -35t-19.5 -62l-102 -581h19q34 0 62.5 17t77 75t129.5 177h2l-73 -289h-401zM343 265q-8 55 -27 78t-71 41v2q59 19 86 42t54 77h2q9 -54 28 -77.5t70 -41.5v-2q-57 -17 -84.5 -40.5 t-55.5 -78.5h-2z" glyph-name="Ldot" horiz-adv-x="443" unicode="Ŀ"/><glyph d="M-30 0v2q26 17 37.5 35t19.5 62l36 205l-34 -14l4 22l34 14l49 275q8 47 4 64.5t-27 32.5v2h220v-2q-26 -17 -37.5 -35t-19.5 -62l-38 -213l134 54l-4 -22l-134 -54l-60 -346h19q34 0 62.5 17t77 75t129.5 177h2l-73 -289h-401z" glyph-name="Lslash" horiz-adv-x="447" unicode="Ł"/><glyph d="M199 61q-64 -81 -107 -75.5t-50 105.5l27 151l-66 -27l3 17l66 27l60 342q8 46 -2.5 64t-52.5 33v2h203l-68 -384l63 26l-3 -17l-63 -26l-37 -208l80 39l2 -2z" glyph-name="lslash" horiz-adv-x="270" unicode="ł"/><glyph d="M359 -15l-221 574h-2l-49 -276q-16 -93 -6.5 -154.5t49.5 -126.5v-2h-169v2q41 58 65 120.5t41 160.5l45 255q12 60 -9 113l-19 47v2h152l158 -405h2l22 122q16 93 8.5 155t-42.5 126v2h159v-2q-41 -58 -64.5 -121t-40.5 -160l-77 -432h-2zM296 735l-2 2l45 209h145z" glyph-name="Nacute" horiz-adv-x="469" unicode="Ń"/><glyph d="M7 0l80 409l-81 -39l-2 2l56 67q65 81 107 75.5t43 -105.5l-5 -39h2l42 57q35 48 61.5 68t57.5 20q47 0 65 -38t5 -107l-55 -279l81 39l2 -2l-56 -67q-65 -81 -108 -75.5t-49 105.5l58 300q11 50 -16 50q-39 0 -82 -117t-76 -324h-130zM254 535l-2 2l45 209h145z" glyph-name="nacute" horiz-adv-x="470" unicode="ń"/><glyph d="M359 -15l-221 574h-2l-49 -276q-16 -93 -6.5 -154.5t49.5 -126.5v-2h-169v2q41 58 65 120.5t41 160.5l45 255q12 60 -9 113l-19 47v2h152l158 -405h2l22 122q16 93 8.5 155t-42.5 126v2h159v-2q-41 -58 -64.5 -121t-40.5 -160l-77 -432h-2zM81 -275l-2 2l63 135h-57v2 l92 101q37 0 58.5 -21t16.5 -53q-13 -70 -171 -166z" glyph-name="uni0145" horiz-adv-x="469" unicode="Ņ"/><glyph d="M7 0l80 409l-81 -39l-2 2l56 67q65 81 107 75.5t43 -105.5l-5 -39h2l42 57q35 48 61.5 68t57.5 20q47 0 65 -38t5 -107l-55 -279l81 39l2 -2l-56 -67q-65 -81 -108 -75.5t-49 105.5l58 300q11 50 -16 50q-39 0 -82 -117t-76 -324h-130zM112 -275l-2 2l63 135h-57v2 l92 101q37 0 58.5 -21t16.5 -53q-13 -70 -171 -166z" glyph-name="uni0146" horiz-adv-x="470" unicode="ņ"/><glyph d="M359 -15l-221 574h-2l-49 -276q-16 -93 -6.5 -154.5t49.5 -126.5v-2h-169v2q41 58 65 120.5t41 160.5l45 255q12 60 -9 113l-19 47v2h152l158 -405h2l22 122q16 93 8.5 155t-42.5 126v2h159v-2q-41 -58 -64.5 -121t-40.5 -160l-77 -432h-2zM523 975l-196 -240h-2 l-110 240h2l137 -81l167 81h2z" glyph-name="Ncaron" horiz-adv-x="469" unicode="Ň"/><glyph d="M7 0l80 409l-81 -39l-2 2l56 67q65 81 107 75.5t43 -105.5l-5 -39h2l42 57q35 48 61.5 68t57.5 20q47 0 65 -38t5 -107l-55 -279l81 39l2 -2l-56 -67q-65 -81 -108 -75.5t-49 105.5l58 300q11 50 -16 50q-39 0 -82 -117t-76 -324h-130zM481 775l-196 -240h-2l-110 240h2 l137 -81l167 81h2z" glyph-name="ncaron" horiz-adv-x="470" unicode="ň"/><glyph d="M149 -200l-2 2l27 36q57 77 82 140t25 132q0 77 -41 183l-102 266h-2l-49 -276q-16 -93 -6.5 -154.5t49.5 -126.5v-2h-169v2q41 58 65 120.5t41 160.5l45 255q11 64 -9 113l-19 47v2h152l158 -405h2l22 122q16 93 8.5 155t-42.5 126v2h159v-2q-41 -58 -64.5 -121 t-40.5 -160l-43 -244q-16 -91 -54 -162.5t-116 -141.5z" glyph-name="Eng" horiz-adv-x="469" unicode="Ŋ"/><glyph d="M309 391q9 50 -17 50q-39 0 -80.5 -117t-70.5 -324h-130l73 409l-80 -39l-2 2l55 67q64 81 106 75.5t44 -105.5l-4 -39h2l41 57q35 48 60.5 68t56.5 20q47 0 66.5 -38t6.5 -107l-45 -248q-13 -73 -50.5 -133t-122.5 -139l-54 -50l-2 2l8 12q49 75 70 186z" glyph-name="eng" horiz-adv-x="465" unicode="ŋ"/><glyph d="M206 -15q-82 0 -129.5 68t-47.5 182q0 199 91 339.5t222 140.5q88 0 134 -66.5t46 -182.5q0 -131 -41 -241.5t-113.5 -175t-161.5 -64.5zM212 5q46 0 88.5 114t64.5 246t22 216q0 114 -47 114t-90 -116t-65 -247.5t-22 -212.5q0 -114 49 -114zM207 851l2 15h308l-2 -15 h-308z" glyph-name="Omacron" horiz-adv-x="516" unicode="Ō"/><glyph d="M165 -15q-71 0 -111 51t-40 139q0 152 75.5 246t169.5 94q71 0 110.5 -50t39.5 -138q0 -151 -75.5 -246.5t-168.5 -95.5zM169 0q41 0 77 171.5t36 259.5q0 69 -26 69q-30 0 -58.5 -92.5t-43 -190t-14.5 -144.5q0 -73 29 -73zM128 651l2 15h308l-2 -15h-308z" glyph-name="omacron" horiz-adv-x="423" unicode="ō"/><glyph d="M206 -15q-82 0 -129.5 68t-47.5 182q0 199 91 339.5t222 140.5q88 0 134 -66.5t46 -182.5q0 -131 -41 -241.5t-113.5 -175t-161.5 -64.5zM212 5q46 0 88.5 114t64.5 246t22 216q0 114 -47 114t-90 -116t-65 -247.5t-22 -212.5q0 -114 49 -114zM232 735l-2 2l45 209h145z M382 735l-2 2l45 209h145z" glyph-name="Ohungarumlaut" horiz-adv-x="516" unicode="Ő"/><glyph d="M165 -15q-71 0 -111 51t-40 139q0 152 75.5 246t169.5 94q71 0 110.5 -50t39.5 -138q0 -151 -75.5 -246.5t-168.5 -95.5zM169 0q41 0 77 171.5t36 259.5q0 69 -26 69q-30 0 -58.5 -92.5t-43 -190t-14.5 -144.5q0 -73 29 -73zM153 535l-2 2l45 209h145zM303 535l-2 2 l45 209h145z" glyph-name="ohungarumlaut" horiz-adv-x="423" unicode="ő"/><glyph d="M206 -15q-82 0 -129.5 68t-47.5 182q0 199 91 339.5t222 140.5q42 0 73 -15h353l-35 -202h-2q-51 117 -72 144q-35 37 -89 38h-123q75 -62 75 -214q0 -42 -4 -75q31 2 60.5 31.5t66.5 97.5h2l-29 -276h-2q-24 67 -47 96t-53 31q-15 -120 -65 -213t-124 -138h122 q32 0 57.5 14t70 63t121.5 152h2l-63 -249h-350q-39 -15 -81 -15zM212 5q46 0 88.5 114t64.5 246t22 216q0 114 -47 114t-90 -116t-65 -247.5t-22 -212.5q0 -114 49 -114z" glyph-name="OE" horiz-adv-x="720" unicode="Œ"/><glyph d="M165 -15q-71 0 -111 51t-40 139q0 152 75.5 246t169.5 94q73 0 114 -55q57 55 138 55q62 0 96.5 -28t34.5 -75q0 -32 -13.5 -59t-49 -56t-69 -50t-100.5 -59q0 -112 56 -112q17 0 30 4t42.5 26.5t69.5 65.5l2 -2q-67 -107 -115.5 -146t-103.5 -39q-61 0 -94 56 q-62 -56 -132 -56zM169 0q41 0 77 171.5t36 259.5q0 69 -26 69q-30 0 -58.5 -92.5t-43 -190t-14.5 -144.5q0 -73 29 -73zM411 220q23 -12 51.5 23.5t47.5 95t19 111.5q0 50 -21 50q-35 0 -63 -94.5t-34 -185.5z" glyph-name="oe" horiz-adv-x="634" unicode="œ"/><glyph d="M-34 0v2q26 17 37.5 35t19.5 62l89 502q8 47 4 64.5t-27 32.5v2h315q110 0 110 -71q0 -36 -24.5 -70t-77.5 -78q-33 -28 -39.5 -58t5.5 -79l66 -344h-213v2q23 16 31 34.5t7 64.5l-7 270h-2l-57 -45l-40 -227q-8 -47 -4 -64.5t27 -32.5v-2h-220zM290 735l-2 2l45 209h145 zM208 354q82 75 120 133.5t38 115.5q0 41 -22 59t-78 18z" glyph-name="Racute" horiz-adv-x="493" unicode="Ŕ"/><glyph d="M7 0l80 409l-81 -39l-2 2l56 67q65 81 107 75.5t43 -105.5l-8 -76h2l75 118q23 36 41 50t50 14l-28 -202h-2l-35 28q-41 33 -63 17q-36 -26 -80 -230q-11 -54 -25 -128h-130zM213 535l-2 2l45 209h145z" glyph-name="racute" horiz-adv-x="340" unicode="ŕ"/><glyph d="M-34 0v2q26 17 37.5 35t19.5 62l89 502q8 47 4 64.5t-27 32.5v2h315q110 0 110 -71q0 -36 -24.5 -70t-77.5 -78q-33 -28 -39.5 -58t5.5 -79l66 -344h-213v2q23 16 31 34.5t7 64.5l-7 270h-2l-57 -45l-40 -227q-8 -47 -4 -64.5t27 -32.5v-2h-220zM105 -275l-2 2l63 135 h-57v2l92 101q37 0 58.5 -21t16.5 -53q-13 -70 -171 -166zM208 354q82 75 120 133.5t38 115.5q0 41 -22 59t-78 18z" glyph-name="uni0156" horiz-adv-x="493" unicode="Ŗ"/><glyph d="M7 0l80 409l-81 -39l-2 2l56 67q65 81 107 75.5t43 -105.5l-8 -76h2l75 118q23 36 41 50t50 14l-28 -202h-2l-35 28q-41 33 -63 17q-36 -26 -80 -230q-11 -54 -25 -128h-130zM-33 -275l-2 2l63 135h-57v2l92 101q37 0 58.5 -21t16.5 -53q-13 -70 -171 -166z" glyph-name="uni0157" horiz-adv-x="340" unicode="ŗ"/><glyph d="M-34 0v2q26 17 37.5 35t19.5 62l89 502q8 47 4 64.5t-27 32.5v2h315q110 0 110 -71q0 -36 -24.5 -70t-77.5 -78q-33 -28 -39.5 -58t5.5 -79l66 -344h-213v2q23 16 31 34.5t7 64.5l-7 270h-2l-57 -45l-40 -227q-8 -47 -4 -64.5t27 -32.5v-2h-220zM517 975l-196 -240h-2 l-110 240h2l137 -81l167 81h2zM208 354q82 75 120 133.5t38 115.5q0 41 -22 59t-78 18z" glyph-name="Rcaron" horiz-adv-x="493" unicode="Ř"/><glyph d="M7 0l80 409l-81 -39l-2 2l56 67q65 81 107 75.5t43 -105.5l-8 -76h2l75 118q23 36 41 50t50 14l-28 -202h-2l-35 28q-41 33 -63 17q-36 -26 -80 -230q-11 -54 -25 -128h-130zM440 775l-196 -240h-2l-110 240h2l137 -81l167 81h2z" glyph-name="rcaron" horiz-adv-x="340" unicode="ř"/><glyph d="M177 -15q-77 0 -125.5 43.5t-56.5 135.5l192 86l2 -2l-39 -98q-26 -72 -15 -108t49 -36q35 0 56.5 28.5t21.5 79.5q0 72 -46 136l-83 114q-56 77 -56 150q0 89 56 145t144 56q79 0 120.5 -45.5t45.5 -121.5l-157 -68l-2 2l30 96q16 55 3 85.5t-49 30.5q-35 0 -54 -26.5 t-19 -70.5q0 -57 48 -121l93 -126q58 -78 58 -156q0 -91 -61 -150t-156 -59zM267 735l-2 2l45 209h145z" glyph-name="Sacute" horiz-adv-x="417" unicode="Ś"/><glyph d="M144 -15q-68 0 -108 37t-48 104l135 65l2 -2l-21 -105q-8 -40 3.5 -61t35.5 -21q52 0 52 78q0 53 -43 100l-48 54q-52 58 -54 121q-3 69 42 114.5t121 45.5q69 0 106 -42t35 -104l-119 -52l-2 2l18 87q9 45 -3 69.5t-39 24.5q-25 0 -39.5 -20t-14.5 -48q0 -47 43 -95 l65 -75q56 -65 56 -125q0 -68 -49.5 -110t-125.5 -42zM191 535l-2 2l45 209h145z" glyph-name="sacute" horiz-adv-x="352" unicode="ś"/><glyph d="M177 -15q-77 0 -125.5 43.5t-56.5 135.5l192 86l2 -2l-39 -98q-26 -72 -15 -108t49 -36q35 0 56.5 28.5t21.5 79.5q0 72 -46 136l-83 114q-56 77 -56 150q0 89 56 145t144 56q79 0 120.5 -45.5t45.5 -121.5l-157 -68l-2 2l30 96q16 55 3 85.5t-49 30.5q-35 0 -54 -26.5 t-19 -70.5q0 -57 48 -121l93 -126q58 -78 58 -156q0 -91 -61 -150t-156 -59zM143 735l196 240h2l110 -240h-2l-137 81l-167 -81h-2z" glyph-name="Scircumflex" horiz-adv-x="417" unicode="Ŝ"/><glyph d="M144 -15q-68 0 -108 37t-48 104l135 65l2 -2l-21 -105q-8 -40 3.5 -61t35.5 -21q52 0 52 78q0 53 -43 100l-48 54q-52 58 -54 121q-3 69 42 114.5t121 45.5q69 0 106 -42t35 -104l-119 -52l-2 2l18 87q9 45 -3 69.5t-39 24.5q-25 0 -39.5 -20t-14.5 -48q0 -47 43 -95 l65 -75q56 -65 56 -125q0 -68 -49.5 -110t-125.5 -42zM67 535l196 240h2l110 -240h-2l-137 81l-167 -81h-2z" glyph-name="scircumflex" horiz-adv-x="352" unicode="ŝ"/><glyph d="M177 -15q-11 0 -33 2l-19 -42l49 3q35 2 49 -4.5t14 -23.5q0 -61 -187 -135l-2 2q66 70 86 95t20 37q0 10 -10 10t-57 -30h-2l40 92q-117 27 -130 173l192 86l2 -2l-39 -98q-26 -72 -15 -108t49 -36q35 0 56.5 28.5t21.5 79.5q0 72 -46 136l-83 114q-56 77 -56 150 q0 89 56 145t144 56q79 0 120.5 -45.5t45.5 -121.5l-157 -68l-2 2l30 96q16 55 3 85.5t-49 30.5q-35 0 -54 -26.5t-19 -70.5q0 -57 48 -121l93 -126q58 -78 58 -156q0 -91 -61 -150t-156 -59z" glyph-name="Scedilla" horiz-adv-x="417" unicode="Ş"/><glyph d="M144 -15q-11 0 -29 2l-19 -42l49 3q35 2 49 -4.5t14 -23.5q0 -61 -187 -135l-2 2q66 70 86 95t20 37q0 10 -10 10t-57 -30h-2l40 92q-94 22 -108 135l135 65l2 -2l-21 -105q-8 -40 3.5 -61t35.5 -21q52 0 52 78q0 53 -43 100l-48 54q-52 58 -54 121q-3 69 42 114.5 t121 45.5q69 0 106 -42t35 -104l-119 -52l-2 2l18 87q9 45 -3 69.5t-39 24.5q-25 0 -39.5 -20t-14.5 -48q0 -47 43 -95l65 -75q56 -65 56 -125q0 -68 -49.5 -110t-125.5 -42z" glyph-name="scedilla" horiz-adv-x="352" unicode="ş"/><glyph d="M177 -15q-77 0 -125.5 43.5t-56.5 135.5l192 86l2 -2l-39 -98q-26 -72 -15 -108t49 -36q35 0 56.5 28.5t21.5 79.5q0 72 -46 136l-83 114q-56 77 -56 150q0 89 56 145t144 56q79 0 120.5 -45.5t45.5 -121.5l-157 -68l-2 2l30 96q16 55 3 85.5t-49 30.5q-35 0 -54 -26.5 t-19 -70.5q0 -57 48 -121l93 -126q58 -78 58 -156q0 -91 -61 -150t-156 -59zM494 975l-196 -240h-2l-110 240h2l137 -81l167 81h2z" glyph-name="Scaron" horiz-adv-x="417" unicode="Š"/><glyph d="M144 -15q-68 0 -108 37t-48 104l135 65l2 -2l-21 -105q-8 -40 3.5 -61t35.5 -21q52 0 52 78q0 53 -43 100l-48 54q-52 58 -54 121q-3 69 42 114.5t121 45.5q69 0 106 -42t35 -104l-119 -52l-2 2l18 87q9 45 -3 69.5t-39 24.5q-25 0 -39.5 -20t-14.5 -48q0 -47 43 -95 l65 -75q56 -65 56 -125q0 -68 -49.5 -110t-125.5 -42zM418 775l-196 -240h-2l-110 240h2l137 -81l167 81h2z" glyph-name="scaron" horiz-adv-x="352" unicode="š"/><glyph d="M499 700l-23 -232h-2q-44 135 -61.5 173.5t-40.5 38.5h-3l-102 -581q-8 -47 -4 -64.5t27 -32.5v-2h-130l-25 -55l49 3q35 2 49 -4.5t14 -23.5q0 -61 -187 -135l-2 2q66 70 86 95t20 37q0 10 -10 10t-57 -30h-2l44 101h-69v2q26 17 37.5 35t19.5 62l102 581h-1 q-23 0 -55 -38.5t-123 -173.5h-2l59 232h392z" glyph-name="uni0162" horiz-adv-x="448" unicode="Ţ"/><glyph d="M184 39q-51 -62 -100 -54l-18 -40l49 3q35 2 49 -4.5t14 -23.5q0 -61 -187 -135l-2 2q66 70 86 95t20 37q0 10 -10 10t-57 -30h-2l40 92q-39 22 -43 100l74 394h-49l2 15h49l154 138h2l-26 -138h86l-2 -15h-87l-76 -406l106 51l2 -2z" glyph-name="uni0163" horiz-adv-x="290" unicode="ţ"/><glyph d="M499 700l-23 -232h-2q-44 135 -61.5 173.5t-40.5 38.5h-3l-102 -581q-8 -47 -4 -64.5t27 -32.5v-2h-220v2q26 17 37.5 35t19.5 62l102 581h-1q-23 0 -55 -38.5t-123 -173.5h-2l59 232h392zM506 975l-196 -240h-2l-110 240h2l137 -81l167 81h2z" glyph-name="Tcaron" horiz-adv-x="448" unicode="Ť"/><glyph d="M184 39q-32 -39 -67 -51.5t-62.5 13t-31.5 90.5l74 394h-49l2 15h49l154 138h2l-26 -138h86l-2 -15h-87l-76 -406l106 51l2 -2zM328 375h-2l37 325h145z" glyph-name="tcaron" horiz-adv-x="456" unicode="ť"/><glyph d="M499 700l-23 -232h-2q-44 135 -61.5 173.5t-40.5 38.5h-3l-51 -289h112l-4 -20h-111l-48 -272q-8 -47 -4 -64.5t27 -32.5v-2h-220v2q26 17 37.5 35t19.5 62l48 272h-113l4 20h112l51 289h-1q-23 0 -55 -38.5t-123 -173.5h-2l59 232h392z" glyph-name="Tbar" horiz-adv-x="448" unicode="Ŧ"/><glyph d="M185 39q-32 -39 -67 -51.5t-62.5 13t-31.5 90.5l34 180h-48l2 15h49l37 199h-49l2 15h49l154 138h2l-26 -138h86l-2 -15h-87l-37 -199h87l-2 -15h-88l-36 -192l106 51l2 -2z" glyph-name="tbar" horiz-adv-x="291" unicode="ŧ"/><glyph d="M187 -15q-86 0 -126.5 63t-21.5 172l67 381q9 47 5 64.5t-27 32.5v2h220v-2q-25 -17 -37.5 -35t-20.5 -62l-67 -381q-14 -81 2.5 -129t68.5 -48q91 0 122 175l35 199q16 95 8 155t-42 126l1 2h159l-1 -2q-41 -58 -64.5 -120.5t-40.5 -160.5l-35 -199q-41 -233 -205 -233z M184 777q27 159 118 159q32 0 73 -28.5t61 -28.5q22 0 38 13t34 44h2q-29 -159 -118 -159q-32 0 -73 28.5t-60 28.5q-24 0 -39.5 -13t-33.5 -44h-2z" glyph-name="Utilde" horiz-adv-x="464" unicode="Ũ"/><glyph d="M96 -15q-43 0 -60 38t-4 107l55 279l-81 -39l-2 2l56 67q65 81 108 75.5t49 -105.5l-58 -300q-11 -50 13 -50q34 0 76 118t75 323h130l-80 -409l81 39l2 -2l-56 -67q-65 -81 -107 -75.5t-43 105.5l5 39h-2l-42 -57q-35 -47 -61 -67.5t-54 -20.5zM128 577q27 159 118 159 q32 0 73 -28.5t61 -28.5q22 0 38 13t34 44h2q-29 -159 -118 -159q-32 0 -73 28.5t-60 28.5q-24 0 -39.5 -13t-33.5 -44h-2z" glyph-name="utilde" horiz-adv-x="460" unicode="ũ"/><glyph d="M187 -15q-86 0 -126.5 63t-21.5 172l67 381q9 47 5 64.5t-27 32.5v2h220v-2q-25 -17 -37.5 -35t-20.5 -62l-67 -381q-14 -81 2.5 -129t68.5 -48q91 0 122 175l35 199q16 95 8 155t-42 126l1 2h159l-1 -2q-41 -58 -64.5 -120.5t-40.5 -160.5l-35 -199q-41 -233 -205 -233z M192 851l2 15h308l-2 -15h-308z" glyph-name="Umacron" horiz-adv-x="464" unicode="Ū"/><glyph d="M96 -15q-43 0 -60 38t-4 107l55 279l-81 -39l-2 2l56 67q65 81 108 75.5t49 -105.5l-58 -300q-11 -50 13 -50q34 0 76 118t75 323h130l-80 -409l81 39l2 -2l-56 -67q-65 -81 -107 -75.5t-43 105.5l5 39h-2l-42 -57q-35 -47 -61 -67.5t-54 -20.5zM136 651l2 15h308l-2 -15 h-308z" glyph-name="umacron" horiz-adv-x="460" unicode="ū"/><glyph d="M187 -15q-86 0 -126.5 63t-21.5 172l67 381q9 47 5 64.5t-27 32.5v2h220v-2q-25 -17 -37.5 -35t-20.5 -62l-67 -381q-14 -81 2.5 -129t68.5 -48q91 0 122 175l35 199q16 95 8 155t-42 126l1 2h159l-1 -2q-41 -58 -64.5 -120.5t-40.5 -160.5l-35 -199q-41 -233 -205 -233z M242 953q2 -43 22.5 -58.5t87.5 -15.5t91.5 15.5t42.5 58.5h2q-20 -98 -59.5 -139t-96.5 -41t-81.5 41t-10.5 139h2z" glyph-name="Ubreve" horiz-adv-x="464" unicode="Ŭ"/><glyph d="M96 -15q-43 0 -60 38t-4 107l55 279l-81 -39l-2 2l56 67q65 81 108 75.5t49 -105.5l-58 -300q-11 -50 13 -50q34 0 76 118t75 323h130l-80 -409l81 39l2 -2l-56 -67q-65 -81 -107 -75.5t-43 105.5l5 39h-2l-42 -57q-35 -47 -61 -67.5t-54 -20.5zM186 753 q2 -43 22.5 -58.5t87.5 -15.5t91.5 15.5t42.5 58.5h2q-20 -98 -59.5 -139t-96.5 -41t-81.5 41t-10.5 139h2z" glyph-name="ubreve" horiz-adv-x="460" unicode="ŭ"/><glyph d="M187 -15q-86 0 -126.5 63t-21.5 172l67 381q9 47 5 64.5t-27 32.5v2h220v-2q-25 -17 -37.5 -35t-20.5 -62l-67 -381q-14 -81 2.5 -129t68.5 -48q91 0 122 175l35 199q16 95 8 155t-42 126l1 2h159l-1 -2q-41 -58 -64.5 -120.5t-40.5 -160.5l-35 -199q-41 -233 -205 -233z M330 755q-58 0 -87 24.5t-29 65.5q0 56 43 93t112 37q57 0 85 -24t28 -64q0 -60 -43 -96t-109 -36zM332 768q19 0 32.5 18t19.5 45.5t8.5 48.5t2.5 37q0 45 -29 45q-19 0 -33 -18.5t-20.5 -45.5t-9.5 -49t-3 -37q0 -44 32 -44z" glyph-name="Uring" horiz-adv-x="464" unicode="Ů"/><glyph d="M96 -15q-43 0 -60 38t-4 107l55 279l-81 -39l-2 2l56 67q65 81 108 75.5t49 -105.5l-58 -300q-11 -50 13 -50q34 0 76 118t75 323h130l-80 -409l81 39l2 -2l-56 -67q-65 -81 -107 -75.5t-43 105.5l5 39h-2l-42 -57q-35 -47 -61 -67.5t-54 -20.5zM274 555q-58 0 -87 24.5 t-29 65.5q0 56 43 93t112 37q57 0 85 -24t28 -64q0 -60 -43 -96t-109 -36zM276 568q19 0 32.5 18t19.5 45.5t8.5 48.5t2.5 37q0 45 -29 45q-19 0 -33 -18.5t-20.5 -45.5t-9.5 -49t-3 -37q0 -44 32 -44z" glyph-name="uring" horiz-adv-x="460" unicode="ů"/><glyph d="M187 -15q-86 0 -126.5 63t-21.5 172l67 381q9 47 5 64.5t-27 32.5v2h220v-2q-25 -17 -37.5 -35t-20.5 -62l-67 -381q-14 -81 2.5 -129t68.5 -48q91 0 122 175l35 199q16 95 8 155t-42 126l1 2h159l-1 -2q-41 -58 -64.5 -120.5t-40.5 -160.5l-35 -199q-41 -233 -205 -233z M217 735l-2 2l45 209h145zM367 735l-2 2l45 209h145z" glyph-name="Uhungarumlaut" horiz-adv-x="464" unicode="Ű"/><glyph d="M96 -15q-43 0 -60 38t-4 107l55 279l-81 -39l-2 2l56 67q65 81 108 75.5t49 -105.5l-58 -300q-11 -50 13 -50q34 0 76 118t75 323h130l-80 -409l81 39l2 -2l-56 -67q-65 -81 -107 -75.5t-43 105.5l5 39h-2l-42 -57q-35 -47 -61 -67.5t-54 -20.5zM161 535l-2 2l45 209h145 zM311 535l-2 2l45 209h145z" glyph-name="uhungarumlaut" horiz-adv-x="460" unicode="ű"/><glyph d="M103 -210q-43 0 -36 44q5 28 32 73l51 81q-68 14 -98 75t-13 157l67 381q9 47 5 64.5t-27 32.5v2h220v-2q-25 -17 -37.5 -35t-20.5 -62l-67 -381q-14 -81 2.5 -129t68.5 -48q91 0 122 175l35 199q16 95 8 155t-42 126l1 2h159l-1 -2q-41 -58 -64.5 -120.5t-40.5 -160.5 l-35 -199q-37 -212 -177 -231q-80 -22 -88 -67q-4 -18 11 -29t44 -11q22 0 52 9l2 -2q-80 -97 -133 -97z" glyph-name="Uogonek" horiz-adv-x="464" unicode="Ų"/><glyph d="M96 -15q-43 0 -60 38t-4 107l55 279l-81 -39l-2 2l56 67q65 81 108 75.5t49 -105.5l-58 -300q-11 -50 13 -50q34 0 76 118t75 323h130l-80 -409l81 39l2 -2l-56 -67q-34 -41 -63 -61h2l-4 -1q-25 -16 -42 -13q-48 -20 -55 -56q-4 -18 11 -29t44 -11q22 0 52 9l2 -2 q-80 -97 -133 -97q-43 0 -36 44q5 28 32 73l56 88q-16 29 -16 86l5 39h-2l-42 -57q-35 -47 -61 -67.5t-54 -20.5z" glyph-name="uogonek" horiz-adv-x="460" unicode="ų"/><glyph d="M126 0l-32 700h191v-2q-24 -16 -31 -34.5t-6 -64.5l15 -452h2l94 278q29 84 25 173l-4 102h151l18 -553h2l91 270q31 92 30 155.5t-35 125.5v2h163v-2q-80 -111 -137 -282l-86 -256q-15 -45 -18.5 -66.5t-1.5 -56.5l2 -37h-147l-21 451h-2l-98 -291q-15 -46 -18.5 -66 t-1.5 -57l2 -37h-147zM310 735l196 240h2l110 -240h-2l-137 81l-167 -81h-2z" glyph-name="Wcircumflex" horiz-adv-x="736" unicode="Ŵ"/><glyph d="M126 -15q-48 0 -74 32.5t-26 89.5q0 72 41.5 142t109.5 121h-155l62 130h149q-71 -200 -71 -362q0 -105 30 -105q26 0 41 63t28 191l22 213h133q-34 -292 -34 -374q0 -93 28 -93q27 0 44 69.5t17 183.5q0 108 -19 212v2h152q-38 -256 -107.5 -385.5t-159.5 -129.5 q-81 0 -83 103h-2q-43 -103 -126 -103zM207 535l196 240h2l110 -240h-2l-137 81l-167 -81h-2z" glyph-name="wcircumflex" horiz-adv-x="586" unicode="ŵ"/><glyph d="M79 0v2q26 17 37.5 35.5t19.5 62.5l37 210l-89 390h197v-2q-23 -15 -26.5 -32.5t6.5 -64.5l46 -233h2l29 61q38 80 45 140.5t-17 128.5v2h171v-2q-98 -94 -183 -280l-36 -79l-42 -239q-8 -48 -4 -65.5t27 -32.5v-2h-220zM163 735l196 240h2l110 -240h-2l-137 81l-167 -81 h-2z" glyph-name="Ycircumflex" horiz-adv-x="463" unicode="Ŷ"/><glyph d="M-74 -215l29 167h2q63 -33 105 -33q37 0 71 40l-84 541h184v-2q-23 -15 -28.5 -33.5t-0.5 -64.5l31 -272h2q27 56 47 127q22 81 19 130t-30 113v2h139v-2q-34 -50 -56.5 -96t-29.5 -67t-25 -79q-49 -158 -116 -254q-55 -79 -127 -139.5t-132 -77.5zM74 535l196 240h2 l110 -240h-2l-137 81l-167 -81h-2z" glyph-name="ycircumflex" horiz-adv-x="373" unicode="ŷ"/><glyph d="M79 0v2q26 17 37.5 35.5t19.5 62.5l37 210l-89 390h197v-2q-23 -15 -26.5 -32.5t6.5 -64.5l46 -233h2l29 61q38 80 45 140.5t-17 128.5v2h171v-2q-98 -94 -183 -280l-36 -79l-42 -239q-8 -48 -4 -65.5t27 -32.5v-2h-220zM235 755q-1 47 -13 68t-50 31v2q41 9 61 30t37 69 h2q0 -47 12.5 -68t51.5 -31v-2q-42 -10 -62 -31t-37 -68h-2zM405 755q-1 47 -13 68t-50 31v2q41 9 61 30t37 69h2q0 -47 12.5 -68t51.5 -31v-2q-42 -10 -62 -31t-37 -68h-2z" glyph-name="Ydieresis" horiz-adv-x="463" unicode="Ÿ"/><glyph d="M-34 0l358 680h-13q-21 0 -37 -2.5t-34.5 -13.5t-30 -20t-35 -36t-38 -45.5t-50.5 -64.5h-2l35 202h368l-358 -680h25q34 0 62.5 17t77 75t129.5 177h2l-73 -289h-386zM271 735l-2 2l45 209h145z" glyph-name="Zacute" horiz-adv-x="418" unicode="Ź"/><glyph d="M-43 0l285 370h-210l62 130h278l-288 -370h223l-62 -130h-288zM184 535l-2 2l45 209h145z" glyph-name="zacute" horiz-adv-x="329" unicode="ź"/><glyph d="M-34 0l358 680h-13q-21 0 -37 -2.5t-34.5 -13.5t-30 -20t-35 -36t-38 -45.5t-50.5 -64.5h-2l35 202h368l-358 -680h25q34 0 62.5 17t77 75t129.5 177h2l-73 -289h-386zM300 735q-8 55 -27 78t-71 41v2q59 19 86 42t54 77h2q9 -54 28 -77.5t70 -41.5v-2 q-57 -17 -84.5 -40.5t-55.5 -78.5h-2z" glyph-name="Zdotaccent" horiz-adv-x="428" unicode="Ż"/><glyph d="M-43 0l285 370h-210l62 130h278l-288 -370h223l-62 -130h-288zM213 535q-8 55 -27 78t-71 41v2q59 19 86 42t54 77h2q9 -54 28 -77.5t70 -41.5v-2q-57 -17 -84.5 -40.5t-55.5 -78.5h-2z" glyph-name="zdotaccent" horiz-adv-x="329" unicode="ż"/><glyph d="M-34 0l358 680h-13q-21 0 -37 -2.5t-34.5 -13.5t-30 -20t-35 -36t-38 -45.5t-50.5 -64.5h-2l35 202h368l-358 -680h25q34 0 62.5 17t77 75t129.5 177h2l-73 -289h-386zM498 975l-196 -240h-2l-110 240h2l137 -81l167 81h2z" glyph-name="Zcaron" horiz-adv-x="428" unicode="Ž"/><glyph d="M-43 0l285 370h-210l62 130h278l-288 -370h223l-62 -130h-288zM411 775l-196 -240h-2l-110 240h2l137 -81l167 81h2z" glyph-name="zcaron" horiz-adv-x="329" unicode="ž"/><glyph d="M-30 0v2q26 17 37.5 35t19.5 62l48 272h-32l4 20h32l37 210q8 47 4 64.5t-27 32.5v2h187q231 0 231 -260q0 -99 -31.5 -184t-82.5 -139.5t-113.5 -85.5t-126.5 -31h-187zM154 20h6q75 0 142 140.5t67 354.5q0 165 -93 165h-7l-50 -289h92l-4 -20h-92z" glyph-name="uni0189" horiz-adv-x="530" unicode="Ɖ"/><glyph d="M194 -15q-54 0 -92 23t-55.5 60t-23 84.5t1 95.5t22.5 94h296q8 54 12 85t9 79t3 75.5t-8 56.5t-20.5 42.5t-37.5 13.5q-73 0 -66 -136l5 -106l-4 -3l-148 94q33 80 93.5 126t136.5 46q91 0 139.5 -69t48.5 -200q0 -198 -94 -329.5t-218 -131.5zM188 5q97 0 152 317h-150 q-21 -64 -33 -116t-15.5 -89t1 -62.5t16 -37.5t29.5 -12z" glyph-name="uni018F" horiz-adv-x="502" unicode="Ə"/><glyph d="M-62 -186q50 89 68 186l106 601q8 47 4 64.5t-27 32.5v2h399l-35 -202h-2q-51 117 -72 144q-35 37 -89 38h-25l-54 -309h9q33 0 64 28.5t77 100.5h2l-29 -276h-2q-32 70 -57.5 98.5t-57.5 28.5h-10l-38 -218q-14 -79 -54 -141.5t-128 -140.5l-57 -51z" glyph-name="uni0191" horiz-adv-x="429" unicode="Ƒ"/><glyph d="M-37 -15l28 159h2l39 -29q39 -29 56.5 -37t26.5 -1q15 11 13 55l-9 211h-93l3 15h90l-1 13q-3 82 38.5 162.5t108.5 131t135 50.5l-28 -159h-2l-40 29q-40 29 -56 37.5t-25 2.5q-16 -10 -14 -56l9 -211h93l-3 -15h-90l1 -14q3 -82 -38 -162.5t-108.5 -131t-135.5 -50.5z " glyph-name="florin" horiz-adv-x="328" unicode="ƒ"/><glyph d="M322 700v-2q-26 -17 -37.5 -35t-19.5 -62l-38 -212h41l-4 -20h-40l-48 -270q-8 -47 -4 -64.5t27 -32.5v-2h-220v2q26 17 37.5 35t19.5 62l48 270h-40l4 20h39l38 212q8 47 4 64.5t-27 32.5v2h220z" glyph-name="uni0197" horiz-adv-x="266" unicode="Ɨ"/><glyph d="M206 -15q-82 0 -129.5 68t-47.5 182q0 199 91 339.5t222 140.5q88 0 134 -66.5t46 -182.5q0 -131 -41 -241.5t-113.5 -175t-161.5 -64.5zM212 5q47 0 87.5 108.5t65.5 257.5h-172q-30 -156 -30 -252q0 -114 49 -114zM197 391h171q19 119 19 190q0 114 -47 114 q-42 0 -79 -87t-64 -217z" glyph-name="uni019F" horiz-adv-x="516" unicode="Ɵ"/><glyph d="M177 -15q-77 0 -125.5 43.5t-56.5 135.5l192 86l2 -2l-39 -98q-26 -72 -15 -108t49 -36q35 0 56.5 28.5t21.5 79.5q0 72 -46 136l-83 114q-56 77 -56 150q0 89 56 145t144 56q79 0 120.5 -45.5t45.5 -121.5l-157 -68l-2 2l30 96q16 55 3 85.5t-49 30.5q-35 0 -54 -26.5 t-19 -70.5q0 -57 48 -121l93 -126q58 -78 58 -156q0 -91 -61 -150t-156 -59zM61 -275l-2 2l63 135h-57v2l92 101q37 0 58.5 -21t16.5 -53q-13 -70 -171 -166z" glyph-name="uni0218" horiz-adv-x="417" unicode="Ș"/><glyph d="M144 -15q-68 0 -108 37t-48 104l135 65l2 -2l-21 -105q-8 -40 3.5 -61t35.5 -21q52 0 52 78q0 53 -43 100l-48 54q-52 58 -54 121q-3 69 42 114.5t121 45.5q69 0 106 -42t35 -104l-119 -52l-2 2l18 87q9 45 -3 69.5t-39 24.5q-25 0 -39.5 -20t-14.5 -48q0 -47 43 -95 l65 -75q56 -65 56 -125q0 -68 -49.5 -110t-125.5 -42zM32 -275l-2 2l63 135h-57v2l92 101q37 0 58.5 -21t16.5 -53q-13 -70 -171 -166z" glyph-name="uni0219" horiz-adv-x="352" unicode="ș"/><glyph d="M499 700l-23 -232h-2q-44 135 -61.5 173.5t-40.5 38.5h-3l-102 -581q-8 -47 -4 -64.5t27 -32.5v-2h-220v2q26 17 37.5 35t19.5 62l102 581h-1q-23 0 -55 -38.5t-123 -173.5h-2l59 232h392zM71 -275l-2 2l63 135h-57v2l92 101q37 0 58.5 -21t16.5 -53q-13 -70 -171 -166z " glyph-name="uni021A" horiz-adv-x="448" unicode="Ț"/><glyph d="M184 39q-32 -39 -67 -51.5t-62.5 13t-31.5 90.5l74 394h-49l2 15h49l154 138h2l-26 -138h86l-2 -15h-87l-76 -406l106 51l2 -2zM2 -275l-2 2l63 135h-57v2l92 101q37 0 58.5 -21t16.5 -53q-13 -70 -171 -166z" glyph-name="uni021B" horiz-adv-x="290" unicode="ț"/><glyph d="M88 409l-80 -39l-2 2l56 67q65 81 108 75.5t48 -105.5l-55 -286q-14 -73 -52.5 -133.5t-125.5 -139.5l-55 -50l-2 2l9 13q50 71 72 185z" glyph-name="uni0237" horiz-adv-x="236" unicode="ȷ"/><glyph d="M129 -65l-16 6l19 59q-48 23 -75.5 82t-27.5 147q0 220 93.5 353t230.5 133h12l16 50l17 -6l-15 -46q61 -9 93 -54t29 -116l-175 -75l-3 3l38 87q41 95 9 126l-178 -543q21 -54 72 -54q59 0 178 116l3 -2q-33 -52 -55 -82.5t-54.5 -65.5t-67.5 -51.5t-74 -16.5 q-26 0 -50 8zM183 242q0 -37 5 -70l170 521q-3 1 -8 1q-43 0 -81.5 -63.5t-62 -168.5t-23.5 -220z" glyph-name="uni023B" horiz-adv-x="468" unicode="Ȼ"/><glyph d="M90 -58l-18 5l18 48q-77 37 -77 170q0 54 12.5 111t38.5 112.5t74.5 91t111.5 35.5q18 0 34 -3l17 46l18 -5l-17 -46q83 -28 80 -139l-140 -68l-2 2l32 99q10 33 12 58l-124 -331q12 -52 51 -52q17 0 30 4t42.5 26.5t69.5 65.5l2 -2q-67 -107 -115.5 -146t-103.5 -39 q-17 0 -29 4zM155 181v-12l121 323q-6 8 -19 8q-31 0 -55.5 -65.5t-35.5 -137t-11 -116.5z" glyph-name="uni023C" horiz-adv-x="381" unicode="ȼ"/><glyph d="M151 -15q-56 0 -91 32.5t-42.5 99.5t25.5 169h228q15 99 15 150q0 64 -37 64q-48 0 -51 -100l-2 -94l-3 -2l-126 79q25 60 75.5 96t115.5 36q74 0 112.5 -48.5t38.5 -138.5q0 -135 -76.5 -239t-181.5 -104zM139 115q-28 -115 14 -115q71 0 116 271h-93z" glyph-name="uni0259" horiz-adv-x="422" unicode="ə"/><glyph d="M197 61q-65 -81 -108 -75.5t-49 105.5l36 180h-62l2 15h63l24 123l-81 -39l-2 2l56 67q65 81 108 75.5t49 -105.5l-24 -123h57l-2 -15h-58l-36 -180l81 39l2 -2zM184 535q-8 55 -27 78t-71 41v2q59 19 86 42t54 77h2q9 -54 28 -77.5t70 -41.5v-2q-57 -17 -84.5 -40.5 t-55.5 -78.5h-2z" glyph-name="uni0268" horiz-adv-x="271" unicode="ɨ"/><glyph d="M165 -15q-71 0 -111 51t-40 139q0 152 75.5 246t169.5 94q71 0 110.5 -50t39.5 -138q0 -151 -75.5 -246.5t-168.5 -95.5zM169 0q28 0 53 80t43 191h-101q-24 -133 -24 -198q0 -73 29 -73zM167 286h100q15 94 15 145q0 69 -26 69q-47 0 -89 -214z" glyph-name="uni0275" horiz-adv-x="423" unicode="ɵ"/><glyph d="M137 -200l32 185q-71 2 -114 51t-43 129q0 142 73.5 244.5t177.5 105.5l32 185h130l-32 -185q71 -2 113 -51t42 -129q0 -142 -72.5 -243.5t-175.5 -106.5l-33 -185h-130zM133 95q0 -91 39 -95l88 500q-39 -6 -70 -93t-44 -174.5t-13 -137.5zM302 1q38 8 68.5 94.5 t43.5 173.5t13 136q0 88 -37 94z" glyph-name="uni0278" horiz-adv-x="560" unicode="ɸ"/><glyph d="M60 535l196 240h2l110 -240h-2l-137 81l-167 -81h-2z" glyph-name="circumflex" horiz-adv-x="328" unicode="ˆ"/><glyph d="M411 775l-196 -240h-2l-110 240h2l137 -81l167 81h2z" glyph-name="caron" horiz-adv-x="328" unicode="ˇ"/><glyph d="M139 753q2 -43 22.5 -58.5t87.5 -15.5t91.5 15.5t42.5 58.5h2q-20 -98 -59.5 -139t-96.5 -41t-81.5 41t-10.5 139h2z" glyph-name="breve" horiz-adv-x="344" unicode="˘"/><glyph d="M180 535q-8 55 -27 78t-71 41v2q59 19 86 42t54 77h2q9 -54 28 -77.5t70 -41.5v-2q-57 -17 -84.5 -40.5t-55.5 -78.5h-2z" glyph-name="dotaccent" horiz-adv-x="262" unicode="˙"/><glyph d="M218 555q-58 0 -87 24.5t-29 65.5q0 56 43 93t112 37q57 0 85 -24t28 -64q0 -60 -43 -96t-109 -36zM220 568q19 0 32.5 18t19.5 45.5t8.5 48.5t2.5 37q0 45 -29 45q-19 0 -33 -18.5t-20.5 -45.5t-9.5 -49t-3 -37q0 -44 32 -44z" glyph-name="ring" horiz-adv-x="326" unicode="˚"/><glyph d="M-6 -200q-43 0 -36 44q5 28 32 73l58 92l71 -9q-93 -22 -101 -70q-4 -18 11 -29t44 -11q22 0 52 9l2 -2q-80 -97 -133 -97z" glyph-name="ogonek" horiz-adv-x="205" unicode="˛"/><glyph d="M95 577q27 159 118 159q31 0 73 -28.5t61 -28.5q22 0 38 13t34 44h2q-29 -159 -118 -159q-31 0 -72 28.5t-61 28.5q-24 0 -39.5 -13t-33.5 -44h-2z" glyph-name="tilde" horiz-adv-x="372" unicode="˜"/><glyph d="M223 535l-114 211h140l-24 -209z" glyph-name="gravecomb" unicode="̀"/><glyph d="M80 535l-2 2l45 209h145z" glyph-name="acutecomb" unicode="́"/><glyph d="M60 535l196 240h2l110 -240h-2l-137 81l-167 -81h-2z" glyph-name="uni0302" unicode="̂"/><glyph d="M95 577q27 159 118 159q31 0 73 -28.5t61 -28.5q22 0 38 13t34 44h2q-29 -159 -118 -159q-31 0 -72 28.5t-61 28.5q-24 0 -39.5 -13t-33.5 -44h-2z" glyph-name="tildecomb" unicode="̃"/><glyph d="M121 651l2 15h308l-2 -15h-308z" glyph-name="uni0304" unicode="̄"/><glyph d="M139 753q2 -43 22.5 -58.5t87.5 -15.5t91.5 15.5t42.5 58.5h2q-20 -98 -59.5 -139t-96.5 -41t-81.5 41t-10.5 139h2z" glyph-name="uni0306" unicode="̆"/><glyph d="M180 535q-8 55 -27 78t-71 41v2q59 19 86 42t54 77h2q9 -54 28 -77.5t70 -41.5v-2q-57 -17 -84.5 -40.5t-55.5 -78.5h-2z" glyph-name="uni0307" unicode="̇"/><glyph d="M148 555q-1 47 -13 68t-50 31v2q41 9 61 30t37 69h2q0 -47 12.5 -68t51.5 -31v-2q-42 -10 -62 -31t-37 -68h-2zM318 555q-1 47 -13 68t-50 31v2q41 9 61 30t37 69h2q0 -47 12.5 -68t51.5 -31v-2q-42 -10 -62 -31t-37 -68h-2z" glyph-name="uni0308" unicode="̈"/><glyph d="M218 555q-58 0 -87 24.5t-29 65.5q0 56 43 93t112 37q57 0 85 -24t28 -64q0 -60 -43 -96t-109 -36zM220 568q19 0 32.5 18t19.5 45.5t8.5 48.5t2.5 37q0 45 -29 45q-19 0 -33 -18.5t-20.5 -45.5t-9.5 -49t-3 -37q0 -44 32 -44z" glyph-name="uni030A" unicode="̊"/><glyph d="M82 535l-2 2l45 209h145zM232 535l-2 2l45 209h145z" glyph-name="uni030B" unicode="̋"/><glyph d="M411 775l-196 -240h-2l-110 240h2l137 -81l167 81h2z" glyph-name="uni030C" unicode="̌"/><glyph d="M274 775l2 -2l-63 -135h57v-2l-92 -101q-37 0 -58.5 21t-16.5 53q13 70 171 166z" glyph-name="uni0312" unicode="̒"/><glyph d="M38 -275q-8 55 -27 78t-71 41v2q58 18 85 41.5t55 77.5h2q8 -54 27.5 -77.5t70.5 -41.5v-2q-57 -17 -84.5 -40.5t-55.5 -78.5h-2z" glyph-name="dotbelowcomb" unicode="̣"/><glyph d="M-32 -275l-2 2l63 135h-57v2l92 101q37 0 58.5 -21t16.5 -53q-13 -70 -171 -166z" glyph-name="uni0326" unicode="̦"/><glyph d="M-63 -213q66 70 86 95t20 37q0 10 -10 10t-57 -30h-2l53 121h21l-34 -75l49 3q35 2 49 -4.5t14 -23.5q0 -61 -187 -135z" glyph-name="uni0327" unicode="̧"/><glyph d="M-6 -200q-43 0 -36 44q5 28 32 73l58 92l71 -9q-93 -22 -101 -70q-4 -18 11 -29t44 -11q22 0 52 9l2 -2q-80 -97 -133 -97z" glyph-name="uni0328" unicode="̨"/><glyph d="M143 275q-8 55 -27 78t-71 41v2q58 18 85 41.5t55 77.5h2q8 -54 27.5 -77.5t70.5 -41.5v-2q-57 -17 -84.5 -40.5t-55.5 -78.5h-2zM-21 -200l-2 2l78 198h-60v2l125 138q85 -28 73 -96q-7 -39 -49.5 -88t-164.5 -156z" glyph-name="uni037E" horiz-adv-x="278" unicode=";"/><glyph d="M-24 -200l50 286q2 20 6 44l55 279l-81 -39l-2 2l56 67q65 81 108 75.5t49 -105.5l-58 -300q-11 -50 13 -50q34 0 76 118t75 323h130l-80 -409l81 39l2 -2l-56 -67q-65 -81 -107 -75.5t-43 105.5l5 39h-2l-42 -57q-41 -56 -70 -74l-35 -199h-130z" glyph-name="uni03BC" horiz-adv-x="460" unicode="μ"/><glyph d="M181 -15q-68 0 -109.5 64t-41.5 170q0 221 92.5 358.5t218.5 137.5q83 0 123.5 -45.5t37.5 -126.5l-176 -75l-3 3l39 87q20 46 24.5 77.5t-5 45t-27.5 13.5q-40 0 -82.5 -78.5t-71 -200t-28.5 -237.5q0 -78 17 -115t43 -37q51 0 66 82l37 213h-80l3 20h211l-62 -356h-2 l-102 76q-39 -76 -122 -76zM227 851l2 15h308l-2 -15h-308z" glyph-name="uni1E20" horiz-adv-x="494" unicode="Ḡ"/><glyph d="M-37 -215l32 173h2l76 -77q31 -31 51 -35t31 13.5t21 60.5q25 104 46 222h-2l-60 -93q-42 -64 -84 -64q-33 0 -52.5 31t-18.5 95q2 105 33 197t86.5 149.5t122.5 57.5q40 0 70.5 -9t66.5 -38l33 32h4l-54 -280q-83 -435 -404 -435zM167 105q60 0 124 388q-8 4 -20 4 q-45 0 -86.5 -119.5t-43.5 -220.5q-1 -52 26 -52zM129 651l2 15h308l-2 -15h-308z" glyph-name="uni1E21" horiz-adv-x="411" unicode="ḡ"/><glyph d="M126 0l-32 700h191v-2q-24 -16 -31 -34.5t-6 -64.5l15 -452h2l94 278q29 84 25 173l-4 102h151l18 -553h2l91 270q31 92 30 155.5t-35 125.5v2h163v-2q-80 -111 -137 -282l-86 -256q-15 -45 -18.5 -66.5t-1.5 -56.5l2 -37h-147l-21 451h-2l-98 -291q-15 -46 -18.5 -66 t-1.5 -57l2 -37h-147zM495 735l-114 211h140l-24 -209z" glyph-name="Wgrave" horiz-adv-x="736" unicode="Ẁ"/><glyph d="M126 -15q-48 0 -74 32.5t-26 89.5q0 72 41.5 142t109.5 121h-155l62 130h149q-71 -200 -71 -362q0 -105 30 -105q26 0 41 63t28 191l22 213h133q-34 -292 -34 -374q0 -93 28 -93q27 0 44 69.5t17 183.5q0 108 -19 212v2h152q-38 -256 -107.5 -385.5t-159.5 -129.5 q-81 0 -83 103h-2q-43 -103 -126 -103zM392 535l-114 211h140l-24 -209z" glyph-name="wgrave" horiz-adv-x="586" unicode="ẁ"/><glyph d="M126 0l-32 700h191v-2q-24 -16 -31 -34.5t-6 -64.5l15 -452h2l94 278q29 84 25 173l-4 102h151l18 -553h2l91 270q31 92 30 155.5t-35 125.5v2h163v-2q-80 -111 -137 -282l-86 -256q-15 -45 -18.5 -66.5t-1.5 -56.5l2 -37h-147l-21 451h-2l-98 -291q-15 -46 -18.5 -66 t-1.5 -57l2 -37h-147zM434 735l-2 2l45 209h145z" glyph-name="Wacute" horiz-adv-x="736" unicode="Ẃ"/><glyph d="M126 -15q-48 0 -74 32.5t-26 89.5q0 72 41.5 142t109.5 121h-155l62 130h149q-71 -200 -71 -362q0 -105 30 -105q26 0 41 63t28 191l22 213h133q-34 -292 -34 -374q0 -93 28 -93q27 0 44 69.5t17 183.5q0 108 -19 212v2h152q-38 -256 -107.5 -385.5t-159.5 -129.5 q-81 0 -83 103h-2q-43 -103 -126 -103zM331 535l-2 2l45 209h145z" glyph-name="wacute" horiz-adv-x="586" unicode="ẃ"/><glyph d="M126 0l-32 700h191v-2q-24 -16 -31 -34.5t-6 -64.5l15 -452h2l94 278q29 84 25 173l-4 102h151l18 -553h2l91 270q31 92 30 155.5t-35 125.5v2h163v-2q-80 -111 -137 -282l-86 -256q-15 -45 -18.5 -66.5t-1.5 -56.5l2 -37h-147l-21 451h-2l-98 -291q-15 -46 -18.5 -66 t-1.5 -57l2 -37h-147zM382 755q-1 47 -13 68t-50 31v2q41 9 61 30t37 69h2q0 -47 12.5 -68t51.5 -31v-2q-42 -10 -62 -31t-37 -68h-2zM552 755q-1 47 -13 68t-50 31v2q41 9 61 30t37 69h2q0 -47 12.5 -68t51.5 -31v-2q-42 -10 -62 -31t-37 -68h-2z" glyph-name="Wdieresis" horiz-adv-x="736" unicode="Ẅ"/><glyph d="M126 -15q-48 0 -74 32.5t-26 89.5q0 72 41.5 142t109.5 121h-155l62 130h149q-71 -200 -71 -362q0 -105 30 -105q26 0 41 63t28 191l22 213h133q-34 -292 -34 -374q0 -93 28 -93q27 0 44 69.5t17 183.5q0 108 -19 212v2h152q-38 -256 -107.5 -385.5t-159.5 -129.5 q-81 0 -83 103h-2q-43 -103 -126 -103zM279 555q-1 47 -13 68t-50 31v2q41 9 61 30t37 69h2q0 -47 12.5 -68t51.5 -31v-2q-42 -10 -62 -31t-37 -68h-2zM449 555q-1 47 -13 68t-50 31v2q41 9 61 30t37 69h2q0 -47 12.5 -68t51.5 -31v-2q-42 -10 -62 -31t-37 -68h-2z" glyph-name="wdieresis" horiz-adv-x="586" unicode="ẅ"/><glyph d="M167 -200l-3 2l36 51q40 56 69.5 132t29.5 155q0 43 -10 101l-14 81q-10 62 -3 110.5t33 109.5l58 138h-98l-102 -581q-8 -47 -4 -64.5t27 -32.5v-2h-220v2q26 17 37.5 35t19.5 62l89 502q8 47 4 64.5t-27 32.5v2h449v-2l-164 -180q-42 -46 -17 -100l45 -101 q39 -89 39 -143q0 -157 -173 -294z" glyph-name="uni1E9E" horiz-adv-x="474" unicode="ẞ"/><glyph d="M-34 0v2q26 17 37.5 35t19.5 62l89 502q8 47 4 64.5t-27 32.5v2h399l-35 -202h-2q-51 117 -72 144q-35 37 -89 38h-25l-50 -289h9q32 0 63 28.5t78 100.5h2l-29 -276h-2q-33 71 -58.5 99t-57.5 28h-9l-61 -351h19q32 0 57.5 14t70 63t121.5 152h2l-63 -249h-391zM177 777 q27 159 118 159q31 0 73 -28.5t61 -28.5q22 0 38 13t34 44h2q-29 -159 -118 -159q-31 0 -72 28.5t-61 28.5q-24 0 -39.5 -13t-33.5 -44h-2z" glyph-name="uni1EBC" horiz-adv-x="440" unicode="Ẽ"/><glyph d="M136 -15q-56 0 -89.5 48.5t-33.5 131.5q0 42 7.5 87t25.5 92.5t44.5 85t69.5 61.5t96 24q62 0 96.5 -28t34.5 -75q0 -32 -13.5 -59t-49 -56t-69 -50t-100.5 -59q0 -112 56 -112q17 0 30 4t42.5 26.5t69.5 65.5l2 -2q-67 -107 -115.5 -146t-103.5 -39zM108 577 q27 159 118 159q32 0 73 -28.5t61 -28.5q22 0 38 13t34 44h2q-29 -159 -118 -159q-32 0 -73 28.5t-60 28.5q-24 0 -39.5 -13t-33.5 -44h-2zM156 220q23 -12 51.5 23.5t47.5 95t19 111.5q0 50 -21 50q-35 0 -63 -94.5t-34 -185.5z" glyph-name="uni1EBD" horiz-adv-x="379" unicode="ẽ"/><glyph d="M79 0v2q26 17 37.5 35.5t19.5 62.5l37 210l-89 390h197v-2q-23 -15 -26.5 -32.5t6.5 -64.5l46 -233h2l29 61q38 80 45 140.5t-17 128.5v2h171v-2q-98 -94 -183 -280l-36 -79l-42 -239q-8 -48 -4 -65.5t27 -32.5v-2h-220zM348 735l-114 211h140l-24 -209z" glyph-name="Ygrave" horiz-adv-x="463" unicode="Ỳ"/><glyph d="M-74 -215l29 167h2q63 -33 105 -33q37 0 71 40l-84 541h184v-2q-23 -15 -28.5 -33.5t-0.5 -64.5l31 -272h2q27 56 47 127q22 81 19 130t-30 113v2h139v-2q-34 -50 -56.5 -96t-29.5 -67t-25 -79q-49 -158 -116 -254q-55 -79 -127 -139.5t-132 -77.5zM259 535l-114 211h140 l-24 -209z" glyph-name="ygrave" horiz-adv-x="373" unicode="ỳ"/><glyph d="M79 0v2q26 17 37.5 35.5t19.5 62.5l37 210l-89 390h197v-2q-23 -15 -26.5 -32.5t6.5 -64.5l46 -233h2l29 61q38 80 45 140.5t-17 128.5v2h171v-2q-98 -94 -183 -280l-36 -79l-42 -239q-8 -48 -4 -65.5t27 -32.5v-2h-220zM176 777q27 159 118 159q32 0 73.5 -28.5 t60.5 -28.5q22 0 38 13t34 44h2q-29 -159 -118 -159q-32 0 -73 28.5t-60 28.5q-24 0 -39.5 -13t-33.5 -44h-2z" glyph-name="uni1EF8" horiz-adv-x="463" unicode="Ỹ"/><glyph d="M-74 -215l29 167h2q63 -33 105 -33q37 0 71 40l-84 541h184v-2q-23 -15 -28.5 -33.5t-0.5 -64.5l31 -272h2q27 56 47 127q22 81 19 130t-30 113v2h139v-2q-34 -50 -56.5 -96t-29.5 -67t-25 -79q-49 -158 -116 -254q-55 -79 -127 -139.5t-132 -77.5zM87 577 q27 159 118 159q31 0 73 -28.5t61 -28.5q22 0 38 13t34 44h2q-29 -159 -118 -159q-31 0 -72 28.5t-61 28.5q-24 0 -39.5 -13t-33.5 -44h-2z" glyph-name="uni1EF9" horiz-adv-x="373" unicode="ỹ"/><glyph glyph-name="uni2000" horiz-adv-x="500" unicode=" "/><glyph glyph-name="uni2001" horiz-adv-x="1000" unicode=" "/><glyph glyph-name="uni2002" horiz-adv-x="500" unicode=" "/><glyph glyph-name="uni2003" horiz-adv-x="1000" unicode=" "/><glyph glyph-name="uni2004" horiz-adv-x="333" unicode=" "/><glyph glyph-name="uni2005" horiz-adv-x="250" unicode=" "/><glyph glyph-name="uni2006" horiz-adv-x="166" unicode=" "/><glyph glyph-name="uni2007" horiz-adv-x="447" unicode=" "/><glyph glyph-name="uni2008" horiz-adv-x="280" unicode=" "/><glyph glyph-name="uni2009" horiz-adv-x="125" unicode=" "/><glyph glyph-name="uni200A" horiz-adv-x="70" unicode=" "/><glyph glyph-name="uni200B" unicode="​"/><glyph d="M33 267l9 25h507l-9 -25h-507z" glyph-name="endash" horiz-adv-x="572" unicode="–"/><glyph d="M33 267l9 25h897l-9 -25h-897z" glyph-name="emdash" horiz-adv-x="962" unicode="—"/><glyph d="M282 700l2 -2l-78 -198h60v-2l-125 -138q-85 28 -73 96q7 39 49.5 88t164.5 156z" glyph-name="quoteleft" horiz-adv-x="247" unicode="‘"/><glyph d="M66 375l-2 2l78 198h-60v2l125 138q85 -28 73 -96q-7 -39 -49.5 -88t-164.5 -156z" glyph-name="quoteright" horiz-adv-x="252" unicode="’"/><glyph d="M-35 -200l-2 2l78 198h-60v2l125 138q85 -28 73 -96q-7 -39 -49.5 -88t-164.5 -156z" glyph-name="quotesinglbase" horiz-adv-x="247" unicode="‚"/><glyph d="M230 375q-85 107 -110 156.5t-18 87.5q12 68 107 96l75 -138v-2h-60l8 -198z" glyph-name="quotereversed" horiz-adv-x="252" unicode="‛"/><glyph d="M492 700l2 -2l-78 -198h60v-2l-125 -138q-85 28 -73 96q7 39 49.5 88t164.5 156zM282 700l2 -2l-78 -198h60v-2l-125 -138q-85 28 -73 96q7 39 49.5 88t164.5 156z" glyph-name="quotedblleft" horiz-adv-x="457" unicode="“"/><glyph d="M66 375l-2 2l78 198h-60v2l125 138q85 -28 73 -96q-7 -39 -49.5 -88t-164.5 -156zM276 375l-2 2l78 198h-60v2l125 138q85 -28 73 -96q-7 -39 -49.5 -88t-164.5 -156z" glyph-name="quotedblright" horiz-adv-x="457" unicode="”"/><glyph d="M-35 -200l-2 2l78 198h-60v2l125 138q85 -28 73 -96q-7 -39 -49.5 -88t-164.5 -156zM175 -200l-2 2l78 198h-60v2l125 138q85 -28 73 -96q-7 -39 -49.5 -88t-164.5 -156z" glyph-name="quotedblbase" horiz-adv-x="457" unicode="„"/><glyph d="M208 659q3 16 -12 16h-91l9 25h82q21 0 23 18l1 10q1 11 -8.5 27t-9.5 26q0 21 16 21q7 0 14 -5q8 18 21 18q12 0 14 -18q7 5 14 5q11 0 11 -11q0 -14 -18.5 -32.5t-19.5 -30.5l-1 -10q-2 -18 15 -18h86l-9 -25h-83q-17 0 -20 -16l-85 -485l-35 -3z" glyph-name="dagger" horiz-adv-x="305" unicode="†"/><glyph d="M180 499q3 16 -12 16h-91l9 25h82q19 0 23 18l17 101q3 16 -12 16h-91l10 25h81q19 0 23 18l2 10q2 10 -8.5 26.5t-10.5 26.5q0 21 17 21q6 0 13 -5q8 18 21 18q12 0 14 -18q7 5 15 5q10 0 10 -11q0 -14 -17.5 -32.5t-19.5 -30.5l-2 -10q-4 -18 15 -18h87l-10 -25h-83 q-17 0 -20 -16l-17 -101q-2 -11 2 -14.5t13 -3.5h86l-9 -25h-83q-17 0 -20 -16l-57 -325l-35 -3z" glyph-name="daggerdbl" horiz-adv-x="306" unicode="‡"/><glyph d="M21 259q94 30 138 67.5t88 124.5h2q15 -88 45.5 -125.5t112.5 -66.5v-2q-93 -30 -136.5 -67t-89.5 -125h-2q-13 88 -44 125.5t-114 66.5v2z" glyph-name="bullet" horiz-adv-x="426" unicode="•"/><glyph d="M74 -120q-8 55 -27 78t-71 41v2q58 18 85 41.5t55 77.5h2q8 -54 27.5 -77.5t70.5 -41.5v-2q-57 -17 -84.5 -40.5t-55.5 -78.5h-2zM324 -120q-8 55 -27 78t-71 41v2q58 18 85 41.5t55 77.5h2q8 -54 27.5 -77.5t70.5 -41.5v-2q-57 -17 -84.5 -40.5t-55.5 -78.5h-2z M574 -120q-8 55 -27 78t-71 41v2q58 18 85 41.5t55 77.5h2q8 -54 27.5 -77.5t70.5 -41.5v-2q-57 -17 -84.5 -40.5t-55.5 -78.5h-2z" glyph-name="ellipsis" horiz-adv-x="786" unicode="…"/><glyph glyph-name="uni202F" horiz-adv-x="32" unicode=" "/><glyph d="M648 -15q-48 0 -76 35.5t-28 98.5q0 108 53.5 176.5t117.5 68.5q47 0 74.5 -35.5t27.5 -97.5q0 -108 -53 -177t-116 -69zM347 -15q-48 0 -76 35.5t-28 98.5q0 108 53.5 176.5t117.5 68.5q47 0 74.5 -35.5t27.5 -97.5q0 -108 -53 -177t-116 -69zM349 5q36 0 62 102.5 t26 173.5q0 63 -28 63q-37 0 -62.5 -108.5t-25.5 -169.5t28 -61zM51 0l445 700h21l-445 -700h-21zM158 336q-48 0 -76 35.5t-28 98.5q0 108 53.5 176.5t117.5 68.5q47 0 74 -35.5t27 -97.5q0 -108 -52.5 -177t-115.5 -69zM161 356q36 0 61 105t25 172q0 62 -26 62 q-39 0 -64 -110t-25 -167q0 -62 29 -62zM650 5q36 0 62 102.5t26 173.5q0 63 -28 63q-37 0 -62.5 -108.5t-25.5 -169.5t28 -61z" glyph-name="perthousand" horiz-adv-x="836" unicode="‰"/><glyph d="M236 61l-208 226v2l288 226l2 -2l-133 -225l53 -225z" glyph-name="guilsinglleft" horiz-adv-x="296" unicode="‹"/><glyph d="M74 515l208 -226v-2l-288 -226l-2 2l133 225l-53 225z" glyph-name="guilsinglright" horiz-adv-x="296" unicode="›"/><glyph d="M-164 0l445 700h21l-445 -700h-21z" glyph-name="fraction" horiz-adv-x="103" unicode="⁄"/><glyph d="M165 34q-23 15 -20 37.5t28 47.5l214 218l-249 -176q-27 -21 -50 -19.5t-33 26.5q-11 24 3 44.5t47 32.5l278 100l-283 -43q-33 -5 -50 7t-12 41t26.5 41t52.5 7l267 -43l-242 100q-28 12 -35 32t12 46q18 24 42 25.5t44 -19.5l185 -173l-136 215q-16 24 -11 47.5 t32 37.5q29 14 47.5 3.5t24.5 -40.5l54 -260l5 275q1 32 16.5 51.5t44.5 19.5t38 -19.5t-3 -51.5l-90 -274l145 259q17 30 39 40.5t45 -3.5q22 -15 19 -38t-28 -47l-214 -218l249 176q28 21 51 19.5t33 -25.5q10 -25 -4.5 -45.5t-46.5 -32.5l-278 -100l283 43q33 5 50.5 -7 t12.5 -41t-26.5 -41t-53.5 -7l-267 43l242 -100q28 -12 35 -32t-11 -45t-42 -26.5t-45 19.5l-185 173l136 -215q16 -24 10.5 -47.5t-32.5 -37.5q-28 -14 -46 -3.5t-25 40.5l-53 256l-6 -271q-1 -32 -16.5 -51.5t-44.5 -19.5t-38 19.5t3 51.5l93 278l-148 -263 q-16 -30 -38.5 -40.5t-44.5 3.5z" glyph-name="uni2055" horiz-adv-x="770" unicode="⁕"/><glyph glyph-name="uni205F" horiz-adv-x="222" unicode=" "/><glyph d="M25 393l4 20h60q35 141 117 221.5t186 80.5q75 0 115 -46t37 -126l-175 -75l-3 3l38 87q20 45 21.5 77t-9 45.5t-27.5 13.5q-48 0 -90 -79.5t-63 -201.5h199l-4 -20h-198q-6 -43 -9 -90h191l-3 -20h-189q-1 -14 -1 -41q0 -155 85 -155q59 0 178 116l3 -2 q-33 -52 -55 -82.5t-54.5 -65.5t-67.5 -51.5t-74 -16.5q-77 0 -123 64t-46 180q0 18 2 54h-64l3 20h62q5 52 13 90h-59z" glyph-name="Euro" horiz-adv-x="507" unicode="€"/><glyph d="M359 -15l-221 574h-2l-49 -276q-16 -93 -6.5 -154.5t49.5 -126.5v-2h-169v2q41 58 65 120.5t41 160.5l45 255q12 60 -9 113l-19 47v2h152l158 -405h2l22 122q16 93 8.5 155t-42.5 126v2h159v-2q-41 -58 -64.5 -121t-40.5 -160l-77 -432h-2zM636 304q-50 0 -78 37t-28 104 q0 113 51 188t123 75q50 0 78 -37t28 -103q0 -113 -51 -188.5t-123 -75.5zM640 316q33 0 57 107.5t24 209.5q0 63 -22 63q-32 0 -56.5 -105.5t-24.5 -207.5q0 -67 22 -67zM481 207l9 25h267l-9 -25h-267z" glyph-name="uni2116" horiz-adv-x="780" unicode="№"/><glyph d="M293 385q29 48 48 126l28 112q7 29 1 55l-5 21v1h76l41 -176l65 117q10 19 13 42l2 17h107v-2q-20 -13 -28 -27.5t-11 -50.5l-22 -237h-106v2q20 13 28 27.5t12 50.5l15 168l-121 -218h-1l-51 216h-1l-28 -118q-11 -42 -7 -70.5t23 -55.5v-2h-78v2zM92 383v2 q21 14 30.5 28.5t15.5 49.5l39 218q-16 0 -34 -17t-62 -79h-2l29 115h220l-12 -115h-2q-22 61 -34 78.5t-28 17.5l-39 -218q-7 -38 -3.5 -52t21.5 -26v-2h-139z" glyph-name="trademark" horiz-adv-x="630" unicode="™"/><glyph d="M101 561q3 19 -3 19q-5 1 -31 -12l-1 2l135 138h1l-56 -324h-74zM-22 0l445 700h21l-445 -700h-21zM261 -7q-43 0 -67 21t-24 58q0 46 32.5 74t78.5 34v1q-67 4 -67 59q0 39 32 61.5t77 22.5q37 0 59 -16.5t22 -46.5q0 -35 -28 -56.5t-64 -23.5v-1q76 -12 76 -76 q0 -50 -37 -80.5t-90 -30.5zM263 5q20 0 35.5 39.5t15.5 84.5q0 42 -20 42q-25 0 -38 -47.5t-13 -82.5q0 -36 20 -36zM297 189q18 0 29 31t11 61q0 31 -17 31q-18 0 -28.5 -31t-10.5 -60q0 -32 16 -32z" glyph-name="oneeighth" horiz-adv-x="426" unicode="⅛"/><glyph d="M36 378q63 10 107 45t44 80q0 29 -15.5 39.5t-41.5 2.5l-16 -5l-2 13l17 5q78 23 78 95q0 42 -28 42q-15 0 -23.5 -14t-3.5 -43l8 -43l-2 -3l-76 27q10 40 42.5 64.5t74.5 24.5q35 0 56.5 -15t21.5 -43q0 -61 -95 -85v-1q35 7 58.5 -10t23.5 -48q0 -59 -67 -94t-160 -37z M28 0l445 700h21l-445 -700h-21zM311 -7q-43 0 -67 21t-24 58q0 46 32.5 74t78.5 34v1q-67 4 -67 59q0 39 32 61.5t77 22.5q37 0 59 -16.5t22 -46.5q0 -35 -28 -56.5t-64 -23.5v-1q76 -12 76 -76q0 -50 -37 -80.5t-90 -30.5zM313 5q20 0 35.5 39.5t15.5 84.5q0 42 -20 42 q-25 0 -38 -47.5t-13 -82.5q0 -36 20 -36zM347 189q18 0 29 31t11 61q0 31 -17 31q-18 0 -28.5 -31t-10.5 -60q0 -32 16 -32z" glyph-name="threeeighths" horiz-adv-x="476" unicode="⅜"/><glyph d="M44 378q66 11 106.5 56t40.5 101q0 49 -31 49q-34 0 -69 -56h-15l52 173h164l-19 -61h-150l-21 -69h2q53 31 90 31q35 0 54.5 -20t19.5 -56q0 -65 -64 -106t-159 -45zM21 0l445 700h21l-445 -700h-21zM304 -7q-43 0 -67 21t-24 58q0 46 32.5 74t78.5 34v1q-67 4 -67 59 q0 39 32 61.5t77 22.5q37 0 59 -16.5t22 -46.5q0 -35 -28 -56.5t-64 -23.5v-1q76 -12 76 -76q0 -50 -37 -80.5t-90 -30.5zM306 5q20 0 35.5 39.5t15.5 84.5q0 42 -20 42q-25 0 -38 -47.5t-13 -82.5q0 -36 20 -36zM340 189q18 0 29 31t11 61q0 31 -17 31q-18 0 -28.5 -31 t-10.5 -60q0 -32 16 -32z" glyph-name="fiveeighths" horiz-adv-x="469" unicode="⅝"/><glyph d="M43 384l202 256h-164l16 61h194l-146 -317h-102zM3 0l445 700h21l-445 -700h-21zM286 -7q-43 0 -67 21t-24 58q0 46 32.5 74t78.5 34v1q-67 4 -67 59q0 39 32 61.5t77 22.5q37 0 59 -16.5t22 -46.5q0 -35 -28 -56.5t-64 -23.5v-1q76 -12 76 -76q0 -50 -37 -80.5 t-90 -30.5zM288 5q20 0 35.5 39.5t15.5 84.5q0 42 -20 42q-25 0 -38 -47.5t-13 -82.5q0 -36 20 -36zM322 189q18 0 29 31t11 61q0 31 -17 31q-18 0 -28.5 -31t-10.5 -60q0 -32 16 -32z" glyph-name="seveneighths" horiz-adv-x="451" unicode="⅞"/><glyph d="M251 65l-230 248v2l318 248h3l-157 -234h62q50 0 83.5 19t65.5 65l89 129h204l-131 -228l51 -228h-204l-44 129q-16 46 -43 65t-76 19h-62l74 -234h-3z" glyph-name="arrowleft" horiz-adv-x="648" unicode="←"/><glyph d="M7 0l36 204l111 67q51 31 74.5 58.5t32.5 75.5l11 62l-224 -116v3l267 274h2l169 -274v-3l-184 116l-11 -62q-8 -48 6 -75t55 -59l87 -67l-36 -204l-182 91z" glyph-name="arrowup" horiz-adv-x="498" unicode="↑"/><glyph d="M328 65l158 234h-62q-49 0 -82.5 -18.5t-66.5 -65.5l-90 -129h-204l131 228l-51 228h204l45 -129q16 -47 43 -65.5t76 -18.5h62l-75 234h3l230 -248v-2l-318 -248h-3z" glyph-name="arrowright" horiz-adv-x="648" unicode="→"/><glyph d="M204 0l-170 274l1 3l183 -116l11 62q9 48 -5.5 75.5t-54.5 58.5l-88 67l36 204l182 -91l214 91l-36 -204l-110 -67q-52 -32 -76 -59.5t-32 -74.5l-11 -62l225 116l-1 -3l-266 -274h-2z" glyph-name="arrowdown" horiz-adv-x="498" unicode="↓"/><glyph d="M180 299l74 -234h-3l-230 248v2l318 248h3l-157 -234h291l-75 234h3l230 -248v-2l-318 -248h-3l158 234h-291z" glyph-name="arrowboth" horiz-adv-x="633" unicode="↔"/><glyph d="M192 -15l-160 274l1 3l173 -116l72 408l-214 -116v3l256 274h2l160 -274v-3l-174 116l-72 -408l215 116l-1 -3l-256 -274h-2z" glyph-name="arrowupdn" horiz-adv-x="479" unicode="↕"/><glyph d="M272 11l-119 144l68 139q24 46 23 82t-31 72l-37 44l-126 -248l-2 2l46 369l2 2l366 -19l2 -2l-263 -83l36 -44q29 -35 61.5 -42.5t86.5 7.5l147 43l118 -144l-242 -97z" glyph-name="uni2196" horiz-adv-x="645" unicode="↖"/><glyph d="M290 11l-57 225l-208 97l169 144l132 -43q49 -15 84.5 -7t75.5 42l52 44l-234 83l3 2l372 19l2 -2l-84 -369l-3 -2l-39 248l-52 -44q-41 -35 -55 -69.5t-7 -84.5l19 -139z" glyph-name="uni2197" horiz-adv-x="647" unicode="↗"/><glyph d="M572 11l-366 19l-1 2l262 83l-36 44q-29 36 -63.5 43.5t-84.5 -8.5l-146 -43l-119 144l242 97l137 225l118 -144l-67 -139q-24 -47 -22.5 -82.5t30.5 -71.5l36 -44l127 248l1 -2l-46 -369z" glyph-name="uni2198" horiz-adv-x="646" unicode="↘"/><glyph d="M-10 11l-2 2l84 369l2 2l40 -248l51 44q42 36 56 70.5t7 83.5l-19 139l170 144l57 -225l208 -97l-170 -144l-131 43q-45 16 -81.5 8t-78.5 -43l-52 -44l233 -83l-2 -2z" glyph-name="uni2199" horiz-adv-x="646" unicode="↙"/><glyph d="M132 -15q-53 0 -86 46t-33 132q0 50 11.5 108t33 114t60 93t86.5 37q21 0 36 -10t39 -41h2q-7 129 -109 234v2h145q80 -96 80 -256q0 -102 -31 -205.5t-93.5 -178.5t-140.5 -75zM167 8q27 0 52 86.5t37.5 180.5t12.5 145q0 49 -19 49q-35 0 -70.5 -128t-35.5 -254 q0 -79 23 -79z" glyph-name="partialdiff" horiz-adv-x="394" unicode="∂"/><glyph d="M-27 -45l-12 15l99 88q15 13 5 30q-29 49 -29 113q0 130 96.5 222t210.5 92q90 0 150 -57q12 -12 28 2l99 85l13 -15l-99 -87q-15 -13 -5 -30q29 -49 29 -113q0 -130 -97 -222.5t-211 -92.5q-89 0 -149 57q-12 12 -29 -2zM471 415q17 16 4 29q-53 51 -135 51 q-104 0 -192.5 -84.5t-88.5 -204.5q0 -56 24 -102q9 -19 28 -3zM253 5q104 0 193 85t89 205q0 55 -24 102q-9 19 -28 3l-361 -315q-18 -16 -4 -28q55 -52 135 -52z" glyph-name="emptyset" horiz-adv-x="594" unicode="∅"/><glyph d="M180 -200l155 880h-70l-155 -880h-140l141 801q9 47 5 64.5t-27 32.5v2h430v-2q-25 -17 -37.5 -35t-20.5 -62l-141 -801h-140z" glyph-name="product" horiz-adv-x="450" unicode="∏"/><glyph d="M-34 0l344 359l-221 341h353l-35 -130h-210l137 -214l-218 -226h226l-34 -130h-342z" glyph-name="summation" horiz-adv-x="383" unicode="∑"/><glyph d="M38 295l9 25h357l-9 -25h-357z" glyph-name="minus" horiz-adv-x="422" unicode="−"/><glyph d="M68 -100l-29 345h52l21 -264l304 719h50l-339 -800h-59z" glyph-name="radical" horiz-adv-x="417" unicode="√"/><glyph d="M420 180q-86 0 -124 107q-74 -107 -158 -107q-46 0 -73 29t-27 73q0 65 44.5 109.5t100.5 44.5q82 0 124 -106q75 106 159 106q45 0 72 -28.5t27 -73.5q0 -65 -44.5 -109.5t-100.5 -44.5zM143 200q77 0 147 105q-22 58 -48 84.5t-63 26.5q-46 0 -82.5 -37t-36.5 -95 q0 -38 22.5 -61t60.5 -23zM423 200q46 0 83 37t37 96q0 37 -22 60t-60 23q-77 0 -148 -103q23 -61 48 -87t62 -26z" glyph-name="infinity" horiz-adv-x="583" unicode="∞"/><glyph d="M-132 -215l28 159h2l41 -30q68 -50 82 -37q10 9 12 55l11 439q2 79 44 159t110 132.5t138 52.5l-28 -159h-2l-41 30q-36 27 -54.5 36t-27.5 1q-11 -9 -12 -54l-11 -440q-2 -79 -43.5 -159t-109.5 -132.5t-139 -52.5z" glyph-name="integral" horiz-adv-x="264" unicode="∫"/><glyph d="M309 356q-36 0 -80 20t-75 20q-47 0 -94 -26l-5 21q49 25 95 25q38 0 85 -19.5t75 -19.5q53 0 88 27l4 -21q-40 -27 -93 -27zM281 196q-36 0 -80 20t-75 20q-48 0 -95 -26l-4 21q49 25 94 25q37 0 85 -19.5t76 -19.5q52 0 87 27l5 -21q-40 -27 -93 -27z" glyph-name="approxequal" horiz-adv-x="409" unicode="≈"/><glyph d="M61 0l106 215h-143l9 25h146l66 135h-193l9 25h196l105 213h20l-105 -213h141l-9 -25h-144l-66 -135h191l-9 -25h-194l-106 -215h-20z" glyph-name="notequal" horiz-adv-x="422" unicode="≠"/><glyph d="M364 118l-326 177l9 28l389 177l-9 -30l-362 -163l306 -166zM-14 0l9 25h357l-9 -25h-357z" glyph-name="lessequal" horiz-adv-x="422" unicode="≤"/><glyph d="M7 118l9 30l362 163l-306 166l7 23l326 -177l-9 -28zM-14 0l9 25h357l-9 -25h-357z" glyph-name="greaterequal" horiz-adv-x="422" unicode="≥"/><glyph d="M109 -15q-60 0 -91 46.5t-28 133.5l200 103v-2l-64 -117q-24 -43 -33 -76.5t-3 -50.5t25 -17q28 0 53.5 37t38.5 109l79 450q9 47 5 64.5t-27 32.5v2h180l-71 -400q-14 -79 -38.5 -132.5t-70.5 -98.5q-85 -84 -155 -84zM340 735l-2 2l45 209h145z" glyph-name="glyph428" horiz-adv-x="400"/><glyph d="M-34 0v2q26 17 37.5 35t19.5 62l89 502q8 47 4 64.5t-27 32.5v2h220v-2q-26 -17 -37.5 -35t-19.5 -62l-102 -581h19q34 0 62.5 17t77 75t129.5 177h2l-73 -289h-401zM52 -275l-2 2l63 135h-57v2l92 101q37 0 58.5 -21t16.5 -53q-13 -70 -171 -166z" glyph-name="uni013B.locl" horiz-adv-x="443"/><glyph d="M359 -15l-221 574h-2l-49 -276q-16 -93 -6.5 -154.5t49.5 -126.5v-2h-169v2q41 58 65 120.5t41 160.5l45 255q12 60 -9 113l-19 47v2h152l158 -405h2l22 122q16 93 8.5 155t-42.5 126v2h159v-2q-41 -58 -64.5 -121t-40.5 -160l-77 -432h-2zM81 -275l-2 2l63 135h-57v2 l92 101q37 0 58.5 -21t16.5 -53q-13 -70 -171 -166z" glyph-name="uni0145.locl" horiz-adv-x="469"/><glyph d="M181 61q-65 -81 -108 -75.5t-49 105.5l63 318l-81 -39l-2 2l56 67q65 81 108 75.5t49 -105.5l-63 -318l81 39l2 -2zM168 535q-8 55 -27 78t-71 41v2q59 19 86 42t54 77h2q9 -54 28 -77.5t70 -41.5v-2q-57 -17 -84.5 -40.5t-55.5 -78.5h-2z" glyph-name="i.locl" horiz-adv-x="241"/><glyph d="M88 409l-80 -39l-2 2l56 67q65 81 108 75.5t48 -105.5l-55 -286q-14 -73 -52.5 -133.5t-125.5 -139.5l-55 -50l-2 2l9 13q50 71 72 185zM132 535l-2 2l45 209h145z" glyph-name="glyph432" horiz-adv-x="236"/><glyph d="M181 61q-64 -81 -107 -75.5t-50 105.5l90 510q8 46 -2.5 64t-52.5 33v2h203l-108 -609l80 39l2 -2zM-32 -275l-2 2l63 135h-57v2l92 101q37 0 58.5 -21t16.5 -53q-13 -70 -171 -166z" glyph-name="uni013C.locl" horiz-adv-x="240"/><glyph d="M7 0l80 409l-81 -39l-2 2l56 67q65 81 107 75.5t43 -105.5l-5 -39h2l42 57q35 48 61.5 68t57.5 20q47 0 65 -38t5 -107l-55 -279l81 39l2 -2l-56 -67q-65 -81 -108 -75.5t-49 105.5l58 300q11 50 -16 50q-39 0 -82 -117t-76 -324h-130zM112 -275l-2 2l63 135h-57v2 l92 101q37 0 58.5 -21t16.5 -53q-13 -70 -171 -166z" glyph-name="uni0146.locl" horiz-adv-x="470"/><glyph d="M160 -15q-70 0 -107.5 50.5t-37.5 139.5q0 152 73 246t166 94q70 0 107.5 -50t37.5 -138q0 -152 -73.5 -247t-165.5 -95zM164 0q41 0 77 171.5t36 259.5q0 69 -26 69q-30 0 -58.5 -92.5t-43 -190t-14.5 -144.5q0 -73 29 -73z" glyph-name="zero.oldstyle" horiz-adv-x="413"/><glyph d="M71 261q6 31 -2.5 33t-57.5 -20l-1 3l238 238h2l-98 -515h-130z" glyph-name="one.oldstyle" horiz-adv-x="250"/><glyph d="M146 184q59 59 92.5 124.5t33.5 123.5q0 62 -47 62q-37 0 -56 -39t-15 -104l4 -69l-3 -2l-133 68q84 167 231 167q65 0 102.5 -32t37.5 -80q0 -59 -36.5 -108t-113.5 -96l-145 -89h253l-58 -110h-332z" glyph-name="two.oldstyle" horiz-adv-x="396"/><glyph d="M-61 -212q126 30 202 110t76 179q0 54 -27 77t-79 10l-20 -5l-4 18l29 8q74 23 112.5 93t38.5 138q0 78 -41 78q-32 0 -46 -32.5t-14 -100.5v-83l-2 -2l-130 82q60 157 209 157q68 0 109 -32.5t41 -91.5q0 -72 -56 -122.5t-153 -77.5v-2q71 14 121 -15t50 -99 q0 -112 -110 -193.5t-305 -96.5z" glyph-name="three.oldstyle" horiz-adv-x="409"/><glyph d="M109 -235l45 235h-193v2l411 513h2l-72 -405h98l-60 -110h-57l-31 -166zM72 110h103l32 169z" glyph-name="four.oldstyle" horiz-adv-x="435"/><glyph d="M-63 -212q120 29 197.5 123.5t77.5 207.5q0 92 -66 92q-56 0 -106 -78h-12l97 367h295l-35 -130h-276l-46 -178h2q69 36 100.5 47.5t64.5 11.5q59 0 91 -35.5t32 -97.5q0 -126 -115 -222t-300 -111z" glyph-name="five.oldstyle" horiz-adv-x="401"/><glyph d="M454 712q-99 -31 -178 -122.5t-98 -223.5h2q79 47 125 47q49 0 80.5 -36.5t31.5 -104.5q0 -123 -72 -205t-161 -82q-85 0 -126 53t-41 147q0 206 127.5 359t308.5 171zM246 382q-38 0 -72.5 -91.5t-34.5 -205.5q0 -80 34 -80q38 0 73 96.5t35 207.5q0 73 -35 73z" glyph-name="six.oldstyle" horiz-adv-x="439"/><glyph d="M-69 -200l381 570h-280l35 130h320l-286 -700h-170z" glyph-name="seven.oldstyle" horiz-adv-x="348"/><glyph d="M168 -15q-70 0 -115.5 46.5t-45.5 117.5q0 98 55.5 171t140.5 87v2q-38 7 -62.5 41t-24.5 80q0 80 50.5 132.5t127.5 52.5q55 0 90.5 -35t35.5 -89q0 -67 -38.5 -118.5t-97.5 -63.5v-2q51 -9 84.5 -53t33.5 -103q0 -115 -66.5 -190.5t-167.5 -75.5zM171 0q36 0 62 65 t36 135t10 121q0 74 -38 74q-25 0 -46.5 -35t-35 -86t-21 -105t-7.5 -96q0 -73 40 -73zM245 420q32 0 54 76t22 150q0 54 -27 54q-34 0 -56.5 -75t-22.5 -151q0 -54 30 -54z" glyph-name="eight.oldstyle" horiz-adv-x="427"/><glyph d="M-35 -212q102 28 189.5 121.5t106.5 224.5h-2q-79 -47 -125 -47q-49 0 -80.5 36.5t-31.5 104.5q0 123 72 205t161 82q85 0 126 -53t41 -147q0 -208 -131 -360t-325 -170zM193 118q38 0 72.5 91.5t34.5 205.5q0 80 -34 80q-38 0 -73 -96.5t-35 -207.5q0 -73 35 -73z" glyph-name="nine.oldstyle" horiz-adv-x="439"/><glyph d="M98 -7q-41 0 -64.5 30.5t-23.5 84.5q0 93 42 154.5t102 61.5q41 0 64.5 -30.5t23.5 -84.5q0 -92 -42.5 -154t-101.5 -62zM101 3q28 0 47.5 87.5t19.5 170.5q0 51 -18 51q-26 0 -46.5 -86.5t-20.5 -169.5q0 -53 18 -53z" glyph-name="zero.dnom" horiz-adv-x="285"/><glyph d="M33 177q3 19 -3 19q-5 1 -31 -12l-1 2l135 138h1l-56 -324h-74z" glyph-name="one.dnom" horiz-adv-x="162"/><glyph d="M75 115q33 35 51 79.5t18 80.5t-21 36q-34 0 -28 -76l4 -54l-2 -1l-81 41q14 51 46 77t75 26q39 0 61.5 -18.5t22.5 -52.5q0 -61 -94 -128l-88 -64h150l-32 -61h-191z" glyph-name="two.dnom" horiz-adv-x="243"/><glyph d="M-28 -6q63 10 107 45t44 80q0 29 -15.5 39.5t-41.5 2.5l-16 -5l-2 13l17 5q78 23 78 95q0 42 -28 42q-15 0 -23.5 -14t-3.5 -43l8 -43l-2 -3l-76 27q10 40 42.5 64.5t74.5 24.5q35 0 56.5 -15t21.5 -43q0 -61 -95 -85v-1q35 7 58.5 -10t23.5 -48q0 -59 -67 -94t-160 -37z " glyph-name="three.dnom" horiz-adv-x="244"/><glyph d="M77 0l13 73h-117v2l230 249h2l-35 -190h50l-16 -61h-44l-13 -73h-70zM46 134h54l15 76z" glyph-name="four.dnom" horiz-adv-x="251"/><glyph d="M-25 -6q66 11 106.5 56t40.5 101q0 49 -31 49q-34 0 -69 -56h-15l52 173h164l-19 -61h-150l-21 -69h2q53 31 90 31q35 0 54.5 -20t19.5 -56q0 -65 -64 -106t-159 -45z" glyph-name="five.dnom" horiz-adv-x="240"/><glyph d="M99 -7q-46 0 -73 29t-27 89q0 90 61.5 151t171.5 64l1 -3q-58 -12 -100 -51.5t-49 -104.5h2q33 15 59 15q36 0 53 -21t17 -55q0 -47 -32.5 -80t-83.5 -33zM90 5q21 0 35 43t14 78q0 43 -23 43q-22 0 -34.5 -43t-12.5 -80q0 -41 21 -41z" glyph-name="six.dnom" horiz-adv-x="257"/><glyph d="M-20 0l202 256h-164l16 61h194l-146 -317h-102z" glyph-name="seven.dnom" horiz-adv-x="222"/><glyph d="M76 -7q-43 0 -67 21t-24 58q0 46 32.5 74t78.5 34v1q-67 4 -67 59q0 39 32 61.5t77 22.5q37 0 59 -16.5t22 -46.5q0 -35 -28 -56.5t-64 -23.5v-1q76 -12 76 -76q0 -50 -37 -80.5t-90 -30.5zM78 5q20 0 35.5 39.5t15.5 84.5q0 42 -20 42q-25 0 -38 -47.5t-13 -82.5 q0 -36 20 -36zM112 189q18 0 29 31t11 61q0 31 -17 31q-18 0 -28.5 -31t-10.5 -60q0 -32 16 -32z" glyph-name="eight.dnom" horiz-adv-x="246"/><glyph d="M126 324q46 0 73 -29t27 -89q0 -90 -61.5 -151t-171.5 -64l-1 3q58 12 100 51.5t49 104.5h-2q-33 -15 -59 -15q-36 0 -53 21t-17 55q0 47 32.5 80t83.5 33zM135 312q-21 0 -35 -43t-14 -78q0 -43 23 -43q22 0 34.5 43t12.5 80q0 41 -21 41z" glyph-name="nine.dnom" horiz-adv-x="258"/><glyph d="M166 376q-41 0 -64.5 30.5t-23.5 84.5q0 93 42 154.5t102 61.5q41 0 64.5 -30.5t23.5 -84.5q0 -92 -42.5 -154t-101.5 -62zM169 386q28 0 47.5 87.5t19.5 170.5q0 51 -18 51q-26 0 -46.5 -86.5t-20.5 -169.5q0 -53 18 -53z" glyph-name="zero.numr" horiz-adv-x="285"/><glyph d="M101 561q3 19 -3 19q-5 1 -31 -12l-1 2l135 138h1l-56 -324h-74z" glyph-name="one.numr" horiz-adv-x="162"/><glyph d="M143 499q33 35 51 79.5t18 80.5t-21 36q-34 0 -28 -76l4 -54l-2 -1l-81 41q14 51 46 77t75 26q39 0 61.5 -18.5t22.5 -52.5q0 -61 -94 -128l-88 -64h150l-32 -61h-191z" glyph-name="two.numr" horiz-adv-x="243"/><glyph d="M40 378q63 10 107 45t44 80q0 29 -15.5 39.5t-41.5 2.5l-16 -5l-2 13l17 5q78 23 78 95q0 42 -28 42q-15 0 -23.5 -14t-3.5 -43l8 -43l-2 -3l-76 27q10 40 42.5 64.5t74.5 24.5q35 0 56.5 -15t21.5 -43q0 -61 -95 -85v-1q35 7 58.5 -10t23.5 -48q0 -59 -67 -94t-160 -37z " glyph-name="three.numr" horiz-adv-x="244"/><glyph d="M145 384l13 73h-117v2l230 249h2l-35 -190h50l-16 -61h-44l-13 -73h-70zM114 518h54l15 76z" glyph-name="four.numr" horiz-adv-x="251"/><glyph d="M43 378q66 11 106.5 56t40.5 101q0 49 -31 49q-34 0 -69 -56h-15l52 173h164l-19 -61h-150l-21 -69h2q53 31 90 31q35 0 54.5 -20t19.5 -56q0 -65 -64 -106t-159 -45z" glyph-name="five.numr" horiz-adv-x="240"/><glyph d="M167 377q-46 0 -73 29t-27 89q0 90 61.5 151t171.5 64l1 -3q-58 -12 -100 -51.5t-49 -104.5h2q33 15 59 15q36 0 53 -21t17 -55q0 -47 -32.5 -80t-83.5 -33zM158 389q21 0 35 43t14 78q0 43 -23 43q-22 0 -34.5 -43t-12.5 -80q0 -41 21 -41z" glyph-name="six.numr" horiz-adv-x="257"/><glyph d="M48 384l202 256h-164l16 61h194l-146 -317h-102z" glyph-name="seven.numr" horiz-adv-x="222"/><glyph d="M144 377q-43 0 -67 21t-24 58q0 46 32.5 74t78.5 34v1q-67 4 -67 59q0 39 32 61.5t77 22.5q37 0 59 -16.5t22 -46.5q0 -35 -28 -56.5t-64 -23.5v-1q76 -12 76 -76q0 -50 -37 -80.5t-90 -30.5zM146 389q20 0 35.5 39.5t15.5 84.5q0 42 -20 42q-25 0 -38 -47.5t-13 -82.5 q0 -36 20 -36zM180 573q18 0 29 31t11 61q0 31 -17 31q-18 0 -28.5 -31t-10.5 -60q0 -32 16 -32z" glyph-name="eight.numr" horiz-adv-x="246"/><glyph d="M194 708q46 0 73 -29t27 -89q0 -90 -61.5 -151t-171.5 -64l-1 3q58 12 100 51.5t49 104.5h-2q-33 -15 -59 -15q-36 0 -53 21t-17 55q0 47 32.5 80t83.5 33zM203 696q-21 0 -35 -43t-14 -78q0 -43 23 -43q22 0 34.5 43t12.5 80q0 41 -21 41z" glyph-name="nine.numr" horiz-adv-x="258"/><glyph d="M126 375h-2l37 325h145z" glyph-name="glyph474"/><glyph d="M-63 -213q66 70 86 95t20 37q0 10 -10 10t-57 -30h-2l44 101h21l-25 -55l49 3q35 2 49 -4.5t14 -23.5q0 -61 -187 -135z" glyph-name="glyph475"/><glyph d="M-32 -275l-2 2l63 135h-57v2l92 101q37 0 58.5 -21t16.5 -53q-13 -70 -171 -166z" glyph-name="uni0326.locl"/><glyph d="M38 -275q-8 55 -27 78t-71 41v2q58 18 85 41.5t55 77.5h2q8 -54 27.5 -77.5t70.5 -41.5v-2q-57 -17 -84.5 -40.5t-55.5 -78.5h-2z" glyph-name="glyph477" horiz-adv-x="262"/></font>
</defs>
</svg>
