<svg xmlns="http://www.w3.org/2000/svg" version="1.1" xmlns:xlink="http://www.w3.org/1999/xlink" xmlns:svgjs="http://svgjs.dev/svgjs" width="61" height="61"><svg width="61" height="61" viewBox="0 0 61 61" fill="none" xmlns="http://www.w3.org/2000/svg">
<circle cx="30.5" cy="30.5" r="30.5" fill="#0F0F0F"></circle>
<g clip-path="url(#clip0_925_530)">
<path d="M33.4444 13.5352C26.7603 13.5352 21.3415 18.954 21.3415 25.6381V36.1267C21.3415 40.3632 18.2263 43.5831 12.8511 44.6171L36.926 44.6607C41.6904 44.6607 45.5473 40.7995 45.5473 36.0395V25.6425C45.5473 18.954 40.1285 13.5352 33.4444 13.5352Z" fill="white"></path>
<path d="M33.6883 26.0209C33.6883 27.26 32.6848 28.2635 31.4457 28.2635C30.2066 28.2635 29.2031 27.26 29.2031 26.0209C29.2031 24.7818 30.2066 23.7783 31.4457 23.7783C32.6848 23.7783 33.6883 24.7818 33.6883 26.0209ZM39.526 23.7783C38.2869 23.7783 37.2834 24.7818 37.2834 26.0209C37.2834 27.26 38.2869 28.2635 39.526 28.2635C40.765 28.2635 41.7685 27.26 41.7685 26.0209C41.7685 24.7818 40.765 23.7783 39.526 23.7783Z" fill="#0F0F0F"></path>
</g>
<defs>
<clipPath id="SvgjsClipPath1005">
<rect width="32.6962" height="31.1256" fill="white" transform="translate(12.8506 13.5352)"></rect>
</clipPath>
</defs>
</svg><style>@media (prefers-color-scheme: light) { :root { filter: none; } }
@media (prefers-color-scheme: dark) { :root { filter: invert(100%); } }
</style></svg>