<?xml version="1.0" encoding="UTF-8"?>
<svg width="70px" height="70px" viewBox="0 0 70 70" version="1.1" xmlns="http://www.w3.org/2000/svg" xmlns:xlink="http://www.w3.org/1999/xlink">
    <title>bones</title>
    <g id="bones" stroke="none" stroke-width="1" fill="none" fill-rule="evenodd">
        <path d="M54.9797442,43.5928481 C56.7418154,40.8944209 60.4168779,40.1182763 63.078047,42.0262636 C65.7392161,43.9317282 66.4119339,47.7510664 64.5912608,50.5394692 C63.5845923,52.0808269 62.0183959,52.9915145 60.3735285,53.1723066 C60.8094304,54.843162 60.5677979,56.6990139 59.5611294,58.2395307 C57.7404563,61.0270926 54.0894768,61.7696016 51.4283077,59.8616143 C48.7679414,57.9544679 48.1249259,54.0863579 49.8877999,51.3887716 L34.9997028,40.7186742 L20.6221649,52.2103245 C22.515087,54.8086853 22.0647353,58.7070675 19.5031092,60.755484 C16.9390748,62.8047415 13.2543791,62.2623652 11.3004469,59.5765514 C10.2175156,58.0923744 9.88677605,56.2516586 10.2391903,54.5597809 C8.58709799,54.4681235 6.97835506,53.643207 5.89622658,52.15903 C3.93988599,49.4732162 4.42395385,45.622765 6.98718548,43.5751894 C9.54961435,41.525091 13.2575902,42.1027849 15.1513151,44.7019866 L27.1631018,35.1015058 L13.6340874,25.405163 C11.8712134,28.1035902 8.19695375,28.8814167 5.53578467,26.9742703 C2.87541836,25.0671239 2.2027005,21.2477857 4.02257088,18.4593829 C5.02923936,16.918866 6.59623847,16.0081784 8.24110588,15.8265454 C7.80600674,14.1556901 8.04603375,12.3015199 9.05270224,10.7593213 C10.8733754,7.97175941 14.5243549,7.23093225 17.1863267,9.13723777 C19.846693,11.0452251 20.488103,14.9116533 18.7268345,17.6109214 L34.7123126,29.068095 L50.0748443,16.7893684 C48.1803167,14.1893258 48.6298657,10.2926254 51.1930973,8.24504979 C53.7571317,6.19495149 57.439419,6.73816868 59.3949569,9.42145977 C60.4786909,10.9081594 60.8094304,12.7480344 60.4562134,14.440753 C62.1091085,14.5307286 63.7186542,15.356486 64.7991772,16.8406629 C66.7555177,19.5264767 66.2722526,23.3760871 63.7082182,25.4261854 C61.1449866,27.473761 57.4386163,26.8969081 55.5440887,24.2985472 L42.5497165,34.6844226 L54.9797442,43.5928481 Z" id="Path-Copy-2" fill="#C69346"></path>
    </g>
</svg>