<?xml version="1.0" encoding="UTF-8"?>
<svg width="153px" height="153px" viewBox="0 0 153 153" version="1.1" xmlns="http://www.w3.org/2000/svg" xmlns:xlink="http://www.w3.org/1999/xlink">
    <title>branding</title>
    <g id="branding" stroke="none" stroke-width="1" fill="none" fill-rule="evenodd">
        <circle id="Oval-Copy-2" fill="#F7F7F7" cx="76.5" cy="76.5" r="74.5"></circle>
        <g id="Diego" transform="translate(15.000000, 57.000000)" fill="#1B1B1B" fill-rule="nonzero">
            <path d="M0,0 L0,37.4580153 L11.7338191,37.4580153 C22.0745821,37.4580153 31.0222889,32.1145038 31.0222889,18.7022901 C31.0222889,5.34351145 22.0745821,0 11.7338191,0 L0,0 Z M20.735105,18.7022901 C20.735105,28.9083969 16.3951993,35.7480916 11.7338191,35.7480916 L10.2871839,35.7480916 L10.2871839,1.70992366 L11.7338191,1.70992366 C16.3951993,1.70992366 20.735105,8.54961832 20.735105,18.7022901 Z" id="Shape"></path>
            <path d="M43.0775825,1.28244275 L33.701243,1.28244275 L33.701243,8.1221374 L43.0775825,3.20610687 L43.0775825,1.28244275 Z M41.4166309,9.61832061 L33.701243,13.6793893 L33.701243,37.4580153 L43.1311616,37.4580153 L43.1311616,9.61832061 L41.4166309,9.61832061 Z" id="Shape"></path>
            <path d="M70.563652,28.7480916 L61.4016288,28.7480916 C61.2408916,33.5572519 60.6515216,35.7480916 58.7226747,35.7480916 C56.2580369,35.7480916 55.1864552,30.8320611 55.1864552,23.5648855 L70.8851264,23.5648855 C70.8851264,13.0916031 66.9202743,9.61832061 58.7226747,9.61832061 C50.5786541,9.61832061 45.7565366,13.0916031 45.7565366,23.5648855 C45.7565366,34.0381679 50.5786541,37.4580153 58.7226747,37.4580153 C65.6879554,37.4580153 69.5456494,35.8549618 70.563652,28.7480916 Z M55.1864552,21.8549618 C55.2400343,15.4961832 56.4723532,11.3282443 58.7226747,11.3282443 C60.9729961,11.3282443 61.4016288,15.4961832 61.4016288,21.8549618 L55.1864552,21.8549618 Z" id="Shape"></path>
            <path d="M98.2104586,47.2900763 L83.52979,35.7480916 L85.8336905,35.7480916 C93.5490784,35.7480916 98.1033005,31.9007634 98.1033005,22.7099237 C98.1033005,16.9389313 96.3351907,13.2519084 93.1204458,11.3282443 L98.1033005,11.3282443 L98.1033005,3.3129771 L89.1555937,9.61832061 L85.8336905,9.61832061 C78.1183026,9.61832061 73.5640806,13.4656489 73.5640806,22.7099237 C73.5640806,31.1526718 79.7792542,35.1603053 85.6729533,39.5954198 L75.4929276,39.5954198 L75.4929276,49 L98.2104586,49 L98.2104586,47.2900763 Z M85.8336905,34.0381679 C83.7441063,34.0381679 82.9939991,29.7633588 82.9939991,22.7099237 C82.9939991,15.6564885 83.7441063,11.3282443 85.8336905,11.3282443 C87.9232748,11.3282443 88.6733819,15.6564885 88.6733819,22.7099237 C88.6733819,29.7633588 87.9232748,34.0381679 85.8336905,34.0381679 Z" id="Shape"></path>
            <path d="M100.728676,23.5648855 C100.728676,34.0381679 104.693528,37.4580153 112.837548,37.4580153 C121.035148,37.4580153 125,34.0381679 125,23.5648855 C125,13.0916031 121.035148,9.61832061 112.837548,9.61832061 C104.693528,9.61832061 100.728676,13.0916031 100.728676,23.5648855 Z M112.837548,35.7480916 C110.37291,35.7480916 110.158594,30.8320611 110.158594,23.5648855 C110.158594,16.2442748 110.37291,11.3282443 112.837548,11.3282443 C115.302186,11.3282443 115.570081,16.2442748 115.570081,23.5648855 C115.570081,30.8320611 115.302186,35.7480916 112.837548,35.7480916 Z" id="Shape"></path>
        </g>
    </g>
</svg>