<?xml version="1.0" encoding="UTF-8"?>
<svg width="54px" height="54px" viewBox="0 0 54 54" version="1.1" xmlns="http://www.w3.org/2000/svg" xmlns:xlink="http://www.w3.org/1999/xlink">
    <title>branding</title>
    <g id="branding" stroke="none" stroke-width="1" fill="none" fill-rule="evenodd">
        <path d="M2,52 L52,52 L52,2 L2,2 L2,52 Z M39.5448945,14.4551654 L51.8203622,14.4551654 L51.8203622,2.17963778 L39.5448945,2.17963778 L39.5448945,14.4551654 Z M27.089789,14.4551654 L39.3653166,14.4551654 L39.3653166,2.17963778 L27.089789,2.17963778 L27.089789,14.4551654 Z M14.6346834,14.4551654 L26.9101512,14.4551654 L26.9101512,2.17963778 L14.6346834,2.17963778 L14.6346834,14.4551654 Z M2.17957792,14.4551654 L14.4551055,14.4551654 L14.4551055,2.17963778 L2.17957792,2.17963778 L2.17957792,14.4551654 Z M39.5448945,26.9102709 L51.8203622,26.9102709 L51.8203622,14.6347433 L39.5448945,14.6347433 L39.5448945,26.9102709 Z M27.089789,26.9102709 L39.3653166,26.9102709 L39.3653166,14.6347433 L27.089789,14.6347433 L27.089789,26.9102709 Z M14.6346834,26.9102709 L26.9101512,26.9102709 L26.9101512,14.6347433 L14.6346834,14.6347433 L14.6346834,26.9102709 Z M2.17957792,26.9102709 L14.4551055,26.9102709 L14.4551055,14.6347433 L2.17957792,14.6347433 L2.17957792,26.9102709 Z M39.5448945,39.3653166 L51.8203622,39.3653166 L51.8203622,27.089789 L39.5448945,27.089789 L39.5448945,39.3653166 Z M27.089789,39.3653166 L39.3653166,39.3653166 L39.3653166,27.089789 L27.089789,27.089789 L27.089789,39.3653166 Z M14.6346834,39.3653166 L26.9101512,39.3653166 L26.9101512,27.089789 L14.6346834,27.089789 L14.6346834,39.3653166 Z M2.17957792,39.3653166 L14.4551055,39.3653166 L14.4551055,27.089789 L2.17957792,27.089789 L2.17957792,39.3653166 Z M39.5448945,51.8204221 L51.8203622,51.8204221 L51.8203622,39.5449543 L39.5448945,39.5449543 L39.5448945,51.8204221 Z M27.089789,51.8204221 L39.3653166,51.8204221 L39.3653166,39.5449543 L27.089789,39.5449543 L27.089789,51.8204221 Z M14.6346834,51.8204221 L26.9101512,51.8204221 L26.9101512,39.5449543 L14.6346834,39.5449543 L14.6346834,51.8204221 Z M2.17957792,51.8204221 L14.4551055,51.8204221 L14.4551055,39.5449543 L2.17957792,39.5449543 L2.17957792,51.8204221 Z" id="Grid" fill="#000000"></path>
        <polygon id="Slash" fill="#000000" points="27 14.5449244 39.4551055 14.5449244 27 39.4551354 14.5448945 39.4551354"></polygon>
    </g>
</svg>