<?xml version="1.0" encoding="UTF-8"?>
<svg width="153px" height="153px" viewBox="0 0 153 153" version="1.1" xmlns="http://www.w3.org/2000/svg" xmlns:xlink="http://www.w3.org/1999/xlink">
    <title>branding</title>
    <g id="branding" stroke="none" stroke-width="1" fill="none" fill-rule="evenodd">
        <circle id="Oval-Copy-2" fill="#000000" cx="76.5" cy="76.5" r="74.5"></circle>
        <g id="Diego" transform="translate(21.000000, 59.000000)" fill="#FFFFFF" fill-rule="nonzero">
            <path d="M0,0 L0,33.6357688 L10.5135019,33.6357688 C19.7788255,33.6357688 27.7959709,28.8375136 27.7959709,16.7938931 C27.7959709,4.79825518 19.7788255,0 10.5135019,0 L0,0 Z M18.5786541,16.7938931 C18.5786541,25.9585605 14.6900986,32.1003272 10.5135019,32.1003272 L9.21731676,32.1003272 L9.21731676,1.53544166 L10.5135019,1.53544166 C14.6900986,1.53544166 18.5786541,7.67720829 18.5786541,16.7938931 Z" id="Shape"></path>
            <path d="M38.5975139,1.15158124 L30.1963138,1.15158124 L30.1963138,7.29334787 L38.5975139,2.87895311 L38.5975139,1.15158124 Z M37.1093013,8.63685932 L30.1963138,12.2835333 L30.1963138,33.6357688 L38.6455208,33.6357688 L38.6455208,8.63685932 L37.1093013,8.63685932 Z" id="Shape"></path>
            <path d="M63.2250321,25.8146129 L55.0158594,25.8146129 C54.8718388,30.1330425 54.3437634,32.1003272 52.6155165,32.1003272 C50.407201,32.1003272 49.4470639,27.6859324 49.4470639,21.1603053 L63.5130733,21.1603053 C63.5130733,11.7557252 59.9605658,8.63685932 52.6155165,8.63685932 C45.3184741,8.63685932 40.9978568,11.7557252 40.9978568,21.1603053 C40.9978568,30.5648855 45.3184741,33.6357688 52.6155165,33.6357688 C58.8564081,33.6357688 62.3129018,32.1962923 63.2250321,25.8146129 Z M49.4470639,19.6248637 C49.4950707,13.91494 50.5992285,10.172301 52.6155165,10.172301 C54.6318045,10.172301 55.0158594,13.91494 55.0158594,19.6248637 L49.4470639,19.6248637 Z" id="Shape"></path>
            <path d="M87.9965709,42.4645583 L74.8426918,32.1003272 L76.9069867,32.1003272 C83.8199743,32.1003272 87.9005572,28.6455834 87.9005572,20.3925845 C87.9005572,15.2104689 86.3163309,11.8996728 83.4359194,10.172301 L87.9005572,10.172301 L87.9005572,2.97491821 L79.8834119,8.63685932 L76.9069867,8.63685932 C69.9939991,8.63685932 65.9134162,12.0916031 65.9134162,20.3925845 C65.9134162,27.9738277 71.4822117,31.5725191 76.7629661,35.5550709 L67.6416631,35.5550709 L67.6416631,44 L87.9965709,44 L87.9965709,42.4645583 Z M76.9069867,30.5648855 C75.0347192,30.5648855 74.3626232,26.7262814 74.3626232,20.3925845 C74.3626232,14.0588877 75.0347192,10.172301 76.9069867,10.172301 C78.7792542,10.172301 79.4513502,14.0588877 79.4513502,20.3925845 C79.4513502,26.7262814 78.7792542,30.5648855 76.9069867,30.5648855 Z" id="Shape"></path>
            <path d="M90.2528933,21.1603053 C90.2528933,30.5648855 93.8054008,33.6357688 101.102443,33.6357688 C108.447492,33.6357688 112,30.5648855 112,21.1603053 C112,11.7557252 108.447492,8.63685932 101.102443,8.63685932 C93.8054008,8.63685932 90.2528933,11.7557252 90.2528933,21.1603053 Z M101.102443,32.1003272 C98.8941277,32.1003272 98.7021003,27.6859324 98.7021003,21.1603053 C98.7021003,14.5866957 98.8941277,10.172301 101.102443,10.172301 C103.310759,10.172301 103.550793,14.5866957 103.550793,21.1603053 C103.550793,27.6859324 103.310759,32.1003272 101.102443,32.1003272 Z" id="Shape"></path>
        </g>
    </g>
</svg>