<?xml version="1.0" encoding="UTF-8"?>
<svg width="53px" height="53px" viewBox="0 0 53 53" version="1.1" xmlns="http://www.w3.org/2000/svg" xmlns:xlink="http://www.w3.org/1999/xlink">
    <title>brand</title>
    <g id="brand" stroke="none" stroke-width="1" fill="none" fill-rule="evenodd" stroke-linecap="round" stroke-linejoin="round">
        <g id="Group-32-Copy" transform="translate(3.205976, 3.205976)" stroke="#97A1AE" stroke-width="2.4">
            <path d="M0.000120597573,22.1124896 C12.8650677,22.1124896 23.2943459,32.5417678 23.2943459,45.4067149" id="Stroke-1"></path>
            <path d="M0.000120597573,27.3877089 C9.95183234,27.3877089 18.019006,35.4548826 18.019006,45.4065943" id="Stroke-3"></path>
            <path d="M0.000120597573,32.9873356 C6.85890658,32.9873356 12.4192587,38.5476877 12.4192587,45.4064737" id="Stroke-5"></path>
            <path d="M0.000120597573,38.3988703 C3.87049872,38.3988703 7.00764359,41.5364172 7.00764359,45.4063933" id="Stroke-7"></path>
            <path d="M46.5882093,22.1124896 C33.7232622,22.1124896 23.2939841,32.5417678 23.2939841,45.4067149" id="Stroke-9"></path>
            <path d="M46.5882093,27.3877089 C36.6364976,27.3877089 28.5693239,35.4548826 28.5693239,45.4065943" id="Stroke-11"></path>
            <path d="M46.5882093,32.9873356 C39.7294233,32.9873356 34.1690712,38.5476877 34.1690712,45.4064737" id="Stroke-13"></path>
            <path d="M46.5882093,38.3988703 C42.7178312,38.3988703 39.5806863,41.5364172 39.5806863,45.4063933" id="Stroke-15"></path>
            <line x1="0.000120597573" y1="16.8842632" x2="11.4371925" y2="16.8842632" id="Stroke-17"></line>
            <line x1="35.2466508" y1="16.8842632" x2="46.5880485" y2="16.8842632" id="Stroke-19"></line>
            <line x1="0" y1="11.1383115" x2="17.7386971" y2="11.1383115" id="Stroke-21"></line>
            <line x1="29.500699" y1="11.1383115" x2="46.5881691" y2="11.1383115" id="Stroke-23"></line>
            <line x1="0" y1="5.56915573" x2="46.5880485" y2="5.56915573" id="Stroke-25"></line>
            <polygon id="Stroke-27" points="0 46.5880485 46.5880485 46.5880485 46.5880485 0 0 0"></polygon>
            <polyline id="Stroke-29" points="6.16852567 22.9380604 23.5373902 5.56919593 40.8045507 22.8363565"></polyline>
            <polyline id="Stroke-30" points="12.6262041 24.9374074 23.4827997 14.0808119 34.1689506 24.7673648"></polyline>
            <polyline id="Stroke-31" points="17.602261 28.7791637 23.4432035 22.9382212 29.1928938 28.6875095"></polyline>
        </g>
    </g>
</svg>