<?xml version="1.0" encoding="UTF-8"?>
<svg width="140px" height="64px" viewBox="0 0 140 64" version="1.1" xmlns="http://www.w3.org/2000/svg" xmlns:xlink="http://www.w3.org/1999/xlink">
    <title>Logo_name</title>
    <g id="Logo_name" stroke="none" stroke-width="1" fill="none" fill-rule="evenodd">
        <g id="Diego" transform="translate(11.274520, 13.160480)" fill="#A6B2BF" fill-rule="nonzero">
            <path d="M12.20736,2.87232 L0,2.87232 L0,33.83952 L12.20736,33.83952 C21.22824,33.83952 28.00512,27.19728 28.00512,18.35592 C28.00512,9.51456 21.22824,2.87232 12.20736,2.87232 Z M12.02784,27.28704 L6.9564,27.28704 L6.9564,9.4248 L12.02784,9.4248 C17.09928,9.4248 20.8692,13.28448 20.8692,18.35592 C20.8692,23.42736 17.09928,27.28704 12.02784,27.28704 Z" id="Shape"></path>
            <path d="M35.32056,8.03352 C37.65432,8.03352 39.40464,6.32808 39.40464,3.99432 C39.40464,1.70544 37.65432,0 35.32056,0 C33.03168,0 31.28136,1.70544 31.28136,3.99432 C31.28136,6.32808 33.03168,8.03352 35.32056,8.03352 Z M32.04432,33.83952 L38.5968,33.83952 L38.5968,10.95072 L32.04432,10.95072 L32.04432,33.83952 Z" id="Shape"></path>
            <path d="M66.69168,22.48488 C66.69168,15.52848 61.53048,10.41216 54.66384,10.41216 C47.70744,10.41216 42.45648,15.52848 42.45648,22.26048 C42.45648,29.172 47.93184,34.37808 55.2024,34.37808 C59.42112,34.37808 63.10128,32.67264 65.5248,29.93496 L61.12656,26.12016 C60.04944,27.46656 57.98496,28.67832 55.38192,28.67832 C52.5096,28.67832 50.31048,27.10752 49.50264,24.54936 L66.55704,24.54936 C66.6468,23.96592 66.69168,23.1132 66.69168,22.48488 Z M54.57408,16.06704 C57.04248,16.06704 59.0172,17.63784 59.73528,20.196 L49.45776,20.196 C50.13096,17.68272 52.10568,16.06704 54.57408,16.06704 Z" id="Shape"></path>
            <path d="M85.0476,33.61512 L77.91168,33.61512 C76.69992,33.61512 75.8472,32.94192 75.8472,31.90968 C75.8472,31.23648 76.20624,30.60816 76.87944,30.15936 C77.95656,30.47352 79.07856,30.60816 80.24544,30.60816 C86.43888,30.60816 91.1064,26.29968 91.1064,20.51016 C91.1064,18.31104 90.4332,16.3812 89.3112,14.76552 C89.5356,13.9128 90.38832,13.37424 91.46544,13.37424 L93.08112,13.37424 L93.08112,7.31544 L91.15128,7.31544 C88.00968,7.31544 85.7208,8.88624 85.0476,11.35464 C83.61144,10.7712 81.99576,10.41216 80.24544,10.41216 C74.052,10.41216 69.42936,14.72064 69.42936,20.51016 C69.42936,23.3376 70.55136,25.85088 72.43632,27.64608 C70.50648,28.81296 69.29472,31.14672 69.29472,33.57024 C69.29472,37.38504 72.21192,39.9432 76.65504,39.9432 L83.79096,39.9432 C85.63104,39.9432 86.88768,40.93056 87.0672,42.4116 L93.7992,40.57152 C92.94648,36.17328 89.67024,33.61512 85.0476,33.61512 Z M80.24544,16.6056 C82.5792,16.6056 84.3744,18.26616 84.3744,20.51016 C84.3744,22.75416 82.5792,24.41472 80.24544,24.41472 C77.91168,24.41472 76.16136,22.75416 76.16136,20.51016 C76.16136,18.26616 77.8668,16.6056 80.24544,16.6056 Z" id="Shape"></path>
            <path d="M106.8144,34.37808 C113.86056,34.37808 119.1564,29.21688 119.1564,22.39512 C119.1564,15.57336 113.86056,10.41216 106.8144,10.41216 C99.76824,10.41216 94.4724,15.57336 94.4724,22.39512 C94.4724,29.21688 99.76824,34.37808 106.8144,34.37808 Z M106.8144,28.05 C103.58304,28.05 101.2044,25.62648 101.2044,22.39512 C101.2044,19.16376 103.58304,16.74024 106.8144,16.74024 C110.04576,16.74024 112.4244,19.16376 112.4244,22.39512 C112.4244,25.62648 110.04576,28.05 106.8144,28.05 Z" id="Shape"></path>
        </g>
    </g>
</svg>