<?xml version="1.0" encoding="UTF-8"?>
<svg width="40px" height="40px" viewBox="0 0 40 40" version="1.1" xmlns="http://www.w3.org/2000/svg" xmlns:xlink="http://www.w3.org/1999/xlink">
    <title>logo</title>
    <defs>
        <polygon id="path-1" points="0 0 31.8209681 0 31.8209681 18.5 0 18.5"></polygon>
    </defs>
    <g id="logo" stroke="none" stroke-width="1" fill="none" fill-rule="evenodd">
        <g id="Group-8" transform="translate(4.000000, 2.000000)">
            <path d="M27.0076851,15.2283782 L19.5584413,15.2283782 L19.5584413,5.12556924 C19.5584413,3.29879271 17.3435752,2.44606915 16.1625363,3.81657876 L3.53579202,18.4820569 C2.4350504,19.7619967 3.32333885,21.7716218 4.99285274,21.7716218 L12.4420965,21.7716218 L12.4420965,31.8744308 C12.4420965,33.7012073 14.6552898,34.5539309 15.8363287,33.1834212 L28.4630729,18.5162342 C29.5654874,17.2380033 28.6755261,15.2283782 27.0076851,15.2283782" id="Fill-1" fill="#FFC10B"></path>
            <path d="M28.4714372,18.4998291 C28.4664187,18.5049557 28.4680915,18.5117912 28.4630729,18.5169178 L15.8363287,33.1823959 C15.4331695,33.6506249 14.9112373,33.8591064 14.3976694,33.8591064 C13.4039908,33.8591064 12.4420965,33.0781552 12.4420965,31.8751143 L12.4420965,21.7723053 L4.99285274,21.7723053 C3.33003029,21.7723053 2.44843328,19.7797689 3.52910058,18.4998291 L0.180035662,18.4998291 C-0.107696189,19.6088824 -0.0675475591,20.7931257 0.424273164,21.9004702 C1.24564723,23.7597151 2.99545837,24.9131989 4.99285274,24.9131989 L9.36738059,24.9131989 L9.36738059,31.8751143 C9.36738059,34.7015768 11.6240682,37 14.3976694,37 C15.8246187,37 17.1913449,36.3643023 18.1448749,35.2569579 L30.7732921,20.5914797 C31.3035885,19.9728706 31.6247776,19.2500208 31.8205022,18.4998291 L28.4714372,18.4998291 Z" id="Fill-3" fill="#FF8E0B"></path>
            <g id="Group-7" transform="translate(0.179032, 0.000000)">
                <mask id="mask-2" fill="white">
                    <use xlink:href="#path-1"></use>
                </mask>
                <g id="Clip-6"></g>
                <path d="M3.35742922,18.4829114 L15.9841735,3.81743319 C16.3873327,3.34920422 16.9092649,3.14072271 17.4228327,3.14072271 C18.4165114,3.14072271 19.3784056,3.92167395 19.3784056,5.1247148 L19.3784056,15.2275238 L26.8293223,15.2275238 C28.4904719,15.2275238 29.3720689,17.2200602 28.2930744,18.5 L31.6404665,18.5 C31.9298712,17.3892378 31.8880497,16.2049945 31.396229,15.0976501 C30.5748549,13.240114 28.8233709,12.0866302 26.8293223,12.0866302 L22.4531216,12.0866302 L22.4531216,5.1247148 C22.4531216,2.2999612 20.1981068,-0.000170886485 17.4245056,-0.000170886485 L17.4228327,-0.000170886485 C15.9958835,-0.000170886485 14.6291572,0.633817974 13.6756272,1.74287126 L1.04888297,16.4083494 C0.516913617,17.0269585 0.195724573,17.7498083 0,18.5 L3.35073778,18.5 C3.3540835,18.4948734 3.35241064,18.4880379 3.35742922,18.4829114" id="Fill-5" fill="#FFDB72" mask="url(#mask-2)"></path>
            </g>
        </g>
    </g>
</svg>