<?xml version="1.0" encoding="UTF-8"?>
<svg width="183px" height="87px" viewBox="0 0 183 87" version="1.1" xmlns="http://www.w3.org/2000/svg" xmlns:xlink="http://www.w3.org/1999/xlink">
    <title>name</title>
    <g id="name" stroke="none" stroke-width="1" fill="none" fill-rule="evenodd">
        <g id="Brand" transform="translate(3.924686, 3.642313)" fill="#C69346" fill-rule="nonzero">
            <path d="M51.1983854,0.46103904 L45.5737091,0.46103904 C44.2366959,0.46103904 43.8678647,0.829870272 43.8678647,2.16688349 L43.8678647,33.3331226 C43.8678647,34.6701358 44.2366959,35.038967 45.5737091,35.038967 L51.1983854,35.038967 C60.050335,35.038967 61.8483872,31.8116938 61.8483872,23.9740301 L61.8483872,11.525976 C61.8483872,3.68831232 60.050335,0.46103904 51.1983854,0.46103904 Z M51.0600737,6.9155856 L51.5672166,6.9155856 C54.1490352,6.9155856 55.3016328,8.1142871 55.3016328,11.1110409 L55.3016328,24.3889652 C55.3016328,27.385719 54.1490352,28.5844205 51.5672166,28.5844205 L51.0600737,28.5844205 C50.414619,28.5844205 50.2302034,28.353901 50.2302034,27.7545502 L50.2302034,7.74545587 C50.2302034,7.10000122 50.414619,6.9155856 51.0600737,6.9155856 Z" id="Shape"></path>
            <path d="M71.6224149,2.16688349 C71.6224149,0.829870272 71.2535836,0.46103904 69.9165704,0.46103904 L66.9659206,0.46103904 C65.6289073,0.46103904 65.2600761,0.829870272 65.2600761,2.16688349 L65.2600761,33.3331226 C65.2600761,34.6701358 65.6289073,35.038967 66.9659206,35.038967 L69.9165704,35.038967 C71.2535836,35.038967 71.6224149,34.6701358 71.6224149,33.3331226 L71.6224149,2.16688349 Z" id="Path"></path>
            <path d="M81.9496894,7.74545587 C81.9496894,7.10000122 82.134105,6.9155856 82.7795596,6.9155856 L89.0496906,6.9155856 C90.3867038,6.9155856 90.755535,6.54675437 90.755535,5.20974115 L90.755535,2.16688349 C90.755535,0.829870272 90.3867038,0.46103904 89.0496906,0.46103904 L77.2931951,0.46103904 C75.9561818,0.46103904 75.5873506,0.829870272 75.5873506,2.16688349 L75.5873506,33.3331226 C75.5873506,34.6701358 75.9561818,35.038967 77.2931951,35.038967 L89.0496906,35.038967 C90.3867038,35.038967 90.755535,34.6701358 90.755535,33.3331226 L90.755535,30.2902649 C90.755535,28.9532517 90.3867038,28.5844205 89.0496906,28.5844205 L82.7795596,28.5844205 C82.134105,28.5844205 81.9496894,28.353901 81.9496894,27.7545502 L81.9496894,21.0233802 C81.9496894,20.3779256 82.134105,20.19351 82.7795596,20.19351 L88.5886515,20.19351 C89.8334569,20.19351 90.2022882,19.8246787 90.2022882,18.4876655 L90.2022882,15.4448078 C90.2022882,14.1077946 89.8334569,13.7389634 88.4964437,13.7389634 L82.7795596,13.7389634 C82.134105,13.7389634 81.9496894,13.5084439 81.9496894,12.9090931 L81.9496894,7.74545587 Z" id="Path"></path>
            <path d="M104.86333,22.7292247 L104.86333,26.4636409 C104.86333,28.3077971 104.079563,29.0454595 102.327615,29.0454595 C100.62177,29.0454595 99.7919002,28.3077971 99.7919002,26.4636409 L99.7919002,9.03636518 C99.7919002,7.19220902 100.575667,6.45454656 102.189303,6.45454656 C103.80294,6.45454656 104.586706,7.19220902 104.586706,9.03636518 L104.586706,10.3733784 C104.586706,11.7103916 104.955537,12.0792228 106.292551,12.0792228 L109.243201,12.0792228 C110.580214,12.0792228 110.949045,11.7103916 110.949045,10.3733784 L110.949045,10.1428589 C110.949045,2.72013034 108.828265,0 102.143199,0 C95.4581332,0 93.2451458,2.72013034 93.2451458,10.1428589 L93.2451458,25.3571472 C93.2451458,32.7798757 95.4581332,35.5 102.143199,35.5 C108.828265,35.5 111.041253,32.7798757 111.041253,25.3571472 L111.041253,17.1506523 C111.041253,15.8136391 110.672422,15.4448078 109.335408,15.4448078 L103.480213,15.4448078 C102.143199,15.4448078 101.774368,15.8136391 101.774368,17.1506523 L101.774368,20.19351 C101.774368,21.5305232 102.143199,21.8993544 103.480213,21.8993544 L104.033459,21.8993544 C104.678914,21.8993544 104.86333,22.08377 104.86333,22.7292247 Z" id="Path"></path>
            <path d="M131.695802,24.8961082 L131.695802,10.6038979 C131.695802,2.85844205 129.482814,0 122.797748,0 C116.112682,0 113.899695,2.85844205 113.899695,10.6038979 L113.899695,24.8961082 C113.899695,32.6876679 116.112682,35.5 122.797748,35.5 C129.482814,35.5 131.695802,32.6876679 131.695802,24.8961082 Z M120.446449,26.4636409 L120.446449,9.2668847 C120.446449,7.23831293 121.184112,6.45454656 122.797748,6.45454656 C124.411385,6.45454656 125.149047,7.23831293 125.149047,9.2668847 L125.149047,26.4636409 C125.149047,28.3077971 124.411385,29.0454595 122.797748,29.0454595 C121.184112,29.0454595 120.446449,28.3077971 120.446449,26.4636409 Z" id="Shape"></path>
            <path d="M6.36233875,77.2416026 L6.36233875,71.1558873 C6.36233875,70.5104326 6.54675437,70.326017 7.19220902,70.326017 L10.9727292,70.326017 C11.6181838,70.326017 11.8025994,70.5104326 11.8025994,71.1558873 L11.8025994,77.2416026 C11.8025994,78.5786158 12.1714307,78.947447 13.5084439,78.947447 L16.4590937,78.947447 C17.7961069,78.947447 18.1649382,78.5786158 18.1649382,77.2416026 L18.1649382,65.4390032 C18.1649382,63.4104314 18.0727304,62.5344572 17.5194835,60.736405 L13.3240283,46.6747142 C12.7707814,44.7383503 12.3097424,44.369519 9.91233936,44.369519 L8.25259882,44.369519 C5.85519581,44.369519 5.39415677,44.7383503 4.84090992,46.6747142 L0.645454656,60.736405 C0.092207808,62.5805611 0,63.4104314 0,65.4390032 L0,77.2416026 C0,78.5786158 0.368831232,78.947447 1.70584445,78.947447 L4.6564943,78.947447 C5.99350752,78.947447 6.36233875,78.5786158 6.36233875,77.2416026 Z M11.1110409,63.8714704 L7.05389731,63.8714704 C6.54675437,63.8714704 6.27013094,63.6870548 6.27013094,63.2721197 C6.27013094,63.0416002 6.31623485,62.8110806 6.36233875,62.5805611 L8.48311834,53.6825076 C8.57532614,53.2214686 8.66753395,53.1292608 9.08246909,53.1292608 C9.49740422,53.1292608 9.58961203,53.2214686 9.68181984,53.6825076 L11.8025994,62.5805611 C11.8487033,62.8110806 11.8948072,63.0416002 11.8948072,63.2721197 C11.8948072,63.6870548 11.6181838,63.8714704 11.1110409,63.8714704 Z" id="Shape"></path>
            <path d="M33.3331226,77.6565377 C33.7019538,78.7630314 33.9785772,78.947447 35.2694866,78.947447 L38.6350716,78.947447 C39.8337731,78.947447 40.2948121,78.3942002 39.879877,77.1954987 L35.8227334,65.1623797 C35.7305256,64.8396524 35.6844217,64.7013407 35.6844217,64.563029 C35.6844217,64.3325095 35.7305256,64.2403017 36.007149,64.055886 C38.4506559,61.9812104 39.1422145,60.3214698 39.1422145,55.9877028 L39.1422145,52.6682218 C39.1422145,46.766922 35.9610451,44.369519 28.9532517,44.369519 L22.8675364,44.369519 C21.5305232,44.369519 21.1616919,44.7383503 21.1616919,46.0753635 L21.1616919,77.2416026 C21.1616919,78.5786158 21.5305232,78.947447 22.8675364,78.947447 L25.8181862,78.947447 C27.1551995,78.947447 27.5240307,78.5786158 27.5240307,77.2416026 L27.5240307,66.4532891 C27.5240307,65.8078344 27.7084463,65.6234188 28.353901,65.6234188 L28.5383166,65.6234188 C29.2298751,65.6234188 29.4142908,65.8078344 29.6448103,66.4532891 L33.3331226,77.6565377 Z M27.5240307,51.4234164 C27.5240307,50.7779617 27.7084463,50.5935461 28.353901,50.5935461 L29.3220829,50.5935461 C31.5811742,50.5935461 32.5954601,51.4695203 32.5954601,53.6364037 L32.5954601,56.1721185 C32.5954601,58.3851059 31.4889664,59.3532878 29.3220829,59.3532878 L28.353901,59.3532878 C27.7084463,59.3532878 27.5240307,59.1688722 27.5240307,58.5234176 L27.5240307,51.4234164 Z" id="Shape"></path>
            <path d="M54.6331262,77.6565377 C55.0019575,78.7630314 55.2785809,78.947447 56.5694902,78.947447 L59.9350752,78.947447 C61.1337767,78.947447 61.5948157,78.3942002 61.1798806,77.1954987 L57.1227371,65.1623797 C57.0305292,64.8396524 56.9844253,64.7013407 56.9844253,64.563029 C56.9844253,64.3325095 57.0305292,64.2403017 57.3071527,64.055886 C59.7506596,61.9812104 60.4422181,60.3214698 60.4422181,55.9877028 L60.4422181,52.6682218 C60.4422181,46.766922 57.2610488,44.369519 50.2532554,44.369519 L44.16754,44.369519 C42.8305268,44.369519 42.4616956,44.7383503 42.4616956,46.0753635 L42.4616956,77.2416026 C42.4616956,78.5786158 42.8305268,78.947447 44.16754,78.947447 L47.1181899,78.947447 C48.4552031,78.947447 48.8240343,78.5786158 48.8240343,77.2416026 L48.8240343,66.4532891 C48.8240343,65.8078344 49.00845,65.6234188 49.6539046,65.6234188 L49.8383202,65.6234188 C50.5298788,65.6234188 50.7142944,65.8078344 50.9448139,66.4532891 L54.6331262,77.6565377 Z M48.8240343,51.4234164 C48.8240343,50.7779617 49.00845,50.5935461 49.6539046,50.5935461 L50.6220866,50.5935461 C52.8811779,50.5935461 53.8954638,51.4695203 53.8954638,53.6364037 L53.8954638,56.1721185 C53.8954638,58.3851059 52.7889701,59.3532878 50.6220866,59.3532878 L49.6539046,59.3532878 C49.00845,59.3532878 48.8240343,59.1688722 48.8240343,58.5234176 L48.8240343,51.4234164 Z" id="Shape"></path>
            <path d="M70.124038,46.0753635 C70.124038,44.7383503 69.7552068,44.369519 68.4181935,44.369519 L65.4675437,44.369519 C64.1305305,44.369519 63.7616992,44.7383503 63.7616992,46.0753635 L63.7616992,77.2416026 C63.7616992,78.5786158 64.1305305,78.947447 65.4675437,78.947447 L68.4181935,78.947447 C69.7552068,78.947447 70.124038,78.5786158 70.124038,77.2416026 L70.124038,46.0753635 Z" id="Path"></path>
            <path d="M79.5292344,44.369519 C77.4545587,44.369519 76.8091041,45.0610776 76.5785845,46.766922 L72.521441,77.2416026 C72.3370254,78.5786158 72.7058566,78.947447 74.0428698,78.947447 L77.2240392,78.947447 C78.6071563,78.947447 78.9298836,78.6247197 79.1142993,77.2416026 L79.71365,72.2162771 C79.7597539,71.755238 79.8980656,71.6169263 80.4513125,71.6169263 L84.4162482,71.6169263 C84.9694951,71.6169263 85.1078068,71.755238 85.1539107,72.2162771 L85.7532614,77.2416026 C85.9376771,78.6247197 86.2604044,78.947447 87.6435215,78.947447 L90.8246909,78.947447 C92.1617041,78.947447 92.5305353,78.5786158 92.3461197,77.2416026 L88.2889762,46.766922 C88.0584566,45.0610776 87.413002,44.369519 85.3383263,44.369519 L79.5292344,44.369519 Z M83.2636506,53.7747155 L84.3240404,64.5169251 C84.3701443,65.0701719 84.2318326,65.2084836 83.6324819,65.2084836 L81.2350788,65.2084836 C80.6357281,65.2084836 80.4974164,65.0701719 80.5435203,64.5169251 L81.6039101,53.7747155 C81.650014,53.2214686 81.9266374,53.1292608 82.4337804,53.1292608 C82.9409233,53.1292608 83.2175467,53.2214686 83.2636506,53.7747155 Z" id="Shape"></path>
            <path d="M105.900667,66.6377047 L105.900667,70.3721209 C105.900667,72.2162771 105.116901,72.9539395 103.364953,72.9539395 C101.659108,72.9539395 100.829238,72.2162771 100.829238,70.3721209 L100.829238,52.9448452 C100.829238,51.100689 101.613004,50.3630266 103.226641,50.3630266 C104.840278,50.3630266 105.624044,51.100689 105.624044,52.9448452 L105.624044,54.2818584 C105.624044,55.6188716 105.992875,55.9877028 107.329889,55.9877028 L110.280538,55.9877028 C111.617552,55.9877028 111.986383,55.6188716 111.986383,54.2818584 L111.986383,54.0513389 C111.986383,46.6286103 109.865603,43.90848 103.180537,43.90848 C96.4954711,43.90848 94.2824837,46.6286103 94.2824837,54.0513389 L94.2824837,69.2656272 C94.2824837,76.6883557 96.4954711,79.40848 103.180537,79.40848 C109.865603,79.40848 112.078591,76.6883557 112.078591,69.2656272 L112.078591,61.0591323 C112.078591,59.7221191 111.709759,59.3532878 110.372746,59.3532878 L104.51755,59.3532878 C103.180537,59.3532878 102.811706,59.7221191 102.811706,61.0591323 L102.811706,64.10199 C102.811706,65.4390032 103.180537,65.8078344 104.51755,65.8078344 L105.070797,65.8078344 C105.716252,65.8078344 105.900667,65.99225 105.900667,66.6377047 Z" id="Path"></path>
            <path d="M120.838332,44.369519 C118.763657,44.369519 118.118202,45.0610776 117.887683,46.766922 L113.830539,77.2416026 C113.646123,78.5786158 114.014955,78.947447 115.351968,78.947447 L118.533137,78.947447 C119.916254,78.947447 120.238982,78.6247197 120.423397,77.2416026 L121.022748,72.2162771 C121.068852,71.755238 121.207164,71.6169263 121.76041,71.6169263 L125.725346,71.6169263 C126.278593,71.6169263 126.416905,71.755238 126.463009,72.2162771 L127.062359,77.2416026 C127.246775,78.6247197 127.569502,78.947447 128.952619,78.947447 L132.133789,78.947447 C133.470802,78.947447 133.839633,78.5786158 133.655218,77.2416026 L129.598074,46.766922 C129.367555,45.0610776 128.7221,44.369519 126.647424,44.369519 L120.838332,44.369519 Z M124.572749,53.7747155 L125.633138,64.5169251 C125.679242,65.0701719 125.540931,65.2084836 124.94158,65.2084836 L122.544177,65.2084836 C121.944826,65.2084836 121.806514,65.0701719 121.852618,64.5169251 L122.913008,53.7747155 C122.959112,53.2214686 123.235735,53.1292608 123.742878,53.1292608 C124.250021,53.1292608 124.526645,53.2214686 124.572749,53.7747155 Z" id="Shape"></path>
            <path d="M143.383141,44.369519 L137.758465,44.369519 C136.421452,44.369519 136.052621,44.7383503 136.052621,46.0753635 L136.052621,77.2416026 C136.052621,78.5786158 136.421452,78.947447 137.758465,78.947447 L143.383141,78.947447 C152.235091,78.947447 154.033143,75.7201738 154.033143,67.8825101 L154.033143,55.434456 C154.033143,47.5967923 152.235091,44.369519 143.383141,44.369519 Z M143.24483,50.8240656 L143.751973,50.8240656 C146.333791,50.8240656 147.486389,52.0227671 147.486389,55.0195209 L147.486389,68.2974452 C147.486389,71.294199 146.333791,72.4929005 143.751973,72.4929005 L143.24483,72.4929005 C142.599375,72.4929005 142.414959,72.262381 142.414959,71.6630302 L142.414959,51.6539359 C142.414959,51.0084812 142.599375,50.8240656 143.24483,50.8240656 Z" id="Shape"></path>
            <path d="M162.885093,44.369519 C160.810417,44.369519 160.164962,45.0610776 159.934443,46.766922 L155.877299,77.2416026 C155.692884,78.5786158 156.061715,78.947447 157.398728,78.947447 L160.579898,78.947447 C161.963015,78.947447 162.285742,78.6247197 162.470158,77.2416026 L163.069508,72.2162771 C163.115612,71.755238 163.253924,71.6169263 163.807171,71.6169263 L167.772107,71.6169263 C168.325354,71.6169263 168.463665,71.755238 168.509769,72.2162771 L169.10912,77.2416026 C169.293535,78.6247197 169.616263,78.947447 170.99938,78.947447 L174.180549,78.947447 C175.517563,78.947447 175.886394,78.5786158 175.701978,77.2416026 L171.644835,46.766922 C171.414315,45.0610776 170.76886,44.369519 168.694185,44.369519 L162.885093,44.369519 Z M166.619509,53.7747155 L167.679899,64.5169251 C167.726003,65.0701719 167.587691,65.2084836 166.98834,65.2084836 L164.590937,65.2084836 C163.991587,65.2084836 163.853275,65.0701719 163.899379,64.5169251 L164.959769,53.7747155 C165.005872,53.2214686 165.282496,53.1292608 165.789639,53.1292608 C166.296782,53.1292608 166.573405,53.2214686 166.619509,53.7747155 Z" id="Shape"></path>
        </g>
    </g>
</svg>