<?xml version="1.0" encoding="UTF-8"?><svg version="1.1" width="183px" height="87px" viewBox="0 0 183.0 87.0" xmlns="http://www.w3.org/2000/svg" xmlns:xlink="http://www.w3.org/1999/xlink"><defs><clipPath id="i0"><path d="M183,0 L183,87 L0,87 L0,0 L183,0 Z"></path></clipPath><clipPath id="i1"><path d="M7.33052074,0 C16.1824703,0 17.9805226,3.22727328 17.9805226,11.064937 L17.9805226,23.512991 C17.9805226,31.3506547 16.1824703,34.577928 7.33052074,34.577928 L1.70584445,34.577928 C0.368831232,34.577928 0,34.2090968 0,32.8720836 L0,1.70584445 C0,0.368831232 0.368831232,0 1.70584445,0 Z M7.69935197,6.45454656 L7.19220902,6.45454656 C6.54675437,6.45454656 6.36233875,6.63896218 6.36233875,7.28441683 L6.36233875,27.2935112 C6.36233875,27.8928619 6.54675437,28.1233814 7.19220902,28.1233814 L7.69935197,28.1233814 C10.2811706,28.1233814 11.4337682,26.9246799 11.4337682,23.9279262 L11.4337682,10.6500018 C11.4337682,7.65324806 10.2811706,6.45454656 7.69935197,6.45454656 Z"></path></clipPath><clipPath id="i2"><path d="M4.6564943,0 C5.99350752,0 6.36233875,0.368831232 6.36233875,1.70584445 L6.36233875,32.8720836 C6.36233875,34.2090968 5.99350752,34.577928 4.6564943,34.577928 L1.70584445,34.577928 C0.368831232,34.577928 0,34.2090968 0,32.8720836 L0,1.70584445 C0,0.368831232 0.368831232,0 1.70584445,0 Z"></path></clipPath><clipPath id="i3"><path d="M13.46234,0 C14.7993532,0 15.1681844,0.368831232 15.1681844,1.70584445 L15.1681844,4.74870211 C15.1681844,6.08571533 14.7993532,6.45454656 13.46234,6.45454656 L7.19220902,6.45454656 C6.54675437,6.45454656 6.36233875,6.63896218 6.36233875,7.28441683 L6.36233875,12.4480541 C6.36233875,13.0474048 6.54675437,13.2779244 7.19220902,13.2779244 L12.9090931,13.2779244 C14.2461063,13.2779244 14.6149376,13.6467556 14.6149376,14.9837688 L14.6149376,18.0266265 C14.6149376,19.3636397 14.2461063,19.7324709 13.0013009,19.7324709 L7.19220902,19.7324709 C6.54675437,19.7324709 6.36233875,19.9168865 6.36233875,20.5623412 L6.36233875,27.2935112 C6.36233875,27.8928619 6.54675437,28.1233814 7.19220902,28.1233814 L13.46234,28.1233814 C14.7993532,28.1233814 15.1681844,28.4922127 15.1681844,29.8292259 L15.1681844,32.8720836 C15.1681844,34.2090968 14.7993532,34.577928 13.46234,34.577928 L1.70584445,34.577928 C0.368831232,34.577928 0,34.2090968 0,32.8720836 L0,1.70584445 C0,0.368831232 0.368831232,0 1.70584445,0 Z"></path></clipPath><clipPath id="i4"><path d="M8.89805347,0 C15.5831196,0 17.7038991,2.72013034 17.7038991,10.1428589 L17.7038991,10.3733784 C17.7038991,11.7103916 17.3350679,12.0792228 15.9980547,12.0792228 L13.0474048,12.0792228 C11.7103916,12.0792228 11.3415604,11.7103916 11.3415604,10.3733784 L11.3415604,9.03636518 C11.3415604,7.19220902 10.557794,6.45454656 8.94415738,6.45454656 C7.33052074,6.45454656 6.54675437,7.19220902 6.54675437,9.03636518 L6.54675437,26.4636409 C6.54675437,28.3077971 7.37662464,29.0454595 9.08246909,29.0454595 C10.8344174,29.0454595 11.6181838,28.3077971 11.6181838,26.4636409 L11.6181838,22.7292247 C11.6181838,22.08377 11.4337682,21.8993544 10.7883135,21.8993544 L10.2350667,21.8993544 C8.89805347,21.8993544 8.52922224,21.5305232 8.52922224,20.19351 L8.52922224,17.1506523 C8.52922224,15.8136391 8.89805347,15.4448078 10.2350667,15.4448078 L16.0902625,15.4448078 C17.4272757,15.4448078 17.7961069,15.8136391 17.7961069,17.1506523 L17.7961069,25.3571472 C17.7961069,32.7798757 15.5831196,35.5 8.89805347,35.5 C2.21298739,35.5 0,32.7798757 0,25.3571472 L0,10.1428589 C0,2.72013034 2.21298739,0 8.89805347,0 Z"></path></clipPath><clipPath id="i5"><path d="M8.89805347,0 C15.5831196,0 17.7961069,2.85844205 17.7961069,10.6038979 L17.7961069,24.8961082 C17.7961069,32.6876679 15.5831196,35.5 8.89805347,35.5 C2.21298739,35.5 0,32.6876679 0,24.8961082 L0,10.6038979 C0,2.85844205 2.21298739,0 8.89805347,0 Z M8.89805347,6.45454656 C7.28441683,6.45454656 6.54675437,7.23831293 6.54675437,9.2668847 L6.54675437,26.4636409 C6.54675437,28.3077971 7.28441683,29.0454595 8.89805347,29.0454595 C10.5116901,29.0454595 11.2493526,28.3077971 11.2493526,26.4636409 L11.2493526,9.2668847 C11.2493526,7.23831293 10.5116901,6.45454656 8.89805347,6.45454656 Z"></path></clipPath><clipPath id="i6"><path d="M9.91233936,0 C12.3097424,0 12.7707814,0.368831232 13.3240283,2.3051952 L17.5194835,16.3668859 C18.0727304,18.1649382 18.1649382,19.0409124 18.1649382,21.0694841 L18.1649382,32.8720836 C18.1649382,34.2090968 17.7961069,34.577928 16.4590937,34.577928 L13.5084439,34.577928 C12.1714307,34.577928 11.8025994,34.2090968 11.8025994,32.8720836 L11.8025994,26.7863682 C11.8025994,26.1409136 11.6181838,25.956498 10.9727292,25.956498 L7.19220902,25.956498 C6.54675437,25.956498 6.36233875,26.1409136 6.36233875,26.7863682 L6.36233875,32.8720836 C6.36233875,34.2090968 5.99350752,34.577928 4.6564943,34.577928 L1.70584445,34.577928 C0.368831232,34.577928 0,34.2090968 0,32.8720836 L0,21.0694841 C0,19.0409124 0.092207808,18.2110421 0.645454656,16.3668859 L4.84090992,2.3051952 C5.39415677,0.368831232 5.85519581,0 8.25259882,0 Z M9.08246909,8.75974176 C8.66753395,8.75974176 8.57532614,8.85194957 8.48311834,9.31298861 L6.36233875,18.2110421 C6.31623485,18.4415616 6.27013094,18.6720811 6.27013094,18.9026006 C6.27013094,19.3175358 6.54675437,19.5019514 7.05389731,19.5019514 L11.1110409,19.5019514 C11.6181838,19.5019514 11.8948072,19.3175358 11.8948072,18.9026006 C11.8948072,18.6720811 11.8487033,18.4415616 11.8025994,18.2110421 L9.68181984,9.31298861 C9.58961203,8.85194957 9.49740422,8.75974176 9.08246909,8.75974176 Z"></path></clipPath><clipPath id="i7"><path d="M7.79155978,0 C14.7993532,0 17.9805226,2.39740301 17.9805226,8.29870272 L17.9805226,11.6181838 C17.9805226,15.9519508 17.288964,17.6116913 14.8454571,19.686367 C14.5688337,19.8707826 14.5227298,19.9629904 14.5227298,20.19351 C14.5227298,20.3318217 14.5688337,20.4701334 14.6610415,20.7928607 L18.718185,32.8259796 C19.1331202,34.0246812 18.6720811,34.577928 17.4733796,34.577928 L14.1077946,34.577928 C12.8168853,34.577928 12.5402619,34.3935124 12.1714307,33.2870187 L8.48311834,22.08377 C8.25259882,21.4383154 8.0681832,21.2538997 7.37662464,21.2538997 L7.19220902,21.2538997 C6.54675437,21.2538997 6.36233875,21.4383154 6.36233875,22.08377 L6.36233875,32.8720836 C6.36233875,34.2090968 5.99350752,34.577928 4.6564943,34.577928 L1.70584445,34.577928 C0.368831232,34.577928 0,34.2090968 0,32.8720836 L0,1.70584445 C0,0.368831232 0.368831232,0 1.70584445,0 Z M8.16039101,6.22402704 L7.19220902,6.22402704 C6.54675437,6.22402704 6.36233875,6.40844266 6.36233875,7.05389731 L6.36233875,14.1538985 C6.36233875,14.7993532 6.54675437,14.9837688 7.19220902,14.9837688 L8.16039101,14.9837688 C10.3272745,14.9837688 11.4337682,14.0155868 11.4337682,11.8025994 L11.4337682,9.2668847 C11.4337682,7.10000122 10.4194823,6.22402704 8.16039101,6.22402704 Z"></path></clipPath><clipPath id="i8"><path d="M7.79155978,0 C14.7993532,0 17.9805226,2.39740301 17.9805226,8.29870272 L17.9805226,11.6181838 C17.9805226,15.9519508 17.288964,17.6116913 14.8454571,19.686367 C14.5688337,19.8707826 14.5227298,19.9629904 14.5227298,20.19351 C14.5227298,20.3318217 14.5688337,20.4701334 14.6610415,20.7928607 L18.718185,32.8259796 C19.1331202,34.0246812 18.6720811,34.577928 17.4733796,34.577928 L14.1077946,34.577928 C12.8168853,34.577928 12.5402619,34.3935124 12.1714307,33.2870187 L8.48311834,22.08377 C8.25259882,21.4383154 8.0681832,21.2538997 7.37662464,21.2538997 L7.19220902,21.2538997 C6.54675437,21.2538997 6.36233875,21.4383154 6.36233875,22.08377 L6.36233875,32.8720836 C6.36233875,34.2090968 5.99350752,34.577928 4.6564943,34.577928 L1.70584445,34.577928 C0.368831232,34.577928 0,34.2090968 0,32.8720836 L0,1.70584445 C0,0.368831232 0.368831232,0 1.70584445,0 Z M8.16039101,6.22402704 L7.19220902,6.22402704 C6.54675437,6.22402704 6.36233875,6.40844266 6.36233875,7.05389731 L6.36233875,14.1538985 C6.36233875,14.7993532 6.54675437,14.9837688 7.19220902,14.9837688 L8.16039101,14.9837688 C10.3272745,14.9837688 11.4337682,14.0155868 11.4337682,11.8025994 L11.4337682,9.2668847 C11.4337682,7.10000122 10.4194823,6.22402704 8.16039101,6.22402704 Z"></path></clipPath><clipPath id="i9"><path d="M4.6564943,0 C5.99350752,0 6.36233875,0.368831232 6.36233875,1.70584445 L6.36233875,32.8720836 C6.36233875,34.2090968 5.99350752,34.577928 4.6564943,34.577928 L1.70584445,34.577928 C0.368831232,34.577928 0,34.2090968 0,32.8720836 L0,1.70584445 C0,0.368831232 0.368831232,0 1.70584445,0 Z"></path></clipPath><clipPath id="i10"><path d="M12.8612286,0 C14.9359043,0 15.581359,0.69155856 15.8118785,2.39740301 L19.869022,32.8720836 C20.0534377,34.2090968 19.6846064,34.577928 18.3475932,34.577928 L15.1664238,34.577928 C13.7833067,34.577928 13.4605794,34.2552007 13.2761638,32.8720836 L12.676813,27.846758 C12.6307091,27.385719 12.4923974,27.2474073 11.9391506,27.2474073 L7.97421481,27.2474073 C7.42096796,27.2474073 7.28265625,27.385719 7.23655235,27.846758 L6.63720159,32.8720836 C6.45278598,34.2552007 6.13005865,34.577928 4.74694153,34.577928 L1.56577215,34.577928 C0.228758938,34.577928 -0.140072294,34.2090968 0.0443433219,32.8720836 L4.10148687,2.39740301 C4.33200639,0.69155856 4.97746105,0 7.05213673,0 Z M9.95668268,8.75974176 C9.44953974,8.75974176 9.17291631,8.85194957 9.12681241,9.40519642 L8.06642262,20.147406 C8.02031871,20.7006529 8.15863043,20.8389646 8.75798118,20.8389646 L11.1553842,20.8389646 C11.7547349,20.8389646 11.8930466,20.7006529 11.8469427,20.147406 L10.786553,9.40519642 C10.740449,8.85194957 10.4638256,8.75974176 9.95668268,8.75974176 Z"></path></clipPath><clipPath id="i11"><path d="M8.89805347,0 C15.5831196,0 17.7038991,2.72013034 17.7038991,10.1428589 L17.7038991,10.3733784 C17.7038991,11.7103916 17.3350679,12.0792228 15.9980547,12.0792228 L13.0474048,12.0792228 C11.7103916,12.0792228 11.3415604,11.7103916 11.3415604,10.3733784 L11.3415604,9.03636518 C11.3415604,7.19220902 10.557794,6.45454656 8.94415738,6.45454656 C7.33052074,6.45454656 6.54675437,7.19220902 6.54675437,9.03636518 L6.54675437,26.4636409 C6.54675437,28.3077971 7.37662464,29.0454595 9.08246909,29.0454595 C10.8344174,29.0454595 11.6181838,28.3077971 11.6181838,26.4636409 L11.6181838,22.7292247 C11.6181838,22.08377 11.4337682,21.8993544 10.7883135,21.8993544 L10.2350667,21.8993544 C8.89805347,21.8993544 8.52922224,21.5305232 8.52922224,20.19351 L8.52922224,17.1506523 C8.52922224,15.8136391 8.89805347,15.4448078 10.2350667,15.4448078 L16.0902625,15.4448078 C17.4272757,15.4448078 17.7961069,15.8136391 17.7961069,17.1506523 L17.7961069,25.3571472 C17.7961069,32.7798757 15.5831196,35.5 8.89805347,35.5 C2.21298739,35.5 0,32.7798757 0,25.3571472 L0,10.1428589 C0,2.72013034 2.21298739,0 8.89805347,0 Z"></path></clipPath><clipPath id="i12"><path d="M12.8612286,0 C14.9359043,0 15.581359,0.69155856 15.8118785,2.39740301 L19.869022,32.8720836 C20.0534377,34.2090968 19.6846064,34.577928 18.3475932,34.577928 L15.1664238,34.577928 C13.7833067,34.577928 13.4605794,34.2552007 13.2761638,32.8720836 L12.676813,27.846758 C12.6307091,27.385719 12.4923974,27.2474073 11.9391506,27.2474073 L7.97421481,27.2474073 C7.42096796,27.2474073 7.28265625,27.385719 7.23655235,27.846758 L6.63720159,32.8720836 C6.45278598,34.2552007 6.13005865,34.577928 4.74694153,34.577928 L1.56577215,34.577928 C0.228758938,34.577928 -0.140072294,34.2090968 0.0443433219,32.8720836 L4.10148687,2.39740301 C4.33200639,0.69155856 4.97746105,0 7.05213673,0 Z M9.95668268,8.75974176 C9.44953974,8.75974176 9.17291631,8.85194957 9.12681241,9.40519642 L8.06642262,20.147406 C8.02031871,20.7006529 8.15863043,20.8389646 8.75798118,20.8389646 L11.1553842,20.8389646 C11.7547349,20.8389646 11.8930466,20.7006529 11.8469427,20.147406 L10.786553,9.40519642 C10.740449,8.85194957 10.4638256,8.75974176 9.95668268,8.75974176 Z"></path></clipPath><clipPath id="i13"><path d="M7.33052074,0 C16.1824703,0 17.9805226,3.22727328 17.9805226,11.064937 L17.9805226,23.512991 C17.9805226,31.3506547 16.1824703,34.577928 7.33052074,34.577928 L1.70584445,34.577928 C0.368831232,34.577928 0,34.2090968 0,32.8720836 L0,1.70584445 C0,0.368831232 0.368831232,0 1.70584445,0 Z M7.69935197,6.45454656 L7.19220902,6.45454656 C6.54675437,6.45454656 6.36233875,6.63896218 6.36233875,7.28441683 L6.36233875,27.2935112 C6.36233875,27.8928619 6.54675437,28.1233814 7.19220902,28.1233814 L7.69935197,28.1233814 C10.2811706,28.1233814 11.4337682,26.9246799 11.4337682,23.9279262 L11.4337682,10.6500018 C11.4337682,7.65324806 10.2811706,6.45454656 7.69935197,6.45454656 Z"></path></clipPath></defs><g clip-path="url(#i0)"><g transform="translate(3.924686303999806 3.642312959999799)"><g transform="translate(43.867864655999256 0.46103904000028706)"><g clip-path="url(#i1)"><polygon points="0,0 17.9805226,0 17.9805226,34.577928 0,34.577928 0,0" stroke="none" fill="#FF2286"></polygon></g></g><g transform="translate(65.2600761120002 0.46103904000028706)"><g clip-path="url(#i2)"><polygon points="0,0 6.36233875,0 6.36233875,34.577928 0,34.577928 0,0" stroke="none" fill="#FF2286"></polygon></g></g><g transform="translate(75.58735060799972 0.46103904000028706)"><g clip-path="url(#i3)"><polygon points="0,0 15.1681844,0 15.1681844,34.577928 0,34.577928 0,0" stroke="none" fill="#FF2286"></polygon></g></g><g transform="translate(93.24514583999917 0.0)"><g clip-path="url(#i4)"><polygon points="0,0 17.7961069,0 17.7961069,35.5 0,35.5 0,0" stroke="none" fill="#FF2286"></polygon></g></g><g transform="translate(113.89969483200002 0.0)"><g clip-path="url(#i5)"><polygon points="0,0 17.7961069,0 17.7961069,35.5 0,35.5 0,0" stroke="none" fill="#FF2286"></polygon></g></g><g transform="translate(0.0 44.36951904000034)"><g clip-path="url(#i6)"><polygon points="0,0 18.1649382,0 18.1649382,34.577928 0,34.577928 0,0" stroke="none" fill="#FF2286"></polygon></g></g><g transform="translate(21.161691935998533 44.36951904000034)"><g clip-path="url(#i7)"><polygon points="0,0 18.8674873,0 18.8674873,34.577928 0,34.577928 0,0" stroke="none" fill="#FF2286"></polygon></g></g><g transform="translate(42.461695583999244 44.36951904000034)"><g clip-path="url(#i8)"><polygon points="0,0 18.8674873,0 18.8674873,34.577928 0,34.577928 0,0" stroke="none" fill="#FF2286"></polygon></g></g><g transform="translate(63.761699232000865 44.36951904000034)"><g clip-path="url(#i9)"><polygon points="0,0 6.36233875,0 6.36233875,34.577928 0,34.577928 0,0" stroke="none" fill="#FF2286"></polygon></g></g><g transform="translate(72.47709767007655 44.36951904000034)"><g clip-path="url(#i10)"><polygon points="6.9388939e-18,0 19.9133654,0 19.9133654,34.577928 6.9388939e-18,34.577928 6.9388939e-18,0" stroke="none" fill="#FF2286"></polygon></g></g><g transform="translate(94.28248367999913 43.908480000000054)"><g clip-path="url(#i11)"><polygon points="0,0 17.7961069,0 17.7961069,35.5 0,35.5 0,0" stroke="none" fill="#FF2286"></polygon></g></g><g transform="translate(113.78619565407644 44.36951904000034)"><g clip-path="url(#i12)"><polygon points="0,0 19.9133654,0 19.9133654,34.577928 0,34.577928 0,0" stroke="none" fill="#FF2286"></polygon></g></g><g transform="translate(136.0526207039993 44.36951904000034)"><g clip-path="url(#i13)"><polygon points="0,0 17.9805226,0 17.9805226,34.577928 0,34.577928 0,0" stroke="none" fill="#FF2286"></polygon></g></g><g transform="translate(155.83295610207642 44.36951904000034)"><g clip-path="url(#i12)"><polygon points="0,0 19.9133654,0 19.9133654,34.577928 0,34.577928 0,0" stroke="none" fill="#FF2286"></polygon></g></g></g></g></svg>