<?xml version="1.0" encoding="UTF-8"?>
<svg width="74px" height="56px" viewBox="0 0 74 56" version="1.1" xmlns="http://www.w3.org/2000/svg" xmlns:xlink="http://www.w3.org/1999/xlink">
    <title>skull</title>
    <defs>
        <polygon id="path-1" points="3.55271368e-15 0 31.566 0 31.566 32.5658 3.55271368e-15 32.5658"></polygon>
        <polygon id="path-3" points="0 0 36.868 0 36.868 6.2319 0 6.2319"></polygon>
        <polygon id="path-5" points="0 0 15.566 0 15.566 32.5658 0 32.5658"></polygon>
        <polygon id="path-7" points="0 0 15.566 0 15.566 5.2429 0 5.2429"></polygon>
        <polygon id="path-9" points="0 50.968 67.684 50.968 67.684 0 0 0"></polygon>
    </defs>
    <g id="skull" stroke="none" stroke-width="1" fill="none" fill-rule="evenodd">
        <g id="Group-79" transform="translate(3.000000, 3.000000)">
            <polygon id="Fill-1" fill="#AD9277" points="21.312 33.636 47.809 33.636 47.809 30.797 21.312 30.797"></polygon>
            <g id="Group-78">
                <g id="Group-4" transform="translate(13.498100, 0.000000)">
                    <mask id="mask-2" fill="white">
                        <use xlink:href="#path-1"></use>
                    </mask>
                    <g id="Clip-3"></g>
                    <path d="M31.566,32.5658 L2,32.5658 C0.9,32.5658 3.55271368e-15,31.6658 3.55271368e-15,30.5658 L3.55271368e-15,1.9998 C3.55271368e-15,0.8998 0.9,-0.0002 2,-0.0002 L31.566,-0.0002 L31.566,32.5658 Z" id="Fill-2" fill="#F9EDDC" mask="url(#mask-2)"></path>
                </g>
                <path d="M51.7047,31.2827 L15.4987,31.2547 C14.3977,31.2547 13.4987,30.3547 13.4987,29.2547 L13.4987,30.5657 C13.4987,31.6657 14.3977,32.5657 15.4987,32.5657 L51.7047,32.5657 C54.4547,32.5657 56.7047,30.3157 56.7047,27.5657 L56.7047,26.2827 C56.7047,29.0327 54.4547,31.2827 51.7047,31.2827" id="Fill-5" fill="#CCB193"></path>
                <g id="Group-9" transform="translate(13.498300, 0.000000)">
                    <mask id="mask-4" fill="white">
                        <use xlink:href="#path-3"></use>
                    </mask>
                    <g id="Clip-8"></g>
                    <path d="M31.868,-0.0001 L2,-0.0001 C0.9,-0.0001 0,0.8999 0,1.9999 L0,3.3109 C0,2.2109 0.9,1.3109 2,1.3109 L31.868,1.2319 C34.618,1.2319 36.868,3.4819 36.868,6.2319 L36.868,4.9999 C36.868,2.2499 34.618,-0.0001 31.868,-0.0001" id="Fill-7" fill="#FFFFFF" mask="url(#mask-4)"></path>
                </g>
                <path d="M38.4184,28.7248 L17.0744,28.7248 C16.5004,28.7248 16.0304,28.2548 16.0304,27.6818 L16.0304,5.3808 C16.0304,4.8068 16.5004,4.3368 17.0744,4.3368 L38.4184,4.3368 C38.9924,4.3368 39.4614,4.8068 39.4614,5.3808 L39.4614,27.6818 C39.4614,28.2548 38.9924,28.7248 38.4184,28.7248" id="Fill-10" fill="#FFFFFF"></path>
                <path d="M38.4184,28.2288 L17.0744,28.2288 C16.5004,28.2288 16.0304,27.7588 16.0304,27.1858 L16.0304,4.8848 C16.0304,4.3108 16.5004,3.8408 17.0744,3.8408 L38.4184,3.8408 C38.9924,3.8408 39.4614,4.3108 39.4614,4.8848 L39.4614,27.1858 C39.4614,27.7588 38.9924,28.2288 38.4184,28.2288" id="Fill-12" fill="#CCB193"></path>
                <path d="M38.4878,26.5403 L18.7628,26.5403 C18.2268,26.5403 17.7888,26.1023 17.7888,25.5663 L17.7888,4.8153 C17.7888,4.2793 18.2268,3.8413 18.7628,3.8413 L38.4878,3.8413 C39.0238,3.8413 39.4618,4.2793 39.4618,4.8153 L39.4618,25.5663 C39.4618,26.1023 39.0238,26.5403 38.4878,26.5403" id="Fill-14" fill="#162625"></path>
                <g id="Group-18" transform="translate(42.138700, 0.000000)">
                    <mask id="mask-6" fill="white">
                        <use xlink:href="#path-5"></use>
                    </mask>
                    <g id="Clip-17"></g>
                    <path d="M11.566,32.5658 L4,32.5658 C1.791,32.5658 0,30.7748 0,28.5658 L0,3.9998 C0,1.7908 1.791,-0.0002 4,-0.0002 L11.566,-0.0002 C13.766,-0.0002 15.566,1.7998 15.566,3.9998 L15.566,28.5658 C15.566,30.7658 13.766,32.5658 11.566,32.5658" id="Fill-16" fill="#DBC6AD" mask="url(#mask-6)"></path>
                </g>
                <g id="Group-21" transform="translate(42.138700, 0.000000)">
                    <mask id="mask-8" fill="white">
                        <use xlink:href="#path-7"></use>
                    </mask>
                    <g id="Clip-20"></g>
                    <path d="M11.566,-0.0001 L4,-0.0001 C1.791,-0.0001 0,1.7909 0,3.9999 L0,5.2429 C0,3.0339 1.791,1.2429 4,1.2429 L11.566,1.2429 C13.766,1.2429 15.566,3.0429 15.566,5.2429 L15.566,3.9999 C15.566,1.7999 13.766,-0.0001 11.566,-0.0001" id="Fill-19" fill="#FFFFFF" mask="url(#mask-8)"></path>
                </g>
                <path d="M53.7047,32.5658 L46.1387,32.5658 C43.9297,32.5658 42.1387,30.7748 42.1387,28.5658 L42.1387,27.3228 C42.1387,29.5318 43.9297,31.3228 46.1387,31.3228 L53.7047,31.3228 C55.9047,31.3228 57.7047,29.5228 57.7047,27.3228 L57.7047,28.5658 C57.7047,30.7658 55.9047,32.5658 53.7047,32.5658" id="Fill-22" fill="#CCB193"></path>
                <path d="M46.0893,50.085 L12.4553,50.085 C11.3503,50.085 10.4553,49.19 10.4553,48.085 L10.4553,34.609 C10.4553,33.505 11.3503,32.609 12.4553,32.609 L46.0893,32.609 C47.1943,32.609 48.0893,33.505 48.0893,34.609 L48.0893,48.085 C48.0893,49.19 47.1943,50.085 46.0893,50.085" id="Fill-24" fill="#F9EDDC"></path>
                <path d="M39.0614,43.2077 L33.0324,43.2077 C31.2354,43.2077 29.7654,41.7377 29.7654,39.9407 L29.7654,39.9407 C29.7654,38.1427 31.2354,36.6727 33.0324,36.6727 L39.0614,36.6727 C40.8584,36.6727 42.3284,38.1427 42.3284,39.9407 L42.3284,39.9407 C42.3284,41.7377 40.8584,43.2077 39.0614,43.2077" id="Fill-26" fill="#FFFFFF"></path>
                <path d="M57.6764,48.9863 L12.3834,48.9863 C11.4534,48.9863 10.6794,48.3483 10.4554,47.4883 L10.4554,48.0853 C10.4554,49.1893 11.3504,50.0853 12.4554,50.0853 L57.7474,50.0853 C58.8524,50.0853 59.7474,49.1893 59.7474,48.0853 L59.7474,46.9863 C59.7474,48.0913 58.7814,48.9863 57.6764,48.9863" id="Fill-28" fill="#AD9277"></path>
                <mask id="mask-10" fill="white">
                    <use xlink:href="#path-9"></use>
                </mask>
                <g id="Clip-31"></g>
                <polygon id="Fill-30" fill="#DBC6AD" mask="url(#mask-10)" points="10.456 45.924 44.114 45.924 44.114 44.759 10.456 44.759"></polygon>
                <polygon id="Fill-32" fill="#FFFFFF" mask="url(#mask-10)" points="10.456 46.235 44.114 46.235 44.114 45.924 10.456 45.924"></polygon>
                <path d="M45.8085,32.6093 L12.4555,32.6093 C11.3505,32.6093 10.4555,33.5043 10.4555,34.6093 L10.4555,35.2063 C10.6785,34.3463 11.4535,33.7083 12.3835,33.7083 L45.7375,33.7083 C46.8415,33.7083 47.8085,34.6033 47.8085,35.7083 L47.8085,34.6093 C47.8085,33.5043 46.9135,32.6093 45.8085,32.6093" id="Fill-33" fill="#FFFFFF" mask="url(#mask-10)"></path>
                <path d="M57.7477,50.085 L46.1137,50.085 C45.0087,50.085 44.1137,49.19 44.1137,48.085 L44.1137,34.609 C44.1137,33.505 45.0087,32.609 46.1137,32.609 L57.7477,32.609 C58.8527,32.609 59.7477,33.505 59.7477,34.609 L59.7477,48.085 C59.7477,49.19 58.8527,50.085 57.7477,50.085" id="Fill-34" fill="#CCB193" mask="url(#mask-10)"></path>
                <polygon id="Fill-35" fill="#AD9277" mask="url(#mask-10)" points="44.114 45.924 59.748 45.924 59.748 44.759 44.114 44.759"></polygon>
                <path d="M57.7477,32.6093 L46.1137,32.6093 C45.0087,32.6093 44.1137,33.5043 44.1137,34.6093 L44.1137,35.8013 C44.1137,34.6963 45.0087,33.8013 46.1137,33.8013 L57.7477,33.8013 C58.8527,33.8013 59.7477,34.6963 59.7477,35.8013 L59.7477,34.6093 C59.7477,33.5043 58.8527,32.6093 57.7477,32.6093" id="Fill-36" fill="#FFFFFF" mask="url(#mask-10)"></path>
                <path d="M57.7477,50.085 L46.1137,50.085 C45.0087,50.085 44.1137,49.19 44.1137,48.085 L44.1137,46.893 C44.1137,47.998 45.0087,48.893 46.1137,48.893 L57.7477,48.893 C58.8527,48.893 59.7477,47.998 59.7477,46.893 L59.7477,48.085 C59.7477,49.19 58.8527,50.085 57.7477,50.085" id="Fill-37" fill="#AD9277" mask="url(#mask-10)"></path>
                <polygon id="Fill-38" fill="#F9EDDC" mask="url(#mask-10)" points="44.114 46.235 59.748 46.235 59.748 45.924 44.114 45.924"></polygon>
                <path d="M26.9668,40.1175 L14.9318,40.1175 C14.2208,40.1175 13.6438,39.5415 13.6438,38.8295 L13.6438,38.8295 C13.6438,38.1185 14.2208,37.5425 14.9318,37.5425 L26.9668,37.5425 C27.6778,37.5425 28.2548,38.1185 28.2548,38.8295 L28.2548,38.8295 C28.2548,39.5415 27.6778,40.1175 26.9668,40.1175" id="Fill-39" fill="#FFFFFF" mask="url(#mask-10)"></path>
                <path d="M26.9668,39.8035 L14.9318,39.8035 C14.2208,39.8035 13.6438,39.2275 13.6438,38.5155 L13.6438,38.5155 C13.6438,37.8045 14.2208,37.2285 14.9318,37.2285 L26.9668,37.2285 C27.6778,37.2285 28.2548,37.8045 28.2548,38.5155 L28.2548,38.5155 C28.2548,39.2275 27.6778,39.8035 26.9668,39.8035" id="Fill-40" fill="#DBC6AD" mask="url(#mask-10)"></path>
                <path d="M39.0614,42.776 L33.0324,42.776 C31.2354,42.776 29.7654,41.306 29.7654,39.509 L29.7654,39.509 C29.7654,37.711 31.2354,36.241 33.0324,36.241 L39.0614,36.241 C40.8584,36.241 42.3284,37.711 42.3284,39.509 L42.3284,39.509 C42.3284,41.306 40.8584,42.776 39.0614,42.776" id="Fill-41" fill="#DBC6AD" mask="url(#mask-10)"></path>
                <path d="M27.3069,42.776 L27.0749,42.776 C26.6179,42.776 26.2429,42.402 26.2429,41.945 L26.2429,41.945 C26.2429,41.488 26.6179,41.113 27.0749,41.113 L27.3069,41.113 C27.7639,41.113 28.1379,41.488 28.1379,41.945 L28.1379,41.945 C28.1379,42.402 27.7639,42.776 27.3069,42.776" id="Fill-42" fill="#CCB193" mask="url(#mask-10)"></path>
                <path d="M38.9478,30.4583 L38.4058,30.4583 C38.1238,30.4583 37.8918,30.2273 37.8918,29.9443 L37.8918,29.9443 C37.8918,29.6613 38.1238,29.4303 38.4058,29.4303 L38.9478,29.4303 C39.2308,29.4303 39.4618,29.6613 39.4618,29.9443 L39.4618,29.9443 C39.4618,30.2273 39.2308,30.4583 38.9478,30.4583" id="Fill-43" fill="#CCB193" mask="url(#mask-10)"></path>
                <path d="M5.0062,49.1983 L3.1582,49.1983 C2.6062,49.1983 2.1582,48.7503 2.1582,48.1983 L2.1582,46.3503 C2.1582,45.7983 2.6062,45.3503 3.1582,45.3503 L5.0062,45.3503 C5.5582,45.3503 6.0062,45.7983 6.0062,46.3503 L6.0062,48.1983 C6.0062,48.7503 5.5582,49.1983 5.0062,49.1983" id="Fill-44" fill="#CCB193" mask="url(#mask-10)"></path>
                <path d="M5.0062,45.3501 L3.1582,45.3501 C2.6062,45.3501 2.1582,45.7981 2.1582,46.3501 L2.1582,46.8141 C2.1582,46.2621 2.6062,45.8141 3.1582,45.8141 L5.0062,45.8141 C5.5582,45.8141 6.0062,46.2621 6.0062,46.8141 L6.0062,46.3501 C6.0062,45.7981 5.5582,45.3501 5.0062,45.3501" id="Fill-45" fill="#F9EDDC" mask="url(#mask-10)"></path>
                <path d="M9.592,49.1983 L7.744,49.1983 C7.192,49.1983 6.744,48.7503 6.744,48.1983 L6.744,46.3503 C6.744,45.7983 7.192,45.3503 7.744,45.3503 L9.592,45.3503 C10.144,45.3503 10.592,45.7983 10.592,46.3503 L10.592,48.1983 C10.592,48.7503 10.144,49.1983 9.592,49.1983" id="Fill-46" fill="#CCB193" mask="url(#mask-10)"></path>
                <path d="M9.5919,45.3501 L7.7439,45.3501 C7.1919,45.3501 6.7439,45.7981 6.7439,46.3501 L6.7439,46.8141 C6.7439,46.2621 7.1919,45.8141 7.7439,45.8141 L9.5919,45.8141 C10.1439,45.8141 10.5919,46.2621 10.5919,46.8141 L10.5919,46.3501 C10.5919,45.7981 10.1439,45.3501 9.5919,45.3501" id="Fill-47" fill="#F9EDDC" mask="url(#mask-10)"></path>
                <path d="M24.0294,49.1983 L22.1814,49.1983 C21.6294,49.1983 21.1814,48.7503 21.1814,48.1983 L21.1814,46.3503 C21.1814,45.7983 21.6294,45.3503 22.1814,45.3503 L24.0294,45.3503 C24.5814,45.3503 25.0294,45.7983 25.0294,46.3503 L25.0294,48.1983 C25.0294,48.7503 24.5814,49.1983 24.0294,49.1983" id="Fill-48" fill="#CCB193" mask="url(#mask-10)"></path>
                <path d="M24.0294,45.3501 L22.1814,45.3501 C21.6294,45.3501 21.1814,45.7981 21.1814,46.3501 L21.1814,46.8141 C21.1814,46.2621 21.6294,45.8141 22.1814,45.8141 L24.0294,45.8141 C24.5814,45.8141 25.0294,46.2621 25.0294,46.8141 L25.0294,46.3501 C25.0294,45.7981 24.5814,45.3501 24.0294,45.3501" id="Fill-49" fill="#F9EDDC" mask="url(#mask-10)"></path>
                <path d="M29.8967,49.1983 L28.0487,49.1983 C27.4967,49.1983 27.0487,48.7503 27.0487,48.1983 L27.0487,46.3503 C27.0487,45.7983 27.4967,45.3503 28.0487,45.3503 L29.8967,45.3503 C30.4487,45.3503 30.8967,45.7983 30.8967,46.3503 L30.8967,48.1983 C30.8967,48.7503 30.4487,49.1983 29.8967,49.1983" id="Fill-50" fill="#CCB193" mask="url(#mask-10)"></path>
                <path d="M29.8967,45.3501 L28.0487,45.3501 C27.4967,45.3501 27.0487,45.7981 27.0487,46.3501 L27.0487,46.8141 C27.0487,46.2621 27.4967,45.8141 28.0487,45.8141 L29.8967,45.8141 C30.4487,45.8141 30.8967,46.2621 30.8967,46.8141 L30.8967,46.3501 C30.8967,45.7981 30.4487,45.3501 29.8967,45.3501" id="Fill-51" fill="#F9EDDC" mask="url(#mask-10)"></path>
                <path d="M35.3946,49.1983 L33.5466,49.1983 C32.9946,49.1983 32.5466,48.7503 32.5466,48.1983 L32.5466,46.3503 C32.5466,45.7983 32.9946,45.3503 33.5466,45.3503 L35.3946,45.3503 C35.9466,45.3503 36.3946,45.7983 36.3946,46.3503 L36.3946,48.1983 C36.3946,48.7503 35.9466,49.1983 35.3946,49.1983" id="Fill-52" fill="#CCB193" mask="url(#mask-10)"></path>
                <path d="M35.3946,45.3501 L33.5466,45.3501 C32.9946,45.3501 32.5466,45.7981 32.5466,46.3501 L32.5466,46.8141 C32.5466,46.2621 32.9946,45.8141 33.5466,45.8141 L35.3946,45.8141 C35.9466,45.8141 36.3946,46.2621 36.3946,46.8141 L36.3946,46.3501 C36.3946,45.7981 35.9466,45.3501 35.3946,45.3501" id="Fill-53" fill="#F9EDDC" mask="url(#mask-10)"></path>
                <path d="M19.288,49.1983 L12.44,49.1983 C11.888,49.1983 11.44,48.7503 11.44,48.1983 L11.44,46.3503 C11.44,45.7983 11.888,45.3503 12.44,45.3503 L19.288,45.3503 C19.84,45.3503 20.288,45.7983 20.288,46.3503 L20.288,48.1983 C20.288,48.7503 19.84,49.1983 19.288,49.1983" id="Fill-54" fill="#CCB193" mask="url(#mask-10)"></path>
                <path d="M19.288,45.3501 L12.44,45.3501 C11.888,45.3501 11.44,45.7981 11.44,46.3501 L11.44,46.8141 C11.44,46.2621 11.888,45.8141 12.44,45.8141 L19.288,45.8141 C19.84,45.8141 20.288,46.2621 20.288,46.8141 L20.288,46.3501 C20.288,45.7981 19.84,45.3501 19.288,45.3501" id="Fill-55" fill="#F9EDDC" mask="url(#mask-10)"></path>
                <path d="M30.6584,50.8689 L1.0004,50.8689 C0.4474,50.8689 0.0004,50.4209 0.0004,49.8689 L0.0004,47.4909 C0.0004,46.9379 0.4474,46.4909 1.0004,46.4909 L30.6584,46.4909 C31.2104,46.4909 31.6584,46.9379 31.6584,47.4909 L31.6584,49.8689 C31.6584,50.4209 31.2104,50.8689 30.6584,50.8689" id="Fill-56" fill="#DBC6AD" mask="url(#mask-10)"></path>
                <path d="M30.6584,46.4906 L1.0004,46.4906 C0.4474,46.4906 0.0004,46.9386 0.0004,47.4906 L0.0004,48.2116 C0.0004,47.6596 0.4474,47.2116 1.0004,47.2116 L30.6584,47.2116 C31.2104,47.2116 31.6584,47.6596 31.6584,48.2116 L31.6584,47.4906 C31.6584,46.9386 31.2104,46.4906 30.6584,46.4906" id="Fill-57" fill="#FFFFFF" mask="url(#mask-10)"></path>
                <path d="M30.6584,50.968 L1.0004,50.968 C0.4474,50.968 0.0004,50.52 0.0004,49.968 L0.0004,49.247 C0.0004,49.799 0.4474,50.247 1.0004,50.247 L30.6584,50.247 C31.2104,50.247 31.6584,49.799 31.6584,49.247 L31.6584,49.968 C31.6584,50.52 31.2104,50.968 30.6584,50.968" id="Fill-58" fill="#AD9277" mask="url(#mask-10)"></path>
                <path d="M38.2261,50.8689 L24.5921,50.8689 C24.0401,50.8689 23.5921,50.4209 23.5921,49.8689 L23.5921,47.4909 C23.5921,46.9379 24.0401,46.4909 24.5921,46.4909 L38.2261,46.4909 C38.7781,46.4909 39.2261,46.9379 39.2261,47.4909 L39.2261,49.8689 C39.2261,50.4209 38.7781,50.8689 38.2261,50.8689" id="Fill-59" fill="#CCB193" mask="url(#mask-10)"></path>
                <path d="M38.2261,46.4906 L24.5921,46.4906 C24.0401,46.4906 23.5921,46.9386 23.5921,47.4906 L23.5921,48.0576 C23.5921,47.5056 24.0401,47.0576 24.5921,47.0576 L38.2261,47.0576 C38.7781,47.0576 39.2261,47.5056 39.2261,48.0576 L39.2261,47.4906 C39.2261,46.9386 38.7781,46.4906 38.2261,46.4906" id="Fill-60" fill="#F9EDDC" mask="url(#mask-10)"></path>
                <path d="M38.2261,50.968 L24.5921,50.968 C24.0401,50.968 23.5921,50.52 23.5921,49.968 L23.5921,49.401 C23.5921,49.953 24.0401,50.401 24.5921,50.401 L38.2261,50.401 C38.7781,50.401 39.2261,49.953 39.2261,49.401 L39.2261,49.968 C39.2261,50.52 38.7781,50.968 38.2261,50.968" id="Fill-61" fill="#AD9277" mask="url(#mask-10)"></path>
                <path d="M49.7647,49.9197 L58.5687,49.9197 L58.5687,45.1857 L52.3727,45.1857 C50.3457,45.1857 48.7017,46.8297 48.7017,48.8567 L48.7017,48.8567 C48.7017,49.4437 49.1777,49.9197 49.7647,49.9197" id="Fill-62" fill="#F9EDDC" mask="url(#mask-10)"></path>
                <path d="M52.3726,45.1858 C50.3456,45.1858 48.7016,46.8298 48.7016,48.8568 C48.7016,48.9428 48.7316,49.0188 48.7506,49.0988 C48.9906,47.3028 50.5116,45.9128 52.3726,45.9128 L58.5686,45.9128 L58.5686,45.1858 L52.3726,45.1858 Z" id="Fill-63" fill="#FFFFFF" mask="url(#mask-10)"></path>
                <path d="M55.7293,49.9197 L63.4703,49.9197 C64.0573,49.9197 64.5333,49.4437 64.5333,48.8567 L64.5333,46.2487 C64.5333,45.6617 64.0573,45.1857 63.4703,45.1857 L58.3373,45.1857 C56.3103,45.1857 54.6663,46.8297 54.6663,48.8567 L54.6663,48.8567 C54.6663,49.4437 55.1423,49.9197 55.7293,49.9197" id="Fill-64" fill="#DBC6AD" mask="url(#mask-10)"></path>
                <path d="M63.4703,49.2797 L49.7643,49.2897 C49.2523,49.2897 48.8443,48.9197 48.7443,48.4367 C48.7283,48.5757 48.7013,48.7127 48.7013,48.8567 C48.7013,49.4437 49.1773,49.9197 49.7643,49.9197 L63.4703,49.9197 C64.0573,49.9197 64.5333,49.4437 64.5333,48.8567 L64.5333,48.2167 C64.5333,48.8037 64.0573,49.2797 63.4703,49.2797" id="Fill-65" fill="#AD9277" mask="url(#mask-10)"></path>
                <path d="M63.4703,45.1858 L58.3373,45.1858 C56.3103,45.1858 54.6663,46.8298 54.6663,48.8568 C54.6663,48.9388 54.6953,49.0108 54.7133,49.0878 C54.9433,47.2818 56.4683,45.8798 58.3373,45.8798 L63.4703,45.8798 C64.0573,45.8798 64.5333,46.3558 64.5333,46.9428 L64.5333,46.2488 C64.5333,45.6618 64.0573,45.1858 63.4703,45.1858" id="Fill-66" fill="#FFF4E6" mask="url(#mask-10)"></path>
                <path d="M67.1792,50.9297 L46.2302,50.9297 C45.9512,50.9297 45.7252,50.7037 45.7252,50.4247 L45.7252,50.4247 C45.7252,50.1457 45.9512,49.9197 46.2302,49.9197 L67.1792,49.9197 C67.4582,49.9197 67.6842,50.1457 67.6842,50.4247 L67.6842,50.4247 C67.6842,50.7037 67.4582,50.9297 67.1792,50.9297" id="Fill-67" fill="#D1D1D1" mask="url(#mask-10)"></path>
                <path d="M67.1792,50.9297 L59.2302,50.9297 C58.9512,50.9297 58.7252,50.7037 58.7252,50.4247 L58.7252,50.4247 C58.7252,50.1457 58.9512,49.9197 59.2302,49.9197 L67.1792,49.9197 C67.4582,49.9197 67.6842,50.1457 67.6842,50.4247 L67.6842,50.4247 C67.6842,50.7037 67.4582,50.9297 67.1792,50.9297" id="Fill-68" fill="#666666" mask="url(#mask-10)"></path>
                <path d="M39.4619,16.0348 C32.8659,22.6308 23.2769,10.5458 17.7889,16.0348 L17.7889,4.7598 C17.7889,4.2518 18.1999,3.8408 18.7069,3.8408 L38.5429,3.8408 C39.0509,3.8408 39.4619,4.2518 39.4619,4.7598 L39.4619,16.0348 Z" id="Fill-69" fill="#233F37" mask="url(#mask-10)"></path>
                <path d="M17.7884,5.328 L17.7884,25.053 C17.7884,25.589 18.2264,26.027 18.7624,26.027 L20.1024,26.027 C19.5674,26.027 19.1284,25.589 19.1284,25.053 L19.1284,5.328 C19.1284,4.792 19.5674,4.354 20.1024,4.354 L18.7624,4.354 C18.2264,4.354 17.7884,4.792 17.7884,5.328" id="Fill-70" fill="#162625" mask="url(#mask-10)"></path>
                <path d="M39.4451,5.328 L39.4451,25.053 C39.4451,25.589 39.0071,26.027 38.4711,26.027 L37.1311,26.027 C37.6661,26.027 38.1051,25.589 38.1051,25.053 L38.1051,5.328 C38.1051,4.792 37.6661,4.354 37.1311,4.354 L38.4711,4.354 C39.0071,4.354 39.4451,4.792 39.4451,5.328" id="Fill-71" fill="#233F37" mask="url(#mask-10)"></path>
                <path d="M38.4877,26.5403 L18.7627,26.5403 C18.2267,26.5403 17.7887,26.1023 17.7887,25.5663 L17.7887,24.2263 C17.7887,24.7613 18.2267,25.2003 18.7627,25.2003 L38.4877,25.2003 C39.0237,25.2003 39.4617,24.7613 39.4617,24.2263 L39.4617,25.5663 C39.4617,26.1023 39.0237,26.5403 38.4877,26.5403" id="Fill-72" fill="#233F37" mask="url(#mask-10)"></path>
                <path d="M38.4877,3.8409 L18.7627,3.8409 C18.2267,3.8409 17.7887,4.2789 17.7887,4.8149 L17.7887,6.1549 C17.7887,5.6199 18.2267,5.1809 18.7627,5.1809 L38.4877,5.1809 C39.0237,5.1809 39.4617,5.6199 39.4617,6.1549 L39.4617,4.8149 C39.4617,4.2789 39.0237,3.8409 38.4877,3.8409" id="Fill-73" fill="#162625" mask="url(#mask-10)"></path>
                <g id="Group-76" mask="url(#mask-10)" fill="#BDCCD4" opacity="0.209519159">
                    <g transform="translate(19.667800, 5.770000)" id="Fill-74">
                        <path d="M1.745,11.222 L1.745,11.222 C0.785,11.222 0,10.437 0,9.477 L0,1.745 C0,0.785 0.785,0 1.745,0 L1.745,0 C2.705,0 3.49,0.785 3.49,1.745 L3.49,9.477 C3.49,10.437 2.705,11.222 1.745,11.222" style="mix-blend-mode: hard-light;"></path>
                    </g>
                </g>
                <path d="M30.3663,17.7708 C29.4783,17.7708 28.7593,17.0508 28.7593,16.1638 L31.9733,16.1638 C31.9733,17.0508 31.2543,17.7708 30.3663,17.7708 L30.3663,17.7708 Z M28.6953,19.6778 C28.4433,19.6778 28.2333,19.4978 28.1863,19.2598 L28.1663,19.2598 C28.1183,19.4978 27.9093,19.6778 27.6573,19.6778 C27.3703,19.6778 27.1373,19.4448 27.1373,19.1578 C27.1373,18.6768 28.1763,17.6758 28.1763,17.6758 C28.1763,17.6758 29.2143,18.7338 29.2143,19.1578 C29.2143,19.4448 28.9823,19.6778 28.6953,19.6778 L28.6953,19.6778 Z M25.9233,17.7708 C25.0353,17.7708 24.3153,17.0508 24.3153,16.1638 L27.5303,16.1638 C27.5303,17.0508 26.8103,17.7708 25.9233,17.7708 L25.9233,17.7708 Z M34.0253,14.5868 C34.0223,11.8368 31.7923,9.6088 29.0423,9.6088 L28.2083,9.6088 C25.4583,9.6088 23.2273,11.8368 23.2243,14.5868 L23.2203,17.7668 C23.2203,18.9788 24.2033,19.9608 25.4143,19.9608 L25.9363,19.9608 L25.9363,21.1028 C25.9363,21.4118 26.1863,21.6618 26.4953,21.6618 L29.8563,21.6618 C30.1653,21.6618 30.4163,21.4118 30.4163,21.1028 L30.4163,19.9608 L31.8353,19.9608 C33.0473,19.9608 34.0303,18.9788 34.0303,17.7668 L34.0253,14.5868 Z" id="Fill-77" fill="#49C69F" mask="url(#mask-10)"></path>
            </g>
        </g>
    </g>
</svg>