<?xml version="1.0" encoding="UTF-8"?>
<svg width="70px" height="70px" viewBox="0 0 70 70" version="1.1" xmlns="http://www.w3.org/2000/svg" xmlns:xlink="http://www.w3.org/1999/xlink">
    <title>ui</title>
    <g id="ui" stroke="none" stroke-width="1" fill="none" fill-rule="evenodd">
        <rect id="Rectangle-Copy-5" fill="#269183" x="3" y="3" width="64" height="64" rx="4"></rect>
        <rect id="Rectangle-Copy-6" fill="#0A2028" x="8" y="15" width="54" height="48" rx="2"></rect>
        <circle id="Oval-Copy-7" fill="#131415" cx="10" cy="10" r="2"></circle>
        <circle id="Oval-Copy-8" fill="#131415" cx="16" cy="10" r="2"></circle>
        <g id="Group-11-Copy" transform="translate(20.000000, 21.000000)" stroke="#269183" stroke-linecap="round" stroke-linejoin="round" stroke-width="1.62">
            <polygon id="Stroke-1" points="2.1511575 10.1650545 2.1511575 25.5894795 15.5088675 33.3014895 28.8669825 25.5894795 28.8669825 10.1650545 15.5088675 2.4526395"></polygon>
            <polygon id="Stroke-2" points="6.2763255 12.5463735 6.2763255 23.2075935 15.5091105 28.5382035 24.7418955 23.2075935 24.7418955 12.5463735 15.5091105 7.2157635"></polygon>
            <polygon id="Stroke-3" points="10.443006 14.952276 10.443006 20.801691 15.509151 23.727006 20.575296 20.801691 20.575296 14.952276 15.509151 12.027366"></polygon>
            <line x1="15.50907" y1="0.202581" x2="15.50907" y2="35.551386" id="Stroke-4"></line>
            <line x1="0.2025" y1="9.0398025" x2="30.81564" y2="26.7144075" id="Stroke-6"></line>
            <line x1="0.2025" y1="26.714286" x2="30.81564" y2="9.039681" id="Stroke-8"></line>
        </g>
    </g>
</svg>