<svg width="558" height="368" viewBox="0 0 558 368" fill="none" xmlns="http://www.w3.org/2000/svg">
<path d="M530.216 367C470.237 325.962 383.82 233.312 416.643 151.76C438.014 98.6606 512.081 118.054 538.459 146.905C564.838 175.757 561.54 224.392 530.216 246.649C473.457 286.977 416.843 250.263 368.832 218.805C304.155 176.427 192.736 134.994 132.296 208.043C102.972 243.486 122.93 304.969 172.322 305.679C245.136 306.727 288.317 218.388 273.851 154.782C260.182 94.6768 204.962 54.3899 151.256 31.5458C103.886 11.3966 52.4005 1 0.999878 1" stroke="url(#paint0_linear_645_6)" stroke-width="2" stroke-linecap="round"/>
<defs>
<linearGradient id="paint0_linear_645_6" x1="0.999878" y1="184" x2="556.192" y2="184" gradientUnits="userSpaceOnUse">
<stop stop-color="#FF3232"/>
<stop offset="0.575" stop-color="#FFA901"/>
<stop offset="1" stop-color="#0696FF"/>
</linearGradient>
</defs>
</svg>
