<svg width="120" height="120" viewBox="0 0 120 120" fill="none" xmlns="http://www.w3.org/2000/svg">
<circle cx="60" cy="60" r="58" fill="#282828"/>
<path d="M41.0172 95.1636C41.9224 90.0037 44.8192 85.7491 48.1685 85.7491H57.6735V47.2766L31.5122 23.1974V36.3233L45.0002 47.9103H32.4174V85.7491C35.4047 86.2018 40.3835 89.5511 41.0172 95.1636ZM42.4656 75.6105V48.6345C46.3581 48.725 47.6254 51.8933 47.6254 57.0532V85.206C44.276 84.2102 42.4656 79.8651 42.4656 75.6105Z" fill="white"/>
<path d="M70.322 95.1636C71.2273 90.0037 73.2188 85.9302 77.6545 86.1112C81.9996 86.2923 84.8058 90.3658 85.8016 95.1636C86.7068 89.4606 89.1509 87.0165 92.8624 85.7491C89.332 84.4818 87.612 80.7704 87.612 76.7873V47.9103C83.8101 46.3714 80.5512 42.4789 79.9175 38.1338C79.1028 42.4789 75.4819 47.9103 71.4083 47.9103H62.7181V54.247C64.9812 54.247 71.2273 55.4238 71.2273 58.9542C71.2273 63.4804 66.0674 65.9245 62.7181 66.8297V85.7491C65.5243 86.1112 69.4168 89.189 70.322 95.1636ZM72.4946 57.0532V48.544C76.4776 48.544 77.6545 52.4365 77.6545 57.0532V66.4676C74.2146 64.9287 72.4946 61.7604 72.4946 57.0532ZM72.5851 76.7873V75.6105C72.5851 71.718 74.2146 68.7307 77.6545 67.3729V85.4776C74.4861 84.2102 72.5851 82.0377 72.5851 76.7873Z" fill="white"/>
</svg>
