<svg width="41" height="39" viewBox="0 0 41 39" fill="none" xmlns="http://www.w3.org/2000/svg">
<g clip-path="url(#clip0_432_208)">
<path d="M25.8032 0C17.4281 0 10.6384 6.78974 10.6384 15.1648V28.307C10.6384 33.6152 6.73507 37.6497 0 38.9453L30.1657 39C36.1354 39 40.968 34.1619 40.968 28.1976V15.1703C40.968 6.78974 34.1783 0 25.8032 0Z" fill="#DEDED6"/>
<path d="M26.1091 15.6459C26.1091 17.1984 24.8517 18.4558 23.2992 18.4558C21.7466 18.4558 20.4893 17.1984 20.4893 15.6459C20.4893 14.0933 21.7466 12.8359 23.2992 12.8359C24.8517 12.8359 26.1091 14.0933 26.1091 15.6459ZM33.4237 12.8359C31.8711 12.8359 30.6137 14.0933 30.6137 15.6459C30.6137 17.1984 31.8711 18.4558 33.4237 18.4558C34.9762 18.4558 36.2336 17.1984 36.2336 15.6459C36.2336 14.0933 34.9762 12.8359 33.4237 12.8359Z" fill="#1B1B1F"/>
</g>
<defs>
<clipPath id="clip0_432_208">
<rect width="40.968" height="39" fill="white"/>
</clipPath>
</defs>
</svg>
