<svg width="35" height="35" viewBox="0 0 35 35" fill="none" xmlns="http://www.w3.org/2000/svg">
<g clip-path="url(#clip0_266_61)">
<g clip-path="url(#clip1_266_61)">
<path fill-rule="evenodd" clip-rule="evenodd" d="M9.0886 14.9557C9.0886 7.80064 14.8892 2 22.0443 2C29.1994 2 35 7.80064 35 14.9604V26.0899C35 31.1853 30.8714 35.3187 25.7713 35.3187L0 35.2719C5.75394 34.1651 9.0886 30.7183 9.0886 26.1833V14.9557ZM19.9055 17.7675C21.2319 17.7675 22.3061 16.6933 22.3061 15.3669C22.3061 14.0405 21.2319 12.9663 19.9055 12.9663C18.5791 12.9663 17.5049 14.0405 17.5049 15.3669C17.5049 16.6933 18.5791 17.7675 19.9055 17.7675ZM26.1545 15.3669C26.1545 14.0405 27.2287 12.9663 28.5551 12.9663C29.8815 12.9663 30.9556 14.0405 30.9556 15.3669C30.9556 16.6933 29.8815 17.7675 28.5551 17.7675C27.2287 17.7675 26.1545 16.6933 26.1545 15.3669Z" fill="white"/>
</g>
</g>
<defs>
<clipPath id="clip0_266_61">
<rect width="35" height="35" fill="white"/>
</clipPath>
<clipPath id="clip1_266_61">
<rect width="35" height="33.3187" fill="white" transform="translate(0 2)"/>
</clipPath>
</defs>
</svg>
